G04 Layer: TopPasteMaskLayer*
G04 EasyEDA v6.4.25, 2021-12-08T03:09:09--6:00*
G04 48628cf13e884b4a84c238f375de5553,06444aca9169495d970130cf6b44ba93,10*
G04 Gerber Generator version 0.2*
G04 Scale: 100 percent, Rotated: No, Reflected: No *
G04 Dimensions in millimeters *
G04 leading zeros omitted , absolute positions ,4 integer and 5 decimal *
%FSLAX45Y45*%
%MOMM*%

%ADD12C,0.6000*%
%ADD15R,2.0000X0.3500*%
%ADD16R,2.4003X0.8001*%
%ADD17R,0.4572X1.3081*%

%LPD*%
D12*
X3162300Y-4573579D02*
G01*
X3162300Y-4453580D01*
X3289300Y-4573579D02*
G01*
X3289300Y-4453580D01*
X3416300Y-4573579D02*
G01*
X3416300Y-4453580D01*
X3543300Y-4573579D02*
G01*
X3543300Y-4453580D01*
X3670300Y-4573579D02*
G01*
X3670300Y-4453580D01*
X3797300Y-4573579D02*
G01*
X3797300Y-4453580D01*
X3924300Y-4573579D02*
G01*
X3924300Y-4453580D01*
X3162300Y-3953819D02*
G01*
X3162300Y-3833820D01*
X3289300Y-3953819D02*
G01*
X3289300Y-3833820D01*
X3416300Y-3953819D02*
G01*
X3416300Y-3833820D01*
X3543300Y-3953819D02*
G01*
X3543300Y-3833820D01*
X3670300Y-3953819D02*
G01*
X3670300Y-3833820D01*
X3797300Y-3953819D02*
G01*
X3797300Y-3833820D01*
X3924300Y-3953819D02*
G01*
X3924300Y-3833820D01*
X647725Y-7672379D02*
G01*
X647725Y-7552380D01*
X774725Y-7672379D02*
G01*
X774725Y-7552380D01*
X901725Y-7672379D02*
G01*
X901725Y-7552380D01*
X1028725Y-7672379D02*
G01*
X1028725Y-7552380D01*
X1155725Y-7672379D02*
G01*
X1155725Y-7552380D01*
X1282725Y-7672379D02*
G01*
X1282725Y-7552380D01*
X1409725Y-7672379D02*
G01*
X1409725Y-7552380D01*
X647725Y-7052619D02*
G01*
X647725Y-6932620D01*
X774725Y-7052619D02*
G01*
X774725Y-6932620D01*
X901725Y-7052619D02*
G01*
X901725Y-6932620D01*
X1028725Y-7052619D02*
G01*
X1028725Y-6932620D01*
X1155725Y-7052619D02*
G01*
X1155725Y-6932620D01*
X1282725Y-7052619D02*
G01*
X1282725Y-6932620D01*
X1409725Y-7052619D02*
G01*
X1409725Y-6932620D01*
X11938000Y-12193579D02*
G01*
X11938000Y-12073580D01*
X12065000Y-12193579D02*
G01*
X12065000Y-12073580D01*
X12192000Y-12193579D02*
G01*
X12192000Y-12073580D01*
X12319000Y-12193579D02*
G01*
X12319000Y-12073580D01*
X12446000Y-12193579D02*
G01*
X12446000Y-12073580D01*
X12573000Y-12193579D02*
G01*
X12573000Y-12073580D01*
X12700000Y-12193579D02*
G01*
X12700000Y-12073580D01*
X11938000Y-11573819D02*
G01*
X11938000Y-11453820D01*
X12065000Y-11573819D02*
G01*
X12065000Y-11453820D01*
X12192000Y-11573819D02*
G01*
X12192000Y-11453820D01*
X12319000Y-11573819D02*
G01*
X12319000Y-11453820D01*
X12446000Y-11573819D02*
G01*
X12446000Y-11453820D01*
X12573000Y-11573819D02*
G01*
X12573000Y-11453820D01*
X12700000Y-11573819D02*
G01*
X12700000Y-11453820D01*
X3536711Y-14528800D02*
G01*
X3706710Y-14528800D01*
X3536711Y-14655800D02*
G01*
X3706710Y-14655800D01*
X3536711Y-14782800D02*
G01*
X3706710Y-14782800D01*
X3536711Y-14909800D02*
G01*
X3706710Y-14909800D01*
X3536711Y-15036800D02*
G01*
X3706710Y-15036800D01*
X3536711Y-15163800D02*
G01*
X3706710Y-15163800D01*
X3536711Y-15290800D02*
G01*
X3706710Y-15290800D01*
X3536711Y-15417800D02*
G01*
X3706710Y-15417800D01*
X3536711Y-15544800D02*
G01*
X3706710Y-15544800D01*
X3536711Y-15671800D02*
G01*
X3706710Y-15671800D01*
X4446689Y-14528800D02*
G01*
X4616688Y-14528800D01*
X4446689Y-14655800D02*
G01*
X4616688Y-14655800D01*
X4446689Y-14782800D02*
G01*
X4616688Y-14782800D01*
X4446689Y-14909800D02*
G01*
X4616688Y-14909800D01*
X4446689Y-15036800D02*
G01*
X4616688Y-15036800D01*
X4446689Y-15163800D02*
G01*
X4616688Y-15163800D01*
X4446689Y-15290800D02*
G01*
X4616688Y-15290800D01*
X4446689Y-15417800D02*
G01*
X4616688Y-15417800D01*
X4446689Y-15544800D02*
G01*
X4616688Y-15544800D01*
X4446689Y-15671800D02*
G01*
X4616688Y-15671800D01*
X9454911Y-12128500D02*
G01*
X9624910Y-12128500D01*
X9454911Y-12255500D02*
G01*
X9624910Y-12255500D01*
X9454911Y-12382500D02*
G01*
X9624910Y-12382500D01*
X9454911Y-12509500D02*
G01*
X9624910Y-12509500D01*
X9454911Y-12636500D02*
G01*
X9624910Y-12636500D01*
X9454911Y-12763500D02*
G01*
X9624910Y-12763500D01*
X9454911Y-12890500D02*
G01*
X9624910Y-12890500D01*
X9454911Y-13017500D02*
G01*
X9624910Y-13017500D01*
X9454911Y-13144500D02*
G01*
X9624910Y-13144500D01*
X9454911Y-13271500D02*
G01*
X9624910Y-13271500D01*
X10364889Y-12128500D02*
G01*
X10534888Y-12128500D01*
X10364889Y-12255500D02*
G01*
X10534888Y-12255500D01*
X10364889Y-12382500D02*
G01*
X10534888Y-12382500D01*
X10364889Y-12509500D02*
G01*
X10534888Y-12509500D01*
X10364889Y-12636500D02*
G01*
X10534888Y-12636500D01*
X10364889Y-12763500D02*
G01*
X10534888Y-12763500D01*
X10364889Y-12890500D02*
G01*
X10534888Y-12890500D01*
X10364889Y-13017500D02*
G01*
X10534888Y-13017500D01*
X10364889Y-13144500D02*
G01*
X10534888Y-13144500D01*
X10364889Y-13271500D02*
G01*
X10534888Y-13271500D01*
X6711711Y-14859000D02*
G01*
X6881710Y-14859000D01*
X6711711Y-14986000D02*
G01*
X6881710Y-14986000D01*
X6711711Y-15113000D02*
G01*
X6881710Y-15113000D01*
X6711711Y-15240000D02*
G01*
X6881710Y-15240000D01*
X6711711Y-15367000D02*
G01*
X6881710Y-15367000D01*
X6711711Y-15494000D02*
G01*
X6881710Y-15494000D01*
X6711711Y-15621000D02*
G01*
X6881710Y-15621000D01*
X6711711Y-15748000D02*
G01*
X6881710Y-15748000D01*
X6711711Y-15875000D02*
G01*
X6881710Y-15875000D01*
X6711711Y-16002000D02*
G01*
X6881710Y-16002000D01*
X7621689Y-14859000D02*
G01*
X7791688Y-14859000D01*
X7621689Y-14986000D02*
G01*
X7791688Y-14986000D01*
X7621689Y-15113000D02*
G01*
X7791688Y-15113000D01*
X7621689Y-15240000D02*
G01*
X7791688Y-15240000D01*
X7621689Y-15367000D02*
G01*
X7791688Y-15367000D01*
X7621689Y-15494000D02*
G01*
X7791688Y-15494000D01*
X7621689Y-15621000D02*
G01*
X7791688Y-15621000D01*
X7621689Y-15748000D02*
G01*
X7791688Y-15748000D01*
X7621689Y-15875000D02*
G01*
X7791688Y-15875000D01*
X7621689Y-16002000D02*
G01*
X7791688Y-16002000D01*
X9200911Y-14109700D02*
G01*
X9370910Y-14109700D01*
X9200911Y-14236700D02*
G01*
X9370910Y-14236700D01*
X9200911Y-14363700D02*
G01*
X9370910Y-14363700D01*
X9200911Y-14490700D02*
G01*
X9370910Y-14490700D01*
X9200911Y-14617700D02*
G01*
X9370910Y-14617700D01*
X9200911Y-14744700D02*
G01*
X9370910Y-14744700D01*
X9200911Y-14871700D02*
G01*
X9370910Y-14871700D01*
X9200911Y-14998700D02*
G01*
X9370910Y-14998700D01*
X9200911Y-15125700D02*
G01*
X9370910Y-15125700D01*
X9200911Y-15252700D02*
G01*
X9370910Y-15252700D01*
X10110889Y-14109700D02*
G01*
X10280888Y-14109700D01*
X10110889Y-14236700D02*
G01*
X10280888Y-14236700D01*
X10110889Y-14363700D02*
G01*
X10280888Y-14363700D01*
X10110889Y-14490700D02*
G01*
X10280888Y-14490700D01*
X10110889Y-14617700D02*
G01*
X10280888Y-14617700D01*
X10110889Y-14744700D02*
G01*
X10280888Y-14744700D01*
X10110889Y-14871700D02*
G01*
X10280888Y-14871700D01*
X10110889Y-14998700D02*
G01*
X10280888Y-14998700D01*
X10110889Y-15125700D02*
G01*
X10280888Y-15125700D01*
X10110889Y-15252700D02*
G01*
X10280888Y-15252700D01*
X24781941Y-2213919D02*
G01*
X24781941Y-2093920D01*
X24654941Y-2213919D02*
G01*
X24654941Y-2093920D01*
X24527941Y-2213919D02*
G01*
X24527941Y-2093920D01*
X24400941Y-2213919D02*
G01*
X24400941Y-2093920D01*
X24273941Y-2213919D02*
G01*
X24273941Y-2093920D01*
X24146941Y-2213919D02*
G01*
X24146941Y-2093920D01*
X24019941Y-2213919D02*
G01*
X24019941Y-2093920D01*
X23892941Y-2213919D02*
G01*
X23892941Y-2093920D01*
X24781941Y-2808279D02*
G01*
X24781941Y-2688280D01*
X24654941Y-2808279D02*
G01*
X24654941Y-2688280D01*
X24527941Y-2808279D02*
G01*
X24527941Y-2688280D01*
X24400941Y-2808279D02*
G01*
X24400941Y-2688280D01*
X24273941Y-2808279D02*
G01*
X24273941Y-2688280D01*
X24146941Y-2808279D02*
G01*
X24146941Y-2688280D01*
X24019941Y-2808279D02*
G01*
X24019941Y-2688280D01*
X23892941Y-2808279D02*
G01*
X23892941Y-2688280D01*
X23507700Y-2213919D02*
G01*
X23507700Y-2093920D01*
X23380700Y-2213919D02*
G01*
X23380700Y-2093920D01*
X23253700Y-2213919D02*
G01*
X23253700Y-2093920D01*
X23126700Y-2213919D02*
G01*
X23126700Y-2093920D01*
X22999700Y-2213919D02*
G01*
X22999700Y-2093920D01*
X22872700Y-2213919D02*
G01*
X22872700Y-2093920D01*
X22745700Y-2213919D02*
G01*
X22745700Y-2093920D01*
X22618700Y-2213919D02*
G01*
X22618700Y-2093920D01*
X23507700Y-2808279D02*
G01*
X23507700Y-2688280D01*
X23380700Y-2808279D02*
G01*
X23380700Y-2688280D01*
X23253700Y-2808279D02*
G01*
X23253700Y-2688280D01*
X23126700Y-2808279D02*
G01*
X23126700Y-2688280D01*
X22999700Y-2808279D02*
G01*
X22999700Y-2688280D01*
X22872700Y-2808279D02*
G01*
X22872700Y-2688280D01*
X22745700Y-2808279D02*
G01*
X22745700Y-2688280D01*
X22618700Y-2808279D02*
G01*
X22618700Y-2688280D01*
X27330400Y-2213919D02*
G01*
X27330400Y-2093920D01*
X27203400Y-2213919D02*
G01*
X27203400Y-2093920D01*
X27076400Y-2213919D02*
G01*
X27076400Y-2093920D01*
X26949400Y-2213919D02*
G01*
X26949400Y-2093920D01*
X26822400Y-2213919D02*
G01*
X26822400Y-2093920D01*
X26695400Y-2213919D02*
G01*
X26695400Y-2093920D01*
X26568400Y-2213919D02*
G01*
X26568400Y-2093920D01*
X26441400Y-2213919D02*
G01*
X26441400Y-2093920D01*
X27330400Y-2808279D02*
G01*
X27330400Y-2688280D01*
X27203400Y-2808279D02*
G01*
X27203400Y-2688280D01*
X27076400Y-2808279D02*
G01*
X27076400Y-2688280D01*
X26949400Y-2808279D02*
G01*
X26949400Y-2688280D01*
X26822400Y-2808279D02*
G01*
X26822400Y-2688280D01*
X26695400Y-2808279D02*
G01*
X26695400Y-2688280D01*
X26568400Y-2808279D02*
G01*
X26568400Y-2688280D01*
X26441400Y-2808279D02*
G01*
X26441400Y-2688280D01*
X26056158Y-2213919D02*
G01*
X26056158Y-2093920D01*
X25929158Y-2213919D02*
G01*
X25929158Y-2093920D01*
X25802158Y-2213919D02*
G01*
X25802158Y-2093920D01*
X25675158Y-2213919D02*
G01*
X25675158Y-2093920D01*
X25548158Y-2213919D02*
G01*
X25548158Y-2093920D01*
X25421158Y-2213919D02*
G01*
X25421158Y-2093920D01*
X25294158Y-2213919D02*
G01*
X25294158Y-2093920D01*
X25167158Y-2213919D02*
G01*
X25167158Y-2093920D01*
X26056158Y-2808279D02*
G01*
X26056158Y-2688280D01*
X25929158Y-2808279D02*
G01*
X25929158Y-2688280D01*
X25802158Y-2808279D02*
G01*
X25802158Y-2688280D01*
X25675158Y-2808279D02*
G01*
X25675158Y-2688280D01*
X25548158Y-2808279D02*
G01*
X25548158Y-2688280D01*
X25421158Y-2808279D02*
G01*
X25421158Y-2688280D01*
X25294158Y-2808279D02*
G01*
X25294158Y-2688280D01*
X25167158Y-2808279D02*
G01*
X25167158Y-2688280D01*
X19928103Y-11596679D02*
G01*
X19928103Y-11476680D01*
X20055103Y-11596679D02*
G01*
X20055103Y-11476680D01*
X20182103Y-11596679D02*
G01*
X20182103Y-11476680D01*
X20309103Y-11596679D02*
G01*
X20309103Y-11476680D01*
X20436103Y-11596679D02*
G01*
X20436103Y-11476680D01*
X20563103Y-11596679D02*
G01*
X20563103Y-11476680D01*
X20690103Y-11596679D02*
G01*
X20690103Y-11476680D01*
X19928103Y-10976919D02*
G01*
X19928103Y-10856920D01*
X20055103Y-10976919D02*
G01*
X20055103Y-10856920D01*
X20182103Y-10976919D02*
G01*
X20182103Y-10856920D01*
X20309103Y-10976919D02*
G01*
X20309103Y-10856920D01*
X20436103Y-10976919D02*
G01*
X20436103Y-10856920D01*
X20563103Y-10976919D02*
G01*
X20563103Y-10856920D01*
X20690103Y-10976919D02*
G01*
X20690103Y-10856920D01*
X21323300Y-11596679D02*
G01*
X21323300Y-11476680D01*
X21450300Y-11596679D02*
G01*
X21450300Y-11476680D01*
X21577300Y-11596679D02*
G01*
X21577300Y-11476680D01*
X21704300Y-11596679D02*
G01*
X21704300Y-11476680D01*
X21831300Y-11596679D02*
G01*
X21831300Y-11476680D01*
X21958300Y-11596679D02*
G01*
X21958300Y-11476680D01*
X22085300Y-11596679D02*
G01*
X22085300Y-11476680D01*
X21323300Y-10976919D02*
G01*
X21323300Y-10856920D01*
X21450300Y-10976919D02*
G01*
X21450300Y-10856920D01*
X21577300Y-10976919D02*
G01*
X21577300Y-10856920D01*
X21704300Y-10976919D02*
G01*
X21704300Y-10856920D01*
X21831300Y-10976919D02*
G01*
X21831300Y-10856920D01*
X21958300Y-10976919D02*
G01*
X21958300Y-10856920D01*
X22085300Y-10976919D02*
G01*
X22085300Y-10856920D01*
X22718496Y-11596679D02*
G01*
X22718496Y-11476680D01*
X22845496Y-11596679D02*
G01*
X22845496Y-11476680D01*
X22972496Y-11596679D02*
G01*
X22972496Y-11476680D01*
X23099496Y-11596679D02*
G01*
X23099496Y-11476680D01*
X23226496Y-11596679D02*
G01*
X23226496Y-11476680D01*
X23353496Y-11596679D02*
G01*
X23353496Y-11476680D01*
X23480496Y-11596679D02*
G01*
X23480496Y-11476680D01*
X22718496Y-10976919D02*
G01*
X22718496Y-10856920D01*
X22845496Y-10976919D02*
G01*
X22845496Y-10856920D01*
X22972496Y-10976919D02*
G01*
X22972496Y-10856920D01*
X23099496Y-10976919D02*
G01*
X23099496Y-10856920D01*
X23226496Y-10976919D02*
G01*
X23226496Y-10856920D01*
X23353496Y-10976919D02*
G01*
X23353496Y-10856920D01*
X23480496Y-10976919D02*
G01*
X23480496Y-10856920D01*
X24113667Y-11596679D02*
G01*
X24113667Y-11476680D01*
X24240667Y-11596679D02*
G01*
X24240667Y-11476680D01*
X24367667Y-11596679D02*
G01*
X24367667Y-11476680D01*
X24494667Y-11596679D02*
G01*
X24494667Y-11476680D01*
X24621667Y-11596679D02*
G01*
X24621667Y-11476680D01*
X24748667Y-11596679D02*
G01*
X24748667Y-11476680D01*
X24875667Y-11596679D02*
G01*
X24875667Y-11476680D01*
X24113667Y-10976919D02*
G01*
X24113667Y-10856920D01*
X24240667Y-10976919D02*
G01*
X24240667Y-10856920D01*
X24367667Y-10976919D02*
G01*
X24367667Y-10856920D01*
X24494667Y-10976919D02*
G01*
X24494667Y-10856920D01*
X24621667Y-10976919D02*
G01*
X24621667Y-10856920D01*
X24748667Y-10976919D02*
G01*
X24748667Y-10856920D01*
X24875667Y-10976919D02*
G01*
X24875667Y-10856920D01*
X28079700Y-12904779D02*
G01*
X28079700Y-12784780D01*
X28206700Y-12904779D02*
G01*
X28206700Y-12784780D01*
X28333700Y-12904779D02*
G01*
X28333700Y-12784780D01*
X28460700Y-12904779D02*
G01*
X28460700Y-12784780D01*
X28587700Y-12904779D02*
G01*
X28587700Y-12784780D01*
X28714700Y-12904779D02*
G01*
X28714700Y-12784780D01*
X28841700Y-12904779D02*
G01*
X28841700Y-12784780D01*
X28079700Y-12285019D02*
G01*
X28079700Y-12165020D01*
X28206700Y-12285019D02*
G01*
X28206700Y-12165020D01*
X28333700Y-12285019D02*
G01*
X28333700Y-12165020D01*
X28460700Y-12285019D02*
G01*
X28460700Y-12165020D01*
X28587700Y-12285019D02*
G01*
X28587700Y-12165020D01*
X28714700Y-12285019D02*
G01*
X28714700Y-12165020D01*
X28841700Y-12285019D02*
G01*
X28841700Y-12165020D01*
X26162000Y-12904779D02*
G01*
X26162000Y-12784780D01*
X26289000Y-12904779D02*
G01*
X26289000Y-12784780D01*
X26416000Y-12904779D02*
G01*
X26416000Y-12784780D01*
X26543000Y-12904779D02*
G01*
X26543000Y-12784780D01*
X26670000Y-12904779D02*
G01*
X26670000Y-12784780D01*
X26797000Y-12904779D02*
G01*
X26797000Y-12784780D01*
X26924000Y-12904779D02*
G01*
X26924000Y-12784780D01*
X26162000Y-12285019D02*
G01*
X26162000Y-12165020D01*
X26289000Y-12285019D02*
G01*
X26289000Y-12165020D01*
X26416000Y-12285019D02*
G01*
X26416000Y-12165020D01*
X26543000Y-12285019D02*
G01*
X26543000Y-12165020D01*
X26670000Y-12285019D02*
G01*
X26670000Y-12165020D01*
X26797000Y-12285019D02*
G01*
X26797000Y-12165020D01*
X26924000Y-12285019D02*
G01*
X26924000Y-12165020D01*
X27406600Y-14250979D02*
G01*
X27406600Y-14130980D01*
X27533600Y-14250979D02*
G01*
X27533600Y-14130980D01*
X27660600Y-14250979D02*
G01*
X27660600Y-14130980D01*
X27787600Y-14250979D02*
G01*
X27787600Y-14130980D01*
X27914600Y-14250979D02*
G01*
X27914600Y-14130980D01*
X28041600Y-14250979D02*
G01*
X28041600Y-14130980D01*
X28168600Y-14250979D02*
G01*
X28168600Y-14130980D01*
X27406600Y-13631219D02*
G01*
X27406600Y-13511220D01*
X27533600Y-13631219D02*
G01*
X27533600Y-13511220D01*
X27660600Y-13631219D02*
G01*
X27660600Y-13511220D01*
X27787600Y-13631219D02*
G01*
X27787600Y-13511220D01*
X27914600Y-13631219D02*
G01*
X27914600Y-13511220D01*
X28041600Y-13631219D02*
G01*
X28041600Y-13511220D01*
X28168600Y-13631219D02*
G01*
X28168600Y-13511220D01*
X28194000Y-11545879D02*
G01*
X28194000Y-11425880D01*
X28321000Y-11545879D02*
G01*
X28321000Y-11425880D01*
X28448000Y-11545879D02*
G01*
X28448000Y-11425880D01*
X28575000Y-11545879D02*
G01*
X28575000Y-11425880D01*
X28702000Y-11545879D02*
G01*
X28702000Y-11425880D01*
X28829000Y-11545879D02*
G01*
X28829000Y-11425880D01*
X28956000Y-11545879D02*
G01*
X28956000Y-11425880D01*
X28194000Y-10926119D02*
G01*
X28194000Y-10806120D01*
X28321000Y-10926119D02*
G01*
X28321000Y-10806120D01*
X28448000Y-10926119D02*
G01*
X28448000Y-10806120D01*
X28575000Y-10926119D02*
G01*
X28575000Y-10806120D01*
X28702000Y-10926119D02*
G01*
X28702000Y-10806120D01*
X28829000Y-10926119D02*
G01*
X28829000Y-10806120D01*
X28956000Y-10926119D02*
G01*
X28956000Y-10806120D01*
X25895300Y-11545879D02*
G01*
X25895300Y-11425880D01*
X26022300Y-11545879D02*
G01*
X26022300Y-11425880D01*
X26149300Y-11545879D02*
G01*
X26149300Y-11425880D01*
X26276300Y-11545879D02*
G01*
X26276300Y-11425880D01*
X26403300Y-11545879D02*
G01*
X26403300Y-11425880D01*
X26530300Y-11545879D02*
G01*
X26530300Y-11425880D01*
X26657300Y-11545879D02*
G01*
X26657300Y-11425880D01*
X25895300Y-10926119D02*
G01*
X25895300Y-10806120D01*
X26022300Y-10926119D02*
G01*
X26022300Y-10806120D01*
X26149300Y-10926119D02*
G01*
X26149300Y-10806120D01*
X26276300Y-10926119D02*
G01*
X26276300Y-10806120D01*
X26403300Y-10926119D02*
G01*
X26403300Y-10806120D01*
X26530300Y-10926119D02*
G01*
X26530300Y-10806120D01*
X26657300Y-10926119D02*
G01*
X26657300Y-10806120D01*
X27044650Y-11545879D02*
G01*
X27044650Y-11425880D01*
X27171650Y-11545879D02*
G01*
X27171650Y-11425880D01*
X27298650Y-11545879D02*
G01*
X27298650Y-11425880D01*
X27425650Y-11545879D02*
G01*
X27425650Y-11425880D01*
X27552650Y-11545879D02*
G01*
X27552650Y-11425880D01*
X27679650Y-11545879D02*
G01*
X27679650Y-11425880D01*
X27806650Y-11545879D02*
G01*
X27806650Y-11425880D01*
X27044650Y-10926119D02*
G01*
X27044650Y-10806120D01*
X27171650Y-10926119D02*
G01*
X27171650Y-10806120D01*
X27298650Y-10926119D02*
G01*
X27298650Y-10806120D01*
X27425650Y-10926119D02*
G01*
X27425650Y-10806120D01*
X27552650Y-10926119D02*
G01*
X27552650Y-10806120D01*
X27679650Y-10926119D02*
G01*
X27679650Y-10806120D01*
X27806650Y-10926119D02*
G01*
X27806650Y-10806120D01*
X25107900Y-14758979D02*
G01*
X25107900Y-14638980D01*
X25234900Y-14758979D02*
G01*
X25234900Y-14638980D01*
X25361900Y-14758979D02*
G01*
X25361900Y-14638980D01*
X25488900Y-14758979D02*
G01*
X25488900Y-14638980D01*
X25615900Y-14758979D02*
G01*
X25615900Y-14638980D01*
X25742900Y-14758979D02*
G01*
X25742900Y-14638980D01*
X25869900Y-14758979D02*
G01*
X25869900Y-14638980D01*
X25107900Y-14139219D02*
G01*
X25107900Y-14019220D01*
X25234900Y-14139219D02*
G01*
X25234900Y-14019220D01*
X25361900Y-14139219D02*
G01*
X25361900Y-14019220D01*
X25488900Y-14139219D02*
G01*
X25488900Y-14019220D01*
X25615900Y-14139219D02*
G01*
X25615900Y-14019220D01*
X25742900Y-14139219D02*
G01*
X25742900Y-14019220D01*
X25869900Y-14139219D02*
G01*
X25869900Y-14019220D01*
X5740400Y-20080279D02*
G01*
X5740400Y-19960280D01*
X5867400Y-20080279D02*
G01*
X5867400Y-19960280D01*
X5994400Y-20080279D02*
G01*
X5994400Y-19960280D01*
X6121400Y-20080279D02*
G01*
X6121400Y-19960280D01*
X6248400Y-20080279D02*
G01*
X6248400Y-19960280D01*
X6375400Y-20080279D02*
G01*
X6375400Y-19960280D01*
X6502400Y-20080279D02*
G01*
X6502400Y-19960280D01*
X5740400Y-19460519D02*
G01*
X5740400Y-19340520D01*
X5867400Y-19460519D02*
G01*
X5867400Y-19340520D01*
X5994400Y-19460519D02*
G01*
X5994400Y-19340520D01*
X6121400Y-19460519D02*
G01*
X6121400Y-19340520D01*
X6248400Y-19460519D02*
G01*
X6248400Y-19340520D01*
X6375400Y-19460519D02*
G01*
X6375400Y-19340520D01*
X6502400Y-19460519D02*
G01*
X6502400Y-19340520D01*
X4533900Y-4421179D02*
G01*
X4533900Y-4301180D01*
X4660900Y-4421179D02*
G01*
X4660900Y-4301180D01*
X4787900Y-4421179D02*
G01*
X4787900Y-4301180D01*
X4914900Y-4421179D02*
G01*
X4914900Y-4301180D01*
X5041900Y-4421179D02*
G01*
X5041900Y-4301180D01*
X5168900Y-4421179D02*
G01*
X5168900Y-4301180D01*
X5295900Y-4421179D02*
G01*
X5295900Y-4301180D01*
X4533900Y-3801419D02*
G01*
X4533900Y-3681420D01*
X4660900Y-3801419D02*
G01*
X4660900Y-3681420D01*
X4787900Y-3801419D02*
G01*
X4787900Y-3681420D01*
X4914900Y-3801419D02*
G01*
X4914900Y-3681420D01*
X5041900Y-3801419D02*
G01*
X5041900Y-3681420D01*
X5168900Y-3801419D02*
G01*
X5168900Y-3681420D01*
X5295900Y-3801419D02*
G01*
X5295900Y-3681420D01*
X1066800Y-22182780D02*
G01*
X1066800Y-22302779D01*
X1193800Y-22182780D02*
G01*
X1193800Y-22302779D01*
X1320800Y-22182780D02*
G01*
X1320800Y-22302779D01*
X1447800Y-22182780D02*
G01*
X1447800Y-22302779D01*
X1574800Y-22182780D02*
G01*
X1574800Y-22302779D01*
X1701800Y-22182780D02*
G01*
X1701800Y-22302779D01*
X1828800Y-22182780D02*
G01*
X1828800Y-22302779D01*
X1955800Y-22182780D02*
G01*
X1955800Y-22302779D01*
X1066800Y-21588420D02*
G01*
X1066800Y-21708419D01*
X1193800Y-21588420D02*
G01*
X1193800Y-21708419D01*
X1320800Y-21588420D02*
G01*
X1320800Y-21708419D01*
X1447800Y-21588420D02*
G01*
X1447800Y-21708419D01*
X1574800Y-21588420D02*
G01*
X1574800Y-21708419D01*
X1701800Y-21588420D02*
G01*
X1701800Y-21708419D01*
X1828800Y-21588420D02*
G01*
X1828800Y-21708419D01*
X1955800Y-21588420D02*
G01*
X1955800Y-21708419D01*
X1066800Y-21134379D02*
G01*
X1066800Y-21014380D01*
X1193800Y-21134379D02*
G01*
X1193800Y-21014380D01*
X1320800Y-21134379D02*
G01*
X1320800Y-21014380D01*
X1447800Y-21134379D02*
G01*
X1447800Y-21014380D01*
X1574800Y-21134379D02*
G01*
X1574800Y-21014380D01*
X1701800Y-21134379D02*
G01*
X1701800Y-21014380D01*
X1828800Y-21134379D02*
G01*
X1828800Y-21014380D01*
X1066800Y-20514619D02*
G01*
X1066800Y-20394620D01*
X1193800Y-20514619D02*
G01*
X1193800Y-20394620D01*
X1320800Y-20514619D02*
G01*
X1320800Y-20394620D01*
X1447800Y-20514619D02*
G01*
X1447800Y-20394620D01*
X1574800Y-20514619D02*
G01*
X1574800Y-20394620D01*
X1701800Y-20514619D02*
G01*
X1701800Y-20394620D01*
X1828800Y-20514619D02*
G01*
X1828800Y-20394620D01*
X12750800Y-7370119D02*
G01*
X12750800Y-7250120D01*
X12623800Y-7370119D02*
G01*
X12623800Y-7250120D01*
X12496800Y-7370119D02*
G01*
X12496800Y-7250120D01*
X12369800Y-7370119D02*
G01*
X12369800Y-7250120D01*
X12242800Y-7370119D02*
G01*
X12242800Y-7250120D01*
X12115800Y-7370119D02*
G01*
X12115800Y-7250120D01*
X11988800Y-7370119D02*
G01*
X11988800Y-7250120D01*
X11861800Y-7370119D02*
G01*
X11861800Y-7250120D01*
X12750800Y-7964479D02*
G01*
X12750800Y-7844480D01*
X12623800Y-7964479D02*
G01*
X12623800Y-7844480D01*
X12496800Y-7964479D02*
G01*
X12496800Y-7844480D01*
X12369800Y-7964479D02*
G01*
X12369800Y-7844480D01*
X12242800Y-7964479D02*
G01*
X12242800Y-7844480D01*
X12115800Y-7964479D02*
G01*
X12115800Y-7844480D01*
X11988800Y-7964479D02*
G01*
X11988800Y-7844480D01*
X11861800Y-7964479D02*
G01*
X11861800Y-7844480D01*
X12179300Y-10644179D02*
G01*
X12179300Y-10524180D01*
X12306300Y-10644179D02*
G01*
X12306300Y-10524180D01*
X12433300Y-10644179D02*
G01*
X12433300Y-10524180D01*
X12560300Y-10644179D02*
G01*
X12560300Y-10524180D01*
X12687300Y-10644179D02*
G01*
X12687300Y-10524180D01*
X12814300Y-10644179D02*
G01*
X12814300Y-10524180D01*
X12941300Y-10644179D02*
G01*
X12941300Y-10524180D01*
X12179300Y-10024419D02*
G01*
X12179300Y-9904420D01*
X12306300Y-10024419D02*
G01*
X12306300Y-9904420D01*
X12433300Y-10024419D02*
G01*
X12433300Y-9904420D01*
X12560300Y-10024419D02*
G01*
X12560300Y-9904420D01*
X12687300Y-10024419D02*
G01*
X12687300Y-9904420D01*
X12814300Y-10024419D02*
G01*
X12814300Y-9904420D01*
X12941300Y-10024419D02*
G01*
X12941300Y-9904420D01*
X12077700Y-19295419D02*
G01*
X12077700Y-19175420D01*
X11950700Y-19295419D02*
G01*
X11950700Y-19175420D01*
X11823700Y-19295419D02*
G01*
X11823700Y-19175420D01*
X11696700Y-19295419D02*
G01*
X11696700Y-19175420D01*
X11569700Y-19295419D02*
G01*
X11569700Y-19175420D01*
X11442700Y-19295419D02*
G01*
X11442700Y-19175420D01*
X11315700Y-19295419D02*
G01*
X11315700Y-19175420D01*
X11188700Y-19295419D02*
G01*
X11188700Y-19175420D01*
X12077700Y-19889779D02*
G01*
X12077700Y-19769780D01*
X11950700Y-19889779D02*
G01*
X11950700Y-19769780D01*
X11823700Y-19889779D02*
G01*
X11823700Y-19769780D01*
X11696700Y-19889779D02*
G01*
X11696700Y-19769780D01*
X11569700Y-19889779D02*
G01*
X11569700Y-19769780D01*
X11442700Y-19889779D02*
G01*
X11442700Y-19769780D01*
X11315700Y-19889779D02*
G01*
X11315700Y-19769780D01*
X11188700Y-19889779D02*
G01*
X11188700Y-19769780D01*
X28829000Y-3826819D02*
G01*
X28829000Y-3706820D01*
X28702000Y-3826819D02*
G01*
X28702000Y-3706820D01*
X28575000Y-3826819D02*
G01*
X28575000Y-3706820D01*
X28448000Y-3826819D02*
G01*
X28448000Y-3706820D01*
X28321000Y-3826819D02*
G01*
X28321000Y-3706820D01*
X28194000Y-3826819D02*
G01*
X28194000Y-3706820D01*
X28067000Y-3826819D02*
G01*
X28067000Y-3706820D01*
X27940000Y-3826819D02*
G01*
X27940000Y-3706820D01*
X28829000Y-4421179D02*
G01*
X28829000Y-4301180D01*
X28702000Y-4421179D02*
G01*
X28702000Y-4301180D01*
X28575000Y-4421179D02*
G01*
X28575000Y-4301180D01*
X28448000Y-4421179D02*
G01*
X28448000Y-4301180D01*
X28321000Y-4421179D02*
G01*
X28321000Y-4301180D01*
X28194000Y-4421179D02*
G01*
X28194000Y-4301180D01*
X28067000Y-4421179D02*
G01*
X28067000Y-4301180D01*
X27940000Y-4421179D02*
G01*
X27940000Y-4301180D01*
X27978100Y-5856279D02*
G01*
X27978100Y-5736280D01*
X28105100Y-5856279D02*
G01*
X28105100Y-5736280D01*
X28232100Y-5856279D02*
G01*
X28232100Y-5736280D01*
X28359100Y-5856279D02*
G01*
X28359100Y-5736280D01*
X28486100Y-5856279D02*
G01*
X28486100Y-5736280D01*
X28613100Y-5856279D02*
G01*
X28613100Y-5736280D01*
X28740100Y-5856279D02*
G01*
X28740100Y-5736280D01*
X27978100Y-5236519D02*
G01*
X27978100Y-5116520D01*
X28105100Y-5236519D02*
G01*
X28105100Y-5116520D01*
X28232100Y-5236519D02*
G01*
X28232100Y-5116520D01*
X28359100Y-5236519D02*
G01*
X28359100Y-5116520D01*
X28486100Y-5236519D02*
G01*
X28486100Y-5116520D01*
X28613100Y-5236519D02*
G01*
X28613100Y-5116520D01*
X28740100Y-5236519D02*
G01*
X28740100Y-5116520D01*
X28676600Y-23994419D02*
G01*
X28676600Y-23874420D01*
X28549600Y-23994419D02*
G01*
X28549600Y-23874420D01*
X28422600Y-23994419D02*
G01*
X28422600Y-23874420D01*
X28295600Y-23994419D02*
G01*
X28295600Y-23874420D01*
X28168600Y-23994419D02*
G01*
X28168600Y-23874420D01*
X28041600Y-23994419D02*
G01*
X28041600Y-23874420D01*
X27914600Y-23994419D02*
G01*
X27914600Y-23874420D01*
X27787600Y-23994419D02*
G01*
X27787600Y-23874420D01*
X28676600Y-24588779D02*
G01*
X28676600Y-24468780D01*
X28549600Y-24588779D02*
G01*
X28549600Y-24468780D01*
X28422600Y-24588779D02*
G01*
X28422600Y-24468780D01*
X28295600Y-24588779D02*
G01*
X28295600Y-24468780D01*
X28168600Y-24588779D02*
G01*
X28168600Y-24468780D01*
X28041600Y-24588779D02*
G01*
X28041600Y-24468780D01*
X27914600Y-24588779D02*
G01*
X27914600Y-24468780D01*
X27787600Y-24588779D02*
G01*
X27787600Y-24468780D01*
X27254200Y-24115720D02*
G01*
X27254200Y-24235719D01*
X27127200Y-24115720D02*
G01*
X27127200Y-24235719D01*
X27000200Y-24115720D02*
G01*
X27000200Y-24235719D01*
X26873200Y-24115720D02*
G01*
X26873200Y-24235719D01*
X26746200Y-24115720D02*
G01*
X26746200Y-24235719D01*
X26619200Y-24115720D02*
G01*
X26619200Y-24235719D01*
X26492200Y-24115720D02*
G01*
X26492200Y-24235719D01*
X27254200Y-24735480D02*
G01*
X27254200Y-24855479D01*
X27127200Y-24735480D02*
G01*
X27127200Y-24855479D01*
X27000200Y-24735480D02*
G01*
X27000200Y-24855479D01*
X26873200Y-24735480D02*
G01*
X26873200Y-24855479D01*
X26746200Y-24735480D02*
G01*
X26746200Y-24855479D01*
X26619200Y-24735480D02*
G01*
X26619200Y-24855479D01*
X26492200Y-24735480D02*
G01*
X26492200Y-24855479D01*
X1270000Y-19686579D02*
G01*
X1270000Y-19566580D01*
X1397000Y-19686579D02*
G01*
X1397000Y-19566580D01*
X1524000Y-19686579D02*
G01*
X1524000Y-19566580D01*
X1651000Y-19686579D02*
G01*
X1651000Y-19566580D01*
X1778000Y-19686579D02*
G01*
X1778000Y-19566580D01*
X1905000Y-19686579D02*
G01*
X1905000Y-19566580D01*
X2032000Y-19686579D02*
G01*
X2032000Y-19566580D01*
X1270000Y-19066819D02*
G01*
X1270000Y-18946820D01*
X1397000Y-19066819D02*
G01*
X1397000Y-18946820D01*
X1524000Y-19066819D02*
G01*
X1524000Y-18946820D01*
X1651000Y-19066819D02*
G01*
X1651000Y-18946820D01*
X1778000Y-19066819D02*
G01*
X1778000Y-18946820D01*
X1905000Y-19066819D02*
G01*
X1905000Y-18946820D01*
X2032000Y-19066819D02*
G01*
X2032000Y-18946820D01*
D15*
G01*
X6233795Y-10822533D03*
G01*
X6233795Y-10877550D03*
G01*
X6233795Y-10932540D03*
G01*
X6233795Y-10987531D03*
G01*
X6233795Y-11042548D03*
G01*
X6233795Y-11097539D03*
G01*
X6233795Y-11152530D03*
G01*
X7583830Y-11152530D03*
G01*
X7583830Y-11097539D03*
G01*
X7583830Y-11042522D03*
G01*
X7583830Y-10987531D03*
G01*
X7583830Y-10932515D03*
G01*
X7583830Y-10877499D03*
G01*
X7583830Y-10822508D03*
G01*
X7583830Y-10767491D03*
G01*
X7583830Y-10712500D03*
G01*
X7583830Y-10657484D03*
G01*
X7583830Y-10602468D03*
G01*
X7583830Y-10547477D03*
G01*
X7583830Y-10492460D03*
G01*
X7583830Y-10437469D03*
G01*
X6233795Y-10437545D03*
G01*
X6233795Y-10492536D03*
G01*
X6233795Y-10547527D03*
G01*
X6233795Y-10602544D03*
G01*
X6233795Y-10657535D03*
G01*
X6233795Y-10712551D03*
G01*
X6233795Y-10767542D03*
G01*
X3947795Y-11673433D03*
G01*
X3947795Y-11728450D03*
G01*
X3947795Y-11783440D03*
G01*
X3947795Y-11838431D03*
G01*
X3947795Y-11893448D03*
G01*
X3947795Y-11948439D03*
G01*
X3947795Y-12003430D03*
G01*
X5297830Y-12003430D03*
G01*
X5297830Y-11948439D03*
G01*
X5297830Y-11893422D03*
G01*
X5297830Y-11838431D03*
G01*
X5297830Y-11783415D03*
G01*
X5297830Y-11728399D03*
G01*
X5297830Y-11673408D03*
G01*
X5297830Y-11618391D03*
G01*
X5297830Y-11563400D03*
G01*
X5297830Y-11508384D03*
G01*
X5297830Y-11453368D03*
G01*
X5297830Y-11398377D03*
G01*
X5297830Y-11343360D03*
G01*
X5297830Y-11288369D03*
G01*
X3947795Y-11288445D03*
G01*
X3947795Y-11343436D03*
G01*
X3947795Y-11398427D03*
G01*
X3947795Y-11453444D03*
G01*
X3947795Y-11508435D03*
G01*
X3947795Y-11563451D03*
G01*
X3947795Y-11618442D03*
D16*
G01*
X12581636Y-14147800D03*
G01*
X12581636Y-14020800D03*
G01*
X12581636Y-13893800D03*
G01*
X12581636Y-13766800D03*
G01*
X12581636Y-13639800D03*
G01*
X12581636Y-13512800D03*
G01*
X12581636Y-13385800D03*
G01*
X12581636Y-13258800D03*
G01*
X12081763Y-13258800D03*
G01*
X12081763Y-13385800D03*
G01*
X12081763Y-13512800D03*
G01*
X12081763Y-13639800D03*
G01*
X12081763Y-13766800D03*
G01*
X12081763Y-13893800D03*
G01*
X12081763Y-14020800D03*
G01*
X12081763Y-14147800D03*
D17*
G01*
X7604759Y-19451193D03*
G01*
X7686040Y-19451193D03*
G01*
X7764779Y-19451193D03*
G01*
X7846059Y-19451193D03*
G01*
X7924800Y-19451193D03*
G01*
X8006079Y-19451193D03*
G01*
X8084820Y-19451193D03*
G01*
X8166100Y-19451193D03*
G01*
X8244840Y-19451193D03*
G01*
X8326120Y-19451193D03*
G01*
X8404859Y-19451193D03*
G01*
X8486140Y-19451193D03*
G01*
X8564879Y-19451193D03*
G01*
X8646159Y-19451193D03*
G01*
X8724900Y-19451193D03*
G01*
X8806179Y-19451193D03*
G01*
X8884920Y-19451193D03*
G01*
X8966200Y-19451193D03*
G01*
X9044940Y-19451193D03*
G01*
X9126220Y-19451193D03*
G01*
X9204959Y-19451193D03*
G01*
X9286240Y-19451193D03*
G01*
X9286240Y-18318353D03*
G01*
X9204959Y-18318353D03*
G01*
X9126220Y-18318353D03*
G01*
X9044940Y-18318353D03*
G01*
X8966200Y-18318353D03*
G01*
X8884920Y-18318353D03*
G01*
X8806179Y-18318353D03*
G01*
X8724900Y-18318353D03*
G01*
X8646159Y-18318353D03*
G01*
X8564879Y-18318353D03*
G01*
X8486140Y-18318353D03*
G01*
X8404859Y-18318353D03*
G01*
X8326120Y-18318353D03*
G01*
X8244840Y-18318353D03*
G01*
X8166100Y-18318353D03*
G01*
X8084820Y-18318353D03*
G01*
X8006079Y-18318353D03*
G01*
X7924800Y-18318353D03*
G01*
X7846059Y-18318353D03*
G01*
X7764779Y-18318353D03*
G01*
X7686040Y-18318353D03*
G01*
X7604759Y-18318353D03*
M02*
