G04 Layer: BottomSolderMaskLayer*
G04 EasyEDA v6.4.25, 2021-12-08T03:09:09--6:00*
G04 48628cf13e884b4a84c238f375de5553,06444aca9169495d970130cf6b44ba93,10*
G04 Gerber Generator version 0.2*
G04 Scale: 100 percent, Rotated: No, Reflected: No *
G04 Dimensions in millimeters *
G04 leading zeros omitted , absolute positions ,4 integer and 5 decimal *
%FSLAX45Y45*%
%MOMM*%

%ADD20C,1.6002*%
%ADD25C,1.3970*%
%ADD47C,1.7272*%
%ADD48C,1.7032*%
%ADD49C,1.5032*%
%ADD51C,1.8034*%
%ADD52C,2.0828*%
%ADD53C,1.2032*%
%ADD57C,1.9032*%
%ADD58C,2.0032*%
%ADD60C,1.7780*%

%LPD*%
D47*
X21590000Y-24030000D02*
G01*
X21590000Y-24077599D01*
X21336000Y-24030000D02*
G01*
X21336000Y-24077599D01*
X21082000Y-24030000D02*
G01*
X21082000Y-24077599D01*
X21844000Y-24030000D02*
G01*
X21844000Y-24077599D01*
X22098000Y-24030000D02*
G01*
X22098000Y-24077599D01*
X22352000Y-24030000D02*
G01*
X22352000Y-24077599D01*
X22606000Y-24030000D02*
G01*
X22606000Y-24077599D01*
X22860000Y-24030000D02*
G01*
X22860000Y-24077599D01*
X23114000Y-24030000D02*
G01*
X23114000Y-24077599D01*
X23368000Y-24030000D02*
G01*
X23368000Y-24077599D01*
X24384000Y-24030000D02*
G01*
X24384000Y-24077599D01*
X24130000Y-24030000D02*
G01*
X24130000Y-24077599D01*
X23876000Y-24030000D02*
G01*
X23876000Y-24077599D01*
X23622000Y-24030000D02*
G01*
X23622000Y-24077599D01*
D48*
X21844000Y-22504798D02*
G01*
X21844000Y-22554801D01*
D47*
X21590000Y-22506000D02*
G01*
X21590000Y-22553599D01*
X22098000Y-22506000D02*
G01*
X22098000Y-22553599D01*
D48*
X24130000Y-22504798D02*
G01*
X24130000Y-22554801D01*
X23876000Y-22504798D02*
G01*
X23876000Y-22554801D01*
X23622000Y-22504798D02*
G01*
X23622000Y-22554801D01*
X23368000Y-22504798D02*
G01*
X23368000Y-22554801D01*
X23114000Y-22504798D02*
G01*
X23114000Y-22554801D01*
X22860000Y-22504798D02*
G01*
X22860000Y-22554801D01*
X22606000Y-22504798D02*
G01*
X22606000Y-22554801D01*
X22352000Y-22504798D02*
G01*
X22352000Y-22554801D01*
D47*
X21082000Y-22553599D02*
G01*
X21082000Y-22506000D01*
X21336000Y-22553599D02*
G01*
X21336000Y-22506000D01*
X17487900Y-24030000D02*
G01*
X17487900Y-24077599D01*
X17233900Y-24030000D02*
G01*
X17233900Y-24077599D01*
X16979900Y-24030000D02*
G01*
X16979900Y-24077599D01*
X17741900Y-24030000D02*
G01*
X17741900Y-24077599D01*
X17995900Y-24030000D02*
G01*
X17995900Y-24077599D01*
X18249900Y-24030000D02*
G01*
X18249900Y-24077599D01*
X18503900Y-24030000D02*
G01*
X18503900Y-24077599D01*
X18757900Y-24030000D02*
G01*
X18757900Y-24077599D01*
X19011900Y-24030000D02*
G01*
X19011900Y-24077599D01*
X19265900Y-24030000D02*
G01*
X19265900Y-24077599D01*
X20281900Y-24030000D02*
G01*
X20281900Y-24077599D01*
X20027900Y-24030000D02*
G01*
X20027900Y-24077599D01*
X19773900Y-24030000D02*
G01*
X19773900Y-24077599D01*
X19519900Y-24030000D02*
G01*
X19519900Y-24077599D01*
D48*
X17741900Y-22504798D02*
G01*
X17741900Y-22554801D01*
D47*
X17487900Y-22506000D02*
G01*
X17487900Y-22553599D01*
X17995900Y-22506000D02*
G01*
X17995900Y-22553599D01*
D48*
X20027900Y-22504798D02*
G01*
X20027900Y-22554801D01*
X19773900Y-22504798D02*
G01*
X19773900Y-22554801D01*
X19519900Y-22504798D02*
G01*
X19519900Y-22554801D01*
X19265900Y-22504798D02*
G01*
X19265900Y-22554801D01*
X19011900Y-22504798D02*
G01*
X19011900Y-22554801D01*
X18757900Y-22504798D02*
G01*
X18757900Y-22554801D01*
X18503900Y-22504798D02*
G01*
X18503900Y-22554801D01*
X18249900Y-22504798D02*
G01*
X18249900Y-22554801D01*
D47*
X16979900Y-22553599D02*
G01*
X16979900Y-22506000D01*
X17233900Y-22553599D02*
G01*
X17233900Y-22506000D01*
D49*
G01*
X11099800Y-8331200D03*
G01*
X11353800Y-8331200D03*
G36*
X3288029Y-2033270D02*
G01*
X3288029Y-1852929D01*
X3468370Y-1852929D01*
X3468370Y-2033270D01*
G37*
D51*
G01*
X3378200Y-2197100D03*
G01*
X3378200Y-2451100D03*
G01*
X3378200Y-2705100D03*
G01*
X4140200Y-2705100D03*
G01*
X4140200Y-2451100D03*
G01*
X4140200Y-2197100D03*
G01*
X4140200Y-1943100D03*
G36*
X1243329Y-2033270D02*
G01*
X1243329Y-1852929D01*
X1423670Y-1852929D01*
X1423670Y-2033270D01*
G37*
G01*
X1333500Y-2197100D03*
G01*
X1333500Y-2451100D03*
G01*
X1333500Y-2705100D03*
G01*
X2095500Y-2705100D03*
G01*
X2095500Y-2451100D03*
G01*
X2095500Y-2197100D03*
G01*
X2095500Y-1943100D03*
D52*
G01*
X5671820Y-1038860D03*
G01*
X5021579Y-1038860D03*
G01*
X5671820Y-586739D03*
G01*
X5021579Y-586739D03*
G36*
X5154929Y-2122170D02*
G01*
X5154929Y-1941829D01*
X5335270Y-1941829D01*
X5335270Y-2122170D01*
G37*
D51*
G01*
X5245100Y-2286000D03*
G01*
X5245100Y-2540000D03*
G01*
X5245100Y-2794000D03*
G01*
X6007100Y-2794000D03*
G01*
X6007100Y-2540000D03*
G01*
X6007100Y-2286000D03*
G01*
X6007100Y-2032000D03*
D52*
G01*
X3365500Y-1612900D03*
G01*
X4127500Y-1612900D03*
G01*
X2971800Y-2692400D03*
G01*
X2971800Y-1930400D03*
D25*
G01*
X3568700Y-3238500D03*
G01*
X3822700Y-3238500D03*
D52*
G01*
X2527300Y-1917700D03*
G01*
X2527300Y-2679700D03*
G01*
X2095500Y-3238500D03*
G01*
X1333500Y-3238500D03*
D25*
G01*
X825500Y-2247900D03*
G01*
X825500Y-2501900D03*
D53*
G01*
X2565400Y-3237356D03*
G01*
X2565400Y-3087243D03*
D52*
G01*
X6261100Y-3467100D03*
G01*
X5499100Y-3467100D03*
D25*
G01*
X5499100Y-1562100D03*
G01*
X5753100Y-1562100D03*
G01*
X4851400Y-2971800D03*
G01*
X4851400Y-3225800D03*
D52*
G01*
X4851400Y-2540000D03*
G01*
X4851400Y-1778000D03*
G36*
X8733790Y-7090410D02*
G01*
X8733790Y-6930389D01*
X8893809Y-6930389D01*
X8893809Y-7090410D01*
G37*
D20*
G01*
X9067800Y-7010400D03*
G01*
X9321800Y-7010400D03*
G01*
X9575800Y-7010400D03*
G01*
X9829800Y-7010400D03*
G01*
X10083800Y-7010400D03*
G01*
X10337800Y-7010400D03*
G01*
X10591800Y-7010400D03*
G01*
X10591800Y-6248400D03*
G01*
X10337800Y-6248400D03*
G01*
X10083800Y-6248400D03*
G01*
X9829800Y-6248400D03*
G01*
X9575800Y-6248400D03*
G01*
X9321800Y-6248400D03*
G01*
X9067800Y-6248400D03*
G01*
X8813800Y-6248400D03*
G36*
X6515608Y-7090410D02*
G01*
X6515608Y-6930389D01*
X6675627Y-6930389D01*
X6675627Y-7090410D01*
G37*
G01*
X6849541Y-7010400D03*
G01*
X7103541Y-7010400D03*
G01*
X7357541Y-7010400D03*
G01*
X7611541Y-7010400D03*
G01*
X7865541Y-7010400D03*
G01*
X8119541Y-7010400D03*
G01*
X8373541Y-7010400D03*
G01*
X8373541Y-6248400D03*
G01*
X8119541Y-6248400D03*
G01*
X7865541Y-6248400D03*
G01*
X7611541Y-6248400D03*
G01*
X7357541Y-6248400D03*
G01*
X7103541Y-6248400D03*
G01*
X6849541Y-6248400D03*
G01*
X6595541Y-6248400D03*
G36*
X4301490Y-7090410D02*
G01*
X4301490Y-6930389D01*
X4461509Y-6930389D01*
X4461509Y-7090410D01*
G37*
G01*
X4635500Y-7010400D03*
G01*
X4889500Y-7010400D03*
G01*
X5143500Y-7010400D03*
G01*
X5397500Y-7010400D03*
G01*
X5651500Y-7010400D03*
G01*
X5905500Y-7010400D03*
G01*
X6159500Y-7010400D03*
G01*
X6159500Y-6248400D03*
G01*
X5905500Y-6248400D03*
G01*
X5651500Y-6248400D03*
G01*
X5397500Y-6248400D03*
G01*
X5143500Y-6248400D03*
G01*
X4889500Y-6248400D03*
G01*
X4635500Y-6248400D03*
G01*
X4381500Y-6248400D03*
G36*
X2078990Y-7090410D02*
G01*
X2078990Y-6930389D01*
X2239009Y-6930389D01*
X2239009Y-7090410D01*
G37*
G01*
X2413000Y-7010400D03*
G01*
X2667000Y-7010400D03*
G01*
X2921000Y-7010400D03*
G01*
X3175000Y-7010400D03*
G01*
X3429000Y-7010400D03*
G01*
X3683000Y-7010400D03*
G01*
X3937000Y-7010400D03*
G01*
X3937000Y-6248400D03*
G01*
X3683000Y-6248400D03*
G01*
X3429000Y-6248400D03*
G01*
X3175000Y-6248400D03*
G01*
X2921000Y-6248400D03*
G01*
X2667000Y-6248400D03*
G01*
X2413000Y-6248400D03*
G01*
X2159000Y-6248400D03*
D25*
G01*
X1333525Y-6184900D03*
G01*
X1587525Y-6184900D03*
D47*
G01*
X2348560Y-649808D03*
G01*
X2603500Y-649808D03*
G01*
X2858490Y-649808D03*
G01*
X2858515Y-1229791D03*
G01*
X2603500Y-1229791D03*
G01*
X2348484Y-1229791D03*
G01*
X3897909Y-685800D03*
G01*
X3643909Y-685800D03*
G01*
X4153915Y-685800D03*
D52*
G01*
X1752600Y-7454900D03*
G01*
X1752600Y-6692900D03*
G36*
X819150Y-16109950D02*
G01*
X819150Y-15919450D01*
X1009650Y-15919450D01*
X1009650Y-16109950D01*
G37*
D57*
G01*
X914400Y-15760700D03*
G01*
X914400Y-15506700D03*
G01*
X914400Y-15252700D03*
G01*
X914400Y-14998700D03*
G01*
X914400Y-14744700D03*
G01*
X914400Y-14490700D03*
G01*
X914400Y-14236700D03*
G01*
X914400Y-13982700D03*
G01*
X914400Y-13728700D03*
G01*
X914400Y-13474700D03*
G01*
X914400Y-13220700D03*
G01*
X914400Y-12966700D03*
G01*
X914400Y-12712700D03*
G01*
X914400Y-12458700D03*
D58*
G01*
X914400Y-17716500D03*
G01*
X914400Y-17462500D03*
G01*
X914400Y-17208500D03*
G01*
X914400Y-16954500D03*
G01*
X914400Y-16700500D03*
G36*
X814323Y-16546576D02*
G01*
X814323Y-16346424D01*
X1014476Y-16346424D01*
X1014476Y-16546576D01*
G37*
G36*
X631189Y-10913110D02*
G01*
X631189Y-10753089D01*
X791210Y-10753089D01*
X791210Y-10913110D01*
G37*
D20*
G01*
X965200Y-10833100D03*
G01*
X1219200Y-10833100D03*
G01*
X1473200Y-10833100D03*
G01*
X1727200Y-10833100D03*
G01*
X1981200Y-10833100D03*
G01*
X2235200Y-10833100D03*
G01*
X2489200Y-10833100D03*
G01*
X2489200Y-10071100D03*
G01*
X2235200Y-10071100D03*
G01*
X1981200Y-10071100D03*
G01*
X1727200Y-10071100D03*
G01*
X1473200Y-10071100D03*
G01*
X1219200Y-10071100D03*
G01*
X965200Y-10071100D03*
G01*
X711200Y-10071100D03*
G36*
X2790190Y-9465310D02*
G01*
X2790190Y-9305289D01*
X2950209Y-9305289D01*
X2950209Y-9465310D01*
G37*
G01*
X3124200Y-9385300D03*
G01*
X3378200Y-9385300D03*
G01*
X3632200Y-9385300D03*
G01*
X3886200Y-9385300D03*
G01*
X4140200Y-9385300D03*
G01*
X4394200Y-9385300D03*
G01*
X4648200Y-9385300D03*
G01*
X4648200Y-8623300D03*
G01*
X4394200Y-8623300D03*
G01*
X4140200Y-8623300D03*
G01*
X3886200Y-8623300D03*
G01*
X3632200Y-8623300D03*
G01*
X3378200Y-8623300D03*
G01*
X3124200Y-8623300D03*
G01*
X2870200Y-8623300D03*
G36*
X5241290Y-8957310D02*
G01*
X5241290Y-8797289D01*
X5401309Y-8797289D01*
X5401309Y-8957310D01*
G37*
G01*
X5575300Y-8877300D03*
G01*
X5829300Y-8877300D03*
G01*
X6083300Y-8877300D03*
G01*
X6337300Y-8877300D03*
G01*
X6591300Y-8877300D03*
G01*
X6845300Y-8877300D03*
G01*
X7099300Y-8877300D03*
G01*
X7099300Y-8115300D03*
G01*
X6845300Y-8115300D03*
G01*
X6591300Y-8115300D03*
G01*
X6337300Y-8115300D03*
G01*
X6083300Y-8115300D03*
G01*
X5829300Y-8115300D03*
G01*
X5575300Y-8115300D03*
G01*
X5321300Y-8115300D03*
G36*
X7781290Y-8919210D02*
G01*
X7781290Y-8759189D01*
X7941309Y-8759189D01*
X7941309Y-8919210D01*
G37*
G01*
X8115300Y-8839200D03*
G01*
X8369300Y-8839200D03*
G01*
X8623300Y-8839200D03*
G01*
X8877300Y-8839200D03*
G01*
X9131300Y-8839200D03*
G01*
X9385300Y-8839200D03*
G01*
X9639300Y-8839200D03*
G01*
X9639300Y-8077200D03*
G01*
X9385300Y-8077200D03*
G01*
X9131300Y-8077200D03*
G01*
X8877300Y-8077200D03*
G01*
X8623300Y-8077200D03*
G01*
X8369300Y-8077200D03*
G01*
X8115300Y-8077200D03*
G01*
X7861300Y-8077200D03*
G36*
X10346690Y-9617710D02*
G01*
X10346690Y-9457689D01*
X10506709Y-9457689D01*
X10506709Y-9617710D01*
G37*
G01*
X10680700Y-9537700D03*
G01*
X10934700Y-9537700D03*
G01*
X11188700Y-9537700D03*
G01*
X11442700Y-9537700D03*
G01*
X11696700Y-9537700D03*
G01*
X11950700Y-9537700D03*
G01*
X12204700Y-9537700D03*
G01*
X12204700Y-8775700D03*
G01*
X11950700Y-8775700D03*
G01*
X11696700Y-8775700D03*
G01*
X11442700Y-8775700D03*
G01*
X11188700Y-8775700D03*
G01*
X10934700Y-8775700D03*
G01*
X10680700Y-8775700D03*
G01*
X10426700Y-8775700D03*
G36*
X1977390Y-13529310D02*
G01*
X1977390Y-13369289D01*
X2137409Y-13369289D01*
X2137409Y-13529310D01*
G37*
G01*
X2311400Y-13449300D03*
G01*
X2565400Y-13449300D03*
G01*
X2819400Y-13449300D03*
G01*
X3073400Y-13449300D03*
G01*
X3327400Y-13449300D03*
G01*
X3581400Y-13449300D03*
G01*
X3835400Y-13449300D03*
G01*
X3835400Y-12687300D03*
G01*
X3581400Y-12687300D03*
G01*
X3327400Y-12687300D03*
G01*
X3073400Y-12687300D03*
G01*
X2819400Y-12687300D03*
G01*
X2565400Y-12687300D03*
G01*
X2311400Y-12687300D03*
G01*
X2057400Y-12687300D03*
G36*
X6333490Y-13897610D02*
G01*
X6333490Y-13737589D01*
X6493509Y-13737589D01*
X6493509Y-13897610D01*
G37*
G01*
X6667500Y-13817600D03*
G01*
X6921500Y-13817600D03*
G01*
X7175500Y-13817600D03*
G01*
X7429500Y-13817600D03*
G01*
X7683500Y-13817600D03*
G01*
X7937500Y-13817600D03*
G01*
X8191500Y-13817600D03*
G01*
X8191500Y-13055600D03*
G01*
X7937500Y-13055600D03*
G01*
X7683500Y-13055600D03*
G01*
X7429500Y-13055600D03*
G01*
X7175500Y-13055600D03*
G01*
X6921500Y-13055600D03*
G01*
X6667500Y-13055600D03*
G01*
X6413500Y-13055600D03*
G36*
X8898890Y-11230610D02*
G01*
X8898890Y-11070589D01*
X9058909Y-11070589D01*
X9058909Y-11230610D01*
G37*
G01*
X9232900Y-11150600D03*
G01*
X9486900Y-11150600D03*
G01*
X9740900Y-11150600D03*
G01*
X9994900Y-11150600D03*
G01*
X10248900Y-11150600D03*
G01*
X10502900Y-11150600D03*
G01*
X10756900Y-11150600D03*
G01*
X10756900Y-10388600D03*
G01*
X10502900Y-10388600D03*
G01*
X10248900Y-10388600D03*
G01*
X9994900Y-10388600D03*
G01*
X9740900Y-10388600D03*
G01*
X9486900Y-10388600D03*
G01*
X9232900Y-10388600D03*
G01*
X8978900Y-10388600D03*
D52*
G01*
X12611100Y-1282700D03*
G01*
X12611100Y-520700D03*
G01*
X12865100Y-1282700D03*
G01*
X12865100Y-520700D03*
G01*
X13119100Y-1282700D03*
G01*
X13119100Y-520700D03*
G01*
X13373100Y-1282700D03*
G01*
X13373100Y-520700D03*
G01*
X13627100Y-1282700D03*
G01*
X13627100Y-520700D03*
G01*
X13881100Y-1282700D03*
G01*
X13881100Y-520700D03*
G01*
X14135100Y-1282700D03*
G01*
X14135100Y-520700D03*
G01*
X14389100Y-1282700D03*
G01*
X14389100Y-520700D03*
G01*
X14643100Y-1282700D03*
G01*
X14643100Y-520700D03*
G01*
X14897100Y-1282700D03*
G01*
X14897100Y-520700D03*
G01*
X15151100Y-1282700D03*
G01*
X15151100Y-520700D03*
G01*
X15405100Y-1282700D03*
G01*
X15405100Y-520700D03*
G01*
X15659100Y-1282700D03*
G01*
X15659100Y-520700D03*
G01*
X15913100Y-1282700D03*
G01*
X15913100Y-520700D03*
G01*
X16167100Y-1282700D03*
G01*
X16167100Y-520700D03*
G01*
X16421100Y-1282700D03*
G01*
X16421100Y-520700D03*
G36*
X11578590Y-4093210D02*
G01*
X11578590Y-3933189D01*
X11738609Y-3933189D01*
X11738609Y-4093210D01*
G37*
D20*
G01*
X11912600Y-4013200D03*
G01*
X12166600Y-4013200D03*
G01*
X12420600Y-4013200D03*
G01*
X12674600Y-4013200D03*
G01*
X12928600Y-4013200D03*
G01*
X13182600Y-4013200D03*
G01*
X13436600Y-4013200D03*
G01*
X13436600Y-3251200D03*
G01*
X13182600Y-3251200D03*
G01*
X12928600Y-3251200D03*
G01*
X12674600Y-3251200D03*
G01*
X12420600Y-3251200D03*
G01*
X12166600Y-3251200D03*
G01*
X11912600Y-3251200D03*
G01*
X11658600Y-3251200D03*
G36*
X9260840Y-4093210D02*
G01*
X9260840Y-3933189D01*
X9420859Y-3933189D01*
X9420859Y-4093210D01*
G37*
G01*
X9594850Y-4013200D03*
G01*
X9848850Y-4013200D03*
G01*
X10102850Y-4013200D03*
G01*
X10356850Y-4013200D03*
G01*
X10610850Y-4013200D03*
G01*
X10864850Y-4013200D03*
G01*
X11118850Y-4013200D03*
G01*
X11118850Y-3251200D03*
G01*
X10864850Y-3251200D03*
G01*
X10610850Y-3251200D03*
G01*
X10356850Y-3251200D03*
G01*
X10102850Y-3251200D03*
G01*
X9848850Y-3251200D03*
G01*
X9594850Y-3251200D03*
G01*
X9340850Y-3251200D03*
G36*
X6943090Y-4093210D02*
G01*
X6943090Y-3933189D01*
X7103109Y-3933189D01*
X7103109Y-4093210D01*
G37*
G01*
X7277100Y-4013200D03*
G01*
X7531100Y-4013200D03*
G01*
X7785100Y-4013200D03*
G01*
X8039100Y-4013200D03*
G01*
X8293100Y-4013200D03*
G01*
X8547100Y-4013200D03*
G01*
X8801100Y-4013200D03*
G01*
X8801100Y-3251200D03*
G01*
X8547100Y-3251200D03*
G01*
X8293100Y-3251200D03*
G01*
X8039100Y-3251200D03*
G01*
X7785100Y-3251200D03*
G01*
X7531100Y-3251200D03*
G01*
X7277100Y-3251200D03*
G01*
X7023100Y-3251200D03*
G36*
X9267190Y-2340610D02*
G01*
X9267190Y-2180589D01*
X9427209Y-2180589D01*
X9427209Y-2340610D01*
G37*
G01*
X9601200Y-2260600D03*
G01*
X9855200Y-2260600D03*
G01*
X10109200Y-2260600D03*
G01*
X10363200Y-2260600D03*
G01*
X10617200Y-2260600D03*
G01*
X10871200Y-2260600D03*
G01*
X11125200Y-2260600D03*
G01*
X11125200Y-1498600D03*
G01*
X10871200Y-1498600D03*
G01*
X10617200Y-1498600D03*
G01*
X10363200Y-1498600D03*
G01*
X10109200Y-1498600D03*
G01*
X9855200Y-1498600D03*
G01*
X9601200Y-1498600D03*
G01*
X9347200Y-1498600D03*
G36*
X18627090Y-2118360D02*
G01*
X18627090Y-1958339D01*
X18787109Y-1958339D01*
X18787109Y-2118360D01*
G37*
G01*
X18453100Y-2038350D03*
G01*
X18199100Y-2038350D03*
G01*
X17945100Y-2038350D03*
G01*
X17691100Y-2038350D03*
G01*
X17437100Y-2038350D03*
G01*
X17183100Y-2038350D03*
G01*
X16929100Y-2038350D03*
G01*
X16675100Y-2038350D03*
G01*
X16421100Y-2038350D03*
G01*
X16421100Y-2800350D03*
G01*
X16675100Y-2800350D03*
G01*
X16929100Y-2800350D03*
G01*
X17183100Y-2800350D03*
G01*
X17437100Y-2800350D03*
G01*
X17691100Y-2800350D03*
G01*
X17945100Y-2800350D03*
G01*
X18199100Y-2800350D03*
G01*
X18453100Y-2800350D03*
G01*
X18707100Y-2800350D03*
G36*
X21357590Y-2118360D02*
G01*
X21357590Y-1958339D01*
X21517609Y-1958339D01*
X21517609Y-2118360D01*
G37*
G01*
X21183600Y-2038350D03*
G01*
X20929600Y-2038350D03*
G01*
X20675600Y-2038350D03*
G01*
X20421600Y-2038350D03*
G01*
X20167600Y-2038350D03*
G01*
X19913600Y-2038350D03*
G01*
X19659600Y-2038350D03*
G01*
X19405600Y-2038350D03*
G01*
X19151600Y-2038350D03*
G01*
X19151600Y-2800350D03*
G01*
X19405600Y-2800350D03*
G01*
X19659600Y-2800350D03*
G01*
X19913600Y-2800350D03*
G01*
X20167600Y-2800350D03*
G01*
X20421600Y-2800350D03*
G01*
X20675600Y-2800350D03*
G01*
X20929600Y-2800350D03*
G01*
X21183600Y-2800350D03*
G01*
X21437600Y-2800350D03*
G36*
X20938490Y-5325110D02*
G01*
X20938490Y-5165089D01*
X21098509Y-5165089D01*
X21098509Y-5325110D01*
G37*
G01*
X21272500Y-5245100D03*
G01*
X21526500Y-5245100D03*
G01*
X21780500Y-5245100D03*
G01*
X22034500Y-5245100D03*
G01*
X22288500Y-5245100D03*
G01*
X22542500Y-5245100D03*
G01*
X22796500Y-5245100D03*
G01*
X22796500Y-4483100D03*
G01*
X22542500Y-4483100D03*
G01*
X22288500Y-4483100D03*
G01*
X22034500Y-4483100D03*
G01*
X21780500Y-4483100D03*
G01*
X21526500Y-4483100D03*
G01*
X21272500Y-4483100D03*
G01*
X21018500Y-4483100D03*
G36*
X18792190Y-5325110D02*
G01*
X18792190Y-5165089D01*
X18952209Y-5165089D01*
X18952209Y-5325110D01*
G37*
G01*
X19126200Y-5245100D03*
G01*
X19380200Y-5245100D03*
G01*
X19634200Y-5245100D03*
G01*
X19888200Y-5245100D03*
G01*
X20142200Y-5245100D03*
G01*
X20396200Y-5245100D03*
G01*
X20650200Y-5245100D03*
G01*
X20650200Y-4483100D03*
G01*
X20396200Y-4483100D03*
G01*
X20142200Y-4483100D03*
G01*
X19888200Y-4483100D03*
G01*
X19634200Y-4483100D03*
G01*
X19380200Y-4483100D03*
G01*
X19126200Y-4483100D03*
G01*
X18872200Y-4483100D03*
G36*
X23084790Y-5325110D02*
G01*
X23084790Y-5165089D01*
X23244809Y-5165089D01*
X23244809Y-5325110D01*
G37*
G01*
X23418800Y-5245100D03*
G01*
X23672800Y-5245100D03*
G01*
X23926800Y-5245100D03*
G01*
X24180800Y-5245100D03*
G01*
X24434800Y-5245100D03*
G01*
X24688800Y-5245100D03*
G01*
X24942800Y-5245100D03*
G01*
X24942800Y-4483100D03*
G01*
X24688800Y-4483100D03*
G01*
X24434800Y-4483100D03*
G01*
X24180800Y-4483100D03*
G01*
X23926800Y-4483100D03*
G01*
X23672800Y-4483100D03*
G01*
X23418800Y-4483100D03*
G01*
X23164800Y-4483100D03*
G36*
X19609308Y-18545810D02*
G01*
X19609308Y-18385789D01*
X19769327Y-18385789D01*
X19769327Y-18545810D01*
G37*
G01*
X19435241Y-18465800D03*
G01*
X19181241Y-18465800D03*
G01*
X18927241Y-18465800D03*
G01*
X18673241Y-18465800D03*
G01*
X18419241Y-18465800D03*
G01*
X18165241Y-18465800D03*
G01*
X17911241Y-18465800D03*
G01*
X17911241Y-19227800D03*
G01*
X18165241Y-19227800D03*
G01*
X18419241Y-19227800D03*
G01*
X18673241Y-19227800D03*
G01*
X18927241Y-19227800D03*
G01*
X19181241Y-19227800D03*
G01*
X19435241Y-19227800D03*
G01*
X19689241Y-19227800D03*
G36*
X21965666Y-18545810D02*
G01*
X21965666Y-18385789D01*
X22125686Y-18385789D01*
X22125686Y-18545810D01*
G37*
G01*
X21791802Y-18465800D03*
G01*
X21537802Y-18465800D03*
G01*
X21283802Y-18465800D03*
G01*
X21029802Y-18465800D03*
G01*
X20775802Y-18465800D03*
G01*
X20521802Y-18465800D03*
G01*
X20267802Y-18465800D03*
G01*
X20267802Y-19227800D03*
G01*
X20521802Y-19227800D03*
G01*
X20775802Y-19227800D03*
G01*
X21029802Y-19227800D03*
G01*
X21283802Y-19227800D03*
G01*
X21537802Y-19227800D03*
G01*
X21791802Y-19227800D03*
G01*
X22045802Y-19227800D03*
G36*
X24322277Y-18545810D02*
G01*
X24322277Y-18385789D01*
X24482298Y-18385789D01*
X24482298Y-18545810D01*
G37*
G01*
X24148338Y-18465800D03*
G01*
X23894338Y-18465800D03*
G01*
X23640338Y-18465800D03*
G01*
X23386338Y-18465800D03*
G01*
X23132338Y-18465800D03*
G01*
X22878338Y-18465800D03*
G01*
X22624338Y-18465800D03*
G01*
X22624338Y-19227800D03*
G01*
X22878338Y-19227800D03*
G01*
X23132338Y-19227800D03*
G01*
X23386338Y-19227800D03*
G01*
X23640338Y-19227800D03*
G01*
X23894338Y-19227800D03*
G01*
X24148338Y-19227800D03*
G01*
X24402338Y-19227800D03*
G36*
X26678890Y-18545810D02*
G01*
X26678890Y-18385789D01*
X26838909Y-18385789D01*
X26838909Y-18545810D01*
G37*
G01*
X26504900Y-18465800D03*
G01*
X26250900Y-18465800D03*
G01*
X25996900Y-18465800D03*
G01*
X25742900Y-18465800D03*
G01*
X25488900Y-18465800D03*
G01*
X25234900Y-18465800D03*
G01*
X24980900Y-18465800D03*
G01*
X24980900Y-19227800D03*
G01*
X25234900Y-19227800D03*
G01*
X25488900Y-19227800D03*
G01*
X25742900Y-19227800D03*
G01*
X25996900Y-19227800D03*
G01*
X26250900Y-19227800D03*
G01*
X26504900Y-19227800D03*
G01*
X26758900Y-19227800D03*
G36*
X15769590Y-14265910D02*
G01*
X15769590Y-14105889D01*
X15929609Y-14105889D01*
X15929609Y-14265910D01*
G37*
G01*
X15849600Y-14439900D03*
G01*
X15849600Y-14693900D03*
G01*
X15849600Y-14947900D03*
G01*
X15849600Y-15201900D03*
G01*
X15849600Y-15455900D03*
G01*
X15849600Y-15709900D03*
G01*
X15849600Y-15963900D03*
G01*
X15849600Y-16217900D03*
G01*
X15849600Y-16471900D03*
G01*
X16611600Y-16471900D03*
G01*
X16611600Y-16217900D03*
G01*
X16611600Y-15963900D03*
G01*
X16611600Y-15709900D03*
G01*
X16611600Y-15455900D03*
G01*
X16611600Y-15201900D03*
G01*
X16611600Y-14947900D03*
G01*
X16611600Y-14693900D03*
G01*
X16611600Y-14439900D03*
G01*
X16611600Y-14185900D03*
G36*
X15769590Y-16869410D02*
G01*
X15769590Y-16709389D01*
X15929609Y-16709389D01*
X15929609Y-16869410D01*
G37*
G01*
X15849600Y-17043400D03*
G01*
X15849600Y-17297400D03*
G01*
X15849600Y-17551400D03*
G01*
X15849600Y-17805400D03*
G01*
X15849600Y-18059400D03*
G01*
X15849600Y-18313400D03*
G01*
X15849600Y-18567400D03*
G01*
X15849600Y-18821400D03*
G01*
X15849600Y-19075400D03*
G01*
X16611600Y-19075400D03*
G01*
X16611600Y-18821400D03*
G01*
X16611600Y-18567400D03*
G01*
X16611600Y-18313400D03*
G01*
X16611600Y-18059400D03*
G01*
X16611600Y-17805400D03*
G01*
X16611600Y-17551400D03*
G01*
X16611600Y-17297400D03*
G01*
X16611600Y-17043400D03*
G01*
X16611600Y-16789400D03*
G36*
X22111208Y-8741410D02*
G01*
X22111208Y-8581389D01*
X22271227Y-8581389D01*
X22271227Y-8741410D01*
G37*
G01*
X22445141Y-8661400D03*
G01*
X22699141Y-8661400D03*
G01*
X22953141Y-8661400D03*
G01*
X23207141Y-8661400D03*
G01*
X23461141Y-8661400D03*
G01*
X23715141Y-8661400D03*
G01*
X23969141Y-8661400D03*
G01*
X23969141Y-7899400D03*
G01*
X23715141Y-7899400D03*
G01*
X23461141Y-7899400D03*
G01*
X23207141Y-7899400D03*
G01*
X22953141Y-7899400D03*
G01*
X22699141Y-7899400D03*
G01*
X22445141Y-7899400D03*
G01*
X22191141Y-7899400D03*
G36*
X19719290Y-8741410D02*
G01*
X19719290Y-8581389D01*
X19879309Y-8581389D01*
X19879309Y-8741410D01*
G37*
G01*
X20053300Y-8661400D03*
G01*
X20307300Y-8661400D03*
G01*
X20561300Y-8661400D03*
G01*
X20815300Y-8661400D03*
G01*
X21069300Y-8661400D03*
G01*
X21323300Y-8661400D03*
G01*
X21577300Y-8661400D03*
G01*
X21577300Y-7899400D03*
G01*
X21323300Y-7899400D03*
G01*
X21069300Y-7899400D03*
G01*
X20815300Y-7899400D03*
G01*
X20561300Y-7899400D03*
G01*
X20307300Y-7899400D03*
G01*
X20053300Y-7899400D03*
G01*
X19799300Y-7899400D03*
G36*
X24502872Y-8741410D02*
G01*
X24502872Y-8581389D01*
X24662891Y-8581389D01*
X24662891Y-8741410D01*
G37*
G01*
X24836958Y-8661400D03*
G01*
X25090958Y-8661400D03*
G01*
X25344958Y-8661400D03*
G01*
X25598958Y-8661400D03*
G01*
X25852958Y-8661400D03*
G01*
X26106958Y-8661400D03*
G01*
X26360958Y-8661400D03*
G01*
X26360958Y-7899400D03*
G01*
X26106958Y-7899400D03*
G01*
X25852958Y-7899400D03*
G01*
X25598958Y-7899400D03*
G01*
X25344958Y-7899400D03*
G01*
X25090958Y-7899400D03*
G01*
X24836958Y-7899400D03*
G01*
X24582958Y-7899400D03*
G36*
X26894790Y-8741410D02*
G01*
X26894790Y-8581389D01*
X27054809Y-8581389D01*
X27054809Y-8741410D01*
G37*
G01*
X27228800Y-8661400D03*
G01*
X27482800Y-8661400D03*
G01*
X27736800Y-8661400D03*
G01*
X27990800Y-8661400D03*
G01*
X28244800Y-8661400D03*
G01*
X28498800Y-8661400D03*
G01*
X28752800Y-8661400D03*
G01*
X28752800Y-7899400D03*
G01*
X28498800Y-7899400D03*
G01*
X28244800Y-7899400D03*
G01*
X27990800Y-7899400D03*
G01*
X27736800Y-7899400D03*
G01*
X27482800Y-7899400D03*
G01*
X27228800Y-7899400D03*
G01*
X26974800Y-7899400D03*
G36*
X25231090Y-5325110D02*
G01*
X25231090Y-5165089D01*
X25391109Y-5165089D01*
X25391109Y-5325110D01*
G37*
G01*
X25565100Y-5245100D03*
G01*
X25819100Y-5245100D03*
G01*
X26073100Y-5245100D03*
G01*
X26327100Y-5245100D03*
G01*
X26581100Y-5245100D03*
G01*
X26835100Y-5245100D03*
G01*
X27089100Y-5245100D03*
G01*
X27089100Y-4483100D03*
G01*
X26835100Y-4483100D03*
G01*
X26581100Y-4483100D03*
G01*
X26327100Y-4483100D03*
G01*
X26073100Y-4483100D03*
G01*
X25819100Y-4483100D03*
G01*
X25565100Y-4483100D03*
G01*
X25311100Y-4483100D03*
G36*
X16125190Y-4969510D02*
G01*
X16125190Y-4809489D01*
X16285209Y-4809489D01*
X16285209Y-4969510D01*
G37*
G01*
X16205200Y-5143500D03*
G01*
X16205200Y-5397500D03*
G01*
X16205200Y-5651500D03*
G01*
X16205200Y-5905500D03*
G01*
X16205200Y-6159500D03*
G01*
X16205200Y-6413500D03*
G01*
X16205200Y-6667500D03*
G01*
X16205200Y-6921500D03*
G01*
X16205200Y-7175500D03*
G01*
X16967200Y-7175500D03*
G01*
X16967200Y-6921500D03*
G01*
X16967200Y-6667500D03*
G01*
X16967200Y-6413500D03*
G01*
X16967200Y-6159500D03*
G01*
X16967200Y-5905500D03*
G01*
X16967200Y-5651500D03*
G01*
X16967200Y-5397500D03*
G01*
X16967200Y-5143500D03*
G01*
X16967200Y-4889500D03*
G36*
X16125190Y-7573010D02*
G01*
X16125190Y-7412989D01*
X16285209Y-7412989D01*
X16285209Y-7573010D01*
G37*
G01*
X16205200Y-7747000D03*
G01*
X16205200Y-8001000D03*
G01*
X16205200Y-8255000D03*
G01*
X16205200Y-8509000D03*
G01*
X16205200Y-8763000D03*
G01*
X16205200Y-9017000D03*
G01*
X16205200Y-9271000D03*
G01*
X16205200Y-9525000D03*
G01*
X16205200Y-9779000D03*
G01*
X16967200Y-9779000D03*
G01*
X16967200Y-9525000D03*
G01*
X16967200Y-9271000D03*
G01*
X16967200Y-9017000D03*
G01*
X16967200Y-8763000D03*
G01*
X16967200Y-8509000D03*
G01*
X16967200Y-8255000D03*
G01*
X16967200Y-8001000D03*
G01*
X16967200Y-7747000D03*
G01*
X16967200Y-7493000D03*
G36*
X17204690Y-10163810D02*
G01*
X17204690Y-10003789D01*
X17364709Y-10003789D01*
X17364709Y-10163810D01*
G37*
G01*
X17284700Y-10337800D03*
G01*
X17284700Y-10591800D03*
G01*
X17284700Y-10845800D03*
G01*
X17284700Y-11099800D03*
G01*
X17284700Y-11353800D03*
G01*
X17284700Y-11607800D03*
G01*
X17284700Y-11861800D03*
G01*
X17284700Y-12115800D03*
G01*
X17284700Y-12369800D03*
G01*
X18046700Y-12369800D03*
G01*
X18046700Y-12115800D03*
G01*
X18046700Y-11861800D03*
G01*
X18046700Y-11607800D03*
G01*
X18046700Y-11353800D03*
G01*
X18046700Y-11099800D03*
G01*
X18046700Y-10845800D03*
G01*
X18046700Y-10591800D03*
G01*
X18046700Y-10337800D03*
G01*
X18046700Y-10083800D03*
G36*
X15769590Y-11662410D02*
G01*
X15769590Y-11502389D01*
X15929609Y-11502389D01*
X15929609Y-11662410D01*
G37*
G01*
X15849600Y-11836400D03*
G01*
X15849600Y-12090400D03*
G01*
X15849600Y-12344400D03*
G01*
X15849600Y-12598400D03*
G01*
X15849600Y-12852400D03*
G01*
X15849600Y-13106400D03*
G01*
X15849600Y-13360400D03*
G01*
X15849600Y-13614400D03*
G01*
X15849600Y-13868400D03*
G01*
X16611600Y-13868400D03*
G01*
X16611600Y-13614400D03*
G01*
X16611600Y-13360400D03*
G01*
X16611600Y-13106400D03*
G01*
X16611600Y-12852400D03*
G01*
X16611600Y-12598400D03*
G01*
X16611600Y-12344400D03*
G01*
X16611600Y-12090400D03*
G01*
X16611600Y-11836400D03*
G01*
X16611600Y-11582400D03*
G36*
X27478990Y-15942310D02*
G01*
X27478990Y-15782289D01*
X27639009Y-15782289D01*
X27639009Y-15942310D01*
G37*
G01*
X27813000Y-15862300D03*
G01*
X28067000Y-15862300D03*
G01*
X28321000Y-15862300D03*
G01*
X28575000Y-15862300D03*
G01*
X28829000Y-15862300D03*
G01*
X29083000Y-15862300D03*
G01*
X29337000Y-15862300D03*
G01*
X29337000Y-15100300D03*
G01*
X29083000Y-15100300D03*
G01*
X28829000Y-15100300D03*
G01*
X28575000Y-15100300D03*
G01*
X28321000Y-15100300D03*
G01*
X28067000Y-15100300D03*
G01*
X27813000Y-15100300D03*
G01*
X27559000Y-15100300D03*
D52*
G01*
X21747479Y-13756639D03*
G01*
X22397720Y-13756639D03*
G01*
X21747479Y-14208760D03*
G01*
X22397720Y-14208760D03*
G01*
X25133300Y-15113000D03*
G01*
X25895300Y-15113000D03*
G36*
X19668490Y-1311910D02*
G01*
X19668490Y-1151889D01*
X19828509Y-1151889D01*
X19828509Y-1311910D01*
G37*
D20*
G01*
X20002500Y-1231900D03*
G01*
X20256500Y-1231900D03*
G01*
X20510500Y-1231900D03*
G01*
X20764500Y-1231900D03*
G01*
X21018500Y-1231900D03*
G01*
X21272500Y-1231900D03*
G01*
X21526500Y-1231900D03*
G01*
X21780500Y-1231900D03*
G01*
X22034500Y-1231900D03*
G01*
X22034500Y-469900D03*
G01*
X21780500Y-469900D03*
G01*
X21526500Y-469900D03*
G01*
X21272500Y-469900D03*
G01*
X21018500Y-469900D03*
G01*
X20764500Y-469900D03*
G01*
X20510500Y-469900D03*
G01*
X20256500Y-469900D03*
G01*
X20002500Y-469900D03*
G01*
X19748500Y-469900D03*
G36*
X16976090Y-1311910D02*
G01*
X16976090Y-1151889D01*
X17136109Y-1151889D01*
X17136109Y-1311910D01*
G37*
G01*
X17310100Y-1231900D03*
G01*
X17564100Y-1231900D03*
G01*
X17818100Y-1231900D03*
G01*
X18072100Y-1231900D03*
G01*
X18326100Y-1231900D03*
G01*
X18580100Y-1231900D03*
G01*
X18834100Y-1231900D03*
G01*
X19088100Y-1231900D03*
G01*
X19342100Y-1231900D03*
G01*
X19342100Y-469900D03*
G01*
X19088100Y-469900D03*
G01*
X18834100Y-469900D03*
G01*
X18580100Y-469900D03*
G01*
X18326100Y-469900D03*
G01*
X18072100Y-469900D03*
G01*
X17818100Y-469900D03*
G01*
X17564100Y-469900D03*
G01*
X17310100Y-469900D03*
G01*
X17056100Y-469900D03*
D60*
G01*
X8115300Y-762000D03*
G01*
X8115300Y-1016000D03*
G01*
X7861300Y-762000D03*
G01*
X7861300Y-1016000D03*
G01*
X7607300Y-762000D03*
G36*
X7518400Y-1104900D02*
G01*
X7518400Y-927100D01*
X7696200Y-927100D01*
X7696200Y-1104900D01*
G37*
G36*
X22363684Y-1051560D02*
G01*
X22363684Y-650239D01*
X22561804Y-650239D01*
X22561804Y-1051560D01*
G37*
G36*
X23183595Y-1051560D02*
G01*
X23183595Y-650239D01*
X23381716Y-650239D01*
X23381716Y-1051560D01*
G37*
D47*
G01*
X23072699Y-725906D03*
G01*
X22872700Y-725906D03*
G01*
X22672700Y-725906D03*
G01*
X22672700Y-975918D03*
G01*
X22872700Y-975918D03*
G01*
X23072699Y-975918D03*
G01*
X17767300Y-177800D03*
G01*
X18021300Y-177800D03*
G01*
X18275300Y-177800D03*
G01*
X18529300Y-177800D03*
G01*
X18783300Y-177800D03*
G01*
X19037300Y-177800D03*
G01*
X19291300Y-177800D03*
G01*
X19545300Y-177800D03*
G01*
X19799300Y-177800D03*
G01*
X20053300Y-177800D03*
G01*
X20307300Y-177800D03*
G01*
X20561300Y-177800D03*
G01*
X20815300Y-177800D03*
G01*
X21069300Y-177800D03*
G01*
X21323300Y-177800D03*
G01*
X21577300Y-177800D03*
G36*
X21742400Y-266700D02*
G01*
X21742400Y-88900D01*
X21920200Y-88900D01*
X21920200Y-266700D01*
G37*
G36*
X7918195Y-1965960D02*
G01*
X7918195Y-1564639D01*
X8116315Y-1564639D01*
X8116315Y-1965960D01*
G37*
G36*
X7098284Y-1965960D02*
G01*
X7098284Y-1564639D01*
X7296404Y-1564639D01*
X7296404Y-1965960D01*
G37*
G01*
X7407325Y-1890318D03*
G01*
X7607325Y-1890318D03*
G01*
X7807325Y-1890318D03*
G01*
X7807325Y-1640306D03*
G01*
X7607325Y-1640306D03*
G01*
X7407325Y-1640306D03*
D60*
G01*
X3416300Y-16179800D03*
G01*
X3416300Y-16433800D03*
G01*
X3162300Y-16179800D03*
G01*
X3162300Y-16433800D03*
G01*
X2908300Y-16179800D03*
G36*
X2819400Y-16522700D02*
G01*
X2819400Y-16344900D01*
X2997200Y-16344900D01*
X2997200Y-16522700D01*
G37*
G36*
X24298909Y-22640036D02*
G01*
X24298909Y-22419563D01*
X24469090Y-22419563D01*
X24469090Y-22640036D01*
G37*
G36*
X20196809Y-22640036D02*
G01*
X20196809Y-22419563D01*
X20366990Y-22419563D01*
X20366990Y-22640036D01*
G37*
G36*
X16002508Y-21797010D02*
G01*
X16002508Y-21636989D01*
X16162527Y-21636989D01*
X16162527Y-21797010D01*
G37*
D20*
G01*
X16336441Y-21717000D03*
G01*
X16590441Y-21717000D03*
G01*
X16844441Y-21717000D03*
G01*
X17098441Y-21717000D03*
G01*
X17352441Y-21717000D03*
G01*
X17606441Y-21717000D03*
G01*
X17860441Y-21717000D03*
G01*
X17860441Y-20955000D03*
G01*
X17606441Y-20955000D03*
G01*
X17352441Y-20955000D03*
G01*
X17098441Y-20955000D03*
G01*
X16844441Y-20955000D03*
G01*
X16590441Y-20955000D03*
G01*
X16336441Y-20955000D03*
G01*
X16082441Y-20955000D03*
G36*
X18157190Y-21797010D02*
G01*
X18157190Y-21636989D01*
X18317209Y-21636989D01*
X18317209Y-21797010D01*
G37*
G01*
X18491200Y-21717000D03*
G01*
X18745200Y-21717000D03*
G01*
X18999200Y-21717000D03*
G01*
X19253200Y-21717000D03*
G01*
X19507200Y-21717000D03*
G01*
X19761200Y-21717000D03*
G01*
X20015200Y-21717000D03*
G01*
X20015200Y-20955000D03*
G01*
X19761200Y-20955000D03*
G01*
X19507200Y-20955000D03*
G01*
X19253200Y-20955000D03*
G01*
X18999200Y-20955000D03*
G01*
X18745200Y-20955000D03*
G01*
X18491200Y-20955000D03*
G01*
X18237200Y-20955000D03*
G36*
X20311872Y-21797010D02*
G01*
X20311872Y-21636989D01*
X20471891Y-21636989D01*
X20471891Y-21797010D01*
G37*
G01*
X20645958Y-21717000D03*
G01*
X20899958Y-21717000D03*
G01*
X21153958Y-21717000D03*
G01*
X21407958Y-21717000D03*
G01*
X21661958Y-21717000D03*
G01*
X21915958Y-21717000D03*
G01*
X22169958Y-21717000D03*
G01*
X22169958Y-20955000D03*
G01*
X21915958Y-20955000D03*
G01*
X21661958Y-20955000D03*
G01*
X21407958Y-20955000D03*
G01*
X21153958Y-20955000D03*
G01*
X20899958Y-20955000D03*
G01*
X20645958Y-20955000D03*
G01*
X20391958Y-20955000D03*
G36*
X22466808Y-21797010D02*
G01*
X22466808Y-21636989D01*
X22626827Y-21636989D01*
X22626827Y-21797010D01*
G37*
G01*
X22800741Y-21717000D03*
G01*
X23054741Y-21717000D03*
G01*
X23308741Y-21717000D03*
G01*
X23562741Y-21717000D03*
G01*
X23816741Y-21717000D03*
G01*
X24070741Y-21717000D03*
G01*
X24324741Y-21717000D03*
G01*
X24324741Y-20955000D03*
G01*
X24070741Y-20955000D03*
G01*
X23816741Y-20955000D03*
G01*
X23562741Y-20955000D03*
G01*
X23308741Y-20955000D03*
G01*
X23054741Y-20955000D03*
G01*
X22800741Y-20955000D03*
G01*
X22546741Y-20955000D03*
G36*
X27618690Y-23524210D02*
G01*
X27618690Y-23364189D01*
X27778709Y-23364189D01*
X27778709Y-23524210D01*
G37*
G01*
X27952700Y-23444200D03*
G01*
X28206700Y-23444200D03*
G01*
X28460700Y-23444200D03*
G01*
X28714700Y-23444200D03*
G01*
X28968700Y-23444200D03*
G01*
X29222700Y-23444200D03*
G01*
X29476700Y-23444200D03*
G01*
X29476700Y-22682200D03*
G01*
X29222700Y-22682200D03*
G01*
X28968700Y-22682200D03*
G01*
X28714700Y-22682200D03*
G01*
X28460700Y-22682200D03*
G01*
X28206700Y-22682200D03*
G01*
X27952700Y-22682200D03*
G01*
X27698700Y-22682200D03*
G36*
X25256490Y-23524210D02*
G01*
X25256490Y-23364189D01*
X25416509Y-23364189D01*
X25416509Y-23524210D01*
G37*
G01*
X25590500Y-23444200D03*
G01*
X25844500Y-23444200D03*
G01*
X26098500Y-23444200D03*
G01*
X26352500Y-23444200D03*
G01*
X26606500Y-23444200D03*
G01*
X26860500Y-23444200D03*
G01*
X27114500Y-23444200D03*
G01*
X27114500Y-22682200D03*
G01*
X26860500Y-22682200D03*
G01*
X26606500Y-22682200D03*
G01*
X26352500Y-22682200D03*
G01*
X26098500Y-22682200D03*
G01*
X25844500Y-22682200D03*
G01*
X25590500Y-22682200D03*
G01*
X25336500Y-22682200D03*
G36*
X25472390Y-21924010D02*
G01*
X25472390Y-21763989D01*
X25632409Y-21763989D01*
X25632409Y-21924010D01*
G37*
G01*
X25806400Y-21844000D03*
G01*
X26060400Y-21844000D03*
G01*
X26314400Y-21844000D03*
G01*
X26568400Y-21844000D03*
G01*
X26822400Y-21844000D03*
G01*
X27076400Y-21844000D03*
G01*
X27330400Y-21844000D03*
G01*
X27584400Y-21844000D03*
G01*
X27838400Y-21844000D03*
G01*
X27838400Y-21082000D03*
G01*
X27584400Y-21082000D03*
G01*
X27330400Y-21082000D03*
G01*
X27076400Y-21082000D03*
G01*
X26822400Y-21082000D03*
G01*
X26568400Y-21082000D03*
G01*
X26314400Y-21082000D03*
G01*
X26060400Y-21082000D03*
G01*
X25806400Y-21082000D03*
G01*
X25552400Y-21082000D03*
G36*
X3780790Y-17682210D02*
G01*
X3780790Y-17522189D01*
X3940809Y-17522189D01*
X3940809Y-17682210D01*
G37*
G01*
X4114800Y-17602200D03*
G01*
X4368800Y-17602200D03*
G01*
X4622800Y-17602200D03*
G01*
X4876800Y-17602200D03*
G01*
X5130800Y-17602200D03*
G01*
X5384800Y-17602200D03*
G01*
X5638800Y-17602200D03*
G01*
X5638800Y-16840200D03*
G01*
X5384800Y-16840200D03*
G01*
X5130800Y-16840200D03*
G01*
X4876800Y-16840200D03*
G01*
X4622800Y-16840200D03*
G01*
X4368800Y-16840200D03*
G01*
X4114800Y-16840200D03*
G01*
X3860800Y-16840200D03*
G36*
X6155690Y-17682210D02*
G01*
X6155690Y-17522189D01*
X6315709Y-17522189D01*
X6315709Y-17682210D01*
G37*
G01*
X6489700Y-17602200D03*
G01*
X6743700Y-17602200D03*
G01*
X6997700Y-17602200D03*
G01*
X7251700Y-17602200D03*
G01*
X7505700Y-17602200D03*
G01*
X7759700Y-17602200D03*
G01*
X8013700Y-17602200D03*
G01*
X8013700Y-16840200D03*
G01*
X7759700Y-16840200D03*
G01*
X7505700Y-16840200D03*
G01*
X7251700Y-16840200D03*
G01*
X6997700Y-16840200D03*
G01*
X6743700Y-16840200D03*
G01*
X6489700Y-16840200D03*
G01*
X6235700Y-16840200D03*
G36*
X8530590Y-17682210D02*
G01*
X8530590Y-17522189D01*
X8690609Y-17522189D01*
X8690609Y-17682210D01*
G37*
G01*
X8864600Y-17602200D03*
G01*
X9118600Y-17602200D03*
G01*
X9372600Y-17602200D03*
G01*
X9626600Y-17602200D03*
G01*
X9880600Y-17602200D03*
G01*
X10134600Y-17602200D03*
G01*
X10388600Y-17602200D03*
G01*
X10388600Y-16840200D03*
G01*
X10134600Y-16840200D03*
G01*
X9880600Y-16840200D03*
G01*
X9626600Y-16840200D03*
G01*
X9372600Y-16840200D03*
G01*
X9118600Y-16840200D03*
G01*
X8864600Y-16840200D03*
G01*
X8610600Y-16840200D03*
G36*
X10905490Y-17682210D02*
G01*
X10905490Y-17522189D01*
X11065509Y-17522189D01*
X11065509Y-17682210D01*
G37*
G01*
X11239500Y-17602200D03*
G01*
X11493500Y-17602200D03*
G01*
X11747500Y-17602200D03*
G01*
X12001500Y-17602200D03*
G01*
X12255500Y-17602200D03*
G01*
X12509500Y-17602200D03*
G01*
X12763500Y-17602200D03*
G01*
X12763500Y-16840200D03*
G01*
X12509500Y-16840200D03*
G01*
X12255500Y-16840200D03*
G01*
X12001500Y-16840200D03*
G01*
X11747500Y-16840200D03*
G01*
X11493500Y-16840200D03*
G01*
X11239500Y-16840200D03*
G01*
X10985500Y-16840200D03*
D52*
G01*
X3759200Y-17957800D03*
G01*
X3759200Y-18719800D03*
G01*
X4178300Y-18726150D03*
G01*
X4178300Y-17964150D03*
D25*
G01*
X4572000Y-19456400D03*
G01*
X4826000Y-19456400D03*
D52*
G01*
X3517900Y-19202400D03*
G01*
X4279900Y-19202400D03*
G36*
X10850372Y-21631910D02*
G01*
X10850372Y-21471889D01*
X11010391Y-21471889D01*
X11010391Y-21631910D01*
G37*
D20*
G01*
X11184458Y-21551900D03*
G01*
X11438458Y-21551900D03*
G01*
X11692458Y-21551900D03*
G01*
X11946458Y-21551900D03*
G01*
X12200458Y-21551900D03*
G01*
X12454458Y-21551900D03*
G01*
X12708458Y-21551900D03*
G01*
X12708458Y-20789900D03*
G01*
X12454458Y-20789900D03*
G01*
X12200458Y-20789900D03*
G01*
X11946458Y-20789900D03*
G01*
X11692458Y-20789900D03*
G01*
X11438458Y-20789900D03*
G01*
X11184458Y-20789900D03*
G01*
X10930458Y-20789900D03*
G36*
X8390890Y-21631910D02*
G01*
X8390890Y-21471889D01*
X8550909Y-21471889D01*
X8550909Y-21631910D01*
G37*
G01*
X8724900Y-21551900D03*
G01*
X8978900Y-21551900D03*
G01*
X9232900Y-21551900D03*
G01*
X9486900Y-21551900D03*
G01*
X9740900Y-21551900D03*
G01*
X9994900Y-21551900D03*
G01*
X10248900Y-21551900D03*
G01*
X10248900Y-20789900D03*
G01*
X9994900Y-20789900D03*
G01*
X9740900Y-20789900D03*
G01*
X9486900Y-20789900D03*
G01*
X9232900Y-20789900D03*
G01*
X8978900Y-20789900D03*
G01*
X8724900Y-20789900D03*
G01*
X8470900Y-20789900D03*
G36*
X5931408Y-21631910D02*
G01*
X5931408Y-21471889D01*
X6091427Y-21471889D01*
X6091427Y-21631910D01*
G37*
G01*
X6265341Y-21551900D03*
G01*
X6519341Y-21551900D03*
G01*
X6773341Y-21551900D03*
G01*
X7027341Y-21551900D03*
G01*
X7281341Y-21551900D03*
G01*
X7535341Y-21551900D03*
G01*
X7789341Y-21551900D03*
G01*
X7789341Y-20789900D03*
G01*
X7535341Y-20789900D03*
G01*
X7281341Y-20789900D03*
G01*
X7027341Y-20789900D03*
G01*
X6773341Y-20789900D03*
G01*
X6519341Y-20789900D03*
G01*
X6265341Y-20789900D03*
G01*
X6011341Y-20789900D03*
G36*
X3471672Y-21631910D02*
G01*
X3471672Y-21471889D01*
X3631691Y-21471889D01*
X3631691Y-21631910D01*
G37*
G01*
X3805758Y-21551900D03*
G01*
X4059758Y-21551900D03*
G01*
X4313758Y-21551900D03*
G01*
X4567758Y-21551900D03*
G01*
X4821758Y-21551900D03*
G01*
X5075758Y-21551900D03*
G01*
X5329758Y-21551900D03*
G01*
X5329758Y-20789900D03*
G01*
X5075758Y-20789900D03*
G01*
X4821758Y-20789900D03*
G01*
X4567758Y-20789900D03*
G01*
X4313758Y-20789900D03*
G01*
X4059758Y-20789900D03*
G01*
X3805758Y-20789900D03*
G01*
X3551758Y-20789900D03*
G36*
X1875790Y-24794210D02*
G01*
X1875790Y-24634189D01*
X2035809Y-24634189D01*
X2035809Y-24794210D01*
G37*
G01*
X2209800Y-24714200D03*
G01*
X2463800Y-24714200D03*
G01*
X2717800Y-24714200D03*
G01*
X2971800Y-24714200D03*
G01*
X3225800Y-24714200D03*
G01*
X3479800Y-24714200D03*
G01*
X3733800Y-24714200D03*
G01*
X3987800Y-24714200D03*
G01*
X4241800Y-24714200D03*
G01*
X4495800Y-24714200D03*
G01*
X4749800Y-24714200D03*
G01*
X5003800Y-24714200D03*
G01*
X5257800Y-24714200D03*
G01*
X5257800Y-23190200D03*
G01*
X5003800Y-23190200D03*
G01*
X4749800Y-23190200D03*
G01*
X4495800Y-23190200D03*
G01*
X4241800Y-23190200D03*
G01*
X3987800Y-23190200D03*
G01*
X3733800Y-23190200D03*
G01*
X3479800Y-23190200D03*
G01*
X3225800Y-23190200D03*
G01*
X2971800Y-23190200D03*
G01*
X2717800Y-23190200D03*
G01*
X2463800Y-23190200D03*
G01*
X2209800Y-23190200D03*
G01*
X1955800Y-23190200D03*
G36*
X5577840Y-24794210D02*
G01*
X5577840Y-24634189D01*
X5737859Y-24634189D01*
X5737859Y-24794210D01*
G37*
G01*
X5911850Y-24714200D03*
G01*
X6165850Y-24714200D03*
G01*
X6419850Y-24714200D03*
G01*
X6673850Y-24714200D03*
G01*
X6927850Y-24714200D03*
G01*
X7181850Y-24714200D03*
G01*
X7435850Y-24714200D03*
G01*
X7689850Y-24714200D03*
G01*
X7943850Y-24714200D03*
G01*
X8197850Y-24714200D03*
G01*
X8451850Y-24714200D03*
G01*
X8705850Y-24714200D03*
G01*
X8959850Y-24714200D03*
G01*
X8959850Y-23190200D03*
G01*
X8705850Y-23190200D03*
G01*
X8451850Y-23190200D03*
G01*
X8197850Y-23190200D03*
G01*
X7943850Y-23190200D03*
G01*
X7689850Y-23190200D03*
G01*
X7435850Y-23190200D03*
G01*
X7181850Y-23190200D03*
G01*
X6927850Y-23190200D03*
G01*
X6673850Y-23190200D03*
G01*
X6419850Y-23190200D03*
G01*
X6165850Y-23190200D03*
G01*
X5911850Y-23190200D03*
G01*
X5657850Y-23190200D03*
G36*
X9279890Y-24794210D02*
G01*
X9279890Y-24634189D01*
X9439909Y-24634189D01*
X9439909Y-24794210D01*
G37*
G01*
X9613900Y-24714200D03*
G01*
X9867900Y-24714200D03*
G01*
X10121900Y-24714200D03*
G01*
X10375900Y-24714200D03*
G01*
X10629900Y-24714200D03*
G01*
X10883900Y-24714200D03*
G01*
X11137900Y-24714200D03*
G01*
X11391900Y-24714200D03*
G01*
X11645900Y-24714200D03*
G01*
X11899900Y-24714200D03*
G01*
X12153900Y-24714200D03*
G01*
X12407900Y-24714200D03*
G01*
X12661900Y-24714200D03*
G01*
X12661900Y-23190200D03*
G01*
X12407900Y-23190200D03*
G01*
X12153900Y-23190200D03*
G01*
X11899900Y-23190200D03*
G01*
X11645900Y-23190200D03*
G01*
X11391900Y-23190200D03*
G01*
X11137900Y-23190200D03*
G01*
X10883900Y-23190200D03*
G01*
X10629900Y-23190200D03*
G01*
X10375900Y-23190200D03*
G01*
X10121900Y-23190200D03*
G01*
X9867900Y-23190200D03*
G01*
X9613900Y-23190200D03*
G01*
X9359900Y-23190200D03*
D25*
G01*
X12661900Y-9486900D03*
G01*
X12915900Y-9486900D03*
D52*
G01*
X12750800Y-8280400D03*
G01*
X12750800Y-9042400D03*
D47*
G01*
X10795000Y-15557500D03*
G01*
X10795000Y-15811500D03*
G01*
X11226800Y-13449300D03*
G01*
X11226800Y-13703300D03*
G01*
X4483100Y-12763500D03*
G01*
X4483100Y-13017500D03*
G01*
X2222500Y-8775700D03*
G01*
X2222500Y-9029700D03*
G01*
X3975100Y-7518400D03*
G01*
X3721100Y-7518400D03*
G01*
X5918200Y-4013200D03*
G01*
X5664200Y-4013200D03*
G01*
X6692900Y-1193800D03*
G01*
X6438900Y-1193800D03*
G01*
X12153900Y-2108200D03*
G01*
X12153900Y-1854200D03*
G01*
X27495500Y-5473700D03*
G01*
X27495500Y-5727700D03*
G01*
X23139400Y-6197600D03*
G01*
X22885400Y-6197600D03*
G01*
X28409900Y-9525000D03*
G01*
X28409900Y-9271000D03*
G01*
X23190200Y-9347200D03*
G01*
X23444200Y-9347200D03*
G01*
X18402300Y-7670800D03*
G01*
X18402300Y-7416800D03*
G01*
X18999200Y-9423400D03*
G01*
X18745200Y-9423400D03*
G01*
X17297400Y-14439900D03*
G01*
X17297400Y-14185900D03*
G01*
X22098000Y-12560300D03*
G01*
X21844000Y-12560300D03*
G01*
X26771600Y-14820900D03*
G01*
X26771600Y-15074900D03*
G01*
X27571700Y-12458700D03*
G01*
X27571700Y-12712700D03*
D49*
G01*
X4419600Y-5829300D03*
G01*
X4673600Y-5829300D03*
G01*
X2362200Y-5867400D03*
G01*
X2616200Y-5867400D03*
G01*
X6553200Y-1917700D03*
G01*
X6807200Y-1917700D03*
G01*
X787400Y-3263900D03*
G01*
X787400Y-3009900D03*
G01*
X9715500Y-2794000D03*
G01*
X9715500Y-2540000D03*
G01*
X2425700Y-8153400D03*
G01*
X2679700Y-8153400D03*
G01*
X9829800Y-11798300D03*
G01*
X9575800Y-11798300D03*
G01*
X5676900Y-10820400D03*
G01*
X5676900Y-11074400D03*
G01*
X2959100Y-11925300D03*
G01*
X2705100Y-11925300D03*
G01*
X4699000Y-13538200D03*
G01*
X4445000Y-13538200D03*
G01*
X11303000Y-15138400D03*
G01*
X11303000Y-15392400D03*
G01*
X4114800Y-16332200D03*
G01*
X4114800Y-16078200D03*
G01*
X8763000Y-15011400D03*
G01*
X9017000Y-15011400D03*
G01*
X6184900Y-18097500D03*
G01*
X6438900Y-18097500D03*
G01*
X9690100Y-18503900D03*
G01*
X9690100Y-18757900D03*
G01*
X2235200Y-20701000D03*
G01*
X2235200Y-20955000D03*
G01*
X3149600Y-21043900D03*
G01*
X3149600Y-21297900D03*
G01*
X5670550Y-21389339D03*
G01*
X5670550Y-21643339D03*
G01*
X5448300Y-19583400D03*
G01*
X5448300Y-19837400D03*
G01*
X10858500Y-19596100D03*
G01*
X10858500Y-19850100D03*
G01*
X3454400Y-17119600D03*
G01*
X3454400Y-17373600D03*
D60*
G01*
X25768300Y-736600D03*
G01*
X25768300Y-990600D03*
G01*
X25514300Y-736600D03*
G01*
X25514300Y-990600D03*
G01*
X25260300Y-736600D03*
G36*
X25171400Y-1079500D02*
G01*
X25171400Y-901700D01*
X25349200Y-901700D01*
X25349200Y-1079500D01*
G37*
D49*
G01*
X889000Y-21399500D03*
G01*
X1143000Y-21399500D03*
G01*
X1485900Y-24028400D03*
G01*
X1485900Y-24282400D03*
D47*
G01*
X3619500Y-19824700D03*
G01*
X3873500Y-19824700D03*
G01*
X2692400Y-22440900D03*
G01*
X2692400Y-22694900D03*
D49*
G01*
X7518400Y-22377400D03*
G01*
X7264400Y-22377400D03*
G01*
X11442700Y-22834600D03*
G01*
X11696700Y-22834600D03*
D47*
G01*
X28003500Y-18961100D03*
G01*
X28003500Y-18707100D03*
G01*
X28498800Y-21793200D03*
G01*
X28498800Y-21539200D03*
G01*
X25819100Y-24561800D03*
G01*
X25819100Y-24307800D03*
D49*
G01*
X24980900Y-1930400D03*
G01*
X24980900Y-1676400D03*
G01*
X27774900Y-3111500D03*
G01*
X27520900Y-3111500D03*
G01*
X27660600Y-4660900D03*
G01*
X27914600Y-4660900D03*
G01*
X27673300Y-5080000D03*
G01*
X27419300Y-5080000D03*
G01*
X24688800Y-5956300D03*
G01*
X24942800Y-5956300D03*
G01*
X18567400Y-4660900D03*
G01*
X18313400Y-4660900D03*
G01*
X17195800Y-4686300D03*
G01*
X17449800Y-4686300D03*
G01*
X17449800Y-7289800D03*
G01*
X17449800Y-7543800D03*
G01*
X22212300Y-7658100D03*
G01*
X22466300Y-7658100D03*
G01*
X26352500Y-7632700D03*
G01*
X26606500Y-7632700D03*
G01*
X21005800Y-11087100D03*
G01*
X21005800Y-11341100D03*
G01*
X22364700Y-11087100D03*
G01*
X22364700Y-11341100D03*
G01*
X23825200Y-11087100D03*
G01*
X23825200Y-11341100D03*
G01*
X25831800Y-12052300D03*
G01*
X25831800Y-12306300D03*
G01*
X26797000Y-11582400D03*
G01*
X26797000Y-11836400D03*
G01*
X28422600Y-13525500D03*
G01*
X28422600Y-13779500D03*
G01*
X26187400Y-13995400D03*
G01*
X26187400Y-14249400D03*
G01*
X26847800Y-15506700D03*
G01*
X27101800Y-15506700D03*
G01*
X16941800Y-10223500D03*
G01*
X16687800Y-10223500D03*
G01*
X17856200Y-14439900D03*
G01*
X17856200Y-14185900D03*
G01*
X17018000Y-16916400D03*
G01*
X17018000Y-16662400D03*
G01*
X20713700Y-23761700D03*
G01*
X20713700Y-23507700D03*
G01*
X24993600Y-22580600D03*
G01*
X24993600Y-22834600D03*
G01*
X29019500Y-22313900D03*
G01*
X29273500Y-22313900D03*
G01*
X19964400Y-19164300D03*
G01*
X19964400Y-18910300D03*
G01*
X22339300Y-19164300D03*
G01*
X22339300Y-18910300D03*
G01*
X24688800Y-19138900D03*
G01*
X24688800Y-18884900D03*
G01*
X25298400Y-20789900D03*
G01*
X25552400Y-20789900D03*
G01*
X24663400Y-21374100D03*
G01*
X24663400Y-21628100D03*
G01*
X22491700Y-20662900D03*
G01*
X22237700Y-20662900D03*
G01*
X20193000Y-20662900D03*
G01*
X19939000Y-20662900D03*
D25*
G01*
X2768600Y-18923000D03*
G01*
X3022600Y-18923000D03*
D52*
G01*
X2489200Y-19913600D03*
G01*
X2489200Y-19151600D03*
D49*
G01*
X27546300Y-24777700D03*
G01*
X27800300Y-24777700D03*
G01*
X1219200Y-19900900D03*
G01*
X1473200Y-19900900D03*
D47*
G01*
X11544300Y-25184100D03*
G01*
X11798300Y-25184100D03*
G36*
X23849584Y-1051560D02*
G01*
X23849584Y-650239D01*
X24047704Y-650239D01*
X24047704Y-1051560D01*
G37*
G36*
X24669495Y-1051560D02*
G01*
X24669495Y-650239D01*
X24867616Y-650239D01*
X24867616Y-1051560D01*
G37*
G01*
X24558599Y-725906D03*
G01*
X24358600Y-725906D03*
G01*
X24158600Y-725906D03*
G01*
X24158600Y-975918D03*
G01*
X24358600Y-975918D03*
G01*
X24558599Y-975918D03*
M02*
