M48
METRIC,LZ,000.000
;FILE_FORMAT=3:3
;TYPE=PLATED
;Layer: Drill PTH
;EasyEDA v6.4.25, 2021-12-08T18:35:49--6:00
;986698a7ba0b47aaa227ef1f9665312c,06444aca9169495d970130cf6b44ba93,10
;Gerber Generator version 0.2
;Holesize 1 = 0.305 mm
T01C0.305
;Holesize 2 = 0.310 mm
T02C0.310
;Holesize 3 = 0.701 mm
T03C0.701
;Holesize 4 = 0.712 mm
T04C0.712
;Holesize 5 = 0.762 mm
T05C0.762
;Holesize 6 = 0.889 mm
T06C0.889
;Holesize 7 = 0.900 mm
T07C0.900
;Holesize 8 = 0.901 mm
T08C0.901
;Holesize 9 = 0.915 mm
T09C0.915
;Holesize 10 = 1.000 mm
T10C1.000
;Holesize 11 = 1.016 mm
T11C1.016
;Holesize 12 = 1.021 mm
T12C1.021
;Holesize 13 = 1.200 mm
T13C1.200
%
G05
G90
T01
X043434Y-040640
X038862Y-040640
X034544Y-040640
X149098Y-060960
X149987Y-060325
X150876Y-059690
X151765Y-059055
X145542Y-058420
X146431Y-057785
X147320Y-057150
X148209Y-056515
X141986Y-055880
X142875Y-055245
X143764Y-054610
X144653Y-053975
X140208Y-053340
X141097Y-052705
X084328Y-064770
X055626Y-064643
X025400Y-064389
X038100Y-066040
X038100Y-067437
X004572Y-083566
X009652Y-092710
X056388Y-115697
X056388Y-112776
X065420Y-128050
X065440Y-125210
X063119Y-122555
X103632Y-144907
X151765Y-144907
X103632Y-147447
X150876Y-147447
X103632Y-149987
X149987Y-149987
X103632Y-152527
X149098Y-152527
X094869Y-149987
X148209Y-148717
X094869Y-147447
X147320Y-146177
X106172Y-125095
X151765Y-125095
X106172Y-127635
X150876Y-127635
X106172Y-130175
X149987Y-130175
X106172Y-132715
X149098Y-132715
X101219Y-127635
X147320Y-126365
X084963Y-124841
X101854Y-128270
X148209Y-128905
X098679Y-141986
X098679Y-138938
X095377Y-133985
X096520Y-135128
X123190Y-132334
X125095Y-124206
X120777Y-123063
X117983Y-132588
X115951Y-131699
X106680Y-121285
X115951Y-118567
X015367Y-081915
X017018Y-080264
X064897Y-066929
X049911Y-081407
X041148Y-079248
X032004Y-079248
X026670Y-073914
X024130Y-073152
X051181Y-118872
X054991Y-143764
X012700Y-106299
X025400Y-124079
X026543Y-116713
X053670Y-110460
X053670Y-092460
X036170Y-090590
X048520Y-100960
X048895Y-088392
X042220Y-117740
X048910Y-104080
X072009Y-100965
X068199Y-094488
X076200Y-094488
X072898Y-089154
X071501Y-085725
X071501Y-083312
X109347Y-085217
X118491Y-116078
X114681Y-128270
X127000Y-128270
X094996Y-107569
X110109Y-104140
X055880Y-157607
X055160Y-156240
X050927Y-153543
X049403Y-153543
X047625Y-150241
X089750Y-126365
X028575Y-154178
X028194Y-145923
X018669Y-144399
X018669Y-131191
X047498Y-115062
X047498Y-144399
X048514Y-144399
X048641Y-115062
X050038Y-113665
X060579Y-101092
X059944Y-094234
X069342Y-093726
X074000Y-110420
X052451Y-102489
X069215Y-133985
X079248Y-105664
X079248Y-107823
X066650Y-107950
X068199Y-110998
X071247Y-108966
X073660Y-108458
X105283Y-065405
X007747Y-071882
X149098Y-031496
X149987Y-030861
X150876Y-030226
X151765Y-029591
X137160Y-035814
X132969Y-043180
X145542Y-043942
X146431Y-044577
X147320Y-045212
X148209Y-045847
X141986Y-046482
X142875Y-047117
X143764Y-047752
X144653Y-048387
X112141Y-030226
X138430Y-024003
X139319Y-024638
X140208Y-025273
X141097Y-025908
X088519Y-044577
X108331Y-071755
X110363Y-070739
X074168Y-034544
X110363Y-037084
X118618Y-042164
X029210Y-049784
X023495Y-049784
X130429Y-027051
X136017Y-063627
X154600Y-043180
X138430Y-023114
X139319Y-022352
X140208Y-021082
X141097Y-020701
X141986Y-020320
X142875Y-019812
X143764Y-019558
X144653Y-019431
X146431Y-014478
X148181Y-015085
X148560Y-015781
X149131Y-016408
X149098Y-017653
X149987Y-018415
X150876Y-019050
X158115Y-018669
X228727Y-029845
X144653Y-032258
X229997Y-029845
X143764Y-032893
X142875Y-033528
X141986Y-034163
X231267Y-029845
X232537Y-029845
X141097Y-034798
X140208Y-035433
X139319Y-036068
X245237Y-029845
X138430Y-036703
X241554Y-029845
X242697Y-029845
X243967Y-029845
X151765Y-037338
X254127Y-029845
X150876Y-037973
X149987Y-038608
X149098Y-039243
X257937Y-029845
X256667Y-029845
X255397Y-029845
X148209Y-039878
X147320Y-040513
X146431Y-041148
X145542Y-041783
X266954Y-029845
X268224Y-029845
X269494Y-029845
X270764Y-029845
X216027Y-020193
X223774Y-021209
X224917Y-025400
X234188Y-025654
X272669Y-025908
X260096Y-025654
X247396Y-025654
X271625Y-023622
X253365Y-028956
X265176Y-029718
X239268Y-029591
X227838Y-029083
X186182Y-031369
X271018Y-024973
X261493Y-034163
X271145Y-034163
X185928Y-034163
X186436Y-033528
X186944Y-032893
X187452Y-032258
X207137Y-036703
X209042Y-036068
X210947Y-035433
X212852Y-034798
X151765Y-051435
X150876Y-053594
X149987Y-056515
X149098Y-058166
X148209Y-061722
X147320Y-062484
X146431Y-063119
X145542Y-063754
X144653Y-064389
X143764Y-065024
X142875Y-065659
X141986Y-066294
X141097Y-066929
X140208Y-067564
X139319Y-068199
X138430Y-068834
X132080Y-065405
X193802Y-062865
X196342Y-062484
X198882Y-062611
X201422Y-062357
X235458Y-041148
X237490Y-040513
X239395Y-039878
X247904Y-039243
X248285Y-038227
X247904Y-037338
X248158Y-035814
X151765Y-103378
X150876Y-104013
X149987Y-104648
X149098Y-105283
X148209Y-105918
X147320Y-106553
X146431Y-107188
X145542Y-107823
X144653Y-108458
X143764Y-109093
X142875Y-109728
X141986Y-109855
X141097Y-109855
X140208Y-109855
X139319Y-109855
X138430Y-109855
X251714Y-047244
X248666Y-047244
X175184Y-043536
X226568Y-047371
X202311Y-047371
X204343Y-074295
X200787Y-073660
X226695Y-073533
X224155Y-073533
X250952Y-073533
X247015Y-074422
X273558Y-075692
X269621Y-075692
X148209Y-153289
X147320Y-153924
X146431Y-154559
X145542Y-155194
X144653Y-162433
X143764Y-163068
X142875Y-163703
X141986Y-164338
X141097Y-164973
X140208Y-165354
X139319Y-165735
X138430Y-165862
X161163Y-073279
X159131Y-140335
X127762Y-141478
X169969Y-043289
X136017Y-049276
X161290Y-192659
X257048Y-110490
X199281Y-106807
X213233Y-106807
X227185Y-106807
X241137Y-106807
X257556Y-119380
X273685Y-119380
X160655Y-189992
X159893Y-191770
X153670Y-192532
X153289Y-110490
X250952Y-112268
X203454Y-082677
X204978Y-082677
X227203Y-082677
X229235Y-082677
X249936Y-082677
X252984Y-082677
X236982Y-029845
X236220Y-034036
X232791Y-047371
X232791Y-048641
X226314Y-084328
X228346Y-084328
X250063Y-084328
X251714Y-084328
X273812Y-084328
X276733Y-084328
X154762Y-188620
X157607Y-189479
X161290Y-187960
X174244Y-187960
X177165Y-187960
X255905Y-115824
X196977Y-117348
X196977Y-109220
X200025Y-107569
X205486Y-111125
X227711Y-165989
X227203Y-117983
X275527Y-110109
X282321Y-124460
X284099Y-130683
X275971Y-106934
X278892Y-129032
X275463Y-111887
X272923Y-110363
X273431Y-111887
X280416Y-140335
X260858Y-106553
X256413Y-102108
X252885Y-102451
X237617Y-100203
X215265Y-102362
X213106Y-102108
X263271Y-130683
X289052Y-132334
X293751Y-112395
X291465Y-108712
X291084Y-113411
X263398Y-129794
X190119Y-118491
X251587Y-120650
X251587Y-114681
X260223Y-104648
X261620Y-105410
X184658Y-123317
X294386Y-108839
X283591Y-106299
X207518Y-100838
X203327Y-097028
X217932Y-085725
X208407Y-102997
X207518Y-097917
X209550Y-097917
X209804Y-102997
X210947Y-109220
X219964Y-113411
X206248Y-113538
X211074Y-107823
X211074Y-102870
X218948Y-090170
X288798Y-116713
X292100Y-116713
X293116Y-114300
X295275Y-089535
X276987Y-083312
X275082Y-083312
X252730Y-083439
X249428Y-083439
X228981Y-083439
X226314Y-083439
X200914Y-097663
X206629Y-102870
X205867Y-104775
X213995Y-104775
X215265Y-113284
X212090Y-116078
X200025Y-120142
X191008Y-114935
X185674Y-104140
X204724Y-089027
X210693Y-114808
X254127Y-114173
X252463Y-114661
X251333Y-122555
X189357Y-116586
X247650Y-104394
X250952Y-104394
X261620Y-091059
X258699Y-091059
X251333Y-105156
X249936Y-110617
X248158Y-113157
X246888Y-105029
X279908Y-107442
X279133Y-087876
X261493Y-091948
X234569Y-113157
X239776Y-107950
X247650Y-093345
X245872Y-090043
X283972Y-110744
X281051Y-102997
X277749Y-094488
X272415Y-092837
X259969Y-092837
X251587Y-093091
X247269Y-095250
X242697Y-088646
X289433Y-089662
X289433Y-086868
X285115Y-073279
X241300Y-073152
X230505Y-070739
X206121Y-075311
X204597Y-071501
X288417Y-089154
X290195Y-085852
X285369Y-072263
X240919Y-072263
X230886Y-069469
X211328Y-069977
X265684Y-116967
X270129Y-119634
X269113Y-125730
X264541Y-124079
X271399Y-112014
X272669Y-123952
X237617Y-104775
X241046Y-104648
X243967Y-098679
X237744Y-091567
X238252Y-081788
X295275Y-092456
X295656Y-137287
X283235Y-140360
X274066Y-137795
X274066Y-145288
X176657Y-192913
X248285Y-194945
X224663Y-195453
X151765Y-197739
X150876Y-198374
X178816Y-193929
X158877Y-194691
X136017Y-194691
X149987Y-199009
X148209Y-200279
X147320Y-200914
X146431Y-201549
X145542Y-202184
X144653Y-202819
X143764Y-203454
X142875Y-204089
X141986Y-204724
X141097Y-205359
X140208Y-205994
X139319Y-206629
X138430Y-207264
X149098Y-199644
X184193Y-205359
X184912Y-205994
X185547Y-206629
X186182Y-207264
X207772Y-202819
X208407Y-203454
X209042Y-204089
X209677Y-204724
X231394Y-200279
X232029Y-200914
X232664Y-201549
X233299Y-202184
X254889Y-197739
X255524Y-198374
X256159Y-199009
X256794Y-199644
X222377Y-187071
X220726Y-181102
X288671Y-146304
X283845Y-146558
X297053Y-138049
X260096Y-030584
X197485Y-018669
X199009Y-017653
X201168Y-017272
X203962Y-017653
X206741Y-017874
X212598Y-017018
X216662Y-027686
X213106Y-018542
X218948Y-020193
X220223Y-018801
X219329Y-010414
X217043Y-021082
X189738Y-024511
X186817Y-023876
X189865Y-019558
X195326Y-011938
X194056Y-009779
X198628Y-009779
X033401Y-157988
X037211Y-157734
X032385Y-144653
X131445Y-034925
X130302Y-036576
X110363Y-035560
X096393Y-035560
X087884Y-035179
X173524Y-205359
X187452Y-204724
X189992Y-204089
X192532Y-203454
X195072Y-202819
X207010Y-202184
X211455Y-201549
X213741Y-200914
X216662Y-200279
X230505Y-199644
X234061Y-199009
X235458Y-198374
X237490Y-197739
X141986Y-244348
X141097Y-244983
X140208Y-245618
X139319Y-246253
X138430Y-246888
X142875Y-223520
X143764Y-222885
X144653Y-222250
X149987Y-227457
X150876Y-228092
X151765Y-228854
X149098Y-247777
X148209Y-248412
X147320Y-249047
X146431Y-249682
X145542Y-250317
X206375Y-193548
X207010Y-187833
X154600Y-218440
X206121Y-213761
X202438Y-213741
X137160Y-208026
X195199Y-230251
X220701Y-145313
X252095Y-197739
X257429Y-198374
X259080Y-199009
X260731Y-199644
X262509Y-200279
X264160Y-200914
X265938Y-201549
X269748Y-202184
X246888Y-221996
X246888Y-227838
X297614Y-218879
X274320Y-225425
X273177Y-231267
X138430Y-167259
X139319Y-164846
X140208Y-164211
X141097Y-163576
X141986Y-162941
X142875Y-162306
X143764Y-161671
X144653Y-161036
X145542Y-160401
X146431Y-159766
X147320Y-159131
X148209Y-158496
X149098Y-157861
X149987Y-157226
X150876Y-156591
X151765Y-157226
X080010Y-186055
X084074Y-184912
X084861Y-193167
X129794Y-171831
X136017Y-171831
X051181Y-192659
X063119Y-197231
X084861Y-191389
X079121Y-191262
X080848Y-180594
X138430Y-177673
X081661Y-181356
X139319Y-178308
X082423Y-180594
X140208Y-178943
X083254Y-181455
X141097Y-179578
X085659Y-181633
X141986Y-180213
X086467Y-181285
X142875Y-180848
X143764Y-181483
X087249Y-181610
X144653Y-182118
X069596Y-200533
X088052Y-195854
X145542Y-182753
X087244Y-196390
X146431Y-183388
X086421Y-195755
X147320Y-184023
X085667Y-196654
X148209Y-184658
X083693Y-196215
X149098Y-185293
X082423Y-195961
X149987Y-185928
X081661Y-196469
X150876Y-186563
X080899Y-197104
X151765Y-187198
X057150Y-187071
X076327Y-199644
X057531Y-185801
X075057Y-198755
X057912Y-184277
X072898Y-197866
X071755Y-196469
X061595Y-186309
X073660Y-195453
X088077Y-181948
X039497Y-034925
X045974Y-035687
X052705Y-045339
X036322Y-042291
X041402Y-044958
X043942Y-047498
X149098Y-217551
X149987Y-218186
X150876Y-218821
X151765Y-219456
X145542Y-220218
X146431Y-220853
X147320Y-221488
X148209Y-224282
X138430Y-202057
X139319Y-201422
X140208Y-200787
X141097Y-200152
X085217Y-210058
X111252Y-210058
X129794Y-198628
X136017Y-197993
X056388Y-205486
X056261Y-207137
X056261Y-209296
X046101Y-196596
X034925Y-205867
X039116Y-212090
X041275Y-203708
X018288Y-212217
X016764Y-218948
X012573Y-212471
X058420Y-251460
X059436Y-250698
X062865Y-249936
X055245Y-252857
X094361Y-252857
X044069Y-241300
X044958Y-242062
X063373Y-242062
X040894Y-242951
X065532Y-242951
X071247Y-243713
X066294Y-244475
X072263Y-245237
X075565Y-245237
X043053Y-222647
X036703Y-223495
X041910Y-224282
X038973Y-222647
X087503Y-225790
X063246Y-227225
X067691Y-227225
X089535Y-227225
X062230Y-228785
X068453Y-228787
X090297Y-228787
X061722Y-222250
X053340Y-226187
X054483Y-244475
X037465Y-240538
X048768Y-239395
X055499Y-227076
X062738Y-222377
X063754Y-223012
X056896Y-227838
X033401Y-240157
X046228Y-238506
X057912Y-217170
X043688Y-234442
X034798Y-238633
X029845Y-240030
X099822Y-250444
X082296Y-242062
X103886Y-242951
X275209Y-253492
X273177Y-254127
X089154Y-252857
X268732Y-255651
X036576Y-220599
X048006Y-220853
X051943Y-217805
X049403Y-220980
X044831Y-225933
X081534Y-211074
X085471Y-219075
X055753Y-218440
X057658Y-219837
X052324Y-220980
X067183Y-221234
X064262Y-224663
X049489Y-217846
X106172Y-225044
X096266Y-224917
X232918Y-248793
X086995Y-250571
X084455Y-250571
X130683Y-247396
X135976Y-252689
X106172Y-238633
X089408Y-238633
X134112Y-065786
X114554Y-112141
X154600Y-091821
X128270Y-139319
X130937Y-134493
X133731Y-078740
X124079Y-069469
X118491Y-051181
X131699Y-096139
X126873Y-103759
X134493Y-104521
X128270Y-108458
X123063Y-102870
X124968Y-075184
X214630Y-250317
X153543Y-243205
X125603Y-102743
X280797Y-031750
X287020Y-023749
X287274Y-045212
X265938Y-036703
X247269Y-034417
X245229Y-031237
X284480Y-041783
X298577Y-046609
X298577Y-048260
X110109Y-194183
X104394Y-202184
X058674Y-220599
X062865Y-219075
X119126Y-189484
X058039Y-196088
X120396Y-188595
X132588Y-196342
X084201Y-221234
X079375Y-223774
X091186Y-236474
X132969Y-238633
X092837Y-235331
X157226Y-235458
X132080Y-237617
X155448Y-236601
X132969Y-236601
X154432Y-235585
X132207Y-235585
X131953Y-229235
X152654Y-231013
X133604Y-227457
X116967Y-195707
X136906Y-243205
X153670Y-234315
X290703Y-053594
X291338Y-043942
X288417Y-046355
X284861Y-055499
X288544Y-059436
X289179Y-045339
X066421Y-186944
X068326Y-192024
X061849Y-197993
X064389Y-196977
X067945Y-199517
X076962Y-192786
X090043Y-196596
X115697Y-190627
X110531Y-201549
X065024Y-192278
X058674Y-178054
X060325Y-171831
X053477Y-171831
X092583Y-153797
X044958Y-116733
X012192Y-092329
X039497Y-064389
X229870Y-052324
X229870Y-049911
X226695Y-098552
X224282Y-103124
X221742Y-106807
X181610Y-089535
X160274Y-137366
X219583Y-119380
X259715Y-143256
X270535Y-127152
X027559Y-115697
X034544Y-156718
X059492Y-168656
X059492Y-165781
X096901Y-156337
X078740Y-148590
X279400Y-045085
X281305Y-039751
X052959Y-041783
X057053Y-171069
X089662Y-192659
X106680Y-172593
X056938Y-211074
X059563Y-202311
X111887Y-196215
X048260Y-083820
X040894Y-080518
X074168Y-084963
X063754Y-079502
X060452Y-079502
X098298Y-092583
X104267Y-084328
X122174Y-084455
X129413Y-109474
X093726Y-109093
X092329Y-118745
X100203Y-114427
X087630Y-138303
X023368Y-121285
X031496Y-222885
X078105Y-230124
X076454Y-237871
X271399Y-182880
X188087Y-047879
X225806Y-081407
X223507Y-084328
X218059Y-084328
X273304Y-080645
X270002Y-084328
X206901Y-116967
X234805Y-116967
X271526Y-110363
X285839Y-137757
X259461Y-145542
X162306Y-165735
X164465Y-166243
X206248Y-229870
X224917Y-211709
X265938Y-238379
X258572Y-241046
X279146Y-237617
X291084Y-229235
X271272Y-246507
X284226Y-241681
X271145Y-250444
X285496Y-241681
X264922Y-240030
X255270Y-241300
X278511Y-243332
X286766Y-243713
X253492Y-255397
X265430Y-249936
X280416Y-241427
X281305Y-240792
X163957Y-242824
X255270Y-250317
X082042Y-250571
X023241Y-216916
X014732Y-208915
X021844Y-201803
X115189Y-237490
X115189Y-233426
X048895Y-254889
X105029Y-250063
X263144Y-103632
X282448Y-103632
X294005Y-104775
X285750Y-165862
X295021Y-218948
X296164Y-224663
X014605Y-144526
X016764Y-138938
T02
X016449Y-026535
X032659Y-043617
X021054Y-045136
X036916Y-091813
X014732Y-071354
X110322Y-102116
X064399Y-109441
X068392Y-128920
X073533Y-121425
X079088Y-122654
X077546Y-102415
X092479Y-105992
X079908Y-119830
X079908Y-109324
X059035Y-148374
X047277Y-156388
X087757Y-130200
X038237Y-155407
X088229Y-106792
X099278Y-131445
X038011Y-152400
X049474Y-131554
X064955Y-103922
X070274Y-143134
X040663Y-106271
X047104Y-105601
X036957Y-108077
X043574Y-118384
X055966Y-082682
X046378Y-122215
X052522Y-087536
X059947Y-120739
X057813Y-095504
X058936Y-119182
X057272Y-084102
X051077Y-115077
X061529Y-119177
X061425Y-093012
X055451Y-118872
X055072Y-091948
X058113Y-118143
X070074Y-144206
X069705Y-147457
X054877Y-117285
X074412Y-158336
X051359Y-116939
X050317Y-118247
X064292Y-156276
X055662Y-122512
X063886Y-154940
X048481Y-113071
X066210Y-148303
X087305Y-121285
X073055Y-148140
X042629Y-113985
X036256Y-114534
X025522Y-112438
X112141Y-099042
X080223Y-099042
X123210Y-138697
X120650Y-116576
X028821Y-112583
X081153Y-100371
X010986Y-098430
X029367Y-103226
X086088Y-099725
X099934Y-139901
X074828Y-123170
X074828Y-113447
X061227Y-133441
X121351Y-120162
X106258Y-110203
X029350Y-144628
X043238Y-148999
X260487Y-023190
X250807Y-021712
X237284Y-021811
X220175Y-020249
X214442Y-021887
X243675Y-020109
X165877Y-013670
X162423Y-026952
X241046Y-020109
X191988Y-021900
X185577Y-026386
X236477Y-020460
X213119Y-019820
X237005Y-024592
X264533Y-020132
X229718Y-024275
X187180Y-029550
X225679Y-024384
X223802Y-025278
X222321Y-029177
X246388Y-023800
X255255Y-023038
X253548Y-023548
X213055Y-027676
X199281Y-113944
X188796Y-181643
X194346Y-118488
X215379Y-116802
X214622Y-117577
X219159Y-110538
X216327Y-110366
X230513Y-116693
X233779Y-110607
X170282Y-164186
X225679Y-157099
X225679Y-107506
X235585Y-157607
X240241Y-115367
X245516Y-116576
X245516Y-152464
X247284Y-110622
X243677Y-110587
X240904Y-173114
X181163Y-162367
X206383Y-101501
X198262Y-080249
X229725Y-113960
X227564Y-110787
X244315Y-114257
X246809Y-107495
X262720Y-111239
X252326Y-100180
X268610Y-097820
X273769Y-105979
X229911Y-085217
X264975Y-111874
X244053Y-085961
X231996Y-088031
X268996Y-106492
X266944Y-101872
X259535Y-102042
X256659Y-099167
X216825Y-082017
X191333Y-080924
X203347Y-107627
X278575Y-078636
X199283Y-104122
X265666Y-088895
X262024Y-116070
X204554Y-107612
X261851Y-117686
X259657Y-113632
X249804Y-120835
X191473Y-118301
X266913Y-112288
X194917Y-100127
X264538Y-107226
X267178Y-085019
X281366Y-127218
X283159Y-117318
X286489Y-129591
X286311Y-116040
X285311Y-126530
X284325Y-113452
X285039Y-110236
X285039Y-120299
X288171Y-119741
X284038Y-107302
X289733Y-122222
X289733Y-133441
X266499Y-124927
X265991Y-120079
X267073Y-127023
X260213Y-120767
X179222Y-230368
X180848Y-232126
X168364Y-218841
X204732Y-225687
X195242Y-220632
X195852Y-231498
X205494Y-231554
X213015Y-223236
X195036Y-221582
X225123Y-220670
X212103Y-222329
X225235Y-221488
X223215Y-216103
X223215Y-214533
T03
X110998Y-083312
X113538Y-083312
X025654Y-032374
X025654Y-030872
X044196Y-058293
X046736Y-058293
X023622Y-058674
X026162Y-058674
X065532Y-019177
X068072Y-019177
X007874Y-032639
X007874Y-030099
X097155Y-027940
X097155Y-025400
X024257Y-081534
X026797Y-081534
X098298Y-117983
X095758Y-117983
X056769Y-108204
X056769Y-110744
X029591Y-119253
X027051Y-119253
X046990Y-135382
X044450Y-135382
X113030Y-151384
X113030Y-153924
X041148Y-163322
X041148Y-160782
X087630Y-150114
X090170Y-150114
X061849Y-180975
X064389Y-180975
X096901Y-185039
X096901Y-187579
X022352Y-207010
X022352Y-209550
X031496Y-210439
X031496Y-212979
X056706Y-213893
X056706Y-216433
X054483Y-195834
X054483Y-198374
X108585Y-195961
X108585Y-198501
X034544Y-171196
X034544Y-173736
X008890Y-213995
X011430Y-213995
X014859Y-240284
X014859Y-242824
X075184Y-223774
X072644Y-223774
X114427Y-228346
X116967Y-228346
X249809Y-019304
X249809Y-016764
X277749Y-031115
X275209Y-031115
X276606Y-046609
X279146Y-046609
X276733Y-050800
X274193Y-050800
X246888Y-059563
X249428Y-059563
X185674Y-046609
X183134Y-046609
X171958Y-046863
X174498Y-046863
X174498Y-072898
X174498Y-075438
X222123Y-076581
X224663Y-076581
X263525Y-076327
X266065Y-076327
X210058Y-110871
X210058Y-113411
X223647Y-110871
X223647Y-113411
X238252Y-110871
X238252Y-113411
X258318Y-120523
X258318Y-123063
X267970Y-115824
X267970Y-118364
X284226Y-135255
X284226Y-137795
X261874Y-139954
X261874Y-142494
X268478Y-155067
X271018Y-155067
X169418Y-102235
X166878Y-102235
X178562Y-144399
X178562Y-141859
X170180Y-169164
X170180Y-166624
X207137Y-237617
X207137Y-235077
X249936Y-225806
X249936Y-228346
X290195Y-223139
X292735Y-223139
X199644Y-191643
X199644Y-189103
X223393Y-191643
X223393Y-189103
X246888Y-191389
X246888Y-188849
X252984Y-207899
X255524Y-207899
X246634Y-213741
X246634Y-216281
X224917Y-206629
X222377Y-206629
X201930Y-206629
X199390Y-206629
X275463Y-247777
X278003Y-247777
X012192Y-199009
X014732Y-199009
T04
X035687Y-032385
X038227Y-032385
X008255Y-022479
X008255Y-025019
X054991Y-015621
X057531Y-015621
X048514Y-029718
X048514Y-032258
X088138Y-070104
X090678Y-070104
X093218Y-070104
X095758Y-070104
X098298Y-070104
X100838Y-070104
X103378Y-070104
X105918Y-070104
X105918Y-062484
X103378Y-062484
X100838Y-062484
X098298Y-062484
X095758Y-062484
X093218Y-062484
X090678Y-062484
X088138Y-062484
X065955Y-070104
X068495Y-070104
X071035Y-070104
X073575Y-070104
X076115Y-070104
X078655Y-070104
X081195Y-070104
X083735Y-070104
X083735Y-062484
X081195Y-062484
X078655Y-062484
X076115Y-062484
X073575Y-062484
X071035Y-062484
X068495Y-062484
X065955Y-062484
X043815Y-070104
X046355Y-070104
X048895Y-070104
X051435Y-070104
X053975Y-070104
X056515Y-070104
X059055Y-070104
X061595Y-070104
X061595Y-062484
X059055Y-062484
X056515Y-062484
X053975Y-062484
X051435Y-062484
X048895Y-062484
X046355Y-062484
X043815Y-062484
X021590Y-070104
X024130Y-070104
X026670Y-070104
X029210Y-070104
X031750Y-070104
X034290Y-070104
X036830Y-070104
X039370Y-070104
X039370Y-062484
X036830Y-062484
X034290Y-062484
X031750Y-062484
X029210Y-062484
X026670Y-062484
X024130Y-062484
X021590Y-062484
X013335Y-061849
X015875Y-061849
X007112Y-108331
X009652Y-108331
X012192Y-108331
X014732Y-108331
X017272Y-108331
X019812Y-108331
X022352Y-108331
X024892Y-108331
X024892Y-100711
X022352Y-100711
X019812Y-100711
X017272Y-100711
X014732Y-100711
X012192Y-100711
X009652Y-100711
X007112Y-100711
X028702Y-093853
X031242Y-093853
X033782Y-093853
X036322Y-093853
X038862Y-093853
X041402Y-093853
X043942Y-093853
X046482Y-093853
X046482Y-086233
X043942Y-086233
X041402Y-086233
X038862Y-086233
X036322Y-086233
X033782Y-086233
X031242Y-086233
X028702Y-086233
X053213Y-088773
X055753Y-088773
X058293Y-088773
X060833Y-088773
X063373Y-088773
X065913Y-088773
X068453Y-088773
X070993Y-088773
X070993Y-081153
X068453Y-081153
X065913Y-081153
X063373Y-081153
X060833Y-081153
X058293Y-081153
X055753Y-081153
X053213Y-081153
X078613Y-088392
X081153Y-088392
X083693Y-088392
X086233Y-088392
X088773Y-088392
X091313Y-088392
X093853Y-088392
X096393Y-088392
X096393Y-080772
X093853Y-080772
X091313Y-080772
X088773Y-080772
X086233Y-080772
X083693Y-080772
X081153Y-080772
X078613Y-080772
X104267Y-095377
X106807Y-095377
X109347Y-095377
X111887Y-095377
X114427Y-095377
X116967Y-095377
X119507Y-095377
X122047Y-095377
X122047Y-087757
X119507Y-087757
X116967Y-087757
X114427Y-087757
X111887Y-087757
X109347Y-087757
X106807Y-087757
X104267Y-087757
X020574Y-134493
X023114Y-134493
X025654Y-134493
X028194Y-134493
X030734Y-134493
X033274Y-134493
X035814Y-134493
X038354Y-134493
X038354Y-126873
X035814Y-126873
X033274Y-126873
X030734Y-126873
X028194Y-126873
X025654Y-126873
X023114Y-126873
X020574Y-126873
X064135Y-138176
X066675Y-138176
X069215Y-138176
X071755Y-138176
X074295Y-138176
X076835Y-138176
X079375Y-138176
X081915Y-138176
X081915Y-130556
X079375Y-130556
X076835Y-130556
X074295Y-130556
X071755Y-130556
X069215Y-130556
X066675Y-130556
X064135Y-130556
X089789Y-111506
X092329Y-111506
X094869Y-111506
X097409Y-111506
X099949Y-111506
X102489Y-111506
X105029Y-111506
X107569Y-111506
X107569Y-103886
X105029Y-103886
X102489Y-103886
X099949Y-103886
X097409Y-103886
X094869Y-103886
X092329Y-103886
X089789Y-103886
X116586Y-040132
X119126Y-040132
X121666Y-040132
X124206Y-040132
X126746Y-040132
X129286Y-040132
X131826Y-040132
X134366Y-040132
X134366Y-032512
X131826Y-032512
X129286Y-032512
X126746Y-032512
X124206Y-032512
X121666Y-032512
X119126Y-032512
X116586Y-032512
X093409Y-040132
X095949Y-040132
X098489Y-040132
X101029Y-040132
X103569Y-040132
X106109Y-040132
X108649Y-040132
X111189Y-040132
X111189Y-032512
X108649Y-032512
X106109Y-032512
X103569Y-032512
X101029Y-032512
X098489Y-032512
X095949Y-032512
X093409Y-032512
X070231Y-040132
X072771Y-040132
X075311Y-040132
X077851Y-040132
X080391Y-040132
X082931Y-040132
X085471Y-040132
X088011Y-040132
X088011Y-032512
X085471Y-032512
X082931Y-032512
X080391Y-032512
X077851Y-032512
X075311Y-032512
X072771Y-032512
X070231Y-032512
X093472Y-022606
X096012Y-022606
X098552Y-022606
X101092Y-022606
X103632Y-022606
X106172Y-022606
X108712Y-022606
X111252Y-022606
X111252Y-014986
X108712Y-014986
X106172Y-014986
X103632Y-014986
X101092Y-014986
X098552Y-014986
X096012Y-014986
X093472Y-014986
X187071Y-020384
X184531Y-020384
X181991Y-020384
X179451Y-020384
X176911Y-020384
X174371Y-020384
X171831Y-020384
X169291Y-020384
X166751Y-020384
X164211Y-020384
X164211Y-028004
X166751Y-028004
X169291Y-028004
X171831Y-028004
X174371Y-028004
X176911Y-028004
X179451Y-028004
X181991Y-028004
X184531Y-028004
X187071Y-028004
X214376Y-020384
X211836Y-020384
X209296Y-020384
X206756Y-020384
X204216Y-020384
X201676Y-020384
X199136Y-020384
X196596Y-020384
X194056Y-020384
X191516Y-020384
X191516Y-028004
X194056Y-028004
X196596Y-028004
X199136Y-028004
X201676Y-028004
X204216Y-028004
X206756Y-028004
X209296Y-028004
X211836Y-028004
X214376Y-028004
X210185Y-052451
X212725Y-052451
X215265Y-052451
X217805Y-052451
X220345Y-052451
X222885Y-052451
X225425Y-052451
X227965Y-052451
X227965Y-044831
X225425Y-044831
X222885Y-044831
X220345Y-044831
X217805Y-044831
X215265Y-044831
X212725Y-044831
X210185Y-044831
X188722Y-052451
X191262Y-052451
X193802Y-052451
X196342Y-052451
X198882Y-052451
X201422Y-052451
X203962Y-052451
X206502Y-052451
X206502Y-044831
X203962Y-044831
X201422Y-044831
X198882Y-044831
X196342Y-044831
X193802Y-044831
X191262Y-044831
X188722Y-044831
X231648Y-052451
X234188Y-052451
X236728Y-052451
X239268Y-052451
X241808Y-052451
X244348Y-052451
X246888Y-052451
X249428Y-052451
X249428Y-044831
X246888Y-044831
X244348Y-044831
X241808Y-044831
X239268Y-044831
X236728Y-044831
X234188Y-044831
X231648Y-044831
X196892Y-184658
X194352Y-184658
X191812Y-184658
X189272Y-184658
X186732Y-184658
X184192Y-184658
X181652Y-184658
X179112Y-184658
X179112Y-192278
X181652Y-192278
X184192Y-192278
X186732Y-192278
X189272Y-192278
X191812Y-192278
X194352Y-192278
X196892Y-192278
X220458Y-184658
X217918Y-184658
X215378Y-184658
X212838Y-184658
X210298Y-184658
X207758Y-184658
X205218Y-184658
X202678Y-184658
X202678Y-192278
X205218Y-192278
X207758Y-192278
X210298Y-192278
X212838Y-192278
X215378Y-192278
X217918Y-192278
X220458Y-192278
X244024Y-184658
X241484Y-184658
X238944Y-184658
X236404Y-184658
X233864Y-184658
X231324Y-184658
X228784Y-184658
X226244Y-184658
X226244Y-192278
X228784Y-192278
X231324Y-192278
X233864Y-192278
X236404Y-192278
X238944Y-192278
X241484Y-192278
X244024Y-192278
X267589Y-184658
X265049Y-184658
X262509Y-184658
X259969Y-184658
X257429Y-184658
X254889Y-184658
X252349Y-184658
X249809Y-184658
X249809Y-192278
X252349Y-192278
X254889Y-192278
X257429Y-192278
X259969Y-192278
X262509Y-192278
X265049Y-192278
X267589Y-192278
X158496Y-141859
X158496Y-144399
X158496Y-146939
X158496Y-149479
X158496Y-152019
X158496Y-154559
X158496Y-157099
X158496Y-159639
X158496Y-162179
X158496Y-164719
X166116Y-164719
X166116Y-162179
X166116Y-159639
X166116Y-157099
X166116Y-154559
X166116Y-152019
X166116Y-149479
X166116Y-146939
X166116Y-144399
X166116Y-141859
X158496Y-167894
X158496Y-170434
X158496Y-172974
X158496Y-175514
X158496Y-178054
X158496Y-180594
X158496Y-183134
X158496Y-185674
X158496Y-188214
X158496Y-190754
X166116Y-190754
X166116Y-188214
X166116Y-185674
X166116Y-183134
X166116Y-180594
X166116Y-178054
X166116Y-175514
X166116Y-172974
X166116Y-170434
X166116Y-167894
X221911Y-086614
X224451Y-086614
X226991Y-086614
X229531Y-086614
X232071Y-086614
X234611Y-086614
X237151Y-086614
X239691Y-086614
X239691Y-078994
X237151Y-078994
X234611Y-078994
X232071Y-078994
X229531Y-078994
X226991Y-078994
X224451Y-078994
X221911Y-078994
X197993Y-086614
X200533Y-086614
X203073Y-086614
X205613Y-086614
X208153Y-086614
X210693Y-086614
X213233Y-086614
X215773Y-086614
X215773Y-078994
X213233Y-078994
X210693Y-078994
X208153Y-078994
X205613Y-078994
X203073Y-078994
X200533Y-078994
X197993Y-078994
X245830Y-086614
X248370Y-086614
X250910Y-086614
X253450Y-086614
X255990Y-086614
X258530Y-086614
X261070Y-086614
X263610Y-086614
X263610Y-078994
X261070Y-078994
X258530Y-078994
X255990Y-078994
X253450Y-078994
X250910Y-078994
X248370Y-078994
X245830Y-078994
X269748Y-086614
X272288Y-086614
X274828Y-086614
X277368Y-086614
X279908Y-086614
X282448Y-086614
X284988Y-086614
X287528Y-086614
X287528Y-078994
X284988Y-078994
X282448Y-078994
X279908Y-078994
X277368Y-078994
X274828Y-078994
X272288Y-078994
X269748Y-078994
X253111Y-052451
X255651Y-052451
X258191Y-052451
X260731Y-052451
X263271Y-052451
X265811Y-052451
X268351Y-052451
X270891Y-052451
X270891Y-044831
X268351Y-044831
X265811Y-044831
X263271Y-044831
X260731Y-044831
X258191Y-044831
X255651Y-044831
X253111Y-044831
X162052Y-048895
X162052Y-051435
X162052Y-053975
X162052Y-056515
X162052Y-059055
X162052Y-061595
X162052Y-064135
X162052Y-066675
X162052Y-069215
X162052Y-071755
X169672Y-071755
X169672Y-069215
X169672Y-066675
X169672Y-064135
X169672Y-061595
X169672Y-059055
X169672Y-056515
X169672Y-053975
X169672Y-051435
X169672Y-048895
X162052Y-074930
X162052Y-077470
X162052Y-080010
X162052Y-082550
X162052Y-085090
X162052Y-087630
X162052Y-090170
X162052Y-092710
X162052Y-095250
X162052Y-097790
X169672Y-097790
X169672Y-095250
X169672Y-092710
X169672Y-090170
X169672Y-087630
X169672Y-085090
X169672Y-082550
X169672Y-080010
X169672Y-077470
X169672Y-074930
X172847Y-100838
X172847Y-103378
X172847Y-105918
X172847Y-108458
X172847Y-110998
X172847Y-113538
X172847Y-116078
X172847Y-118618
X172847Y-121158
X172847Y-123698
X180467Y-123698
X180467Y-121158
X180467Y-118618
X180467Y-116078
X180467Y-113538
X180467Y-110998
X180467Y-108458
X180467Y-105918
X180467Y-103378
X180467Y-100838
X158496Y-115824
X158496Y-118364
X158496Y-120904
X158496Y-123444
X158496Y-125984
X158496Y-128524
X158496Y-131064
X158496Y-133604
X158496Y-136144
X158496Y-138684
X166116Y-138684
X166116Y-136144
X166116Y-133604
X166116Y-131064
X166116Y-128524
X166116Y-125984
X166116Y-123444
X166116Y-120904
X166116Y-118364
X166116Y-115824
X275590Y-158623
X278130Y-158623
X280670Y-158623
X283210Y-158623
X285750Y-158623
X288290Y-158623
X290830Y-158623
X293370Y-158623
X293370Y-151003
X290830Y-151003
X288290Y-151003
X285750Y-151003
X283210Y-151003
X280670Y-151003
X278130Y-151003
X275590Y-151003
X197485Y-012319
X200025Y-012319
X202565Y-012319
X205105Y-012319
X207645Y-012319
X210185Y-012319
X212725Y-012319
X215265Y-012319
X217805Y-012319
X220345Y-012319
X220345Y-004699
X217805Y-004699
X215265Y-004699
X212725Y-004699
X210185Y-004699
X207645Y-004699
X205105Y-004699
X202565Y-004699
X200025Y-004699
X197485Y-004699
X170561Y-012319
X173101Y-012319
X175641Y-012319
X178181Y-012319
X180721Y-012319
X183261Y-012319
X185801Y-012319
X188341Y-012319
X190881Y-012319
X193421Y-012319
X193421Y-004699
X190881Y-004699
X188341Y-004699
X185801Y-004699
X183261Y-004699
X180721Y-004699
X178181Y-004699
X175641Y-004699
X173101Y-004699
X170561Y-004699
X160824Y-217170
X163364Y-217170
X165904Y-217170
X168444Y-217170
X170984Y-217170
X173524Y-217170
X176064Y-217170
X178604Y-217170
X178604Y-209550
X176064Y-209550
X173524Y-209550
X170984Y-209550
X168444Y-209550
X165904Y-209550
X163364Y-209550
X160824Y-209550
X182372Y-217170
X184912Y-217170
X187452Y-217170
X189992Y-217170
X192532Y-217170
X195072Y-217170
X197612Y-217170
X200152Y-217170
X200152Y-209550
X197612Y-209550
X195072Y-209550
X192532Y-209550
X189992Y-209550
X187452Y-209550
X184912Y-209550
X182372Y-209550
X203920Y-217170
X206460Y-217170
X209000Y-217170
X211540Y-217170
X214080Y-217170
X216620Y-217170
X219160Y-217170
X221700Y-217170
X221700Y-209550
X219160Y-209550
X216620Y-209550
X214080Y-209550
X211540Y-209550
X209000Y-209550
X206460Y-209550
X203920Y-209550
X225467Y-217170
X228007Y-217170
X230547Y-217170
X233087Y-217170
X235627Y-217170
X238167Y-217170
X240707Y-217170
X243247Y-217170
X243247Y-209550
X240707Y-209550
X238167Y-209550
X235627Y-209550
X233087Y-209550
X230547Y-209550
X228007Y-209550
X225467Y-209550
X276987Y-234442
X279527Y-234442
X282067Y-234442
X284607Y-234442
X287147Y-234442
X289687Y-234442
X292227Y-234442
X294767Y-234442
X294767Y-226822
X292227Y-226822
X289687Y-226822
X287147Y-226822
X284607Y-226822
X282067Y-226822
X279527Y-226822
X276987Y-226822
X253365Y-234442
X255905Y-234442
X258445Y-234442
X260985Y-234442
X263525Y-234442
X266065Y-234442
X268605Y-234442
X271145Y-234442
X271145Y-226822
X268605Y-226822
X266065Y-226822
X263525Y-226822
X260985Y-226822
X258445Y-226822
X255905Y-226822
X253365Y-226822
X255524Y-218440
X258064Y-218440
X260604Y-218440
X263144Y-218440
X265684Y-218440
X268224Y-218440
X270764Y-218440
X273304Y-218440
X275844Y-218440
X278384Y-218440
X278384Y-210820
X275844Y-210820
X273304Y-210820
X270764Y-210820
X268224Y-210820
X265684Y-210820
X263144Y-210820
X260604Y-210820
X258064Y-210820
X255524Y-210820
X038608Y-176022
X041148Y-176022
X043688Y-176022
X046228Y-176022
X048768Y-176022
X051308Y-176022
X053848Y-176022
X056388Y-176022
X056388Y-168402
X053848Y-168402
X051308Y-168402
X048768Y-168402
X046228Y-168402
X043688Y-168402
X041148Y-168402
X038608Y-168402
X062357Y-176022
X064897Y-176022
X067437Y-176022
X069977Y-176022
X072517Y-176022
X075057Y-176022
X077597Y-176022
X080137Y-176022
X080137Y-168402
X077597Y-168402
X075057Y-168402
X072517Y-168402
X069977Y-168402
X067437Y-168402
X064897Y-168402
X062357Y-168402
X086106Y-176022
X088646Y-176022
X091186Y-176022
X093726Y-176022
X096266Y-176022
X098806Y-176022
X101346Y-176022
X103886Y-176022
X103886Y-168402
X101346Y-168402
X098806Y-168402
X096266Y-168402
X093726Y-168402
X091186Y-168402
X088646Y-168402
X086106Y-168402
X109855Y-176022
X112395Y-176022
X114935Y-176022
X117475Y-176022
X120015Y-176022
X122555Y-176022
X125095Y-176022
X127635Y-176022
X127635Y-168402
X125095Y-168402
X122555Y-168402
X120015Y-168402
X117475Y-168402
X114935Y-168402
X112395Y-168402
X109855Y-168402
X045720Y-194564
X048260Y-194564
X109305Y-215519
X111845Y-215519
X114385Y-215519
X116925Y-215519
X119465Y-215519
X122005Y-215519
X124545Y-215519
X127085Y-215519
X127085Y-207899
X124545Y-207899
X122005Y-207899
X119465Y-207899
X116925Y-207899
X114385Y-207899
X111845Y-207899
X109305Y-207899
X084709Y-215519
X087249Y-215519
X089789Y-215519
X092329Y-215519
X094869Y-215519
X097409Y-215519
X099949Y-215519
X102489Y-215519
X102489Y-207899
X099949Y-207899
X097409Y-207899
X094869Y-207899
X092329Y-207899
X089789Y-207899
X087249Y-207899
X084709Y-207899
X060113Y-215519
X062653Y-215519
X065193Y-215519
X067733Y-215519
X070273Y-215519
X072813Y-215519
X075353Y-215519
X077893Y-215519
X077893Y-207899
X075353Y-207899
X072813Y-207899
X070273Y-207899
X067733Y-207899
X065193Y-207899
X062653Y-207899
X060113Y-207899
X035518Y-215519
X038058Y-215519
X040598Y-215519
X043138Y-215519
X045678Y-215519
X048218Y-215519
X050758Y-215519
X053298Y-215519
X053298Y-207899
X050758Y-207899
X048218Y-207899
X045678Y-207899
X043138Y-207899
X040598Y-207899
X038058Y-207899
X035518Y-207899
X019558Y-247142
X022098Y-247142
X024638Y-247142
X027178Y-247142
X029718Y-247142
X032258Y-247142
X034798Y-247142
X037338Y-247142
X039878Y-247142
X042418Y-247142
X044958Y-247142
X047498Y-247142
X050038Y-247142
X052578Y-247142
X052578Y-231902
X050038Y-231902
X047498Y-231902
X044958Y-231902
X042418Y-231902
X039878Y-231902
X037338Y-231902
X034798Y-231902
X032258Y-231902
X029718Y-231902
X027178Y-231902
X024638Y-231902
X022098Y-231902
X019558Y-231902
X056579Y-247142
X059119Y-247142
X061659Y-247142
X064199Y-247142
X066739Y-247142
X069279Y-247142
X071819Y-247142
X074359Y-247142
X076899Y-247142
X079439Y-247142
X081979Y-247142
X084519Y-247142
X087059Y-247142
X089599Y-247142
X089599Y-231902
X087059Y-231902
X084519Y-231902
X081979Y-231902
X079439Y-231902
X076899Y-231902
X074359Y-231902
X071819Y-231902
X069279Y-231902
X066739Y-231902
X064199Y-231902
X061659Y-231902
X059119Y-231902
X056579Y-231902
X093599Y-247142
X096139Y-247142
X098679Y-247142
X101219Y-247142
X103759Y-247142
X106299Y-247142
X108839Y-247142
X111379Y-247142
X113919Y-247142
X116459Y-247142
X118999Y-247142
X121539Y-247142
X124079Y-247142
X126619Y-247142
X126619Y-231902
X124079Y-231902
X121539Y-231902
X118999Y-231902
X116459Y-231902
X113919Y-231902
X111379Y-231902
X108839Y-231902
X106299Y-231902
X103759Y-231902
X101219Y-231902
X098679Y-231902
X096139Y-231902
X093599Y-231902
X126619Y-094869
X129159Y-094869
X027686Y-189230
X030226Y-189230
T05
X038979Y-006858
X036439Y-006858
X041539Y-006858
T06
X033782Y-019431
X033782Y-021971
X033782Y-024511
X033782Y-027051
X041402Y-027051
X041402Y-024511
X041402Y-021971
X041402Y-019431
X013335Y-019431
X013335Y-021971
X013335Y-024511
X013335Y-027051
X020955Y-027051
X020955Y-024511
X020955Y-021971
X020955Y-019431
X052451Y-020320
X052451Y-022860
X052451Y-025400
X052451Y-027940
X060071Y-027940
X060071Y-025400
X060071Y-022860
X060071Y-020320
X081153Y-007620
X081153Y-010160
X078613Y-007620
X078613Y-010160
X076073Y-007620
X076073Y-010160
X230727Y-007259
X228727Y-007259
X226727Y-007259
X226727Y-009759
X228727Y-009759
X230727Y-009759
X218313Y-001778
X074073Y-018903
X076073Y-018903
X078073Y-018903
X078073Y-016403
X076073Y-016403
X074073Y-016403
X034163Y-161798
X034163Y-164338
X031623Y-161798
X031623Y-164338
X029083Y-161798
X029083Y-164338
X257683Y-007366
X257683Y-009906
X255143Y-007366
X255143Y-009906
X252603Y-007366
X252603Y-009906
X245586Y-007259
X243586Y-007259
X241586Y-007259
X241586Y-009759
X243586Y-009759
X245586Y-009759
X172085Y-001778
T07
X033655Y-016129
X041275Y-016129
X029718Y-026924
X029718Y-019304
X025273Y-019177
X025273Y-026797
X020955Y-032385
X013335Y-032385
X062611Y-034671
X054991Y-034671
X048514Y-025400
X048514Y-017780
X017526Y-074549
X017526Y-066929
X126111Y-012827
X126111Y-005207
X128651Y-012827
X128651Y-005207
X131191Y-012827
X131191Y-005207
X133731Y-012827
X133731Y-005207
X136271Y-012827
X136271Y-005207
X138811Y-012827
X138811Y-005207
X141351Y-012827
X141351Y-005207
X143891Y-012827
X143891Y-005207
X146431Y-012827
X146431Y-005207
X148971Y-012827
X148971Y-005207
X151511Y-012827
X151511Y-005207
X154051Y-012827
X154051Y-005207
X156591Y-012827
X156591Y-005207
X159131Y-012827
X159131Y-005207
X161671Y-012827
X161671Y-005207
X164211Y-012827
X164211Y-005207
X251333Y-151130
X258953Y-151130
X037592Y-179578
X037592Y-187198
X041783Y-187262
X041783Y-179642
X035179Y-192024
X042799Y-192024
X127508Y-082804
X127508Y-090424
X024892Y-199136
X024892Y-191516
T08
X215900Y-240538
X213360Y-240538
X210820Y-240538
X218440Y-240538
X220980Y-240538
X223520Y-240538
X226060Y-240538
X228600Y-240538
X231140Y-240538
X233680Y-240538
X243840Y-240538
X241300Y-240538
X238760Y-240538
X236220Y-240538
X218440Y-225298
X215900Y-225298
X220980Y-225298
X243840Y-225298
X241300Y-225298
X238760Y-225298
X236220Y-225298
X233680Y-225298
X231140Y-225298
X228600Y-225298
X226060Y-225298
X223520Y-225298
X210820Y-225298
X213360Y-225298
X174879Y-240538
X172339Y-240538
X169799Y-240538
X177419Y-240538
X179959Y-240538
X182499Y-240538
X185039Y-240538
X187579Y-240538
X190119Y-240538
X192659Y-240538
X202819Y-240538
X200279Y-240538
X197739Y-240538
X195199Y-240538
X177419Y-225298
X174879Y-225298
X179959Y-225298
X202819Y-225298
X200279Y-225298
X197739Y-225298
X195199Y-225298
X192659Y-225298
X190119Y-225298
X187579Y-225298
X185039Y-225298
X182499Y-225298
X169799Y-225298
X172339Y-225298
T09
X023486Y-006498
X026035Y-006498
X028585Y-006498
X028585Y-012298
X026035Y-012298
X023485Y-012298
X107950Y-155575
X107950Y-158115
X112268Y-134493
X112268Y-137033
X044831Y-127635
X044831Y-130175
X022225Y-087757
X022225Y-090297
X039751Y-075184
X037211Y-075184
X059182Y-040132
X056642Y-040132
X066929Y-011938
X064389Y-011938
X121539Y-021082
X121539Y-018542
X274955Y-054737
X274955Y-057277
X231394Y-061976
X228854Y-061976
X284099Y-095250
X284099Y-092710
X231902Y-093472
X234442Y-093472
X184023Y-076708
X184023Y-074168
X189992Y-094234
X187452Y-094234
X172974Y-144399
X172974Y-141859
X220980Y-125603
X218440Y-125603
X267716Y-148209
X267716Y-150749
X275717Y-124587
X275717Y-127127
X036195Y-198247
X038735Y-198247
X026924Y-224409
X026924Y-226949
X280035Y-189611
X280035Y-187071
X284988Y-217932
X284988Y-215392
X258191Y-245618
X258191Y-243078
X115443Y-251841
X117983Y-251841
T10
X177673Y-001778
X180213Y-001778
X182753Y-001778
X185293Y-001778
X187833Y-001778
X190373Y-001778
X192913Y-001778
X195453Y-001778
X197993Y-001778
X200533Y-001778
X203073Y-001778
X205613Y-001778
X208153Y-001778
X210693Y-001778
X213233Y-001778
X215773Y-001778
T11
X056718Y-010389
X050216Y-010389
X056718Y-005867
X050216Y-005867
X217475Y-137566
X223977Y-137566
X217475Y-142088
X223977Y-142088
X224627Y-007667G85X224627Y-009351
X232827Y-007667G85X232827Y-009351
X080173Y-018495G85X080173Y-016811
X071973Y-018495G85X071973Y-016811
X239486Y-007667G85X239486Y-009351
X247686Y-007667G85X247686Y-009351
T12
X009144Y-160147
X009144Y-157607
X009144Y-155067
X009144Y-152527
X009144Y-149987
X009144Y-147447
X009144Y-144907
X009144Y-142367
X009144Y-139827
X009144Y-137287
X009144Y-134747
X009144Y-132207
X009144Y-129667
X009144Y-127127
X009144Y-124587
T13
X009144Y-177165
X009144Y-174625
X009144Y-172085
X009144Y-169545
X009144Y-167005
X009144Y-164465
M30
