G04 Layer: BottomSolderMaskLayer*
G04 EasyEDA v6.4.25, 2021-11-30T23:27:12--6:00*
G04 4631042daed448b99cc0a23d656375e8,06444aca9169495d970130cf6b44ba93,10*
G04 Gerber Generator version 0.2*
G04 Scale: 100 percent, Rotated: No, Reflected: No *
G04 Dimensions in millimeters *
G04 leading zeros omitted , absolute positions ,4 integer and 5 decimal *
%FSLAX45Y45*%
%MOMM*%

%ADD25C,1.6256*%
%ADD26C,2.0828*%
%ADD27C,2.2352*%
%ADD29C,1.8032*%
%ADD30C,1.7272*%

%LPD*%
G36*
X2609088Y5098034D02*
G01*
X2609088Y5239512D01*
X2750565Y5239512D01*
X2750565Y5098034D01*
G37*
G36*
X2609088Y5352034D02*
G01*
X2609088Y5493512D01*
X2750565Y5493512D01*
X2750565Y5352034D01*
G37*
D25*
G01*
X3285236Y7823200D03*
G01*
X2785363Y7823200D03*
G01*
X3285236Y6921500D03*
G01*
X2785363Y6921500D03*
G01*
X2785363Y8280400D03*
G01*
X3285236Y8280400D03*
G01*
X2785363Y7378700D03*
G01*
X3285236Y7378700D03*
D26*
G01*
X2997200Y5499100D03*
G01*
X4267200Y5499100D03*
G01*
X2997200Y5080000D03*
G01*
X4267200Y5080000D03*
D25*
G01*
X4749800Y8559800D03*
G01*
X4749800Y8305800D03*
G01*
X4749800Y8051800D03*
G01*
X4749800Y7797800D03*
G01*
X4749800Y7543800D03*
G01*
X4749800Y7289800D03*
G01*
X4749800Y7035800D03*
G01*
X4749800Y6781800D03*
G01*
X4749800Y6527800D03*
G01*
X4749800Y6273800D03*
G01*
X4749800Y6019800D03*
G01*
X4749800Y5765800D03*
G01*
X4749800Y5511800D03*
G01*
X4749800Y5257800D03*
G01*
X4749800Y5003800D03*
G01*
X6273800Y5003800D03*
G01*
X6273800Y5257800D03*
G01*
X6273800Y5511800D03*
G01*
X6273800Y5765800D03*
G01*
X6273800Y6019800D03*
G01*
X6273800Y6273800D03*
G01*
X6273800Y6527800D03*
G01*
X6273800Y6781800D03*
G01*
X6273800Y7035800D03*
G01*
X6273800Y7289800D03*
G01*
X6273800Y7543800D03*
G01*
X6273800Y7797800D03*
G01*
X6273800Y8051800D03*
G01*
X6273800Y8305800D03*
G01*
X6273800Y8559800D03*
D27*
G01*
X3937000Y7852663D03*
G01*
X3937000Y7336536D03*
G36*
X6520179Y9187179D02*
G01*
X6520179Y9354820D01*
X6687820Y9354820D01*
X6687820Y9187179D01*
G37*
G36*
X8831579Y8387079D02*
G01*
X8831579Y8554720D01*
X8999220Y8554720D01*
X8999220Y8387079D01*
G37*
G36*
X8526779Y8387079D02*
G01*
X8526779Y8554720D01*
X8694420Y8554720D01*
X8694420Y8387079D01*
G37*
G36*
X8221979Y8387079D02*
G01*
X8221979Y8554720D01*
X8389620Y8554720D01*
X8389620Y8387079D01*
G37*
G36*
X7917179Y8387079D02*
G01*
X7917179Y8554720D01*
X8084820Y8554720D01*
X8084820Y8387079D01*
G37*
G36*
X7612379Y8387079D02*
G01*
X7612379Y8554720D01*
X7780020Y8554720D01*
X7780020Y8387079D01*
G37*
G36*
X7307579Y8387079D02*
G01*
X7307579Y8554720D01*
X7475220Y8554720D01*
X7475220Y8387079D01*
G37*
G36*
X7002779Y8387079D02*
G01*
X7002779Y8554720D01*
X7170420Y8554720D01*
X7170420Y8387079D01*
G37*
G36*
X6697979Y8387079D02*
G01*
X6697979Y8554720D01*
X6865620Y8554720D01*
X6865620Y8387079D01*
G37*
G36*
X2849879Y6062979D02*
G01*
X2849879Y6230620D01*
X3017520Y6230620D01*
X3017520Y6062979D01*
G37*
G36*
X3357879Y6062979D02*
G01*
X3357879Y6230620D01*
X3525520Y6230620D01*
X3525520Y6062979D01*
G37*
G36*
X3865879Y6062979D02*
G01*
X3865879Y6230620D01*
X4033520Y6230620D01*
X4033520Y6062979D01*
G37*
G36*
X8628379Y9123679D02*
G01*
X8628379Y9291320D01*
X8796020Y9291320D01*
X8796020Y9123679D01*
G37*
G36*
X3548379Y9136379D02*
G01*
X3548379Y9304020D01*
X3716020Y9304020D01*
X3716020Y9136379D01*
G37*
G36*
X3878579Y9136379D02*
G01*
X3878579Y9304020D01*
X4046220Y9304020D01*
X4046220Y9136379D01*
G37*
G36*
X6850379Y9187179D02*
G01*
X6850379Y9354820D01*
X7018020Y9354820D01*
X7018020Y9187179D01*
G37*
G36*
X6189979Y9187179D02*
G01*
X6189979Y9354820D01*
X6357620Y9354820D01*
X6357620Y9187179D01*
G37*
D29*
G01*
X9220200Y7289800D03*
G01*
X9220200Y7797800D03*
D30*
G01*
X7543800Y7429500D03*
G01*
X7797800Y7429500D03*
G01*
X8051800Y7429500D03*
G01*
X8305800Y7429500D03*
G01*
X7543800Y7683500D03*
G01*
X7797800Y7683500D03*
G01*
X8051800Y7683500D03*
G01*
X8305800Y7683500D03*
M02*
