M48
METRIC,LZ,000.000
;FILE_FORMAT=3:3
;TYPE=PLATED
;Layer: Drill PTH
;EasyEDA v6.4.25, 2021-11-30T23:27:12--6:00
;4631042daed448b99cc0a23d656375e8,06444aca9169495d970130cf6b44ba93,10
;Gerber Generator version 0.2
;Holesize 1 = 0.305 mm
T01C0.305
;Holesize 2 = 0.813 mm
T02C0.813
;Holesize 3 = 0.889 mm
T03C0.889
;Holesize 4 = 0.900 mm
T04C0.900
;Holesize 5 = 0.915 mm
T05C0.915
;Holesize 6 = 1.000 mm
T06C1.000
%
G05
G90
T01
X060198Y054483
X057023Y051308
T02
X026797Y051689
X026797Y054229
X039370Y078527
X039370Y073365
T03
X066040Y092710
X089154Y084709
X086106Y084709
X083058Y084709
X080010Y084709
X076962Y084709
X073914Y084709
X070866Y084709
X067818Y084709
X029337Y061468
X034417Y061468
X039497Y061468
X087122Y092075
X036322Y092202
X039624Y092202
X069342Y092710
X062738Y092710
T04
X029972Y054991
X042672Y054991
X029972Y050800
X042672Y050800
T05
X032852Y078232
X027854Y078232
X032852Y069215
X027854Y069215
X027854Y082804
X032852Y082804
X027854Y073787
X032852Y073787
X047498Y085598
X047498Y083058
X047498Y080518
X047498Y077978
X047498Y075438
X047498Y072898
X047498Y070358
X047498Y067818
X047498Y065278
X047498Y062738
X047498Y060198
X047498Y057658
X047498Y055118
X047498Y052578
X047498Y050038
X062738Y050038
X062738Y052578
X062738Y055118
X062738Y057658
X062738Y060198
X062738Y062738
X062738Y065278
X062738Y067818
X062738Y070358
X062738Y072898
X062738Y075438
X062738Y077978
X062738Y080518
X062738Y083058
X062738Y085598
X075438Y074295
X077978Y074295
X080518Y074295
X083058Y074295
X075438Y076835
X077978Y076835
X080518Y076835
X083058Y076835
T06
X092202Y072898
X092202Y077978
M30
