M48
INCH,LZ
;FILE_FORMAT=2:4
;TYPE=PLATED
;Layer: Drill PTH
;EasyEDA v6.4.25, 2021-12-08T18:14:58--6:00
;69e83bd8f40a47abaefc3c1f755e5dbc,06444aca9169495d970130cf6b44ba93,10
;Gerber Generator version 0.2
;Holesize 1 = 0.0120 inch
T01C0.0120
;Holesize 2 = 0.0280 inch
T02C0.0280
;Holesize 3 = 0.0320 inch
T03C0.0320
;Holesize 4 = 0.0320 inch
T04C0.0320
;Holesize 5 = 0.0350 inch
T05C0.0350
;Holesize 6 = 0.0350 inch
T06C0.0350
;Holesize 7 = 0.0400 inch
T07C0.0400
;Holesize 8 = 0.0400 inch
T08C0.0400
;Holesize 9 = 0.0470 inch
T09C0.0470
;Holesize 10 = 0.1300 inch
T10C0.1300
%
G05
G90
T01
X036800Y-009700
X020100Y-015400
X019000Y-029650
X023650Y-034600
X027450Y-024050
X029650Y-018150
X026850Y-022450
X020100Y-021250
X021850Y-020300
X028300Y-019900
X029400Y-016500
X028950Y-016100
X043300Y-029400
X045150Y-029100
X045050Y-027300
X041800Y-029600
X047750Y-029900
X048850Y-035050
X022100Y-027600
X017300Y-021700
X047400Y-027700
X051500Y-028400
X048900Y-021400
X026550Y-016900
X031700Y-021300
X024400Y-033150
X034150Y-027050
X021450Y-032750
X021650Y-034850
X031700Y-029150
X032250Y-029850
X048550Y-035350
X052600Y-027700
X055600Y-027700
X049050Y-018300
X053450Y-014000
X024100Y-016450
X024550Y-015550
X052650Y-016700
X025250Y-025050
X034500Y-027050
X028050Y-016950
X018150Y-026600
X018200Y-027150
X025500Y-033000
X024650Y-031750
X024650Y-034900
X031650Y-036050
X029250Y-035300
X057150Y-027650
X048825Y-030875
X055250Y-025600
X050850Y-013700
X046965Y-020950
X044250Y-024150
X049050Y-028100
X047050Y-026950
X056400Y-024750
X048750Y-012950
X046750Y-017950
X047550Y-019550
X049550Y-022700
X052750Y-019600
X050250Y-017400
X052450Y-014000
X053150Y-022850
X054150Y-023500
X052800Y-030650
X050500Y-025850
X026400Y-023100
X027650Y-019850
X027550Y-017300
X054900Y-020450
X045750Y-040250
X047400Y-040250
T02
X040550Y-019850
X041550Y-019850
X042550Y-019850
X043550Y-019850
X044550Y-019850
X045550Y-019850
X046550Y-019850
X046550Y-016850
X045550Y-016850
X044550Y-016850
X043550Y-016850
X042550Y-016850
X041550Y-016850
X040550Y-016850
X011050Y-039600
X012050Y-039600
X013050Y-039600
X014050Y-039600
X015050Y-039600
X016050Y-039600
X017050Y-039600
X018050Y-039600
X018050Y-036600
X017050Y-036600
X016050Y-036600
X015050Y-036600
X014050Y-036600
X013050Y-036600
X012050Y-036600
X011050Y-036600
X019750Y-039600
X020750Y-039600
X021750Y-039600
X022750Y-039600
X023750Y-039600
X024750Y-039600
X025750Y-039600
X026750Y-039600
X026750Y-036600
X025750Y-036600
X024750Y-036600
X023750Y-036600
X022750Y-036600
X021750Y-036600
X020750Y-036600
X019750Y-036600
X028150Y-039600
X029150Y-039600
X030150Y-039600
X031150Y-039600
X032150Y-039600
X033150Y-039600
X034150Y-039600
X035150Y-039600
X035150Y-036600
X034150Y-036600
X033150Y-036600
X032150Y-036600
X031150Y-036600
X030150Y-036600
X029150Y-036600
X028150Y-036600
X037650Y-039550
X038650Y-039550
X039650Y-039550
X040650Y-039550
X041650Y-039550
X042650Y-039550
X043650Y-039550
X044650Y-039550
X044650Y-036550
X043650Y-036550
X042650Y-036550
X041650Y-036550
X040650Y-036550
X039650Y-036550
X038650Y-036550
X037650Y-036550
X046150Y-039550
X047150Y-039550
X048150Y-039550
X049150Y-039550
X050150Y-039550
X051150Y-039550
X052150Y-039550
X053150Y-039550
X053150Y-036550
X052150Y-036550
X051150Y-036550
X050150Y-036550
X049150Y-036550
X048150Y-036550
X047150Y-036550
X046150Y-036550
X054400Y-039550
X055400Y-039550
X056400Y-039550
X057400Y-039550
X058400Y-039550
X059400Y-039550
X060400Y-039550
X061400Y-039550
X061400Y-036550
X060400Y-036550
X059400Y-036550
X058400Y-036550
X057400Y-036550
X056400Y-036550
X055400Y-036550
X054400Y-036550
X015650Y-028400
X016650Y-028400
X017650Y-028400
X018650Y-028400
X019650Y-028400
X020650Y-028400
X021650Y-028400
X021650Y-025400
X020650Y-025400
X019650Y-025400
X018650Y-025400
X017650Y-025400
X016650Y-025400
X015650Y-025400
X014600Y-022800
X015600Y-022800
X016600Y-022800
X017600Y-022800
X018600Y-022800
X019600Y-022800
X020600Y-022800
X020600Y-019800
X019600Y-019800
X018600Y-019800
X017600Y-019800
X016600Y-019800
X015600Y-019800
X014600Y-019800
X021800Y-011950
X022800Y-011950
X023800Y-011950
X024800Y-011950
X025800Y-011950
X026800Y-011950
X027800Y-011950
X027800Y-008950
X026800Y-008950
X025800Y-008950
X024800Y-008950
X023800Y-008950
X022800Y-008950
X021800Y-008950
X022050Y-018850
X023050Y-018850
X024050Y-018850
X025050Y-018850
X026050Y-018850
X027050Y-018850
X028050Y-018850
X028050Y-015850
X027050Y-015850
X026050Y-015850
X025050Y-015850
X024050Y-015850
X023050Y-015850
X022050Y-015850
X051650Y-018000
X052650Y-018000
X053650Y-018000
X054650Y-018000
X055650Y-018000
X056650Y-018000
X057650Y-018000
X057650Y-015000
X056650Y-015000
X055650Y-015000
X054650Y-015000
X053650Y-015000
X052650Y-015000
X051650Y-015000
X050000Y-032050
X051000Y-032050
X052000Y-032050
X053000Y-032050
X054000Y-032050
X055000Y-032050
X056000Y-032050
X056000Y-029050
X055000Y-029050
X054000Y-029050
X053000Y-029050
X052000Y-029050
X051000Y-029050
X050000Y-029050
X049450Y-011500
X050450Y-011500
X051450Y-011500
X052450Y-011500
X053450Y-011500
X054450Y-011500
X055450Y-011500
X055450Y-008500
X054450Y-008500
X053450Y-008500
X052450Y-008500
X051450Y-008500
X050450Y-008500
X049450Y-008500
X047600Y-023950
X048600Y-023950
X049600Y-023950
X050600Y-023950
X051600Y-023950
X052600Y-023950
X053600Y-023950
X053600Y-020950
X052600Y-020950
X051600Y-020950
X050600Y-020950
X049600Y-020950
X048600Y-020950
X047600Y-020950
X026200Y-028350
X027200Y-028350
X028200Y-028350
X029200Y-028350
X030200Y-028350
X031200Y-028350
X032200Y-028350
X032200Y-025350
X031200Y-025350
X030200Y-025350
X029200Y-025350
X028200Y-025350
X027200Y-025350
X026200Y-025350
X041750Y-014250
X042750Y-014250
X043750Y-014250
X044750Y-014250
X045750Y-014250
X046750Y-014250
X047750Y-014250
X047750Y-011250
X046750Y-011250
X045750Y-011250
X044750Y-011250
X043750Y-011250
X042750Y-011250
X041750Y-011250
T03
X015500Y-017801G85X015500Y-017799
X012500Y-017801G85X012500Y-017799
X012500Y-011801G85X012500Y-011799
X015500Y-011801G85X015500Y-011799
T04
X040300Y-031200
X041300Y-031200
X042300Y-031200
X043300Y-031200
X044300Y-031200
X045300Y-031200
X046300Y-031200
X046300Y-028200
X045300Y-028200
X044300Y-028200
X043300Y-028200
X042300Y-028200
X041300Y-028200
X040300Y-028200
X025500Y-034500
X026500Y-034500
X027500Y-034500
X028500Y-034500
X029500Y-034500
X030500Y-034500
X031500Y-034500
X031500Y-031500
X030500Y-031500
X029500Y-031500
X028500Y-031500
X027500Y-031500
X026500Y-031500
X025500Y-031500
X017000Y-033900
X018000Y-033900
X019000Y-033900
X020000Y-033900
X021000Y-033900
X022000Y-033900
X023000Y-033900
X023000Y-030900
X022000Y-030900
X021000Y-030900
X020000Y-030900
X019000Y-030900
X018000Y-030900
X017000Y-030900
T05
X035800Y-030300
X037500Y-030300
T06
X030300Y-013500
X030300Y-010500
X031700Y-013500
X031700Y-010500
X033800Y-013550
X033800Y-010550
X037950Y-013700
X037950Y-010700
X035300Y-013550
X035300Y-010550
X039400Y-013650
X039400Y-010650
X030950Y-018000
X030950Y-015000
X034100Y-018050
X034100Y-015050
X037900Y-018000
X037900Y-015000
T07
X037000Y-006750
X037900Y-006750
X038810Y-006750
X039710Y-006750
X036550Y-005750
X037450Y-005750
X038350Y-005750
X039250Y-005750
X036100Y-006750
X040160Y-005750
X036550Y-007750
X037450Y-007750
X038350Y-007750
X039250Y-007750
X040160Y-007750
T08
X030450Y-022500
X031450Y-022500
X032450Y-022500
X033450Y-022500
X034450Y-022500
X035450Y-022500
X036450Y-022500
X037450Y-022500
X038450Y-022500
X039450Y-022500
X040450Y-022500
X041450Y-022500
X042450Y-022500
X043450Y-022500
X044450Y-022500
T09
X037550Y-020350
X036550Y-020350
X035550Y-020350
X034550Y-020350
X033550Y-020350
X032550Y-020350
T10
X033330Y-006750
X043170Y-006750
M30
