G04 Layer: TopLayer*
G04 EasyEDA v6.4.25, 2021-12-08T18:14:58--6:00*
G04 69e83bd8f40a47abaefc3c1f755e5dbc,06444aca9169495d970130cf6b44ba93,10*
G04 Gerber Generator version 0.2*
G04 Scale: 100 percent, Rotated: No, Reflected: No *
G04 Dimensions in inches *
G04 leading zeros omitted , absolute positions ,3 integer and 6 decimal *
%FSLAX36Y36*%
%MOIN*%

%ADD10C,0.0118*%
%ADD11C,0.0240*%
%ADD12R,0.0477X0.0859*%
%ADD13C,0.0740*%
%ADD14C,0.2000*%
%ADD16C,0.0550*%
%ADD17R,0.0620X0.0620*%
%ADD19C,0.0669*%
%ADD20C,0.0709*%
%ADD22R,0.0630X0.0630*%
%ADD23C,0.0630*%

%LPD*%
D10*
X3422799Y-3560000D02*
G01*
X3505000Y-3477800D01*
X3505000Y-3105000D01*
X3580000Y-3030000D01*
X3580000Y-3030000D02*
G01*
X3505000Y-3030000D01*
X2685000Y-2245000D02*
G01*
X2684997Y-2245000D01*
X2548847Y-2108850D01*
X2026152Y-2108850D01*
X2010000Y-2125000D01*
X2060000Y-2280000D02*
G01*
X2090000Y-2310000D01*
X2640000Y-2310000D01*
X5440000Y-3955000D02*
G01*
X5580000Y-3815000D01*
X6165000Y-3815000D01*
X6195000Y-3785000D01*
X6195000Y-1930000D01*
X5765000Y-1500000D01*
X5545000Y-850000D02*
G01*
X5490000Y-795000D01*
X4915000Y-795000D01*
X4675000Y-1035000D01*
X4675000Y-1125000D01*
X4515000Y-2910000D02*
G01*
X4480000Y-2875000D01*
X4480000Y-2755000D01*
X4505000Y-2730000D01*
X2830000Y-1990000D02*
G01*
X2795000Y-2020000D01*
X2640000Y-2020000D01*
X2505000Y-1885000D01*
X3545000Y-2250000D02*
G01*
X3470000Y-2175000D01*
X3145000Y-2175000D01*
X3010000Y-2040000D01*
X3010000Y-1775000D01*
X2940000Y-1705000D01*
X2940000Y-1650000D01*
X3835000Y-575000D02*
G01*
X3765000Y-505000D01*
X3175000Y-505000D01*
X2925000Y-755000D01*
X2925000Y-1625000D01*
X2915000Y-1635000D01*
X2915000Y-1820000D01*
X2925000Y-1830000D01*
X2925000Y-2220000D01*
X2820000Y-2325000D01*
X2820000Y-2535000D01*
X4575000Y-4025000D02*
G01*
X4740000Y-4025000D01*
X5360000Y-2395000D02*
G01*
X5445000Y-2395000D01*
X5490000Y-2350000D01*
X5490000Y-2045000D01*
X2755000Y-1730000D02*
G01*
X2805000Y-1780000D01*
X2805000Y-1885000D01*
X2765000Y-1985000D02*
G01*
X2805000Y-1945000D01*
X2805000Y-1885000D01*
X4615000Y-3955000D02*
G01*
X4755000Y-3815000D01*
X5591768Y-3815000D01*
X5280000Y-3065000D02*
G01*
X5175000Y-3065000D01*
X5050000Y-2940000D01*
X5050000Y-2585000D01*
X5315000Y-2285000D02*
G01*
X5350000Y-2285000D01*
X5415000Y-2350000D01*
X5025000Y-1740000D02*
G01*
X5025000Y-1540000D01*
X5145000Y-1420000D01*
X5225000Y-1420000D01*
X5245000Y-1400000D01*
X5060000Y-2395000D02*
G01*
X5060000Y-2330000D01*
X5210000Y-2180000D01*
X5210000Y-2025000D01*
X5275000Y-1960000D01*
X4955000Y-2270000D02*
G01*
X4960000Y-2275000D01*
X4960000Y-2395000D01*
X5265000Y-1800000D02*
G01*
X5265000Y-1885000D01*
X5110000Y-2040000D01*
X5110000Y-2140000D01*
X5074399Y-2175599D01*
X5009399Y-2175599D01*
X4860000Y-2325000D01*
X4860000Y-2395000D01*
X4675000Y-1795000D02*
G01*
X4675000Y-1875000D01*
X4755000Y-1955000D01*
X4960000Y-2095000D02*
G01*
X4960000Y-2110000D01*
X4890000Y-2180000D01*
X4415000Y-2180000D01*
X4345000Y-2250000D01*
X5145000Y-1150000D02*
G01*
X5000000Y-1295000D01*
X4875000Y-1295000D01*
X5640000Y-2475000D02*
G01*
X5640000Y-2730000D01*
X5555000Y-2815000D01*
X5290000Y-2815000D01*
X5200000Y-2905000D01*
X4905000Y-2810000D02*
G01*
X5000000Y-2905000D01*
X4425000Y-2415000D02*
G01*
X4705000Y-2695000D01*
X5525000Y-2560000D02*
G01*
X5610000Y-2475000D01*
X5610000Y-1410000D01*
X5570000Y-1370000D01*
X5085000Y-1370000D01*
X5345000Y-1400000D02*
G01*
X5355000Y-1410000D01*
X5480000Y-1410000D01*
X5510000Y-1440000D01*
X5510000Y-1565000D01*
X5465000Y-1610000D01*
X5465000Y-1800000D01*
X4030000Y-3120000D02*
G01*
X4110000Y-3040000D01*
X4835000Y-3040000D01*
X5000000Y-3205000D01*
X5715000Y-2765000D02*
G01*
X5715000Y-2790000D01*
X5600000Y-2905000D01*
X4375000Y-1125000D02*
G01*
X4350000Y-1125000D01*
X4155000Y-930000D01*
X4155000Y-590000D01*
X4070000Y-505000D01*
X3995000Y-505000D01*
X3925000Y-575000D01*
X2815000Y-3960000D02*
G01*
X2815000Y-3765000D01*
X2865000Y-3715000D01*
X3140000Y-3715000D01*
X3165000Y-3690000D01*
X3165000Y-3605000D01*
X2465000Y-3490000D02*
G01*
X2505000Y-3530000D01*
X2925000Y-3530000D01*
X1765000Y-2540000D02*
G01*
X1845000Y-2460000D01*
X2225000Y-2460000D01*
X2275000Y-2510000D01*
X2275000Y-2760000D01*
X2380000Y-2865000D01*
X2380000Y-3090000D01*
X2465000Y-3175000D01*
X2550000Y-3300000D02*
G01*
X2355000Y-3105000D01*
X2355000Y-2895000D01*
X2245000Y-2785000D01*
X2245000Y-2525000D01*
X2200000Y-2480000D01*
X1925000Y-2480000D01*
X1865000Y-2540000D01*
X1820000Y-2715000D02*
G01*
X1820000Y-2860000D01*
X1865000Y-2905000D01*
X1895000Y-2905000D01*
X2000000Y-3010000D01*
X2000000Y-3090000D01*
X1815000Y-2655000D02*
G01*
X1860000Y-2700000D01*
X1950000Y-2790000D01*
X2200000Y-2790000D01*
X2300000Y-2890000D01*
X2300000Y-3090000D01*
X1960000Y-2280000D02*
G01*
X1895000Y-2345000D01*
X1755000Y-2345000D01*
X1715000Y-2385000D01*
X1715000Y-2915000D01*
X1800000Y-3000000D01*
X1800000Y-3090000D01*
X2805000Y-1695000D02*
G01*
X2805000Y-1740000D01*
X2900000Y-1835000D01*
X2900000Y-2205000D01*
X2795000Y-2310000D01*
X2795000Y-2495000D01*
X2770000Y-2520000D01*
X2770000Y-2585000D01*
X3020000Y-2835000D01*
X3450000Y-2705000D02*
G01*
X3450000Y-2345000D01*
X3545000Y-2250000D01*
X2750000Y-3450000D02*
G01*
X2495000Y-3195000D01*
X2495000Y-3070000D01*
X2525000Y-3040000D01*
X2525000Y-2655000D01*
X2525000Y-2505000D01*
X5160000Y-2395000D02*
G01*
X5310000Y-2245000D01*
X5310000Y-1780000D01*
X5350000Y-1740000D01*
X5445000Y-1740000D01*
X5462139Y-1757139D01*
X5465000Y-1757139D01*
X4760000Y-2395000D02*
G01*
X5010000Y-2145000D01*
X5010000Y-1930000D01*
X5140000Y-1800000D01*
X5165000Y-1800000D01*
X5265000Y-1670000D02*
G01*
X5265000Y-1800000D01*
X5465000Y-1500000D02*
G01*
X5398000Y-1566999D01*
X5283000Y-1566999D01*
X5215000Y-1635000D01*
X5215000Y-1835000D01*
X5060000Y-1990000D01*
X5060000Y-2095000D01*
X4960000Y-2095000D02*
G01*
X4960000Y-1925000D01*
X5190000Y-1695000D01*
X5190000Y-1625000D01*
X5269399Y-1545599D01*
X5339399Y-1545599D01*
X5365000Y-1520000D01*
X5365000Y-1500000D01*
X2410000Y-1645000D02*
G01*
X2455000Y-1600000D01*
X2455000Y-1555000D01*
X4575000Y-1425000D02*
G01*
X4575000Y-1500000D01*
X4905000Y-1830000D01*
X5260000Y-2770000D02*
G01*
X5560000Y-2770000D01*
X4130000Y-2820000D02*
G01*
X3915000Y-3035000D01*
X3915000Y-3295000D01*
X4155000Y-3535000D01*
X4855000Y-3535000D01*
X3170000Y-2915000D02*
G01*
X3225000Y-2970000D01*
X3225000Y-2985000D01*
X2145000Y-3275000D02*
G01*
X2145000Y-3465000D01*
X2165000Y-3485000D01*
X2100000Y-3390000D02*
G01*
X2100000Y-3475000D01*
X2140000Y-3515000D01*
X2380000Y-3515000D01*
X2440000Y-3455000D01*
X2440000Y-3315000D01*
X2820000Y-2835000D02*
G01*
X2920000Y-2835000D01*
X3415000Y-2705000D02*
G01*
X3415000Y-2520000D01*
X3145000Y-2250000D01*
X3170000Y-2130000D02*
G01*
X3525000Y-2130000D01*
X3645000Y-2250000D01*
X2655000Y-1690000D02*
G01*
X2655000Y-1835000D01*
X2705000Y-1885000D01*
X4045000Y-2250000D02*
G01*
X4155000Y-2140000D01*
X4890000Y-2140000D01*
X5150000Y-2840000D02*
G01*
X5150000Y-2830000D01*
X5540000Y-2440000D01*
X5540000Y-1975000D01*
X5365000Y-1800000D01*
X4245000Y-2250000D02*
G01*
X4245000Y-2275000D01*
X4740000Y-2770000D01*
X5315000Y-3655000D02*
G01*
X5445000Y-3525000D01*
X5445000Y-3145000D01*
X5410000Y-3110000D01*
X5160000Y-3110000D01*
X5000000Y-2950000D01*
X5000000Y-2905000D01*
X3515000Y-3660000D02*
G01*
X3415000Y-3760000D01*
X3415000Y-3960000D01*
X2815000Y-3660000D02*
G01*
X2675000Y-3660000D01*
X2575000Y-3960000D02*
G01*
X2675000Y-3860000D01*
X2675000Y-3660000D01*
X1730000Y-2170000D02*
G01*
X1760000Y-2200000D01*
X1760000Y-2280000D01*
X1565000Y-2840000D02*
G01*
X1610000Y-2795000D01*
X1610000Y-2185000D01*
X1650000Y-2145000D01*
X1915000Y-2145000D01*
X2030000Y-2030000D01*
X2185000Y-2030000D01*
X2210000Y-2760000D02*
G01*
X2165000Y-2715000D01*
X2165000Y-2540000D01*
X2650000Y-3450000D02*
G01*
X2385000Y-3185000D01*
X2185000Y-3185000D01*
X2150000Y-3150000D01*
X2150000Y-2975000D01*
X2065000Y-2890000D01*
X2065000Y-2840000D01*
X4885000Y-3505000D02*
G01*
X5100000Y-3505000D01*
X5400000Y-3205000D01*
X4180000Y-2960000D02*
G01*
X4210000Y-2990000D01*
X4775000Y-2990000D01*
X3745000Y-2250000D02*
G01*
X3880000Y-2385000D01*
X4290000Y-2385000D01*
X4530000Y-2625000D01*
X4530000Y-2820000D01*
X4630000Y-2820000D02*
G01*
X4630000Y-2695000D01*
X4290000Y-2355000D01*
X3905000Y-2355000D01*
X3845000Y-2295000D01*
X3845000Y-2250000D01*
X5100000Y-3205000D02*
G01*
X4835000Y-2940000D01*
X4830000Y-2940000D01*
X4330000Y-2940000D01*
X4430000Y-3120000D02*
G01*
X4585000Y-3275000D01*
X5130000Y-3275000D01*
X5200000Y-3205000D01*
X4630000Y-2820000D02*
G01*
X4735000Y-2820000D01*
X5160000Y-2395000D01*
X5465000Y-1800000D02*
G01*
X5565000Y-1800000D01*
X1760000Y-1980000D02*
G01*
X2060000Y-1680000D01*
X2410000Y-1680000D01*
X2505000Y-1585000D01*
X2895000Y-1610000D02*
G01*
X2875000Y-1610000D01*
X2840000Y-1645000D01*
X2565000Y-1645000D01*
X2505000Y-1585000D01*
X2060000Y-1980000D02*
G01*
X2480000Y-1980000D01*
X2775000Y-2275000D01*
X2775000Y-2480000D01*
X2720000Y-2535000D01*
X1460000Y-2280000D02*
G01*
X1615000Y-2125000D01*
X1880000Y-2125000D01*
X2010000Y-1995000D01*
X2010000Y-1925000D01*
X2050000Y-1885000D01*
X2205000Y-1885000D01*
X2965000Y-1815000D02*
G01*
X2965000Y-2380000D01*
X3120000Y-2535000D01*
X1960000Y-2280000D02*
G01*
X2085000Y-2405000D01*
X2745000Y-2405000D01*
X2920000Y-2535000D02*
G01*
X3020000Y-2535000D01*
X2620000Y-2835000D02*
G01*
X2680000Y-2895000D01*
X3080000Y-2895000D01*
X3120000Y-2855000D01*
X3120000Y-2835000D01*
X2620000Y-2535000D02*
G01*
X2550000Y-2605000D01*
X2550000Y-3150000D01*
X3580000Y-3030000D02*
G01*
X2670000Y-3030000D01*
X2550000Y-3150000D01*
X3580000Y-3030000D02*
G01*
X3790000Y-2820000D01*
X4030000Y-2820000D01*
X1900000Y-3390000D02*
G01*
X1750000Y-3240000D01*
X1750000Y-3005000D01*
X1655000Y-2910000D01*
X1525000Y-2910000D01*
X1500000Y-2885000D01*
X1500000Y-2340000D01*
X1560000Y-2280000D01*
X2365000Y-3460000D02*
G01*
X2365000Y-3320000D01*
X2280000Y-3235000D01*
X1945000Y-3235000D01*
X1800000Y-3090000D01*
X1900000Y-2965000D02*
G01*
X1900000Y-3090000D01*
X1865000Y-2840000D02*
G01*
X2100000Y-3075000D01*
X2100000Y-3090000D01*
X4575000Y-1125000D02*
G01*
X4475000Y-1125000D01*
X5165000Y-1500000D02*
G01*
X5165000Y-1690000D01*
X4760000Y-2095000D01*
X4475000Y-1425000D02*
G01*
X4375000Y-1425000D01*
X4155000Y-1985000D02*
G01*
X4300000Y-1840000D01*
X4300000Y-1500000D01*
X4375000Y-1425000D01*
X4055000Y-1685000D02*
G01*
X3965000Y-1775000D01*
X3965000Y-2000000D01*
X4060000Y-2095000D01*
X4760000Y-2095000D01*
X4055000Y-1685000D02*
G01*
X4055000Y-1245000D01*
X4175000Y-1125000D01*
X1975000Y-3660000D02*
G01*
X1875000Y-3560000D01*
X1854182Y-3560000D01*
X1700000Y-3090000D02*
G01*
X1230000Y-3560000D01*
X1209445Y-3560000D01*
X2280000Y-1195000D02*
G01*
X2280000Y-1270000D01*
X2010000Y-1540000D01*
X2380000Y-895000D02*
G01*
X2430000Y-945000D01*
X2430000Y-1560000D01*
X2405000Y-1585000D01*
X2480000Y-895000D02*
G01*
X2525000Y-940000D01*
X2525000Y-1565000D01*
X2505000Y-1585000D01*
X1660000Y-1980000D02*
G01*
X1995000Y-1645000D01*
X2375000Y-1645000D01*
X2405000Y-1615000D01*
X2405000Y-1585000D01*
X1550000Y-1780000D02*
G01*
X1460000Y-1870000D01*
X1460000Y-1980000D01*
X2205000Y-1585000D02*
G01*
X1902677Y-1585000D01*
X1550000Y-1780000D02*
G01*
X1705000Y-1780000D01*
X2035000Y-1450000D01*
X2035000Y-1040000D01*
X2180000Y-895000D01*
X2820000Y-2535000D02*
G01*
X2910000Y-2625000D01*
X3160000Y-2625000D01*
X3220000Y-2565000D01*
X3220000Y-2535000D01*
X4175000Y-1125000D02*
G01*
X4080000Y-1030000D01*
X4080000Y-744805D01*
X4060194Y-725000D01*
X3931000Y-725000D01*
X3881000Y-675000D01*
X3255000Y-2035000D02*
G01*
X3095000Y-1875000D01*
X3095000Y-1800000D01*
X3355000Y-2035000D02*
G01*
X3355000Y-1920000D01*
X3170000Y-1735000D01*
X3170000Y-1350000D01*
X3455000Y-2035000D02*
G01*
X3455000Y-1850000D01*
X3410000Y-1805000D01*
X3555000Y-2035000D02*
G01*
X3555000Y-1380000D01*
X3530000Y-1355000D01*
X3655000Y-2035000D02*
G01*
X3655000Y-1935000D01*
X3790000Y-1800000D01*
X3755000Y-2035000D02*
G01*
X3860000Y-1930000D01*
X3860000Y-1445000D01*
X3940000Y-1365000D01*
X3795000Y-1370000D02*
G01*
X3790000Y-1375000D01*
X3790000Y-1500000D01*
X3380000Y-1355000D02*
G01*
X3380000Y-1475000D01*
X3410000Y-1505000D01*
X3030000Y-1350000D02*
G01*
X3030000Y-1435000D01*
X3095000Y-1500000D01*
X3030000Y-1050000D02*
G01*
X3170000Y-1050000D01*
X3380000Y-1055000D02*
G01*
X3530000Y-1055000D01*
X3835000Y-775000D02*
G01*
X3835000Y-815000D01*
X3680000Y-970000D01*
X3745000Y-775000D02*
G01*
X3745000Y-840000D01*
X3530000Y-1055000D01*
X3940000Y-1065000D02*
G01*
X3935000Y-1070000D01*
X3795000Y-1070000D01*
X4775000Y-1125000D02*
G01*
X4685000Y-1215000D01*
X4445000Y-1215000D01*
X4375000Y-1145000D01*
X4375000Y-1125000D01*
X5765000Y-1500000D02*
G01*
X5610000Y-1345000D01*
X4355000Y-1345000D01*
X4275000Y-1425000D01*
X5740000Y-3655000D02*
G01*
X5740000Y-3170000D01*
X5630000Y-3060000D01*
X5355000Y-3060000D01*
X5200000Y-2905000D01*
X6040000Y-3655000D02*
G01*
X5945000Y-3750000D01*
X4810000Y-3750000D01*
X4715000Y-3655000D01*
X1805000Y-3660000D02*
G01*
X1705000Y-3660000D01*
X1205000Y-3660000D02*
G01*
X1290000Y-3745000D01*
X2495000Y-3745000D01*
X2575000Y-3665000D01*
X2575000Y-3660000D01*
X4365000Y-3655000D02*
G01*
X4270000Y-3560000D01*
X4245000Y-3560000D01*
X4465000Y-3655000D02*
G01*
X4615000Y-3655000D01*
X4365000Y-3955000D02*
G01*
X4365000Y-3655000D01*
X4365000Y-3655000D02*
G01*
X4465000Y-3655000D01*
X3765000Y-3655000D02*
G01*
X3860000Y-3560000D01*
X3902686Y-3560000D01*
X3515000Y-3660000D02*
G01*
X3615000Y-3560000D01*
X3660000Y-3560000D01*
X2815000Y-3660000D02*
G01*
X2915000Y-3560000D01*
X2955000Y-3560000D01*
X5315000Y-3655000D02*
G01*
X5440000Y-3655000D01*
X1105000Y-3660000D02*
G01*
X1205000Y-3560000D01*
X5220000Y-3560000D01*
X5315000Y-3655000D01*
X1705000Y-3660000D02*
G01*
X1805000Y-3560000D01*
X1855000Y-3560000D01*
X1205000Y-3960000D02*
G01*
X1290000Y-4045000D01*
X2818684Y-4045000D01*
X2915000Y-3960000D02*
G01*
X2830000Y-4045000D01*
X2778280Y-4045000D01*
X2075000Y-3960000D02*
G01*
X1990000Y-4045000D01*
X1952353Y-4045000D01*
X1250000Y-1180000D02*
G01*
X1035000Y-1395000D01*
X1035000Y-3790000D01*
X1205000Y-3960000D01*
D12*
G01*
X4030000Y-3120000D03*
G01*
X4130000Y-3120000D03*
G01*
X4230000Y-3120000D03*
G01*
X4330000Y-3120000D03*
G01*
X4430000Y-3120000D03*
G01*
X4530000Y-3120000D03*
G01*
X4630000Y-3120000D03*
G01*
X4630000Y-2820000D03*
G01*
X4530000Y-2820000D03*
G01*
X4430000Y-2820000D03*
G01*
X4330000Y-2820000D03*
G01*
X4230000Y-2820000D03*
G01*
X4130000Y-2820000D03*
G01*
X4030000Y-2820000D03*
D13*
G01*
X3700000Y-675000D03*
G01*
X3790000Y-675000D03*
G01*
X3881000Y-675000D03*
G01*
X3971000Y-675000D03*
G01*
X3655000Y-575000D03*
G01*
X3745000Y-575000D03*
G01*
X3835000Y-575000D03*
G01*
X3925000Y-575000D03*
D14*
G01*
X3333000Y-675000D03*
G01*
X4316999Y-675000D03*
D13*
G01*
X3610000Y-675000D03*
G01*
X4016000Y-575000D03*
G01*
X3655000Y-775000D03*
G01*
X3745000Y-775000D03*
G01*
X3835000Y-775000D03*
G01*
X3925000Y-775000D03*
G01*
X4016000Y-775000D03*
G36*
X4027500Y-1957500D02*
G01*
X4082500Y-1957500D01*
X4082500Y-2012500D01*
X4027500Y-2012500D01*
G37*
D16*
G01*
X4155000Y-1985000D03*
G01*
X4255000Y-1985000D03*
G01*
X4355000Y-1985000D03*
G01*
X4455000Y-1985000D03*
G01*
X4555000Y-1985000D03*
G01*
X4655000Y-1985000D03*
G01*
X4655000Y-1685000D03*
G01*
X4555000Y-1685000D03*
G01*
X4455000Y-1685000D03*
G01*
X4355000Y-1685000D03*
G01*
X4255000Y-1685000D03*
G01*
X4155000Y-1685000D03*
G01*
X4055000Y-1685000D03*
D13*
G01*
X3030000Y-1350000D03*
G01*
X3030000Y-1050000D03*
G01*
X3170000Y-1350000D03*
G01*
X3170000Y-1050000D03*
G01*
X3380000Y-1355000D03*
G01*
X3380000Y-1055000D03*
G01*
X3795000Y-1370000D03*
G01*
X3795000Y-1070000D03*
G01*
X3530000Y-1355000D03*
G01*
X3530000Y-1055000D03*
G01*
X3940000Y-1365000D03*
G01*
X3940000Y-1065000D03*
D17*
G01*
X3580000Y-3030000D03*
G01*
X3750000Y-3030000D03*
G36*
X3011540Y-2216540D02*
G01*
X3078459Y-2216540D01*
X3078459Y-2283460D01*
X3011540Y-2283460D01*
G37*
D19*
G01*
X3145000Y-2250000D03*
G01*
X3245000Y-2250000D03*
G01*
X3345000Y-2250000D03*
G01*
X3445000Y-2250000D03*
G01*
X3545000Y-2250000D03*
G01*
X3645000Y-2250000D03*
G01*
X3745000Y-2250000D03*
G01*
X3845000Y-2250000D03*
G01*
X3945000Y-2250000D03*
G01*
X4045000Y-2250000D03*
G01*
X4145000Y-2250000D03*
G01*
X4245000Y-2250000D03*
G01*
X4345000Y-2250000D03*
G01*
X4445000Y-2250000D03*
D20*
G01*
X3755000Y-2035000D03*
G01*
X3655000Y-2035000D03*
G01*
X3555000Y-2035000D03*
G01*
X3455000Y-2035000D03*
G01*
X3355000Y-2035000D03*
G36*
X3219566Y-1999567D02*
G01*
X3290433Y-1999567D01*
X3290433Y-2070432D01*
X3219566Y-2070432D01*
G37*
D13*
G01*
X3095000Y-1800000D03*
G01*
X3095000Y-1500000D03*
G01*
X3410000Y-1805000D03*
G01*
X3410000Y-1505000D03*
G01*
X3790000Y-1800000D03*
G01*
X3790000Y-1500000D03*
G36*
X1077500Y-3932500D02*
G01*
X1132500Y-3932500D01*
X1132500Y-3987500D01*
X1077500Y-3987500D01*
G37*
D16*
G01*
X1205000Y-3960000D03*
G01*
X1305000Y-3960000D03*
G01*
X1405000Y-3960000D03*
G01*
X1505000Y-3960000D03*
G01*
X1605000Y-3960000D03*
G01*
X1705000Y-3960000D03*
G01*
X1805000Y-3960000D03*
G01*
X1805000Y-3660000D03*
G01*
X1705000Y-3660000D03*
G01*
X1605000Y-3660000D03*
G01*
X1505000Y-3660000D03*
G01*
X1405000Y-3660000D03*
G01*
X1305000Y-3660000D03*
G01*
X1205000Y-3660000D03*
G01*
X1105000Y-3660000D03*
G36*
X1947500Y-3932500D02*
G01*
X2002500Y-3932500D01*
X2002500Y-3987500D01*
X1947500Y-3987500D01*
G37*
G01*
X2075000Y-3960000D03*
G01*
X2175000Y-3960000D03*
G01*
X2275000Y-3960000D03*
G01*
X2375000Y-3960000D03*
G01*
X2475000Y-3960000D03*
G01*
X2575000Y-3960000D03*
G01*
X2675000Y-3960000D03*
G01*
X2675000Y-3660000D03*
G01*
X2575000Y-3660000D03*
G01*
X2475000Y-3660000D03*
G01*
X2375000Y-3660000D03*
G01*
X2275000Y-3660000D03*
G01*
X2175000Y-3660000D03*
G01*
X2075000Y-3660000D03*
G01*
X1975000Y-3660000D03*
G36*
X2787500Y-3932500D02*
G01*
X2842500Y-3932500D01*
X2842500Y-3987500D01*
X2787500Y-3987500D01*
G37*
G01*
X2915000Y-3960000D03*
G01*
X3015000Y-3960000D03*
G01*
X3115000Y-3960000D03*
G01*
X3215000Y-3960000D03*
G01*
X3315000Y-3960000D03*
G01*
X3415000Y-3960000D03*
G01*
X3515000Y-3960000D03*
G01*
X3515000Y-3660000D03*
G01*
X3415000Y-3660000D03*
G01*
X3315000Y-3660000D03*
G01*
X3215000Y-3660000D03*
G01*
X3115000Y-3660000D03*
G01*
X3015000Y-3660000D03*
G01*
X2915000Y-3660000D03*
G01*
X2815000Y-3660000D03*
G36*
X3737500Y-3927500D02*
G01*
X3792500Y-3927500D01*
X3792500Y-3982500D01*
X3737500Y-3982500D01*
G37*
G01*
X3865000Y-3955000D03*
G01*
X3965000Y-3955000D03*
G01*
X4065000Y-3955000D03*
G01*
X4165000Y-3955000D03*
G01*
X4265000Y-3955000D03*
G01*
X4365000Y-3955000D03*
G01*
X4465000Y-3955000D03*
G01*
X4465000Y-3655000D03*
G01*
X4365000Y-3655000D03*
G01*
X4265000Y-3655000D03*
G01*
X4165000Y-3655000D03*
G01*
X4065000Y-3655000D03*
G01*
X3965000Y-3655000D03*
G01*
X3865000Y-3655000D03*
G01*
X3765000Y-3655000D03*
G36*
X4587500Y-3927500D02*
G01*
X4642500Y-3927500D01*
X4642500Y-3982500D01*
X4587500Y-3982500D01*
G37*
G01*
X4715000Y-3955000D03*
G01*
X4815000Y-3955000D03*
G01*
X4915000Y-3955000D03*
G01*
X5015000Y-3955000D03*
G01*
X5115000Y-3955000D03*
G01*
X5215000Y-3955000D03*
G01*
X5315000Y-3955000D03*
G01*
X5315000Y-3655000D03*
G01*
X5215000Y-3655000D03*
G01*
X5115000Y-3655000D03*
G01*
X5015000Y-3655000D03*
G01*
X4915000Y-3655000D03*
G01*
X4815000Y-3655000D03*
G01*
X4715000Y-3655000D03*
G01*
X4615000Y-3655000D03*
G36*
X5412500Y-3927500D02*
G01*
X5467500Y-3927500D01*
X5467500Y-3982500D01*
X5412500Y-3982500D01*
G37*
G01*
X5540000Y-3955000D03*
G01*
X5640000Y-3955000D03*
G01*
X5740000Y-3955000D03*
G01*
X5840000Y-3955000D03*
G01*
X5940000Y-3955000D03*
G01*
X6040000Y-3955000D03*
G01*
X6140000Y-3955000D03*
G01*
X6140000Y-3655000D03*
G01*
X6040000Y-3655000D03*
G01*
X5940000Y-3655000D03*
G01*
X5840000Y-3655000D03*
G01*
X5740000Y-3655000D03*
G01*
X5640000Y-3655000D03*
G01*
X5540000Y-3655000D03*
G01*
X5440000Y-3655000D03*
G36*
X1537500Y-2812500D02*
G01*
X1592500Y-2812500D01*
X1592500Y-2867500D01*
X1537500Y-2867500D01*
G37*
G01*
X1665000Y-2840000D03*
G01*
X1765000Y-2840000D03*
G01*
X1865000Y-2840000D03*
G01*
X1965000Y-2840000D03*
G01*
X2065000Y-2840000D03*
G01*
X2165000Y-2840000D03*
G01*
X2165000Y-2540000D03*
G01*
X2065000Y-2540000D03*
G01*
X1965000Y-2540000D03*
G01*
X1865000Y-2540000D03*
G01*
X1765000Y-2540000D03*
G01*
X1665000Y-2540000D03*
G01*
X1565000Y-2540000D03*
G36*
X1432500Y-2252500D02*
G01*
X1487500Y-2252500D01*
X1487500Y-2307500D01*
X1432500Y-2307500D01*
G37*
G01*
X1560000Y-2280000D03*
G01*
X1660000Y-2280000D03*
G01*
X1760000Y-2280000D03*
G01*
X1860000Y-2280000D03*
G01*
X1960000Y-2280000D03*
G01*
X2060000Y-2280000D03*
G01*
X2060000Y-1980000D03*
G01*
X1960000Y-1980000D03*
G01*
X1860000Y-1980000D03*
G01*
X1760000Y-1980000D03*
G01*
X1660000Y-1980000D03*
G01*
X1560000Y-1980000D03*
G01*
X1460000Y-1980000D03*
G36*
X2152500Y-1167500D02*
G01*
X2207500Y-1167500D01*
X2207500Y-1222500D01*
X2152500Y-1222500D01*
G37*
G01*
X2280000Y-1195000D03*
G01*
X2380000Y-1195000D03*
G01*
X2480000Y-1195000D03*
G01*
X2580000Y-1195000D03*
G01*
X2680000Y-1195000D03*
G01*
X2780000Y-1195000D03*
G01*
X2780000Y-895000D03*
G01*
X2680000Y-895000D03*
G01*
X2580000Y-895000D03*
G01*
X2480000Y-895000D03*
G01*
X2380000Y-895000D03*
G01*
X2280000Y-895000D03*
G01*
X2180000Y-895000D03*
G36*
X2177500Y-1857500D02*
G01*
X2232500Y-1857500D01*
X2232500Y-1912500D01*
X2177500Y-1912500D01*
G37*
G01*
X2305000Y-1885000D03*
G01*
X2405000Y-1885000D03*
G01*
X2505000Y-1885000D03*
G01*
X2605000Y-1885000D03*
G01*
X2705000Y-1885000D03*
G01*
X2805000Y-1885000D03*
G01*
X2805000Y-1585000D03*
G01*
X2705000Y-1585000D03*
G01*
X2605000Y-1585000D03*
G01*
X2505000Y-1585000D03*
G01*
X2405000Y-1585000D03*
G01*
X2305000Y-1585000D03*
G01*
X2205000Y-1585000D03*
G36*
X5137500Y-1772500D02*
G01*
X5192500Y-1772500D01*
X5192500Y-1827500D01*
X5137500Y-1827500D01*
G37*
G01*
X5265000Y-1800000D03*
G01*
X5365000Y-1800000D03*
G01*
X5465000Y-1800000D03*
G01*
X5565000Y-1800000D03*
G01*
X5665000Y-1800000D03*
G01*
X5765000Y-1800000D03*
G01*
X5765000Y-1500000D03*
G01*
X5665000Y-1500000D03*
G01*
X5565000Y-1500000D03*
G01*
X5465000Y-1500000D03*
G01*
X5365000Y-1500000D03*
G01*
X5265000Y-1500000D03*
G01*
X5165000Y-1500000D03*
G36*
X4972500Y-3177500D02*
G01*
X5027500Y-3177500D01*
X5027500Y-3232500D01*
X4972500Y-3232500D01*
G37*
G01*
X5100000Y-3205000D03*
G01*
X5200000Y-3205000D03*
G01*
X5300000Y-3205000D03*
G01*
X5400000Y-3205000D03*
G01*
X5500000Y-3205000D03*
G01*
X5600000Y-3205000D03*
G01*
X5600000Y-2905000D03*
G01*
X5500000Y-2905000D03*
G01*
X5400000Y-2905000D03*
G01*
X5300000Y-2905000D03*
G01*
X5200000Y-2905000D03*
G01*
X5100000Y-2905000D03*
G01*
X5000000Y-2905000D03*
G36*
X4917500Y-1122500D02*
G01*
X4972500Y-1122500D01*
X4972500Y-1177500D01*
X4917500Y-1177500D01*
G37*
G01*
X5045000Y-1150000D03*
G01*
X5145000Y-1150000D03*
G01*
X5245000Y-1150000D03*
G01*
X5345000Y-1150000D03*
G01*
X5445000Y-1150000D03*
G01*
X5545000Y-1150000D03*
G01*
X5545000Y-850000D03*
G01*
X5445000Y-850000D03*
G01*
X5345000Y-850000D03*
G01*
X5245000Y-850000D03*
G01*
X5145000Y-850000D03*
G01*
X5045000Y-850000D03*
G01*
X4945000Y-850000D03*
G36*
X4732500Y-2367500D02*
G01*
X4787500Y-2367500D01*
X4787500Y-2422500D01*
X4732500Y-2422500D01*
G37*
G01*
X4860000Y-2395000D03*
G01*
X4960000Y-2395000D03*
G01*
X5060000Y-2395000D03*
G01*
X5160000Y-2395000D03*
G01*
X5260000Y-2395000D03*
G01*
X5360000Y-2395000D03*
G01*
X5360000Y-2095000D03*
G01*
X5260000Y-2095000D03*
G01*
X5160000Y-2095000D03*
G01*
X5060000Y-2095000D03*
G01*
X4960000Y-2095000D03*
G01*
X4860000Y-2095000D03*
G01*
X4760000Y-2095000D03*
G36*
X2592500Y-2807500D02*
G01*
X2647500Y-2807500D01*
X2647500Y-2862500D01*
X2592500Y-2862500D01*
G37*
G01*
X2720000Y-2835000D03*
G01*
X2820000Y-2835000D03*
G01*
X2920000Y-2835000D03*
G01*
X3020000Y-2835000D03*
G01*
X3120000Y-2835000D03*
G01*
X3220000Y-2835000D03*
G01*
X3220000Y-2535000D03*
G01*
X3120000Y-2535000D03*
G01*
X3020000Y-2535000D03*
G01*
X2920000Y-2535000D03*
G01*
X2820000Y-2535000D03*
G01*
X2720000Y-2535000D03*
G01*
X2620000Y-2535000D03*
G36*
X4147500Y-1397500D02*
G01*
X4202500Y-1397500D01*
X4202500Y-1452500D01*
X4147500Y-1452500D01*
G37*
G01*
X4275000Y-1425000D03*
G01*
X4375000Y-1425000D03*
G01*
X4475000Y-1425000D03*
G01*
X4575000Y-1425000D03*
G01*
X4675000Y-1425000D03*
G01*
X4775000Y-1425000D03*
G01*
X4775000Y-1125000D03*
G01*
X4675000Y-1125000D03*
G01*
X4575000Y-1125000D03*
G01*
X4475000Y-1125000D03*
G01*
X4375000Y-1125000D03*
G01*
X4275000Y-1125000D03*
G01*
X4175000Y-1125000D03*
D22*
G01*
X1550000Y-1780000D03*
D23*
G01*
X1250000Y-1780000D03*
G01*
X1250000Y-1180000D03*
G01*
X1550000Y-1180000D03*
D12*
G01*
X2550000Y-3450000D03*
G01*
X2650000Y-3450000D03*
G01*
X2750000Y-3450000D03*
G01*
X2850000Y-3450000D03*
G01*
X2950000Y-3450000D03*
G01*
X3050000Y-3450000D03*
G01*
X3150000Y-3450000D03*
G01*
X3150000Y-3150000D03*
G01*
X3050000Y-3150000D03*
G01*
X2950000Y-3150000D03*
G01*
X2850000Y-3150000D03*
G01*
X2750000Y-3150000D03*
G01*
X2650000Y-3150000D03*
G01*
X2550000Y-3150000D03*
G01*
X1700000Y-3390000D03*
G01*
X1800000Y-3390000D03*
G01*
X1900000Y-3390000D03*
G01*
X2000000Y-3390000D03*
G01*
X2100000Y-3390000D03*
G01*
X2200000Y-3390000D03*
G01*
X2300000Y-3390000D03*
G01*
X2300000Y-3090000D03*
G01*
X2200000Y-3090000D03*
G01*
X2100000Y-3090000D03*
G01*
X2000000Y-3090000D03*
G01*
X1900000Y-3090000D03*
G01*
X1800000Y-3090000D03*
G01*
X1700000Y-3090000D03*
D11*
G01*
X3680000Y-970000D03*
G01*
X2010000Y-1540000D03*
G01*
X1900000Y-2965000D03*
G01*
X2365000Y-3460000D03*
G01*
X2745000Y-2405000D03*
G01*
X2965000Y-1815000D03*
G01*
X2685000Y-2245000D03*
G01*
X2010000Y-2125000D03*
G01*
X2185000Y-2030000D03*
G01*
X2830000Y-1990000D03*
G01*
X2940000Y-1650000D03*
G01*
X2895000Y-1610000D03*
G01*
X4330000Y-2940000D03*
G01*
X4515000Y-2910000D03*
G01*
X4505000Y-2730000D03*
G01*
X4180000Y-2960000D03*
G01*
X4775000Y-2990000D03*
G01*
X4885000Y-3505000D03*
G01*
X2210000Y-2760000D03*
G01*
X1730000Y-2170000D03*
G01*
X4740000Y-2770000D03*
G01*
X5150000Y-2840000D03*
G01*
X4890000Y-2140000D03*
G01*
X2655000Y-1690000D03*
G01*
X3170000Y-2130000D03*
G01*
X2440000Y-3315000D03*
G01*
X3415000Y-2705000D03*
G01*
X2145000Y-3275000D03*
G01*
X2165000Y-3485000D03*
G01*
X3170000Y-2915000D03*
G01*
X3225000Y-2985000D03*
G01*
X4855000Y-3535000D03*
G01*
X5260000Y-2770000D03*
G01*
X5560000Y-2770000D03*
G01*
X4905000Y-1830000D03*
G01*
X5345000Y-1400000D03*
G01*
X2410000Y-1645000D03*
G01*
X2455000Y-1555000D03*
G01*
X5265000Y-1670000D03*
G01*
X2525000Y-2505000D03*
G01*
X3450000Y-2705000D03*
G01*
X2805000Y-1695000D03*
G01*
X1815000Y-2660000D03*
G01*
X1820000Y-2715000D03*
G01*
X2550000Y-3300000D03*
G01*
X2465000Y-3175000D03*
G01*
X2465000Y-3490000D03*
G01*
X3165000Y-3605000D03*
G01*
X2925000Y-3530000D03*
G01*
X5715000Y-2765000D03*
G01*
X4882500Y-3087500D03*
G01*
X5525000Y-2560000D03*
G01*
X5085000Y-1370000D03*
G01*
X4696505Y-2095000D03*
G01*
X4425000Y-2415000D03*
G01*
X4905000Y-2810000D03*
G01*
X4705000Y-2695000D03*
G01*
X5640000Y-2475000D03*
G01*
X4875000Y-1295000D03*
G01*
X4675000Y-1795000D03*
G01*
X4755000Y-1955000D03*
G01*
X4955000Y-2270000D03*
G01*
X5275000Y-1960000D03*
G01*
X5025000Y-1740000D03*
G01*
X5245000Y-1400000D03*
G01*
X5315000Y-2285000D03*
G01*
X5415000Y-2350000D03*
G01*
X5280000Y-3065000D03*
G01*
X5050000Y-2585000D03*
G01*
X2640000Y-2310000D03*
G01*
X2765000Y-1985000D03*
G01*
X2755000Y-1730000D03*
G01*
X5490000Y-2045000D03*
G01*
X4575000Y-4025000D03*
G01*
X4740000Y-4025000D03*
M02*
