G04 Layer: BottomSolderMaskLayer*
G04 EasyEDA v6.4.25, 2021-12-08T18:14:58--6:00*
G04 69e83bd8f40a47abaefc3c1f755e5dbc,06444aca9169495d970130cf6b44ba93,10*
G04 Gerber Generator version 0.2*
G04 Scale: 100 percent, Rotated: No, Reflected: No *
G04 Dimensions in inches *
G04 leading zeros omitted , absolute positions ,3 integer and 6 decimal *
%FSLAX36Y36*%
%MOIN*%

%ADD31C,0.0820*%
%ADD32C,0.2080*%
%ADD34C,0.0630*%
%ADD37C,0.0749*%
%ADD38C,0.0789*%
%ADD40R,0.0710X0.0710*%
%ADD41C,0.0710*%

%LPD*%
G36*
X4002200Y-3166999D02*
G01*
X4002200Y-3073099D01*
X4057899Y-3073099D01*
X4057899Y-3166999D01*
G37*
G36*
X4102200Y-3166999D02*
G01*
X4102200Y-3073099D01*
X4157899Y-3073099D01*
X4157899Y-3166999D01*
G37*
G36*
X4202200Y-3166999D02*
G01*
X4202200Y-3073099D01*
X4257900Y-3073099D01*
X4257900Y-3166999D01*
G37*
G36*
X4302200Y-3166999D02*
G01*
X4302200Y-3073099D01*
X4357900Y-3073099D01*
X4357900Y-3166999D01*
G37*
G36*
X4402200Y-3166999D02*
G01*
X4402200Y-3073099D01*
X4457900Y-3073099D01*
X4457900Y-3166999D01*
G37*
G36*
X4502200Y-3166999D02*
G01*
X4502200Y-3073099D01*
X4557900Y-3073099D01*
X4557900Y-3166999D01*
G37*
G36*
X4602200Y-3166999D02*
G01*
X4602200Y-3073099D01*
X4657900Y-3073099D01*
X4657900Y-3166999D01*
G37*
G36*
X4602200Y-2866999D02*
G01*
X4602200Y-2773099D01*
X4657900Y-2773099D01*
X4657900Y-2866999D01*
G37*
G36*
X4502200Y-2866999D02*
G01*
X4502200Y-2773099D01*
X4557900Y-2773099D01*
X4557900Y-2866999D01*
G37*
G36*
X4402200Y-2866999D02*
G01*
X4402200Y-2773099D01*
X4457900Y-2773099D01*
X4457900Y-2866999D01*
G37*
G36*
X4302200Y-2866999D02*
G01*
X4302200Y-2773099D01*
X4357900Y-2773099D01*
X4357900Y-2866999D01*
G37*
G36*
X4202200Y-2866999D02*
G01*
X4202200Y-2773099D01*
X4257900Y-2773099D01*
X4257900Y-2866999D01*
G37*
G36*
X4102200Y-2866999D02*
G01*
X4102200Y-2773099D01*
X4157899Y-2773099D01*
X4157899Y-2866999D01*
G37*
G36*
X4002200Y-2866999D02*
G01*
X4002200Y-2773099D01*
X4057899Y-2773099D01*
X4057899Y-2866999D01*
G37*
D31*
G01*
X3700000Y-675000D03*
G01*
X3790000Y-675000D03*
G01*
X3881000Y-675000D03*
G01*
X3971000Y-675000D03*
G01*
X3655000Y-575000D03*
G01*
X3745000Y-575000D03*
G01*
X3835000Y-575000D03*
G01*
X3925000Y-575000D03*
D32*
G01*
X3333000Y-675000D03*
G01*
X4316999Y-675000D03*
D31*
G01*
X3610000Y-675000D03*
G01*
X4016000Y-575000D03*
G01*
X3655000Y-775000D03*
G01*
X3745000Y-775000D03*
G01*
X3835000Y-775000D03*
G01*
X3925000Y-775000D03*
G01*
X4016000Y-775000D03*
G36*
X4023500Y-2016500D02*
G01*
X4023500Y-1953499D01*
X4086499Y-1953499D01*
X4086499Y-2016500D01*
G37*
D34*
G01*
X4155000Y-1985000D03*
G01*
X4255000Y-1985000D03*
G01*
X4355000Y-1985000D03*
G01*
X4455000Y-1985000D03*
G01*
X4555000Y-1985000D03*
G01*
X4655000Y-1985000D03*
G01*
X4655000Y-1685000D03*
G01*
X4555000Y-1685000D03*
G01*
X4455000Y-1685000D03*
G01*
X4355000Y-1685000D03*
G01*
X4255000Y-1685000D03*
G01*
X4155000Y-1685000D03*
G01*
X4055000Y-1685000D03*
D31*
G01*
X3030000Y-1350000D03*
G01*
X3030000Y-1050000D03*
G01*
X3170000Y-1350000D03*
G01*
X3170000Y-1050000D03*
G01*
X3380000Y-1355000D03*
G01*
X3380000Y-1055000D03*
G01*
X3795000Y-1370000D03*
G01*
X3795000Y-1070000D03*
G01*
X3530000Y-1355000D03*
G01*
X3530000Y-1055000D03*
G01*
X3940000Y-1365000D03*
G01*
X3940000Y-1065000D03*
G36*
X3545000Y-3065000D02*
G01*
X3545000Y-2995000D01*
X3615000Y-2995000D01*
X3615000Y-3065000D01*
G37*
G36*
X3715000Y-3065000D02*
G01*
X3715000Y-2995000D01*
X3785000Y-2995000D01*
X3785000Y-3065000D01*
G37*
G36*
X3007500Y-2287500D02*
G01*
X3007500Y-2212500D01*
X3082500Y-2212500D01*
X3082500Y-2287500D01*
G37*
D37*
G01*
X3145000Y-2250000D03*
G01*
X3245000Y-2250000D03*
G01*
X3345000Y-2250000D03*
G01*
X3445000Y-2250000D03*
G01*
X3545000Y-2250000D03*
G01*
X3645000Y-2250000D03*
G01*
X3745000Y-2250000D03*
G01*
X3845000Y-2250000D03*
G01*
X3945000Y-2250000D03*
G01*
X4045000Y-2250000D03*
G01*
X4145000Y-2250000D03*
G01*
X4245000Y-2250000D03*
G01*
X4345000Y-2250000D03*
G01*
X4445000Y-2250000D03*
D38*
G01*
X3755000Y-2035000D03*
G01*
X3655000Y-2035000D03*
G01*
X3555000Y-2035000D03*
G01*
X3455000Y-2035000D03*
G01*
X3355000Y-2035000D03*
G36*
X3215600Y-2074400D02*
G01*
X3215600Y-1995599D01*
X3294399Y-1995599D01*
X3294399Y-2074400D01*
G37*
D31*
G01*
X3095000Y-1800000D03*
G01*
X3095000Y-1500000D03*
G01*
X3410000Y-1805000D03*
G01*
X3410000Y-1505000D03*
G01*
X3790000Y-1800000D03*
G01*
X3790000Y-1500000D03*
G36*
X1073500Y-3991500D02*
G01*
X1073500Y-3928499D01*
X1136499Y-3928499D01*
X1136499Y-3991500D01*
G37*
D34*
G01*
X1205000Y-3960000D03*
G01*
X1305000Y-3960000D03*
G01*
X1405000Y-3960000D03*
G01*
X1505000Y-3960000D03*
G01*
X1605000Y-3960000D03*
G01*
X1705000Y-3960000D03*
G01*
X1805000Y-3960000D03*
G01*
X1805000Y-3660000D03*
G01*
X1705000Y-3660000D03*
G01*
X1605000Y-3660000D03*
G01*
X1505000Y-3660000D03*
G01*
X1405000Y-3660000D03*
G01*
X1305000Y-3660000D03*
G01*
X1205000Y-3660000D03*
G01*
X1105000Y-3660000D03*
G36*
X1943500Y-3991500D02*
G01*
X1943500Y-3928499D01*
X2006499Y-3928499D01*
X2006499Y-3991500D01*
G37*
G01*
X2075000Y-3960000D03*
G01*
X2175000Y-3960000D03*
G01*
X2275000Y-3960000D03*
G01*
X2375000Y-3960000D03*
G01*
X2475000Y-3960000D03*
G01*
X2575000Y-3960000D03*
G01*
X2675000Y-3960000D03*
G01*
X2675000Y-3660000D03*
G01*
X2575000Y-3660000D03*
G01*
X2475000Y-3660000D03*
G01*
X2375000Y-3660000D03*
G01*
X2275000Y-3660000D03*
G01*
X2175000Y-3660000D03*
G01*
X2075000Y-3660000D03*
G01*
X1975000Y-3660000D03*
G36*
X2783500Y-3991500D02*
G01*
X2783500Y-3928499D01*
X2846499Y-3928499D01*
X2846499Y-3991500D01*
G37*
G01*
X2915000Y-3960000D03*
G01*
X3015000Y-3960000D03*
G01*
X3115000Y-3960000D03*
G01*
X3215000Y-3960000D03*
G01*
X3315000Y-3960000D03*
G01*
X3415000Y-3960000D03*
G01*
X3515000Y-3960000D03*
G01*
X3515000Y-3660000D03*
G01*
X3415000Y-3660000D03*
G01*
X3315000Y-3660000D03*
G01*
X3215000Y-3660000D03*
G01*
X3115000Y-3660000D03*
G01*
X3015000Y-3660000D03*
G01*
X2915000Y-3660000D03*
G01*
X2815000Y-3660000D03*
G36*
X3733500Y-3986500D02*
G01*
X3733500Y-3923499D01*
X3796499Y-3923499D01*
X3796499Y-3986500D01*
G37*
G01*
X3865000Y-3955000D03*
G01*
X3965000Y-3955000D03*
G01*
X4065000Y-3955000D03*
G01*
X4165000Y-3955000D03*
G01*
X4265000Y-3955000D03*
G01*
X4365000Y-3955000D03*
G01*
X4465000Y-3955000D03*
G01*
X4465000Y-3655000D03*
G01*
X4365000Y-3655000D03*
G01*
X4265000Y-3655000D03*
G01*
X4165000Y-3655000D03*
G01*
X4065000Y-3655000D03*
G01*
X3965000Y-3655000D03*
G01*
X3865000Y-3655000D03*
G01*
X3765000Y-3655000D03*
G36*
X4583500Y-3986500D02*
G01*
X4583500Y-3923499D01*
X4646499Y-3923499D01*
X4646499Y-3986500D01*
G37*
G01*
X4715000Y-3955000D03*
G01*
X4815000Y-3955000D03*
G01*
X4915000Y-3955000D03*
G01*
X5015000Y-3955000D03*
G01*
X5115000Y-3955000D03*
G01*
X5215000Y-3955000D03*
G01*
X5315000Y-3955000D03*
G01*
X5315000Y-3655000D03*
G01*
X5215000Y-3655000D03*
G01*
X5115000Y-3655000D03*
G01*
X5015000Y-3655000D03*
G01*
X4915000Y-3655000D03*
G01*
X4815000Y-3655000D03*
G01*
X4715000Y-3655000D03*
G01*
X4615000Y-3655000D03*
G36*
X5408500Y-3986500D02*
G01*
X5408500Y-3923499D01*
X5471499Y-3923499D01*
X5471499Y-3986500D01*
G37*
G01*
X5540000Y-3955000D03*
G01*
X5640000Y-3955000D03*
G01*
X5740000Y-3955000D03*
G01*
X5840000Y-3955000D03*
G01*
X5940000Y-3955000D03*
G01*
X6040000Y-3955000D03*
G01*
X6140000Y-3955000D03*
G01*
X6140000Y-3655000D03*
G01*
X6040000Y-3655000D03*
G01*
X5940000Y-3655000D03*
G01*
X5840000Y-3655000D03*
G01*
X5740000Y-3655000D03*
G01*
X5640000Y-3655000D03*
G01*
X5540000Y-3655000D03*
G01*
X5440000Y-3655000D03*
G36*
X1533500Y-2871500D02*
G01*
X1533500Y-2808499D01*
X1596499Y-2808499D01*
X1596499Y-2871500D01*
G37*
G01*
X1665000Y-2840000D03*
G01*
X1765000Y-2840000D03*
G01*
X1865000Y-2840000D03*
G01*
X1965000Y-2840000D03*
G01*
X2065000Y-2840000D03*
G01*
X2165000Y-2840000D03*
G01*
X2165000Y-2540000D03*
G01*
X2065000Y-2540000D03*
G01*
X1965000Y-2540000D03*
G01*
X1865000Y-2540000D03*
G01*
X1765000Y-2540000D03*
G01*
X1665000Y-2540000D03*
G01*
X1565000Y-2540000D03*
G36*
X1428500Y-2311500D02*
G01*
X1428500Y-2248499D01*
X1491499Y-2248499D01*
X1491499Y-2311500D01*
G37*
G01*
X1560000Y-2280000D03*
G01*
X1660000Y-2280000D03*
G01*
X1760000Y-2280000D03*
G01*
X1860000Y-2280000D03*
G01*
X1960000Y-2280000D03*
G01*
X2060000Y-2280000D03*
G01*
X2060000Y-1980000D03*
G01*
X1960000Y-1980000D03*
G01*
X1860000Y-1980000D03*
G01*
X1760000Y-1980000D03*
G01*
X1660000Y-1980000D03*
G01*
X1560000Y-1980000D03*
G01*
X1460000Y-1980000D03*
G36*
X2148500Y-1226500D02*
G01*
X2148500Y-1163499D01*
X2211499Y-1163499D01*
X2211499Y-1226500D01*
G37*
G01*
X2280000Y-1195000D03*
G01*
X2380000Y-1195000D03*
G01*
X2480000Y-1195000D03*
G01*
X2580000Y-1195000D03*
G01*
X2680000Y-1195000D03*
G01*
X2780000Y-1195000D03*
G01*
X2780000Y-895000D03*
G01*
X2680000Y-895000D03*
G01*
X2580000Y-895000D03*
G01*
X2480000Y-895000D03*
G01*
X2380000Y-895000D03*
G01*
X2280000Y-895000D03*
G01*
X2180000Y-895000D03*
G36*
X2173500Y-1916500D02*
G01*
X2173500Y-1853499D01*
X2236499Y-1853499D01*
X2236499Y-1916500D01*
G37*
G01*
X2305000Y-1885000D03*
G01*
X2405000Y-1885000D03*
G01*
X2505000Y-1885000D03*
G01*
X2605000Y-1885000D03*
G01*
X2705000Y-1885000D03*
G01*
X2805000Y-1885000D03*
G01*
X2805000Y-1585000D03*
G01*
X2705000Y-1585000D03*
G01*
X2605000Y-1585000D03*
G01*
X2505000Y-1585000D03*
G01*
X2405000Y-1585000D03*
G01*
X2305000Y-1585000D03*
G01*
X2205000Y-1585000D03*
G36*
X5133500Y-1831500D02*
G01*
X5133500Y-1768499D01*
X5196499Y-1768499D01*
X5196499Y-1831500D01*
G37*
G01*
X5265000Y-1800000D03*
G01*
X5365000Y-1800000D03*
G01*
X5465000Y-1800000D03*
G01*
X5565000Y-1800000D03*
G01*
X5665000Y-1800000D03*
G01*
X5765000Y-1800000D03*
G01*
X5765000Y-1500000D03*
G01*
X5665000Y-1500000D03*
G01*
X5565000Y-1500000D03*
G01*
X5465000Y-1500000D03*
G01*
X5365000Y-1500000D03*
G01*
X5265000Y-1500000D03*
G01*
X5165000Y-1500000D03*
G36*
X4968500Y-3236500D02*
G01*
X4968500Y-3173499D01*
X5031499Y-3173499D01*
X5031499Y-3236500D01*
G37*
G01*
X5100000Y-3205000D03*
G01*
X5200000Y-3205000D03*
G01*
X5300000Y-3205000D03*
G01*
X5400000Y-3205000D03*
G01*
X5500000Y-3205000D03*
G01*
X5600000Y-3205000D03*
G01*
X5600000Y-2905000D03*
G01*
X5500000Y-2905000D03*
G01*
X5400000Y-2905000D03*
G01*
X5300000Y-2905000D03*
G01*
X5200000Y-2905000D03*
G01*
X5100000Y-2905000D03*
G01*
X5000000Y-2905000D03*
G36*
X4913500Y-1181500D02*
G01*
X4913500Y-1118499D01*
X4976499Y-1118499D01*
X4976499Y-1181500D01*
G37*
G01*
X5045000Y-1150000D03*
G01*
X5145000Y-1150000D03*
G01*
X5245000Y-1150000D03*
G01*
X5345000Y-1150000D03*
G01*
X5445000Y-1150000D03*
G01*
X5545000Y-1150000D03*
G01*
X5545000Y-850000D03*
G01*
X5445000Y-850000D03*
G01*
X5345000Y-850000D03*
G01*
X5245000Y-850000D03*
G01*
X5145000Y-850000D03*
G01*
X5045000Y-850000D03*
G01*
X4945000Y-850000D03*
G36*
X4728500Y-2426500D02*
G01*
X4728500Y-2363499D01*
X4791499Y-2363499D01*
X4791499Y-2426500D01*
G37*
G01*
X4860000Y-2395000D03*
G01*
X4960000Y-2395000D03*
G01*
X5060000Y-2395000D03*
G01*
X5160000Y-2395000D03*
G01*
X5260000Y-2395000D03*
G01*
X5360000Y-2395000D03*
G01*
X5360000Y-2095000D03*
G01*
X5260000Y-2095000D03*
G01*
X5160000Y-2095000D03*
G01*
X5060000Y-2095000D03*
G01*
X4960000Y-2095000D03*
G01*
X4860000Y-2095000D03*
G01*
X4760000Y-2095000D03*
G36*
X2588500Y-2866500D02*
G01*
X2588500Y-2803499D01*
X2651499Y-2803499D01*
X2651499Y-2866500D01*
G37*
G01*
X2720000Y-2835000D03*
G01*
X2820000Y-2835000D03*
G01*
X2920000Y-2835000D03*
G01*
X3020000Y-2835000D03*
G01*
X3120000Y-2835000D03*
G01*
X3220000Y-2835000D03*
G01*
X3220000Y-2535000D03*
G01*
X3120000Y-2535000D03*
G01*
X3020000Y-2535000D03*
G01*
X2920000Y-2535000D03*
G01*
X2820000Y-2535000D03*
G01*
X2720000Y-2535000D03*
G01*
X2620000Y-2535000D03*
G36*
X4143500Y-1456500D02*
G01*
X4143500Y-1393499D01*
X4206499Y-1393499D01*
X4206499Y-1456500D01*
G37*
G01*
X4275000Y-1425000D03*
G01*
X4375000Y-1425000D03*
G01*
X4475000Y-1425000D03*
G01*
X4575000Y-1425000D03*
G01*
X4675000Y-1425000D03*
G01*
X4775000Y-1425000D03*
G01*
X4775000Y-1125000D03*
G01*
X4675000Y-1125000D03*
G01*
X4575000Y-1125000D03*
G01*
X4475000Y-1125000D03*
G01*
X4375000Y-1125000D03*
G01*
X4275000Y-1125000D03*
G01*
X4175000Y-1125000D03*
D40*
G01*
X1550000Y-1780000D03*
D41*
G01*
X1250000Y-1780000D03*
G01*
X1250000Y-1180000D03*
G01*
X1550000Y-1180000D03*
G36*
X2522200Y-3496999D02*
G01*
X2522200Y-3403099D01*
X2577899Y-3403099D01*
X2577899Y-3496999D01*
G37*
G36*
X2622200Y-3496999D02*
G01*
X2622200Y-3403099D01*
X2677899Y-3403099D01*
X2677899Y-3496999D01*
G37*
G36*
X2722200Y-3496999D02*
G01*
X2722200Y-3403099D01*
X2777899Y-3403099D01*
X2777899Y-3496999D01*
G37*
G36*
X2822200Y-3496999D02*
G01*
X2822200Y-3403099D01*
X2877899Y-3403099D01*
X2877899Y-3496999D01*
G37*
G36*
X2922200Y-3496999D02*
G01*
X2922200Y-3403099D01*
X2977899Y-3403099D01*
X2977899Y-3496999D01*
G37*
G36*
X3022200Y-3496999D02*
G01*
X3022200Y-3403099D01*
X3077899Y-3403099D01*
X3077899Y-3496999D01*
G37*
G36*
X3122200Y-3496999D02*
G01*
X3122200Y-3403099D01*
X3177899Y-3403099D01*
X3177899Y-3496999D01*
G37*
G36*
X3122200Y-3196999D02*
G01*
X3122200Y-3103099D01*
X3177899Y-3103099D01*
X3177899Y-3196999D01*
G37*
G36*
X3022200Y-3196999D02*
G01*
X3022200Y-3103099D01*
X3077899Y-3103099D01*
X3077899Y-3196999D01*
G37*
G36*
X2922200Y-3196999D02*
G01*
X2922200Y-3103099D01*
X2977899Y-3103099D01*
X2977899Y-3196999D01*
G37*
G36*
X2822200Y-3196999D02*
G01*
X2822200Y-3103099D01*
X2877899Y-3103099D01*
X2877899Y-3196999D01*
G37*
G36*
X2722200Y-3196999D02*
G01*
X2722200Y-3103099D01*
X2777899Y-3103099D01*
X2777899Y-3196999D01*
G37*
G36*
X2622200Y-3196999D02*
G01*
X2622200Y-3103099D01*
X2677899Y-3103099D01*
X2677899Y-3196999D01*
G37*
G36*
X2522200Y-3196999D02*
G01*
X2522200Y-3103099D01*
X2577899Y-3103099D01*
X2577899Y-3196999D01*
G37*
G36*
X1672200Y-3436999D02*
G01*
X1672200Y-3343099D01*
X1727899Y-3343099D01*
X1727899Y-3436999D01*
G37*
G36*
X1772200Y-3436999D02*
G01*
X1772200Y-3343099D01*
X1827899Y-3343099D01*
X1827899Y-3436999D01*
G37*
G36*
X1872200Y-3436999D02*
G01*
X1872200Y-3343099D01*
X1927899Y-3343099D01*
X1927899Y-3436999D01*
G37*
G36*
X1972200Y-3436999D02*
G01*
X1972200Y-3343099D01*
X2027899Y-3343099D01*
X2027899Y-3436999D01*
G37*
G36*
X2072200Y-3436999D02*
G01*
X2072200Y-3343099D01*
X2127899Y-3343099D01*
X2127899Y-3436999D01*
G37*
G36*
X2172200Y-3436999D02*
G01*
X2172200Y-3343099D01*
X2227899Y-3343099D01*
X2227899Y-3436999D01*
G37*
G36*
X2272200Y-3436999D02*
G01*
X2272200Y-3343099D01*
X2327899Y-3343099D01*
X2327899Y-3436999D01*
G37*
G36*
X2272200Y-3136999D02*
G01*
X2272200Y-3043099D01*
X2327899Y-3043099D01*
X2327899Y-3136999D01*
G37*
G36*
X2172200Y-3136999D02*
G01*
X2172200Y-3043099D01*
X2227899Y-3043099D01*
X2227899Y-3136999D01*
G37*
G36*
X2072200Y-3136999D02*
G01*
X2072200Y-3043099D01*
X2127899Y-3043099D01*
X2127899Y-3136999D01*
G37*
G36*
X1972200Y-3136999D02*
G01*
X1972200Y-3043099D01*
X2027899Y-3043099D01*
X2027899Y-3136999D01*
G37*
G36*
X1872200Y-3136999D02*
G01*
X1872200Y-3043099D01*
X1927899Y-3043099D01*
X1927899Y-3136999D01*
G37*
G36*
X1772200Y-3136999D02*
G01*
X1772200Y-3043099D01*
X1827899Y-3043099D01*
X1827899Y-3136999D01*
G37*
G36*
X1672200Y-3136999D02*
G01*
X1672200Y-3043099D01*
X1727899Y-3043099D01*
X1727899Y-3136999D01*
G37*
M02*
