G04 Layer: TopLayer*
G04 EasyEDA v6.4.25, 2021-11-30T23:27:12--6:00*
G04 4631042daed448b99cc0a23d656375e8,06444aca9169495d970130cf6b44ba93,10*
G04 Gerber Generator version 0.2*
G04 Scale: 100 percent, Rotated: No, Reflected: No *
G04 Dimensions in millimeters *
G04 leading zeros omitted , absolute positions ,4 integer and 5 decimal *
%FSLAX45Y45*%
%MOMM*%

%ADD11C,0.3000*%
%ADD12C,0.6096*%
%ADD13R,1.2116X1.2116*%
%ADD14C,1.5240*%
%ADD15C,1.8796*%
%ADD16C,2.0320*%
%ADD17R,1.5748X1.5748*%
%ADD18C,1.6000*%

%LPD*%
D11*
X7797800Y7416800D02*
G01*
X7797800Y7277100D01*
X6413500Y5892800D01*
X6134100Y5892800D01*
X7543800Y7670800D02*
G01*
X6527800Y6654800D01*
X6108700Y6654800D01*
X5905500Y6451600D01*
X5905500Y5080000D01*
X5829300Y5003800D01*
X4749800Y5003800D01*
X6273800Y8559800D02*
G01*
X6273800Y9271000D01*
X4749800Y5511800D02*
G01*
X5130800Y5130800D01*
X5702300Y5130800D01*
X6134100Y5892800D02*
G01*
X6019800Y5778500D01*
X6019800Y5448300D01*
X8305800Y7416800D02*
G01*
X8305800Y7289800D01*
X6273800Y5257800D01*
X6604000Y9271000D02*
G01*
X6604000Y8128000D01*
X6273800Y7797800D01*
X7696200Y8470900D02*
G01*
X7696200Y8204200D01*
X6273800Y6781800D01*
X7391400Y8470900D02*
G01*
X7391400Y8153400D01*
X6273800Y7035800D01*
X7086600Y8470900D02*
G01*
X7086600Y8102600D01*
X6273800Y7289800D01*
X6781800Y8470900D02*
G01*
X6781800Y8051800D01*
X6273800Y7543800D01*
X2997200Y5080000D02*
G01*
X2908300Y5168900D01*
X2679700Y5168900D01*
X2997200Y5499100D02*
G01*
X2921000Y5422900D01*
X2679700Y5422900D01*
X3441700Y6146800D02*
G01*
X3683000Y6388100D01*
X4635500Y6388100D01*
X4749800Y6273800D01*
X3949700Y6146800D02*
G01*
X4076700Y6019800D01*
X4749800Y6019800D01*
X2933700Y6146800D02*
G01*
X3314700Y6527800D01*
X4749800Y6527800D01*
X3632200Y9220200D02*
G01*
X3632200Y8940800D01*
X4445000Y8128000D01*
X4445000Y7086600D01*
X4749800Y6781800D01*
X7797800Y7683500D02*
G01*
X8026400Y7912100D01*
X8420100Y7912100D01*
X8547100Y7785100D01*
X8547100Y7277100D01*
X6273800Y5003800D01*
D13*
G01*
X2679700Y5168900D03*
G01*
X2679700Y5422900D03*
D14*
G01*
X3285236Y7823200D03*
G01*
X2785363Y7823200D03*
G01*
X3285236Y6921500D03*
G01*
X2785363Y6921500D03*
G01*
X2785363Y8280400D03*
G01*
X3285236Y8280400D03*
G01*
X2785363Y7378700D03*
G01*
X3285236Y7378700D03*
D15*
G01*
X2997200Y5499100D03*
G01*
X4267200Y5499100D03*
G01*
X2997200Y5080000D03*
G01*
X4267200Y5080000D03*
D14*
G01*
X4749800Y8559800D03*
G01*
X4749800Y8305800D03*
G01*
X4749800Y8051800D03*
G01*
X4749800Y7797800D03*
G01*
X4749800Y7543800D03*
G01*
X4749800Y7289800D03*
G01*
X4749800Y7035800D03*
G01*
X4749800Y6781800D03*
G01*
X4749800Y6527800D03*
G01*
X4749800Y6273800D03*
G01*
X4749800Y6019800D03*
G01*
X4749800Y5765800D03*
G01*
X4749800Y5511800D03*
G01*
X4749800Y5257800D03*
G01*
X4749800Y5003800D03*
G01*
X6273800Y5003800D03*
G01*
X6273800Y5257800D03*
G01*
X6273800Y5511800D03*
G01*
X6273800Y5765800D03*
G01*
X6273800Y6019800D03*
G01*
X6273800Y6273800D03*
G01*
X6273800Y6527800D03*
G01*
X6273800Y6781800D03*
G01*
X6273800Y7035800D03*
G01*
X6273800Y7289800D03*
G01*
X6273800Y7543800D03*
G01*
X6273800Y7797800D03*
G01*
X6273800Y8051800D03*
G01*
X6273800Y8305800D03*
G01*
X6273800Y8559800D03*
D16*
G01*
X3937000Y7852663D03*
G01*
X3937000Y7336536D03*
D17*
G01*
X6604000Y9271000D03*
G01*
X8915400Y8470900D03*
G01*
X8610600Y8470900D03*
G01*
X8305800Y8470900D03*
G01*
X8001000Y8470900D03*
G01*
X7696200Y8470900D03*
G01*
X7391400Y8470900D03*
G01*
X7086600Y8470900D03*
G01*
X6781800Y8470900D03*
G01*
X2933700Y6146800D03*
G01*
X3441700Y6146800D03*
G01*
X3949700Y6146800D03*
G01*
X8712200Y9207500D03*
G01*
X3632200Y9220200D03*
G01*
X3962400Y9220200D03*
G01*
X6934200Y9271000D03*
G01*
X6273800Y9271000D03*
D18*
G01*
X9220200Y7289800D03*
G01*
X9220200Y7797800D03*
D14*
G01*
X7543800Y7429500D03*
G01*
X7797800Y7429500D03*
G01*
X8051800Y7429500D03*
G01*
X8305800Y7429500D03*
G01*
X7543800Y7683500D03*
G01*
X7797800Y7683500D03*
G01*
X8051800Y7683500D03*
G01*
X8305800Y7683500D03*
D12*
G01*
X6019800Y5448300D03*
G01*
X5702300Y5130800D03*
M02*
