G04 Layer: TopSilkLayer*
G04 EasyEDA v6.4.25, 2021-11-30T23:27:12--6:00*
G04 4631042daed448b99cc0a23d656375e8,06444aca9169495d970130cf6b44ba93,10*
G04 Gerber Generator version 0.2*
G04 Scale: 100 percent, Rotated: No, Reflected: No *
G04 Dimensions in millimeters *
G04 leading zeros omitted , absolute positions ,4 integer and 5 decimal *
%FSLAX45Y45*%
%MOMM*%

%ADD10C,0.2540*%
%ADD19C,0.2581*%
%ADD20C,0.2032*%
%ADD21C,0.2030*%
%ADD22C,0.1520*%
%ADD23C,0.1524*%

%LPD*%
G36*
X3820922Y5861050D02*
G01*
X3815079Y5860846D01*
X3809339Y5860237D01*
X3803751Y5859272D01*
X3798265Y5857849D01*
X3792931Y5856071D01*
X3787800Y5853887D01*
X3782872Y5851347D01*
X3778199Y5848451D01*
X3773728Y5845149D01*
X3769563Y5841441D01*
X3765651Y5837428D01*
X3762095Y5833008D01*
X3758844Y5828233D01*
X3755999Y5823102D01*
X3753510Y5817666D01*
X3751376Y5811824D01*
X3749751Y5805678D01*
X3748532Y5799124D01*
X3747770Y5792266D01*
X3747515Y5785104D01*
X3747770Y5779008D01*
X3748430Y5773115D01*
X3749598Y5767324D01*
X3751122Y5761685D01*
X3753053Y5756249D01*
X3755390Y5750915D01*
X3758031Y5745784D01*
X3761028Y5740806D01*
X3764330Y5735980D01*
X3767886Y5731357D01*
X3771747Y5726887D01*
X3775811Y5722620D01*
X3784549Y5714644D01*
X3789222Y5710885D01*
X3793998Y5707380D01*
X3793998Y5707126D01*
X3758437Y5707126D01*
X3752342Y5732018D01*
X3739387Y5732018D01*
X3741928Y5689600D01*
X3808729Y5689600D01*
X3808729Y5704840D01*
X3800449Y5712460D01*
X3796639Y5716574D01*
X3793083Y5720943D01*
X3786581Y5730240D01*
X3783736Y5735116D01*
X3781145Y5740196D01*
X3778808Y5745378D01*
X3776776Y5750712D01*
X3774998Y5756198D01*
X3773525Y5761736D01*
X3772408Y5767425D01*
X3771544Y5773166D01*
X3771036Y5778957D01*
X3770884Y5784850D01*
X3771087Y5791708D01*
X3771747Y5798312D01*
X3772814Y5804662D01*
X3774287Y5810707D01*
X3776167Y5816447D01*
X3778402Y5821781D01*
X3781044Y5826810D01*
X3784092Y5831382D01*
X3787495Y5835548D01*
X3791254Y5839256D01*
X3795369Y5842457D01*
X3799840Y5845149D01*
X3804615Y5847283D01*
X3809746Y5848858D01*
X3815181Y5849823D01*
X3820922Y5850128D01*
X3826611Y5849823D01*
X3832047Y5848858D01*
X3837127Y5847283D01*
X3841902Y5845149D01*
X3846322Y5842457D01*
X3850386Y5839256D01*
X3854145Y5835548D01*
X3857548Y5831382D01*
X3860546Y5826810D01*
X3863187Y5821781D01*
X3865473Y5816447D01*
X3867302Y5810707D01*
X3868775Y5804662D01*
X3869842Y5798312D01*
X3870502Y5791708D01*
X3870706Y5784850D01*
X3870553Y5778957D01*
X3870045Y5773166D01*
X3869232Y5767425D01*
X3868064Y5761736D01*
X3866642Y5756198D01*
X3864864Y5750712D01*
X3862832Y5745378D01*
X3860495Y5740196D01*
X3857904Y5735116D01*
X3855059Y5730240D01*
X3851910Y5725515D01*
X3848506Y5720943D01*
X3844899Y5716574D01*
X3841038Y5712460D01*
X3836924Y5708548D01*
X3832606Y5704840D01*
X3832606Y5689600D01*
X3900170Y5689600D01*
X3902456Y5732018D01*
X3889248Y5732018D01*
X3883406Y5707126D01*
X3847846Y5707126D01*
X3847846Y5707380D01*
X3852621Y5710885D01*
X3857294Y5714644D01*
X3865981Y5722670D01*
X3870045Y5726938D01*
X3873855Y5731459D01*
X3877411Y5736082D01*
X3880662Y5740908D01*
X3883660Y5745886D01*
X3886301Y5751068D01*
X3888587Y5756351D01*
X3890518Y5761837D01*
X3892042Y5767425D01*
X3893159Y5773166D01*
X3893820Y5779058D01*
X3894074Y5785104D01*
X3893820Y5792266D01*
X3893058Y5799124D01*
X3891838Y5805678D01*
X3890162Y5811824D01*
X3888079Y5817666D01*
X3885590Y5823102D01*
X3882694Y5828233D01*
X3879443Y5833008D01*
X3875887Y5837428D01*
X3871976Y5841441D01*
X3867810Y5845149D01*
X3863340Y5848451D01*
X3858666Y5851347D01*
X3853738Y5853887D01*
X3848658Y5856071D01*
X3843375Y5857849D01*
X3837940Y5859272D01*
X3832351Y5860237D01*
X3826662Y5860846D01*
G37*
G36*
X3666998Y5860542D02*
G01*
X3662934Y5860389D01*
X3658920Y5859830D01*
X3654958Y5858916D01*
X3651046Y5857595D01*
X3647287Y5855919D01*
X3643579Y5853785D01*
X3640074Y5851296D01*
X3636670Y5848299D01*
X3633419Y5844895D01*
X3630371Y5841034D01*
X3627577Y5836716D01*
X3624935Y5831890D01*
X3622548Y5826607D01*
X3620465Y5820765D01*
X3618585Y5814466D01*
X3617061Y5807608D01*
X3615791Y5800242D01*
X3614928Y5792266D01*
X3614369Y5783783D01*
X3614165Y5774690D01*
X3636264Y5774690D01*
X3636416Y5785459D01*
X3636924Y5795213D01*
X3637737Y5804052D01*
X3638804Y5811977D01*
X3640175Y5818987D01*
X3641750Y5825185D01*
X3643579Y5830570D01*
X3645611Y5835243D01*
X3647846Y5839206D01*
X3650234Y5842457D01*
X3652774Y5845149D01*
X3655466Y5847232D01*
X3658209Y5848807D01*
X3661105Y5849823D01*
X3664000Y5850432D01*
X3666998Y5850636D01*
X3669842Y5850432D01*
X3672636Y5849823D01*
X3675379Y5848807D01*
X3678072Y5847232D01*
X3680663Y5845149D01*
X3683101Y5842457D01*
X3685438Y5839206D01*
X3687572Y5835243D01*
X3689553Y5830570D01*
X3691331Y5825185D01*
X3692906Y5818987D01*
X3694226Y5811977D01*
X3695293Y5804052D01*
X3696055Y5795213D01*
X3696563Y5785459D01*
X3696715Y5774690D01*
X3696563Y5763564D01*
X3696055Y5753455D01*
X3695293Y5744311D01*
X3694226Y5736132D01*
X3692906Y5728868D01*
X3691331Y5722416D01*
X3689553Y5716828D01*
X3687572Y5712002D01*
X3685438Y5707888D01*
X3683101Y5704433D01*
X3680663Y5701690D01*
X3678072Y5699506D01*
X3675379Y5697880D01*
X3672636Y5696762D01*
X3669842Y5696153D01*
X3666998Y5695950D01*
X3664000Y5696153D01*
X3661105Y5696762D01*
X3658209Y5697880D01*
X3655466Y5699455D01*
X3652774Y5701639D01*
X3650234Y5704382D01*
X3647846Y5707786D01*
X3645611Y5711901D01*
X3643579Y5716727D01*
X3641750Y5722315D01*
X3640175Y5728716D01*
X3638804Y5736031D01*
X3637737Y5744210D01*
X3636924Y5753354D01*
X3636416Y5763514D01*
X3636264Y5774690D01*
X3614165Y5774690D01*
X3614369Y5765292D01*
X3614928Y5756452D01*
X3615791Y5748274D01*
X3617061Y5740603D01*
X3618585Y5733542D01*
X3620465Y5727039D01*
X3622548Y5721045D01*
X3624935Y5715609D01*
X3627577Y5710631D01*
X3630371Y5706211D01*
X3633419Y5702249D01*
X3636670Y5698744D01*
X3640074Y5695746D01*
X3643579Y5693156D01*
X3647287Y5691022D01*
X3651046Y5689295D01*
X3654958Y5687974D01*
X3658920Y5687009D01*
X3662934Y5686501D01*
X3666998Y5686298D01*
X3670909Y5686501D01*
X3674821Y5687009D01*
X3678682Y5687974D01*
X3682441Y5689295D01*
X3686149Y5691022D01*
X3689807Y5693156D01*
X3693261Y5695746D01*
X3696614Y5698744D01*
X3699814Y5702249D01*
X3702862Y5706211D01*
X3705656Y5710631D01*
X3708298Y5715609D01*
X3710635Y5721045D01*
X3712768Y5727039D01*
X3714597Y5733542D01*
X3716172Y5740603D01*
X3717391Y5748274D01*
X3718306Y5756452D01*
X3718864Y5765292D01*
X3719068Y5774690D01*
X3718864Y5783783D01*
X3718306Y5792266D01*
X3717391Y5800242D01*
X3716172Y5807608D01*
X3714597Y5814466D01*
X3712768Y5820765D01*
X3710635Y5826607D01*
X3708298Y5831890D01*
X3705656Y5836716D01*
X3702862Y5841034D01*
X3699814Y5844895D01*
X3696614Y5848299D01*
X3693261Y5851296D01*
X3689807Y5853785D01*
X3686149Y5855919D01*
X3682441Y5857595D01*
X3678682Y5858916D01*
X3674821Y5859830D01*
X3670909Y5860389D01*
G37*
G36*
X3584956Y5860542D02*
G01*
X3578402Y5859627D01*
X3566007Y5856986D01*
X3560114Y5855258D01*
X3554425Y5853328D01*
X3543706Y5848705D01*
X3538728Y5846064D01*
X3529380Y5840120D01*
X3525062Y5836869D01*
X3520948Y5833414D01*
X3513429Y5825947D01*
X3506927Y5817819D01*
X3503980Y5813501D01*
X3498900Y5804458D01*
X3496716Y5799734D01*
X3494786Y5794908D01*
X3493109Y5789930D01*
X3491687Y5784850D01*
X3490518Y5779719D01*
X3489604Y5774436D01*
X3488944Y5769102D01*
X3488527Y5761482D01*
X3510279Y5761482D01*
X3510279Y5766308D01*
X3518001Y5771946D01*
X3526129Y5775756D01*
X3534410Y5777839D01*
X3542537Y5778500D01*
X3548938Y5777890D01*
X3554679Y5776112D01*
X3559759Y5773064D01*
X3564077Y5768797D01*
X3567531Y5763158D01*
X3570122Y5756198D01*
X3571697Y5747867D01*
X3572256Y5738114D01*
X3572001Y5731357D01*
X3571290Y5725210D01*
X3570122Y5719622D01*
X3568547Y5714644D01*
X3566515Y5710275D01*
X3564178Y5706465D01*
X3561435Y5703265D01*
X3558387Y5700623D01*
X3554984Y5698591D01*
X3551377Y5697118D01*
X3547465Y5696254D01*
X3543300Y5695950D01*
X3539540Y5696204D01*
X3535984Y5696966D01*
X3532632Y5698286D01*
X3529482Y5700064D01*
X3526536Y5702401D01*
X3523792Y5705246D01*
X3521303Y5708599D01*
X3519068Y5712409D01*
X3517087Y5716778D01*
X3515309Y5721654D01*
X3513785Y5727039D01*
X3512565Y5732932D01*
X3511550Y5739282D01*
X3510838Y5746191D01*
X3510432Y5753608D01*
X3510279Y5761482D01*
X3488527Y5761482D01*
X3488436Y5758180D01*
X3488690Y5749950D01*
X3489401Y5742178D01*
X3490569Y5734862D01*
X3492195Y5728004D01*
X3494278Y5721604D01*
X3496767Y5715660D01*
X3499713Y5710275D01*
X3503015Y5705398D01*
X3506724Y5701030D01*
X3510787Y5697169D01*
X3515258Y5693918D01*
X3520033Y5691225D01*
X3525164Y5689092D01*
X3530650Y5687568D01*
X3536442Y5686602D01*
X3542537Y5686298D01*
X3548075Y5686552D01*
X3553409Y5687263D01*
X3558489Y5688380D01*
X3563315Y5690006D01*
X3567836Y5692089D01*
X3572052Y5694578D01*
X3575964Y5697474D01*
X3579520Y5700826D01*
X3582720Y5704586D01*
X3585565Y5708751D01*
X3588054Y5713272D01*
X3590086Y5718251D01*
X3591712Y5723534D01*
X3592880Y5729224D01*
X3593592Y5735269D01*
X3593846Y5741670D01*
X3593490Y5749137D01*
X3592372Y5756046D01*
X3590544Y5762498D01*
X3588105Y5768390D01*
X3585006Y5773674D01*
X3581247Y5778347D01*
X3576980Y5782360D01*
X3572154Y5785764D01*
X3566820Y5788406D01*
X3561029Y5790387D01*
X3554780Y5791555D01*
X3548126Y5791962D01*
X3543046Y5791708D01*
X3538016Y5790895D01*
X3533089Y5789625D01*
X3528364Y5787796D01*
X3523742Y5785459D01*
X3519322Y5782614D01*
X3515055Y5779312D01*
X3511042Y5775452D01*
X3511854Y5781497D01*
X3512921Y5787288D01*
X3514293Y5792876D01*
X3515918Y5798261D01*
X3517900Y5803392D01*
X3520186Y5808319D01*
X3522726Y5813044D01*
X3525621Y5817514D01*
X3528822Y5821781D01*
X3532327Y5825845D01*
X3536187Y5829655D01*
X3540353Y5833262D01*
X3544874Y5836615D01*
X3549751Y5839764D01*
X3554933Y5842711D01*
X3560470Y5845403D01*
X3566363Y5847892D01*
X3572611Y5850128D01*
X3579266Y5852160D01*
X3586226Y5853938D01*
G37*
G36*
X3425698Y5859780D02*
G01*
X3374390Y5846064D01*
X3374390Y5837428D01*
X3407664Y5840730D01*
X3407562Y5727496D01*
X3407156Y5702300D01*
X3371596Y5697474D01*
X3371596Y5689600D01*
X3463798Y5689600D01*
X3463798Y5697474D01*
X3428746Y5702300D01*
X3428237Y5737453D01*
X3428237Y5821172D01*
X3429254Y5857240D01*
G37*
G36*
X3824478Y4870450D02*
G01*
X3818636Y4870246D01*
X3812895Y4869637D01*
X3807307Y4868672D01*
X3801821Y4867249D01*
X3796487Y4865471D01*
X3791356Y4863287D01*
X3786428Y4860747D01*
X3781755Y4857851D01*
X3777284Y4854549D01*
X3773119Y4850841D01*
X3769207Y4846828D01*
X3765651Y4842408D01*
X3762400Y4837633D01*
X3759555Y4832502D01*
X3757066Y4827066D01*
X3754932Y4821224D01*
X3753307Y4815078D01*
X3752087Y4808524D01*
X3751326Y4801666D01*
X3751072Y4794504D01*
X3751326Y4788408D01*
X3751986Y4782515D01*
X3753154Y4776724D01*
X3754678Y4771085D01*
X3756609Y4765649D01*
X3758946Y4760315D01*
X3761587Y4755184D01*
X3764584Y4750206D01*
X3767886Y4745380D01*
X3771442Y4740757D01*
X3775303Y4736287D01*
X3779367Y4732020D01*
X3788105Y4724044D01*
X3792778Y4720285D01*
X3797554Y4716780D01*
X3797554Y4716526D01*
X3761740Y4716526D01*
X3755898Y4741418D01*
X3742944Y4741418D01*
X3745484Y4699000D01*
X3812286Y4699000D01*
X3812286Y4714240D01*
X3808018Y4717948D01*
X3803954Y4721860D01*
X3800094Y4725974D01*
X3793134Y4734915D01*
X3790035Y4739640D01*
X3787190Y4744516D01*
X3784600Y4749596D01*
X3782263Y4754778D01*
X3780231Y4760112D01*
X3778504Y4765598D01*
X3777081Y4771136D01*
X3775913Y4776825D01*
X3775100Y4782566D01*
X3774592Y4788357D01*
X3774440Y4794250D01*
X3774643Y4801108D01*
X3775303Y4807712D01*
X3776370Y4814062D01*
X3777843Y4820107D01*
X3779723Y4825847D01*
X3781958Y4831181D01*
X3784600Y4836210D01*
X3787648Y4840782D01*
X3791051Y4844948D01*
X3794810Y4848656D01*
X3798925Y4851857D01*
X3803396Y4854549D01*
X3808171Y4856683D01*
X3813301Y4858258D01*
X3818737Y4859223D01*
X3824478Y4859528D01*
X3830167Y4859223D01*
X3835603Y4858258D01*
X3840683Y4856683D01*
X3845458Y4854549D01*
X3849878Y4851857D01*
X3853942Y4848656D01*
X3857701Y4844948D01*
X3861104Y4840782D01*
X3864101Y4836210D01*
X3866743Y4831181D01*
X3869029Y4825847D01*
X3870858Y4820107D01*
X3872331Y4814062D01*
X3873398Y4807712D01*
X3874058Y4801108D01*
X3874262Y4794250D01*
X3874109Y4788357D01*
X3873601Y4782566D01*
X3872788Y4776825D01*
X3871620Y4771136D01*
X3870198Y4765598D01*
X3868420Y4760112D01*
X3866387Y4754778D01*
X3864051Y4749596D01*
X3861460Y4744516D01*
X3858615Y4739640D01*
X3855465Y4734915D01*
X3852062Y4730343D01*
X3848455Y4725974D01*
X3844594Y4721860D01*
X3840479Y4717948D01*
X3836162Y4714240D01*
X3836162Y4699000D01*
X3903472Y4699000D01*
X3905758Y4741418D01*
X3892804Y4741418D01*
X3886962Y4716526D01*
X3851401Y4716526D01*
X3851401Y4716780D01*
X3856177Y4720285D01*
X3860850Y4724044D01*
X3869537Y4732070D01*
X3873601Y4736338D01*
X3877411Y4740859D01*
X3880967Y4745482D01*
X3884218Y4750308D01*
X3887215Y4755286D01*
X3889857Y4760468D01*
X3892143Y4765751D01*
X3894074Y4771237D01*
X3895598Y4776825D01*
X3896715Y4782566D01*
X3897376Y4788458D01*
X3897629Y4794504D01*
X3897376Y4801666D01*
X3896614Y4808524D01*
X3895394Y4815078D01*
X3893718Y4821224D01*
X3891635Y4827066D01*
X3889146Y4832502D01*
X3886250Y4837633D01*
X3882999Y4842408D01*
X3879443Y4846828D01*
X3875532Y4850841D01*
X3871366Y4854549D01*
X3866896Y4857851D01*
X3862222Y4860747D01*
X3857294Y4863287D01*
X3852214Y4865471D01*
X3846931Y4867249D01*
X3841496Y4868672D01*
X3835908Y4869637D01*
X3830218Y4870246D01*
G37*
G36*
X3503422Y4869942D02*
G01*
X3499358Y4869789D01*
X3495344Y4869230D01*
X3491382Y4868316D01*
X3487470Y4866995D01*
X3483711Y4865319D01*
X3480003Y4863185D01*
X3476498Y4860696D01*
X3473094Y4857699D01*
X3469843Y4854295D01*
X3466795Y4850434D01*
X3464001Y4846116D01*
X3461359Y4841290D01*
X3458972Y4836007D01*
X3456889Y4830165D01*
X3455009Y4823866D01*
X3453485Y4817008D01*
X3452215Y4809642D01*
X3451351Y4801666D01*
X3450793Y4793183D01*
X3450590Y4784090D01*
X3472687Y4784090D01*
X3472840Y4794859D01*
X3473348Y4804613D01*
X3474161Y4813452D01*
X3475228Y4821377D01*
X3476599Y4828387D01*
X3478174Y4834585D01*
X3480003Y4839970D01*
X3482035Y4844643D01*
X3484270Y4848606D01*
X3486658Y4851857D01*
X3489198Y4854549D01*
X3491890Y4856632D01*
X3494633Y4858207D01*
X3497529Y4859223D01*
X3500424Y4859832D01*
X3503422Y4860036D01*
X3506266Y4859832D01*
X3509060Y4859223D01*
X3511804Y4858207D01*
X3514496Y4856632D01*
X3517087Y4854549D01*
X3519525Y4851857D01*
X3521862Y4848606D01*
X3523996Y4844643D01*
X3525977Y4839970D01*
X3527755Y4834585D01*
X3529329Y4828387D01*
X3530650Y4821377D01*
X3531717Y4813452D01*
X3532479Y4804613D01*
X3532987Y4794859D01*
X3533140Y4784090D01*
X3532987Y4772964D01*
X3532479Y4762855D01*
X3531717Y4753711D01*
X3530650Y4745532D01*
X3529329Y4738268D01*
X3527755Y4731816D01*
X3525977Y4726228D01*
X3523996Y4721402D01*
X3521862Y4717288D01*
X3519525Y4713833D01*
X3517087Y4711090D01*
X3514496Y4708906D01*
X3511804Y4707280D01*
X3509060Y4706162D01*
X3506266Y4705553D01*
X3503422Y4705350D01*
X3500424Y4705553D01*
X3497529Y4706162D01*
X3494633Y4707280D01*
X3491890Y4708855D01*
X3489198Y4711039D01*
X3486658Y4713782D01*
X3484270Y4717186D01*
X3482035Y4721301D01*
X3480003Y4726127D01*
X3478174Y4731715D01*
X3476599Y4738116D01*
X3475228Y4745431D01*
X3474161Y4753610D01*
X3473348Y4762754D01*
X3472840Y4772914D01*
X3472687Y4784090D01*
X3450590Y4784090D01*
X3450793Y4774692D01*
X3451351Y4765852D01*
X3452215Y4757674D01*
X3453485Y4750003D01*
X3455009Y4742942D01*
X3456889Y4736439D01*
X3458972Y4730445D01*
X3461359Y4725009D01*
X3464001Y4720031D01*
X3466795Y4715611D01*
X3469843Y4711649D01*
X3473094Y4708144D01*
X3476498Y4705146D01*
X3480003Y4702556D01*
X3483711Y4700422D01*
X3487470Y4698695D01*
X3491382Y4697374D01*
X3495344Y4696409D01*
X3499358Y4695901D01*
X3503422Y4695698D01*
X3507333Y4695901D01*
X3511245Y4696409D01*
X3515106Y4697374D01*
X3518865Y4698695D01*
X3522573Y4700422D01*
X3526231Y4702556D01*
X3529685Y4705146D01*
X3533038Y4708144D01*
X3536238Y4711649D01*
X3539286Y4715611D01*
X3542080Y4720031D01*
X3544722Y4725009D01*
X3547059Y4730445D01*
X3549192Y4736439D01*
X3551021Y4742942D01*
X3552596Y4750003D01*
X3553815Y4757674D01*
X3554729Y4765852D01*
X3555288Y4774692D01*
X3555492Y4784090D01*
X3555288Y4793183D01*
X3554729Y4801666D01*
X3553815Y4809642D01*
X3552596Y4817008D01*
X3551021Y4823866D01*
X3549192Y4830165D01*
X3547059Y4836007D01*
X3544722Y4841290D01*
X3542080Y4846116D01*
X3539286Y4850434D01*
X3536238Y4854295D01*
X3533038Y4857699D01*
X3529685Y4860696D01*
X3526231Y4863185D01*
X3522573Y4865319D01*
X3518865Y4866995D01*
X3515106Y4868316D01*
X3511245Y4869230D01*
X3507333Y4869789D01*
G37*
G36*
X3387598Y4869180D02*
G01*
X3336290Y4855464D01*
X3336290Y4846828D01*
X3369564Y4850130D01*
X3369462Y4736896D01*
X3369056Y4711700D01*
X3333496Y4706874D01*
X3333496Y4699000D01*
X3425698Y4699000D01*
X3425698Y4706874D01*
X3390646Y4711700D01*
X3390137Y4746853D01*
X3390137Y4830572D01*
X3391154Y4866640D01*
G37*
G36*
X3576828Y4866640D02*
G01*
X3576828Y4858004D01*
X3600196Y4855464D01*
X3600653Y4816754D01*
X3600653Y4743145D01*
X3600196Y4710176D01*
X3576828Y4707636D01*
X3576828Y4699000D01*
X3646932Y4699000D01*
X3646932Y4707636D01*
X3623310Y4710430D01*
X3622852Y4734864D01*
X3622801Y4757166D01*
X3647694Y4787138D01*
X3689096Y4710176D01*
X3668268Y4707636D01*
X3668268Y4699000D01*
X3732529Y4699000D01*
X3732529Y4707636D01*
X3713226Y4709922D01*
X3661156Y4803140D01*
X3703828Y4854956D01*
X3727450Y4858004D01*
X3727450Y4866640D01*
X3670046Y4866640D01*
X3670046Y4858004D01*
X3690112Y4854448D01*
X3622801Y4771644D01*
X3623005Y4839004D01*
X3623310Y4855464D01*
X3647186Y4858004D01*
X3647186Y4866640D01*
G37*
D22*
X4205477Y9385808D02*
G01*
X4200143Y9396221D01*
X4189729Y9406636D01*
X4179570Y9411715D01*
X4158741Y9411715D01*
X4148327Y9406636D01*
X4137913Y9396221D01*
X4132579Y9385808D01*
X4127500Y9370060D01*
X4127500Y9344152D01*
X4132579Y9328658D01*
X4137913Y9318244D01*
X4148327Y9307829D01*
X4158741Y9302750D01*
X4179570Y9302750D01*
X4189729Y9307829D01*
X4200143Y9318244D01*
X4205477Y9328658D01*
X4265675Y9375394D02*
G01*
X4255261Y9370060D01*
X4244847Y9359900D01*
X4239768Y9344152D01*
X4239768Y9333737D01*
X4244847Y9318244D01*
X4255261Y9307829D01*
X4265675Y9302750D01*
X4281170Y9302750D01*
X4291584Y9307829D01*
X4301997Y9318244D01*
X4307331Y9333737D01*
X4307331Y9344152D01*
X4301997Y9359900D01*
X4291584Y9370060D01*
X4281170Y9375394D01*
X4265675Y9375394D01*
X4341622Y9375394D02*
G01*
X4341622Y9302750D01*
X4341622Y9354565D02*
G01*
X4357115Y9370060D01*
X4367529Y9375394D01*
X4383024Y9375394D01*
X4393438Y9370060D01*
X4398772Y9354565D01*
X4398772Y9302750D01*
X4433061Y9344152D02*
G01*
X4495291Y9344152D01*
X4495291Y9354565D01*
X4490211Y9364979D01*
X4484877Y9370060D01*
X4474463Y9375394D01*
X4458970Y9375394D01*
X4448556Y9370060D01*
X4438141Y9359900D01*
X4433061Y9344152D01*
X4433061Y9333737D01*
X4438141Y9318244D01*
X4448556Y9307829D01*
X4458970Y9302750D01*
X4474463Y9302750D01*
X4484877Y9307829D01*
X4495291Y9318244D01*
X4205477Y9169908D02*
G01*
X4200143Y9180321D01*
X4189729Y9190736D01*
X4179570Y9195815D01*
X4158741Y9195815D01*
X4148327Y9190736D01*
X4137913Y9180321D01*
X4132579Y9169908D01*
X4127500Y9154160D01*
X4127500Y9128252D01*
X4132579Y9112758D01*
X4137913Y9102344D01*
X4148327Y9091929D01*
X4158741Y9086850D01*
X4179570Y9086850D01*
X4189729Y9091929D01*
X4200143Y9102344D01*
X4205477Y9112758D01*
X4205477Y9128252D01*
X4179570Y9128252D02*
G01*
X4205477Y9128252D01*
X4239768Y9195815D02*
G01*
X4239768Y9086850D01*
X4239768Y9195815D02*
G01*
X4312411Y9086850D01*
X4312411Y9195815D02*
G01*
X4312411Y9086850D01*
X4346702Y9195815D02*
G01*
X4346702Y9086850D01*
X4346702Y9195815D02*
G01*
X4383024Y9195815D01*
X4398772Y9190736D01*
X4409186Y9180321D01*
X4414265Y9169908D01*
X4419600Y9154160D01*
X4419600Y9128252D01*
X4414265Y9112758D01*
X4409186Y9102344D01*
X4398772Y9091929D01*
X4383024Y9086850D01*
X4346702Y9086850D01*
X3164077Y9385808D02*
G01*
X3158743Y9396221D01*
X3148329Y9406636D01*
X3138170Y9411715D01*
X3117341Y9411715D01*
X3106927Y9406636D01*
X3096513Y9396221D01*
X3091179Y9385808D01*
X3086100Y9370060D01*
X3086100Y9344152D01*
X3091179Y9328658D01*
X3096513Y9318244D01*
X3106927Y9307829D01*
X3117341Y9302750D01*
X3138170Y9302750D01*
X3148329Y9307829D01*
X3158743Y9318244D01*
X3164077Y9328658D01*
X3224275Y9375394D02*
G01*
X3213861Y9370060D01*
X3203447Y9359900D01*
X3198368Y9344152D01*
X3198368Y9333737D01*
X3203447Y9318244D01*
X3213861Y9307829D01*
X3224275Y9302750D01*
X3239770Y9302750D01*
X3250184Y9307829D01*
X3260597Y9318244D01*
X3265931Y9333737D01*
X3265931Y9344152D01*
X3260597Y9359900D01*
X3250184Y9370060D01*
X3239770Y9375394D01*
X3224275Y9375394D01*
X3300222Y9375394D02*
G01*
X3300222Y9302750D01*
X3300222Y9354565D02*
G01*
X3315715Y9370060D01*
X3326129Y9375394D01*
X3341624Y9375394D01*
X3352038Y9370060D01*
X3357372Y9354565D01*
X3357372Y9302750D01*
X3391661Y9344152D02*
G01*
X3453891Y9344152D01*
X3453891Y9354565D01*
X3448811Y9364979D01*
X3443477Y9370060D01*
X3433063Y9375394D01*
X3417570Y9375394D01*
X3407156Y9370060D01*
X3396741Y9359900D01*
X3391661Y9344152D01*
X3391661Y9333737D01*
X3396741Y9318244D01*
X3407156Y9307829D01*
X3417570Y9302750D01*
X3433063Y9302750D01*
X3443477Y9307829D01*
X3453891Y9318244D01*
X3086100Y9195815D02*
G01*
X3086100Y9086850D01*
X3086100Y9195815D02*
G01*
X3122422Y9195815D01*
X3138170Y9190736D01*
X3148329Y9180321D01*
X3153663Y9169908D01*
X3158743Y9154160D01*
X3158743Y9128252D01*
X3153663Y9112758D01*
X3148329Y9102344D01*
X3138170Y9091929D01*
X3122422Y9086850D01*
X3086100Y9086850D01*
X3255518Y9159494D02*
G01*
X3255518Y9086850D01*
X3255518Y9144000D02*
G01*
X3245104Y9154160D01*
X3234690Y9159494D01*
X3219195Y9159494D01*
X3208781Y9154160D01*
X3198368Y9144000D01*
X3193034Y9128252D01*
X3193034Y9117837D01*
X3198368Y9102344D01*
X3208781Y9091929D01*
X3219195Y9086850D01*
X3234690Y9086850D01*
X3245104Y9091929D01*
X3255518Y9102344D01*
X3305302Y9195815D02*
G01*
X3305302Y9107424D01*
X3310636Y9091929D01*
X3321050Y9086850D01*
X3331209Y9086850D01*
X3289808Y9159494D02*
G01*
X3326129Y9159494D01*
X3427984Y9159494D02*
G01*
X3427984Y9086850D01*
X3427984Y9144000D02*
G01*
X3417570Y9154160D01*
X3407156Y9159494D01*
X3391661Y9159494D01*
X3381247Y9154160D01*
X3370834Y9144000D01*
X3365500Y9128252D01*
X3365500Y9117837D01*
X3370834Y9102344D01*
X3381247Y9091929D01*
X3391661Y9086850D01*
X3407156Y9086850D01*
X3417570Y9091929D01*
X3427984Y9102344D01*
X8483600Y9475215D02*
G01*
X8483600Y9366250D01*
X8483600Y9475215D02*
G01*
X8530336Y9475215D01*
X8545829Y9470136D01*
X8551163Y9464802D01*
X8556243Y9454387D01*
X8556243Y9443974D01*
X8551163Y9433560D01*
X8545829Y9428479D01*
X8530336Y9423400D01*
X8483600Y9423400D01*
X8519922Y9423400D02*
G01*
X8556243Y9366250D01*
X8590534Y9407652D02*
G01*
X8653018Y9407652D01*
X8653018Y9418065D01*
X8647684Y9428479D01*
X8642604Y9433560D01*
X8632190Y9438894D01*
X8616695Y9438894D01*
X8606281Y9433560D01*
X8595868Y9423400D01*
X8590534Y9407652D01*
X8590534Y9397237D01*
X8595868Y9381744D01*
X8606281Y9371329D01*
X8616695Y9366250D01*
X8632190Y9366250D01*
X8642604Y9371329D01*
X8653018Y9381744D01*
X8744458Y9423400D02*
G01*
X8739124Y9433560D01*
X8723629Y9438894D01*
X8708136Y9438894D01*
X8692388Y9433560D01*
X8687308Y9423400D01*
X8692388Y9412986D01*
X8702802Y9407652D01*
X8728709Y9402571D01*
X8739124Y9397237D01*
X8744458Y9386824D01*
X8744458Y9381744D01*
X8739124Y9371329D01*
X8723629Y9366250D01*
X8708136Y9366250D01*
X8692388Y9371329D01*
X8687308Y9381744D01*
X8778747Y9407652D02*
G01*
X8840977Y9407652D01*
X8840977Y9418065D01*
X8835897Y9428479D01*
X8830563Y9433560D01*
X8820150Y9438894D01*
X8804656Y9438894D01*
X8794241Y9433560D01*
X8783827Y9423400D01*
X8778747Y9407652D01*
X8778747Y9397237D01*
X8783827Y9381744D01*
X8794241Y9371329D01*
X8804656Y9366250D01*
X8820150Y9366250D01*
X8830563Y9371329D01*
X8840977Y9381744D01*
X8891015Y9475215D02*
G01*
X8891015Y9386824D01*
X8896095Y9371329D01*
X8906509Y9366250D01*
X8916924Y9366250D01*
X8875268Y9438894D02*
G01*
X8911590Y9438894D01*
X5295900Y9119615D02*
G01*
X5295900Y9010650D01*
X5295900Y9119615D02*
G01*
X5368543Y9010650D01*
X5368543Y9119615D02*
G01*
X5368543Y9010650D01*
X5444490Y9119615D02*
G01*
X5402834Y9010650D01*
X5444490Y9119615D02*
G01*
X5486145Y9010650D01*
X5418581Y9046971D02*
G01*
X5470397Y9046971D01*
X5520436Y9119615D02*
G01*
X5520436Y9010650D01*
X5520436Y9119615D02*
G01*
X5593079Y9010650D01*
X5593079Y9119615D02*
G01*
X5593079Y9010650D01*
X5658611Y9119615D02*
G01*
X5648197Y9114536D01*
X5637784Y9104121D01*
X5632450Y9093708D01*
X5627370Y9077960D01*
X5627370Y9052052D01*
X5632450Y9036558D01*
X5637784Y9026144D01*
X5648197Y9015729D01*
X5658611Y9010650D01*
X5679440Y9010650D01*
X5689600Y9015729D01*
X5700013Y9026144D01*
X5705347Y9036558D01*
X5710427Y9052052D01*
X5710427Y9077960D01*
X5705347Y9093708D01*
X5700013Y9104121D01*
X5689600Y9114536D01*
X5679440Y9119615D01*
X5658611Y9119615D01*
X7416800Y7963915D02*
G01*
X7416800Y7854950D01*
X7416800Y7963915D02*
G01*
X7463536Y7963915D01*
X7479029Y7958836D01*
X7484363Y7953502D01*
X7489443Y7943087D01*
X7489443Y7932673D01*
X7484363Y7922260D01*
X7479029Y7917179D01*
X7463536Y7912100D01*
X7416800Y7912100D01*
X7453122Y7912100D02*
G01*
X7489443Y7854950D01*
X7523734Y7963915D02*
G01*
X7523734Y7854950D01*
X7523734Y7963915D02*
G01*
X7591297Y7963915D01*
X7523734Y7912100D02*
G01*
X7565390Y7912100D01*
X7630922Y7938008D02*
G01*
X7630922Y7943087D01*
X7636002Y7953502D01*
X7641336Y7958836D01*
X7651750Y7963915D01*
X7672324Y7963915D01*
X7682738Y7958836D01*
X7688072Y7953502D01*
X7693152Y7943087D01*
X7693152Y7932673D01*
X7688072Y7922260D01*
X7677658Y7906765D01*
X7625588Y7854950D01*
X7698486Y7854950D01*
X7784591Y7963915D02*
G01*
X7732775Y7891271D01*
X7810500Y7891271D01*
X7784591Y7963915D02*
G01*
X7784591Y7854950D01*
X7844790Y7963915D02*
G01*
X7844790Y7854950D01*
X7844790Y7854950D02*
G01*
X7907274Y7854950D01*
X7972806Y7963915D02*
G01*
X7957058Y7958836D01*
X7946643Y7943087D01*
X7941563Y7917179D01*
X7941563Y7901686D01*
X7946643Y7875523D01*
X7957058Y7860029D01*
X7972806Y7854950D01*
X7983220Y7854950D01*
X7998713Y7860029D01*
X8009127Y7875523D01*
X8014208Y7901686D01*
X8014208Y7917179D01*
X8009127Y7943087D01*
X7998713Y7958836D01*
X7983220Y7963915D01*
X7972806Y7963915D01*
X8048497Y7943087D02*
G01*
X8058911Y7948421D01*
X8074659Y7963915D01*
X8074659Y7854950D01*
X2855213Y8662415D02*
G01*
X2912363Y8662415D01*
X2881122Y8620760D01*
X2896870Y8620760D01*
X2907029Y8615679D01*
X2912363Y8610600D01*
X2917443Y8594852D01*
X2917443Y8584437D01*
X2912363Y8568944D01*
X2901950Y8558529D01*
X2886456Y8553450D01*
X2870708Y8553450D01*
X2855213Y8558529D01*
X2849879Y8563610D01*
X2844800Y8574024D01*
X2962147Y8662415D02*
G01*
X3019297Y8662415D01*
X2988309Y8620760D01*
X3003804Y8620760D01*
X3014218Y8615679D01*
X3019297Y8610600D01*
X3024631Y8594852D01*
X3024631Y8584437D01*
X3019297Y8568944D01*
X3008884Y8558529D01*
X2993390Y8553450D01*
X2977895Y8553450D01*
X2962147Y8558529D01*
X2957068Y8563610D01*
X2951734Y8574024D01*
X3058922Y8626094D02*
G01*
X3058922Y8516874D01*
X3058922Y8610600D02*
G01*
X3069336Y8620760D01*
X3079750Y8626094D01*
X3095243Y8626094D01*
X3105658Y8620760D01*
X3116072Y8610600D01*
X3121152Y8594852D01*
X3121152Y8584437D01*
X3116072Y8568944D01*
X3105658Y8558529D01*
X3095243Y8553450D01*
X3079750Y8553450D01*
X3069336Y8558529D01*
X3058922Y8568944D01*
X3155441Y8662415D02*
G01*
X3155441Y8553450D01*
X3155441Y8662415D02*
G01*
X3223006Y8662415D01*
X3155441Y8610600D02*
G01*
X3197097Y8610600D01*
X4344415Y8003286D02*
G01*
X4344415Y7946136D01*
X4302759Y7977378D01*
X4302759Y7961629D01*
X4297679Y7951470D01*
X4292600Y7946136D01*
X4276852Y7941055D01*
X4266438Y7941055D01*
X4250943Y7946136D01*
X4240529Y7956550D01*
X4235450Y7972044D01*
X4235450Y7987792D01*
X4240529Y8003286D01*
X4245609Y8008620D01*
X4256024Y8013700D01*
X4318508Y7901431D02*
G01*
X4323588Y7901431D01*
X4334002Y7896352D01*
X4339336Y7891018D01*
X4344415Y7880604D01*
X4344415Y7860029D01*
X4339336Y7849615D01*
X4334002Y7844281D01*
X4323588Y7839202D01*
X4313174Y7839202D01*
X4302759Y7844281D01*
X4287265Y7854695D01*
X4235450Y7906765D01*
X4235450Y7833868D01*
X4261358Y7794497D02*
G01*
X4256024Y7799578D01*
X4250943Y7794497D01*
X4256024Y7789163D01*
X4261358Y7794497D01*
X4344415Y7682229D02*
G01*
X4235450Y7734300D01*
X4344415Y7754873D02*
G01*
X4344415Y7682229D01*
X4328922Y7585710D02*
G01*
X4339336Y7590789D01*
X4344415Y7606284D01*
X4344415Y7616697D01*
X4339336Y7632445D01*
X4323588Y7642860D01*
X4297679Y7647939D01*
X4271772Y7647939D01*
X4250943Y7642860D01*
X4240529Y7632445D01*
X4235450Y7616697D01*
X4235450Y7611618D01*
X4240529Y7595870D01*
X4250943Y7585710D01*
X4266438Y7580376D01*
X4271772Y7580376D01*
X4287265Y7585710D01*
X4297679Y7595870D01*
X4302759Y7611618D01*
X4302759Y7616697D01*
X4297679Y7632445D01*
X4287265Y7642860D01*
X4271772Y7647939D01*
X4344415Y7520178D02*
G01*
X4339336Y7535671D01*
X4328922Y7541005D01*
X4318508Y7541005D01*
X4308093Y7535671D01*
X4302759Y7525258D01*
X4297679Y7504429D01*
X4292600Y7488936D01*
X4282186Y7478521D01*
X4271772Y7473442D01*
X4256024Y7473442D01*
X4245609Y7478521D01*
X4240529Y7483855D01*
X4235450Y7499350D01*
X4235450Y7520178D01*
X4240529Y7535671D01*
X4245609Y7541005D01*
X4256024Y7546086D01*
X4271772Y7546086D01*
X4282186Y7541005D01*
X4292600Y7530592D01*
X4297679Y7514844D01*
X4302759Y7494270D01*
X4308093Y7483855D01*
X4318508Y7478521D01*
X4328922Y7478521D01*
X4339336Y7483855D01*
X4344415Y7499350D01*
X4344415Y7520178D01*
X4344415Y7439152D02*
G01*
X4235450Y7439152D01*
X4308093Y7387081D02*
G01*
X4256024Y7439152D01*
X4276852Y7418323D02*
G01*
X4235450Y7382002D01*
X4344415Y7347712D02*
G01*
X4235450Y7347712D01*
X4344415Y7274813D02*
G01*
X4235450Y7274813D01*
X4292600Y7347712D02*
G01*
X4292600Y7274813D01*
X4308093Y7183373D02*
G01*
X4235450Y7240523D01*
X4308093Y7240523D02*
G01*
X4308093Y7183373D01*
X4235450Y7240523D02*
G01*
X4235450Y7183373D01*
X2535936Y5471921D02*
G01*
X2535936Y5378450D01*
X2489200Y5425186D02*
G01*
X2582672Y5425186D01*
X3039872Y4202684D02*
G01*
X3039872Y4093463D01*
X3033268Y4073144D01*
X3026409Y4066286D01*
X3012693Y4059428D01*
X2998977Y4059428D01*
X2985515Y4066286D01*
X2978658Y4073144D01*
X2971800Y4093463D01*
X2971800Y4107179D01*
X3085084Y4202684D02*
G01*
X3085084Y4059428D01*
X3085084Y4059428D02*
G01*
X3166872Y4059428D01*
X3314191Y4168647D02*
G01*
X3307334Y4182110D01*
X3293618Y4195826D01*
X3279902Y4202684D01*
X3252724Y4202684D01*
X3239008Y4195826D01*
X3225545Y4182110D01*
X3218688Y4168647D01*
X3211829Y4148073D01*
X3211829Y4114037D01*
X3218688Y4093463D01*
X3225545Y4080002D01*
X3239008Y4066286D01*
X3252724Y4059428D01*
X3279902Y4059428D01*
X3293618Y4066286D01*
X3307334Y4080002D01*
X3314191Y4093463D01*
X3427222Y4202684D02*
G01*
X3427222Y4093463D01*
X3420363Y4073144D01*
X3413506Y4066286D01*
X3400043Y4059428D01*
X3386327Y4059428D01*
X3372611Y4066286D01*
X3366008Y4073144D01*
X3359150Y4093463D01*
X3359150Y4107179D01*
X3472179Y4202684D02*
G01*
X3472179Y4059428D01*
X3472179Y4059428D02*
G01*
X3553968Y4059428D01*
X3701288Y4168647D02*
G01*
X3694429Y4182110D01*
X3680968Y4195826D01*
X3667252Y4202684D01*
X3640074Y4202684D01*
X3626358Y4195826D01*
X3612641Y4182110D01*
X3605784Y4168647D01*
X3599179Y4148073D01*
X3599179Y4114037D01*
X3605784Y4093463D01*
X3612641Y4080002D01*
X3626358Y4066286D01*
X3640074Y4059428D01*
X3667252Y4059428D01*
X3680968Y4066286D01*
X3694429Y4080002D01*
X3701288Y4093463D01*
X3814572Y4202684D02*
G01*
X3814572Y4093463D01*
X3807713Y4073144D01*
X3800856Y4066286D01*
X3787140Y4059428D01*
X3773677Y4059428D01*
X3759961Y4066286D01*
X3753104Y4073144D01*
X3746245Y4093463D01*
X3746245Y4107179D01*
X3859529Y4202684D02*
G01*
X3859529Y4059428D01*
X3859529Y4059428D02*
G01*
X3941318Y4059428D01*
X4088638Y4168647D02*
G01*
X4081779Y4182110D01*
X4068063Y4195826D01*
X4054602Y4202684D01*
X4027170Y4202684D01*
X4013708Y4195826D01*
X3999991Y4182110D01*
X3993134Y4168647D01*
X3986275Y4148073D01*
X3986275Y4114037D01*
X3993134Y4093463D01*
X3999991Y4080002D01*
X4013708Y4066286D01*
X4027170Y4059428D01*
X4054602Y4059428D01*
X4068063Y4066286D01*
X4081779Y4080002D01*
X4088638Y4093463D01*
X4201922Y4202684D02*
G01*
X4201922Y4093463D01*
X4195063Y4073144D01*
X4188206Y4066286D01*
X4174490Y4059428D01*
X4160774Y4059428D01*
X4147311Y4066286D01*
X4140454Y4073144D01*
X4133595Y4093463D01*
X4133595Y4107179D01*
X4246879Y4202684D02*
G01*
X4246879Y4059428D01*
X4246879Y4059428D02*
G01*
X4328668Y4059428D01*
X4475988Y4168647D02*
G01*
X4469129Y4182110D01*
X4455413Y4195826D01*
X4441697Y4202684D01*
X4414520Y4202684D01*
X4400804Y4195826D01*
X4387341Y4182110D01*
X4380484Y4168647D01*
X4373625Y4148073D01*
X4373625Y4114037D01*
X4380484Y4093463D01*
X4387341Y4080002D01*
X4400804Y4066286D01*
X4414520Y4059428D01*
X4441697Y4059428D01*
X4455413Y4066286D01*
X4469129Y4080002D01*
X4475988Y4093463D01*
X9406636Y4152900D02*
G01*
X9530588Y4152900D01*
X9406636Y4152900D02*
G01*
X9530588Y4200144D01*
X9406636Y4247387D02*
G01*
X9530588Y4200144D01*
X9406636Y4247387D02*
G01*
X9530588Y4247387D01*
X9424161Y4369054D02*
G01*
X9412477Y4357370D01*
X9406636Y4339589D01*
X9406636Y4315968D01*
X9412477Y4298187D01*
X9424161Y4286504D01*
X9436100Y4286504D01*
X9447784Y4292345D01*
X9453879Y4298187D01*
X9459722Y4310126D01*
X9471406Y4345431D01*
X9477502Y4357370D01*
X9483343Y4363212D01*
X9495027Y4369054D01*
X9512808Y4369054D01*
X9524745Y4357370D01*
X9530588Y4339589D01*
X9530588Y4315968D01*
X9524745Y4298187D01*
X9512808Y4286504D01*
X9406636Y4449571D02*
G01*
X9530588Y4449571D01*
X9406636Y4408170D02*
G01*
X9406636Y4490973D01*
X9406636Y4621021D02*
G01*
X9530588Y4621021D01*
X9406636Y4621021D02*
G01*
X9406636Y4697729D01*
X9465563Y4621021D02*
G01*
X9465563Y4668265D01*
X9447784Y4766310D02*
G01*
X9453879Y4754371D01*
X9465563Y4742687D01*
X9483343Y4736592D01*
X9495027Y4736592D01*
X9512808Y4742687D01*
X9524745Y4754371D01*
X9530588Y4766310D01*
X9530588Y4784089D01*
X9524745Y4795773D01*
X9512808Y4807712D01*
X9495027Y4813554D01*
X9483343Y4813554D01*
X9465563Y4807712D01*
X9453879Y4795773D01*
X9447784Y4784089D01*
X9447784Y4766310D01*
X9447784Y4852415D02*
G01*
X9530588Y4852415D01*
X9483343Y4852415D02*
G01*
X9465563Y4858512D01*
X9453879Y4870195D01*
X9447784Y4882134D01*
X9447784Y4899913D01*
X9447784Y4938776D02*
G01*
X9530588Y4938776D01*
X9471406Y4938776D02*
G01*
X9453879Y4956555D01*
X9447784Y4968239D01*
X9447784Y4986020D01*
X9453879Y4997957D01*
X9471406Y5003800D01*
X9530588Y5003800D01*
X9471406Y5003800D02*
G01*
X9453879Y5021579D01*
X9447784Y5033263D01*
X9447784Y5051044D01*
X9453879Y5062981D01*
X9471406Y5068823D01*
X9530588Y5068823D01*
X9447784Y5107686D02*
G01*
X9506965Y5107686D01*
X9524745Y5113781D01*
X9530588Y5125465D01*
X9530588Y5143245D01*
X9524745Y5155184D01*
X9506965Y5172710D01*
X9447784Y5172710D02*
G01*
X9530588Y5172710D01*
X9406636Y5211826D02*
G01*
X9530588Y5211826D01*
X9447784Y5321807D02*
G01*
X9530588Y5321807D01*
X9465563Y5321807D02*
G01*
X9453879Y5309870D01*
X9447784Y5298186D01*
X9447784Y5280405D01*
X9453879Y5268468D01*
X9465563Y5256784D01*
X9483343Y5250687D01*
X9495027Y5250687D01*
X9512808Y5256784D01*
X9524745Y5268468D01*
X9530588Y5280405D01*
X9530588Y5298186D01*
X9524745Y5309870D01*
X9512808Y5321807D01*
X9424161Y5534405D02*
G01*
X9412477Y5522721D01*
X9406636Y5504942D01*
X9406636Y5481320D01*
X9412477Y5463539D01*
X9424161Y5451602D01*
X9436100Y5451602D01*
X9447784Y5457697D01*
X9453879Y5463539D01*
X9459722Y5475478D01*
X9471406Y5510784D01*
X9477502Y5522721D01*
X9483343Y5528563D01*
X9495027Y5534405D01*
X9512808Y5534405D01*
X9524745Y5522721D01*
X9530588Y5504942D01*
X9530588Y5481320D01*
X9524745Y5463539D01*
X9512808Y5451602D01*
X9406636Y5620765D02*
G01*
X9530588Y5573521D01*
X9406636Y5620765D02*
G01*
X9530588Y5668010D01*
X9489186Y5591047D02*
G01*
X9489186Y5650229D01*
X9406636Y5706871D02*
G01*
X9530588Y5706871D01*
X9406636Y5706871D02*
G01*
X9406636Y5783834D01*
X9465563Y5706871D02*
G01*
X9465563Y5754370D01*
X9530588Y5706871D02*
G01*
X9530588Y5783834D01*
X9406636Y5913881D02*
G01*
X9530588Y5913881D01*
X9530588Y5913881D02*
G01*
X9530588Y5984747D01*
X9447784Y6094729D02*
G01*
X9530588Y6094729D01*
X9465563Y6094729D02*
G01*
X9453879Y6082792D01*
X9447784Y6071107D01*
X9447784Y6053328D01*
X9453879Y6041389D01*
X9465563Y6029705D01*
X9483343Y6023610D01*
X9495027Y6023610D01*
X9512808Y6029705D01*
X9524745Y6041389D01*
X9530588Y6053328D01*
X9530588Y6071107D01*
X9524745Y6082792D01*
X9512808Y6094729D01*
X9447784Y6133592D02*
G01*
X9571990Y6133592D01*
X9465563Y6133592D02*
G01*
X9453879Y6145529D01*
X9447784Y6157213D01*
X9447784Y6174994D01*
X9453879Y6186931D01*
X9465563Y6198615D01*
X9483343Y6204457D01*
X9495027Y6204457D01*
X9512808Y6198615D01*
X9524745Y6186931D01*
X9530588Y6174994D01*
X9530588Y6157213D01*
X9524745Y6145529D01*
X9512808Y6133592D01*
X9406636Y6375907D02*
G01*
X9530588Y6375907D01*
X9406636Y6334505D02*
G01*
X9406636Y6417310D01*
X9406636Y6456171D02*
G01*
X9412477Y6462268D01*
X9406636Y6468110D01*
X9400540Y6462268D01*
X9406636Y6456171D01*
X9447784Y6462268D02*
G01*
X9530588Y6462268D01*
X9447784Y6506971D02*
G01*
X9530588Y6506971D01*
X9471406Y6506971D02*
G01*
X9453879Y6524752D01*
X9447784Y6536689D01*
X9447784Y6554470D01*
X9453879Y6566154D01*
X9471406Y6571995D01*
X9530588Y6571995D01*
X9471406Y6571995D02*
G01*
X9453879Y6589776D01*
X9447784Y6601713D01*
X9447784Y6619239D01*
X9453879Y6631178D01*
X9471406Y6637020D01*
X9530588Y6637020D01*
X9483343Y6676136D02*
G01*
X9483343Y6747002D01*
X9471406Y6747002D01*
X9459722Y6741160D01*
X9453879Y6735063D01*
X9447784Y6723379D01*
X9447784Y6705600D01*
X9453879Y6693915D01*
X9465563Y6681978D01*
X9483343Y6676136D01*
X9495027Y6676136D01*
X9512808Y6681978D01*
X9524745Y6693915D01*
X9530588Y6705600D01*
X9530588Y6723379D01*
X9524745Y6735063D01*
X9512808Y6747002D01*
X9447784Y6785863D02*
G01*
X9530588Y6785863D01*
X9483343Y6785863D02*
G01*
X9465563Y6791960D01*
X9453879Y6803644D01*
X9447784Y6815581D01*
X9447784Y6833362D01*
D23*
X2552700Y5652515D02*
G01*
X2552700Y5543550D01*
X2552700Y5543550D02*
G01*
X2614929Y5543550D01*
X2649220Y5652515D02*
G01*
X2649220Y5543550D01*
X2649220Y5652515D02*
G01*
X2716784Y5652515D01*
X2649220Y5600700D02*
G01*
X2690875Y5600700D01*
X2649220Y5543550D02*
G01*
X2716784Y5543550D01*
X2751074Y5652515D02*
G01*
X2751074Y5543550D01*
X2751074Y5652515D02*
G01*
X2787650Y5652515D01*
X2803143Y5647436D01*
X2813558Y5637021D01*
X2818638Y5626607D01*
X2823972Y5610860D01*
X2823972Y5584952D01*
X2818638Y5569457D01*
X2813558Y5559044D01*
X2803143Y5548629D01*
X2787650Y5543550D01*
X2751074Y5543550D01*
X6577329Y9526015D02*
G01*
X6525513Y9526015D01*
X6520179Y9479279D01*
X6525513Y9484360D01*
X6541008Y9489694D01*
X6556756Y9489694D01*
X6572250Y9484360D01*
X6582663Y9474200D01*
X6587743Y9458452D01*
X6587743Y9448037D01*
X6582663Y9432544D01*
X6572250Y9422129D01*
X6556756Y9417050D01*
X6541008Y9417050D01*
X6525513Y9422129D01*
X6520179Y9427210D01*
X6515100Y9437624D01*
X6622034Y9526015D02*
G01*
X6663690Y9417050D01*
X6705345Y9526015D02*
G01*
X6663690Y9417050D01*
X8868156Y8725915D02*
G01*
X8826500Y8616950D01*
X8868156Y8725915D02*
G01*
X8909558Y8616950D01*
X8841993Y8653271D02*
G01*
X8894063Y8653271D01*
X8975090Y8725915D02*
G01*
X8959595Y8720836D01*
X8949181Y8705087D01*
X8943847Y8679179D01*
X8943847Y8663686D01*
X8949181Y8637524D01*
X8959595Y8622029D01*
X8975090Y8616950D01*
X8985504Y8616950D01*
X9000997Y8622029D01*
X9011411Y8637524D01*
X9016745Y8663686D01*
X9016745Y8679179D01*
X9011411Y8705087D01*
X9000997Y8720836D01*
X8985504Y8725915D01*
X8975090Y8725915D01*
X8563356Y8725915D02*
G01*
X8521700Y8616950D01*
X8563356Y8725915D02*
G01*
X8604758Y8616950D01*
X8537193Y8653271D02*
G01*
X8589263Y8653271D01*
X8639047Y8705087D02*
G01*
X8649461Y8710421D01*
X8665209Y8725915D01*
X8665209Y8616950D01*
X8258556Y8725915D02*
G01*
X8216900Y8616950D01*
X8258556Y8725915D02*
G01*
X8299958Y8616950D01*
X8232393Y8653271D02*
G01*
X8284463Y8653271D01*
X8339581Y8700008D02*
G01*
X8339581Y8705087D01*
X8344661Y8715502D01*
X8349995Y8720836D01*
X8360409Y8725915D01*
X8380984Y8725915D01*
X8391397Y8720836D01*
X8396731Y8715502D01*
X8401811Y8705087D01*
X8401811Y8694674D01*
X8396731Y8684260D01*
X8386318Y8668765D01*
X8334247Y8616950D01*
X8407145Y8616950D01*
X7953756Y8725915D02*
G01*
X7912100Y8616950D01*
X7953756Y8725915D02*
G01*
X7995158Y8616950D01*
X7927593Y8653271D02*
G01*
X7979663Y8653271D01*
X8039861Y8725915D02*
G01*
X8097011Y8725915D01*
X8065770Y8684260D01*
X8081518Y8684260D01*
X8091931Y8679179D01*
X8097011Y8674100D01*
X8102345Y8658352D01*
X8102345Y8647937D01*
X8097011Y8632444D01*
X8086597Y8622029D01*
X8071104Y8616950D01*
X8055609Y8616950D01*
X8039861Y8622029D01*
X8034781Y8627110D01*
X8029447Y8637524D01*
X7648956Y8725915D02*
G01*
X7607300Y8616950D01*
X7648956Y8725915D02*
G01*
X7690358Y8616950D01*
X7622793Y8653271D02*
G01*
X7674863Y8653271D01*
X7776718Y8725915D02*
G01*
X7724647Y8653271D01*
X7802625Y8653271D01*
X7776718Y8725915D02*
G01*
X7776718Y8616950D01*
X7344156Y8725915D02*
G01*
X7302500Y8616950D01*
X7344156Y8725915D02*
G01*
X7385558Y8616950D01*
X7317993Y8653271D02*
G01*
X7370063Y8653271D01*
X7482331Y8725915D02*
G01*
X7430261Y8725915D01*
X7425181Y8679179D01*
X7430261Y8684260D01*
X7446009Y8689594D01*
X7461504Y8689594D01*
X7476997Y8684260D01*
X7487411Y8674100D01*
X7492745Y8658352D01*
X7492745Y8647937D01*
X7487411Y8632444D01*
X7476997Y8622029D01*
X7461504Y8616950D01*
X7446009Y8616950D01*
X7430261Y8622029D01*
X7425181Y8627110D01*
X7419847Y8637524D01*
X7039356Y8725915D02*
G01*
X6997700Y8616950D01*
X7039356Y8725915D02*
G01*
X7080758Y8616950D01*
X7013193Y8653271D02*
G01*
X7065263Y8653271D01*
X7177531Y8710421D02*
G01*
X7172197Y8720836D01*
X7156704Y8725915D01*
X7146290Y8725915D01*
X7130795Y8720836D01*
X7120381Y8705087D01*
X7115047Y8679179D01*
X7115047Y8653271D01*
X7120381Y8632444D01*
X7130795Y8622029D01*
X7146290Y8616950D01*
X7151370Y8616950D01*
X7167118Y8622029D01*
X7177531Y8632444D01*
X7182611Y8647937D01*
X7182611Y8653271D01*
X7177531Y8668765D01*
X7167118Y8679179D01*
X7151370Y8684260D01*
X7146290Y8684260D01*
X7130795Y8679179D01*
X7120381Y8668765D01*
X7115047Y8653271D01*
X6734556Y8725915D02*
G01*
X6692900Y8616950D01*
X6734556Y8725915D02*
G01*
X6775958Y8616950D01*
X6708393Y8653271D02*
G01*
X6760463Y8653271D01*
X6883145Y8725915D02*
G01*
X6831075Y8616950D01*
X6810247Y8725915D02*
G01*
X6883145Y8725915D01*
X2857500Y6401815D02*
G01*
X2857500Y6292850D01*
X2857500Y6401815D02*
G01*
X2893822Y6401815D01*
X2909570Y6396736D01*
X2919729Y6386321D01*
X2925063Y6375907D01*
X2930143Y6360160D01*
X2930143Y6334252D01*
X2925063Y6318757D01*
X2919729Y6308344D01*
X2909570Y6297929D01*
X2893822Y6292850D01*
X2857500Y6292850D01*
X3026918Y6386321D02*
G01*
X3021584Y6396736D01*
X3006090Y6401815D01*
X2995675Y6401815D01*
X2980181Y6396736D01*
X2969768Y6380987D01*
X2964434Y6355079D01*
X2964434Y6329171D01*
X2969768Y6308344D01*
X2980181Y6297929D01*
X2995675Y6292850D01*
X3001009Y6292850D01*
X3016504Y6297929D01*
X3026918Y6308344D01*
X3031997Y6323837D01*
X3031997Y6329171D01*
X3026918Y6344665D01*
X3016504Y6355079D01*
X3001009Y6360160D01*
X2995675Y6360160D01*
X2980181Y6355079D01*
X2969768Y6344665D01*
X2964434Y6329171D01*
X3365500Y6401815D02*
G01*
X3365500Y6292850D01*
X3365500Y6401815D02*
G01*
X3401822Y6401815D01*
X3417570Y6396736D01*
X3427729Y6386321D01*
X3433063Y6375907D01*
X3438143Y6360160D01*
X3438143Y6334252D01*
X3433063Y6318757D01*
X3427729Y6308344D01*
X3417570Y6297929D01*
X3401822Y6292850D01*
X3365500Y6292850D01*
X3545331Y6401815D02*
G01*
X3493261Y6292850D01*
X3472434Y6401815D02*
G01*
X3545331Y6401815D01*
X3860800Y6401815D02*
G01*
X3860800Y6292850D01*
X3860800Y6401815D02*
G01*
X3897122Y6401815D01*
X3912870Y6396736D01*
X3923029Y6386321D01*
X3928363Y6375907D01*
X3933443Y6360160D01*
X3933443Y6334252D01*
X3928363Y6318757D01*
X3923029Y6308344D01*
X3912870Y6297929D01*
X3897122Y6292850D01*
X3860800Y6292850D01*
X3993895Y6401815D02*
G01*
X3978147Y6396736D01*
X3973068Y6386321D01*
X3973068Y6375907D01*
X3978147Y6365494D01*
X3988561Y6360160D01*
X4009390Y6355079D01*
X4024884Y6350000D01*
X4035297Y6339586D01*
X4040631Y6329171D01*
X4040631Y6313423D01*
X4035297Y6303010D01*
X4030218Y6297929D01*
X4014470Y6292850D01*
X3993895Y6292850D01*
X3978147Y6297929D01*
X3973068Y6303010D01*
X3967734Y6313423D01*
X3967734Y6329171D01*
X3973068Y6339586D01*
X3983481Y6350000D01*
X3998975Y6355079D01*
X4019804Y6360160D01*
X4030218Y6365494D01*
X4035297Y6375907D01*
X4035297Y6386321D01*
X4030218Y6396736D01*
X4014470Y6401815D01*
X3993895Y6401815D01*
X6872477Y9500108D02*
G01*
X6867143Y9510521D01*
X6856729Y9520936D01*
X6846570Y9526015D01*
X6825741Y9526015D01*
X6815327Y9520936D01*
X6804913Y9510521D01*
X6799579Y9500108D01*
X6794500Y9484360D01*
X6794500Y9458452D01*
X6799579Y9442958D01*
X6804913Y9432544D01*
X6815327Y9422129D01*
X6825741Y9417050D01*
X6846570Y9417050D01*
X6856729Y9422129D01*
X6867143Y9432544D01*
X6872477Y9442958D01*
X6872477Y9458452D01*
X6846570Y9458452D02*
G01*
X6872477Y9458452D01*
X6906768Y9526015D02*
G01*
X6906768Y9417050D01*
X6906768Y9526015D02*
G01*
X6979411Y9417050D01*
X6979411Y9526015D02*
G01*
X6979411Y9417050D01*
X7013702Y9526015D02*
G01*
X7013702Y9417050D01*
X7013702Y9526015D02*
G01*
X7050024Y9526015D01*
X7065772Y9520936D01*
X7076186Y9510521D01*
X7081265Y9500108D01*
X7086600Y9484360D01*
X7086600Y9458452D01*
X7081265Y9442958D01*
X7076186Y9432544D01*
X7065772Y9422129D01*
X7050024Y9417050D01*
X7013702Y9417050D01*
X6146800Y9526015D02*
G01*
X6188456Y9417050D01*
X6229858Y9526015D02*
G01*
X6188456Y9417050D01*
X6264147Y9526015D02*
G01*
X6264147Y9417050D01*
X6298438Y9526015D02*
G01*
X6298438Y9417050D01*
X6298438Y9526015D02*
G01*
X6371336Y9417050D01*
X6371336Y9526015D02*
G01*
X6371336Y9417050D01*
D20*
X8890000Y8188705D02*
G01*
X8903715Y8195310D01*
X8924036Y8215884D01*
X8924036Y8072628D01*
X9009888Y8215884D02*
G01*
X8989568Y8209026D01*
X8975852Y8188705D01*
X8968993Y8154415D01*
X8968993Y8134095D01*
X8975852Y8100060D01*
X8989568Y8079486D01*
X9009888Y8072628D01*
X9023604Y8072628D01*
X9044177Y8079486D01*
X9057640Y8100060D01*
X9064497Y8134095D01*
X9064497Y8154415D01*
X9057640Y8188705D01*
X9044177Y8209026D01*
X9023604Y8215884D01*
X9009888Y8215884D01*
X9150350Y8215884D02*
G01*
X9130029Y8209026D01*
X9116313Y8188705D01*
X9109456Y8154415D01*
X9109456Y8134095D01*
X9116313Y8100060D01*
X9130029Y8079486D01*
X9150350Y8072628D01*
X9164065Y8072628D01*
X9184640Y8079486D01*
X9198102Y8100060D01*
X9204959Y8134095D01*
X9204959Y8154415D01*
X9198102Y8188705D01*
X9184640Y8209026D01*
X9164065Y8215884D01*
X9150350Y8215884D01*
X9290811Y8215884D02*
G01*
X9270491Y8209026D01*
X9256775Y8188705D01*
X9249918Y8154415D01*
X9249918Y8134095D01*
X9256775Y8100060D01*
X9270491Y8079486D01*
X9290811Y8072628D01*
X9304527Y8072628D01*
X9325102Y8079486D01*
X9338563Y8100060D01*
X9345422Y8134095D01*
X9345422Y8154415D01*
X9338563Y8188705D01*
X9325102Y8209026D01*
X9304527Y8215884D01*
X9290811Y8215884D01*
X9390379Y8168131D02*
G01*
X9390379Y8100060D01*
X9397238Y8079486D01*
X9410954Y8072628D01*
X9431274Y8072628D01*
X9444990Y8079486D01*
X9465563Y8100060D01*
X9465563Y8168131D02*
G01*
X9465563Y8072628D01*
X9510522Y8215884D02*
G01*
X9510522Y8072628D01*
X9510522Y8215884D02*
G01*
X9599168Y8215884D01*
X9510522Y8147558D02*
G01*
X9564877Y8147558D01*
X10450322Y4838700D02*
G01*
X10644124Y4838700D01*
X10450322Y4838700D02*
G01*
X10450322Y4921757D01*
X10459465Y4949444D01*
X10468609Y4958842D01*
X10487152Y4967986D01*
X10505693Y4967986D01*
X10524236Y4958842D01*
X10533379Y4949444D01*
X10542524Y4921757D01*
X10542524Y4838700D01*
X10542524Y4903470D02*
G01*
X10644124Y4967986D01*
X10865614Y7226300D02*
G01*
X10860280Y7237221D01*
X10843770Y7253478D01*
X10958324Y7253478D01*
X10640570Y7402321D02*
G01*
X10640570Y7462265D01*
X10684258Y7429500D01*
X10684258Y7446010D01*
X10689846Y7456931D01*
X10695180Y7462265D01*
X10711436Y7467854D01*
X10722358Y7467854D01*
X10738868Y7462265D01*
X10749790Y7451344D01*
X10755124Y7435087D01*
X10755124Y7418578D01*
X10749790Y7402321D01*
X10744202Y7396734D01*
X10733280Y7391400D01*
X11364470Y6504431D02*
G01*
X11364470Y6449821D01*
X11413746Y6444234D01*
X11408158Y6449821D01*
X11402824Y6466078D01*
X11402824Y6482587D01*
X11408158Y6498844D01*
X11419080Y6509765D01*
X11435336Y6515354D01*
X11446258Y6515354D01*
X11462768Y6509765D01*
X11473690Y6498844D01*
X11479024Y6482587D01*
X11479024Y6466078D01*
X11473690Y6449821D01*
X11468102Y6444234D01*
X11457180Y6438900D01*
X11339070Y7404354D02*
G01*
X11453624Y7349744D01*
X11339070Y7327900D02*
G01*
X11339070Y7404354D01*
X10246870Y6567678D02*
G01*
X10252458Y6551421D01*
X10263380Y6545834D01*
X10274302Y6545834D01*
X10285224Y6551421D01*
X10290558Y6562344D01*
X10296146Y6584187D01*
X10301480Y6600444D01*
X10312402Y6611365D01*
X10323324Y6616954D01*
X10339580Y6616954D01*
X10350502Y6611365D01*
X10356090Y6606031D01*
X10361424Y6589521D01*
X10361424Y6567678D01*
X10356090Y6551421D01*
X10350502Y6545834D01*
X10339580Y6540500D01*
X10323324Y6540500D01*
X10312402Y6545834D01*
X10301480Y6556755D01*
X10296146Y6573265D01*
X10290558Y6595110D01*
X10285224Y6606031D01*
X10274302Y6611365D01*
X10263380Y6611365D01*
X10252458Y6606031D01*
X10246870Y6589521D01*
X10246870Y6567678D01*
X10593580Y6898131D02*
G01*
X10582658Y6892544D01*
X10577070Y6876287D01*
X10577070Y6865365D01*
X10582658Y6848855D01*
X10598914Y6837934D01*
X10626346Y6832600D01*
X10653524Y6832600D01*
X10675368Y6837934D01*
X10686290Y6848855D01*
X10691624Y6865365D01*
X10691624Y6870700D01*
X10686290Y6887210D01*
X10675368Y6898131D01*
X10658858Y6903465D01*
X10653524Y6903465D01*
X10637268Y6898131D01*
X10626346Y6887210D01*
X10620758Y6870700D01*
X10620758Y6865365D01*
X10626346Y6848855D01*
X10637268Y6837934D01*
X10653524Y6832600D01*
X10729470Y6899910D02*
G01*
X10805924Y6845300D01*
X10805924Y6927087D01*
X10729470Y6899910D02*
G01*
X10844024Y6899910D01*
X10845802Y7041134D02*
G01*
X10840214Y7041134D01*
X10829292Y7046721D01*
X10823958Y7052055D01*
X10818370Y7062978D01*
X10818370Y7084821D01*
X10823958Y7095744D01*
X10829292Y7101331D01*
X10840214Y7106665D01*
X10851136Y7106665D01*
X10862058Y7101331D01*
X10878568Y7090410D01*
X10932924Y7035800D01*
X10932924Y7112254D01*
X10052811Y6705600D02*
G01*
X10047477Y6716521D01*
X10030968Y6732778D01*
X10145522Y6732778D01*
X10058400Y6934708D02*
G01*
X10047477Y6929120D01*
X10036556Y6918452D01*
X10030968Y6907529D01*
X10030968Y6885686D01*
X10036556Y6874763D01*
X10047477Y6863842D01*
X10058400Y6858254D01*
X10074656Y6852920D01*
X10101834Y6852920D01*
X10118343Y6858254D01*
X10129265Y6863842D01*
X10140188Y6874763D01*
X10145522Y6885686D01*
X10145522Y6907529D01*
X10140188Y6918452D01*
X10129265Y6929120D01*
X10118343Y6934708D01*
X10101834Y6934708D01*
X10101834Y6907529D02*
G01*
X10101834Y6934708D01*
X10030968Y6970776D02*
G01*
X10145522Y6970776D01*
X10030968Y6970776D02*
G01*
X10145522Y7046976D01*
X10030968Y7046976D02*
G01*
X10145522Y7046976D01*
X10030968Y7083044D02*
G01*
X10145522Y7083044D01*
X10030968Y7083044D02*
G01*
X10030968Y7121144D01*
X10036556Y7137654D01*
X10047477Y7148576D01*
X10058400Y7153910D01*
X10074656Y7159497D01*
X10101834Y7159497D01*
X10118343Y7153910D01*
X10129265Y7148576D01*
X10140188Y7137654D01*
X10145522Y7121144D01*
X10145522Y7083044D01*
X10401302Y7053834D02*
G01*
X10395714Y7053834D01*
X10384792Y7059421D01*
X10379458Y7064755D01*
X10373870Y7075678D01*
X10373870Y7097521D01*
X10379458Y7108444D01*
X10384792Y7114031D01*
X10395714Y7119365D01*
X10406636Y7119365D01*
X10417558Y7114031D01*
X10434068Y7103110D01*
X10488424Y7048500D01*
X10488424Y7124954D01*
X10373870Y7244842D02*
G01*
X10488424Y7288529D01*
X10373870Y7332218D02*
G01*
X10488424Y7288529D01*
X10401302Y7450073D02*
G01*
X10390380Y7444486D01*
X10379458Y7433563D01*
X10373870Y7422642D01*
X10373870Y7400797D01*
X10379458Y7389876D01*
X10390380Y7378954D01*
X10401302Y7373620D01*
X10417558Y7368031D01*
X10444736Y7368031D01*
X10461246Y7373620D01*
X10472168Y7378954D01*
X10483090Y7389876D01*
X10488424Y7400797D01*
X10488424Y7422642D01*
X10483090Y7433563D01*
X10472168Y7444486D01*
X10461246Y7450073D01*
X10401302Y7567676D02*
G01*
X10390380Y7562342D01*
X10379458Y7551420D01*
X10373870Y7540497D01*
X10373870Y7518654D01*
X10379458Y7507731D01*
X10390380Y7496810D01*
X10401302Y7491476D01*
X10417558Y7485887D01*
X10444736Y7485887D01*
X10461246Y7491476D01*
X10472168Y7496810D01*
X10483090Y7507731D01*
X10488424Y7518654D01*
X10488424Y7540497D01*
X10483090Y7551420D01*
X10472168Y7562342D01*
X10461246Y7567676D01*
X10767570Y7643621D02*
G01*
X10767570Y7703565D01*
X10811258Y7670800D01*
X10811258Y7687310D01*
X10816846Y7698231D01*
X10822180Y7703565D01*
X10838436Y7709154D01*
X10849358Y7709154D01*
X10865868Y7703565D01*
X10876790Y7692644D01*
X10882124Y7676387D01*
X10882124Y7659878D01*
X10876790Y7643621D01*
X10871202Y7638034D01*
X10860280Y7632700D01*
X10795002Y7910829D02*
G01*
X10784080Y7905495D01*
X10773158Y7894573D01*
X10767570Y7883652D01*
X10767570Y7861808D01*
X10773158Y7850886D01*
X10784080Y7839963D01*
X10795002Y7834629D01*
X10811258Y7829042D01*
X10838436Y7829042D01*
X10854946Y7834629D01*
X10865868Y7839963D01*
X10876790Y7850886D01*
X10882124Y7861808D01*
X10882124Y7883652D01*
X10876790Y7894573D01*
X10865868Y7905495D01*
X10854946Y7910829D01*
X10767570Y7946897D02*
G01*
X10882124Y7946897D01*
X10767570Y7946897D02*
G01*
X10767570Y8017763D01*
X10822180Y7946897D02*
G01*
X10822180Y7990586D01*
X10882124Y7946897D02*
G01*
X10882124Y8017763D01*
X11440670Y7382510D02*
G01*
X11517124Y7327900D01*
X11517124Y7409687D01*
X11440670Y7382510D02*
G01*
X11555224Y7382510D01*
X11468102Y7611618D02*
G01*
X11457180Y7606029D01*
X11446258Y7595108D01*
X11440670Y7584186D01*
X11440670Y7562342D01*
X11446258Y7551420D01*
X11457180Y7540752D01*
X11468102Y7535163D01*
X11484358Y7529829D01*
X11511536Y7529829D01*
X11528046Y7535163D01*
X11538968Y7540752D01*
X11549890Y7551420D01*
X11555224Y7562342D01*
X11555224Y7584186D01*
X11549890Y7595108D01*
X11538968Y7606029D01*
X11528046Y7611618D01*
X11457180Y7723886D02*
G01*
X11446258Y7712963D01*
X11440670Y7696708D01*
X11440670Y7674863D01*
X11446258Y7658354D01*
X11457180Y7647431D01*
X11468102Y7647431D01*
X11479024Y7653020D01*
X11484358Y7658354D01*
X11489946Y7669276D01*
X11500868Y7702042D01*
X11506202Y7712963D01*
X11511536Y7718552D01*
X11522458Y7723886D01*
X11538968Y7723886D01*
X11549890Y7712963D01*
X11555224Y7696708D01*
X11555224Y7674863D01*
X11549890Y7658354D01*
X11538968Y7647431D01*
X11440670Y7759954D02*
G01*
X11555224Y7759954D01*
X11440670Y7759954D02*
G01*
X11555224Y7836154D01*
X11440670Y7836154D02*
G01*
X11555224Y7836154D01*
X10500868Y6110731D02*
G01*
X10500868Y6056121D01*
X10550143Y6050534D01*
X10544556Y6056121D01*
X10539222Y6072378D01*
X10539222Y6088887D01*
X10544556Y6105144D01*
X10555477Y6116065D01*
X10571734Y6121654D01*
X10582656Y6121654D01*
X10599165Y6116065D01*
X10610088Y6105144D01*
X10615422Y6088887D01*
X10615422Y6072378D01*
X10610088Y6056121D01*
X10604500Y6050534D01*
X10593577Y6045200D01*
X10517377Y6317995D02*
G01*
X10506456Y6307073D01*
X10500868Y6290563D01*
X10500868Y6268720D01*
X10506456Y6252463D01*
X10517377Y6241542D01*
X10528300Y6241542D01*
X10539222Y6247129D01*
X10544556Y6252463D01*
X10550143Y6263386D01*
X10561065Y6296152D01*
X10566400Y6307073D01*
X10571734Y6312407D01*
X10582656Y6317995D01*
X10599165Y6317995D01*
X10610088Y6307073D01*
X10615422Y6290563D01*
X10615422Y6268720D01*
X10610088Y6252463D01*
X10599165Y6241542D01*
X10528300Y6435852D02*
G01*
X10517377Y6430263D01*
X10506456Y6419342D01*
X10500868Y6408420D01*
X10500868Y6386576D01*
X10506456Y6375654D01*
X10517377Y6364731D01*
X10528300Y6359397D01*
X10544556Y6353810D01*
X10571734Y6353810D01*
X10588243Y6359397D01*
X10599165Y6364731D01*
X10610088Y6375654D01*
X10615422Y6386576D01*
X10615422Y6408420D01*
X10610088Y6419342D01*
X10599165Y6430263D01*
X10588243Y6435852D01*
X10500868Y6471665D02*
G01*
X10615422Y6471665D01*
X10500868Y6548120D02*
G01*
X10577322Y6471665D01*
X10550143Y6499097D02*
G01*
X10615422Y6548120D01*
X10872980Y6148831D02*
G01*
X10862058Y6143244D01*
X10856470Y6126987D01*
X10856470Y6116065D01*
X10862058Y6099555D01*
X10878314Y6088634D01*
X10905746Y6083300D01*
X10932924Y6083300D01*
X10954768Y6088634D01*
X10965690Y6099555D01*
X10971024Y6116065D01*
X10971024Y6121400D01*
X10965690Y6137910D01*
X10954768Y6148831D01*
X10938258Y6154165D01*
X10932924Y6154165D01*
X10916668Y6148831D01*
X10905746Y6137910D01*
X10900158Y6121400D01*
X10900158Y6116065D01*
X10905746Y6099555D01*
X10916668Y6088634D01*
X10932924Y6083300D01*
X10856470Y6274307D02*
G01*
X10971024Y6274307D01*
X10856470Y6274307D02*
G01*
X10971024Y6317742D01*
X10856470Y6361429D02*
G01*
X10971024Y6317742D01*
X10856470Y6361429D02*
G01*
X10971024Y6361429D01*
X10856470Y6430263D02*
G01*
X10862058Y6419342D01*
X10872980Y6408420D01*
X10883902Y6402831D01*
X10900158Y6397497D01*
X10927336Y6397497D01*
X10943846Y6402831D01*
X10954768Y6408420D01*
X10965690Y6419342D01*
X10971024Y6430263D01*
X10971024Y6452107D01*
X10965690Y6463029D01*
X10954768Y6473952D01*
X10943846Y6479286D01*
X10927336Y6484873D01*
X10900158Y6484873D01*
X10883902Y6479286D01*
X10872980Y6473952D01*
X10862058Y6463029D01*
X10856470Y6452107D01*
X10856470Y6430263D01*
X10872980Y6597142D02*
G01*
X10862058Y6586220D01*
X10856470Y6569963D01*
X10856470Y6548120D01*
X10862058Y6531610D01*
X10872980Y6520687D01*
X10883902Y6520687D01*
X10894824Y6526276D01*
X10900158Y6531610D01*
X10905746Y6542531D01*
X10916668Y6575297D01*
X10922002Y6586220D01*
X10927336Y6591554D01*
X10938258Y6597142D01*
X10954768Y6597142D01*
X10965690Y6586220D01*
X10971024Y6569963D01*
X10971024Y6548120D01*
X10965690Y6531610D01*
X10954768Y6520687D01*
X10856470Y6633210D02*
G01*
X10971024Y6633210D01*
X11034268Y7658354D02*
G01*
X11148822Y7603744D01*
X11034268Y7581900D02*
G01*
X11034268Y7658354D01*
X11034268Y7778242D02*
G01*
X11148822Y7778242D01*
X11034268Y7778242D02*
G01*
X11148822Y7821929D01*
X11034268Y7865618D02*
G01*
X11148822Y7821929D01*
X11034268Y7865618D02*
G01*
X11148822Y7865618D01*
X11034268Y7901431D02*
G01*
X11148822Y7901431D01*
X11050777Y8013954D02*
G01*
X11039856Y8003031D01*
X11034268Y7986521D01*
X11034268Y7964931D01*
X11039856Y7948421D01*
X11050777Y7937500D01*
X11061700Y7937500D01*
X11072622Y7943087D01*
X11077956Y7948421D01*
X11083543Y7959344D01*
X11094465Y7992110D01*
X11099800Y8003031D01*
X11105134Y8008365D01*
X11116056Y8013954D01*
X11132565Y8013954D01*
X11143488Y8003031D01*
X11148822Y7986521D01*
X11148822Y7964931D01*
X11143488Y7948421D01*
X11132565Y7937500D01*
X11034268Y8082534D02*
G01*
X11039856Y8071612D01*
X11050777Y8060689D01*
X11061700Y8055355D01*
X11077956Y8050021D01*
X11105134Y8050021D01*
X11121643Y8055355D01*
X11132565Y8060689D01*
X11143488Y8071612D01*
X11148822Y8082534D01*
X11148822Y8104378D01*
X11143488Y8115300D01*
X11132565Y8126221D01*
X11121643Y8131810D01*
X11105134Y8137144D01*
X11077956Y8137144D01*
X11061700Y8131810D01*
X11050777Y8126221D01*
X11039856Y8115300D01*
X11034268Y8104378D01*
X11034268Y8082534D01*
X11707370Y7050278D02*
G01*
X11712958Y7034021D01*
X11723880Y7028434D01*
X11734802Y7028434D01*
X11745724Y7034021D01*
X11751058Y7044944D01*
X11756646Y7066787D01*
X11761980Y7083044D01*
X11772902Y7093965D01*
X11783824Y7099554D01*
X11800080Y7099554D01*
X11811002Y7093965D01*
X11816590Y7088631D01*
X11821924Y7072121D01*
X11821924Y7050278D01*
X11816590Y7034021D01*
X11811002Y7028434D01*
X11800080Y7023100D01*
X11783824Y7023100D01*
X11772902Y7028434D01*
X11761980Y7039355D01*
X11756646Y7055865D01*
X11751058Y7077710D01*
X11745724Y7088631D01*
X11734802Y7093965D01*
X11723880Y7093965D01*
X11712958Y7088631D01*
X11707370Y7072121D01*
X11707370Y7050278D01*
X11707370Y7219442D02*
G01*
X11821924Y7219442D01*
X11707370Y7255510D02*
G01*
X11821924Y7255510D01*
X11707370Y7255510D02*
G01*
X11707370Y7304531D01*
X11712958Y7321042D01*
X11718292Y7326376D01*
X11729214Y7331710D01*
X11740136Y7331710D01*
X11751058Y7326376D01*
X11756646Y7321042D01*
X11761980Y7304531D01*
X11761980Y7255510D01*
X11761980Y7293610D02*
G01*
X11821924Y7331710D01*
X11707370Y7400544D02*
G01*
X11712958Y7389621D01*
X11723880Y7378700D01*
X11734802Y7373365D01*
X11751058Y7367778D01*
X11778236Y7367778D01*
X11794746Y7373365D01*
X11805668Y7378700D01*
X11816590Y7389621D01*
X11821924Y7400544D01*
X11821924Y7422387D01*
X11816590Y7433310D01*
X11805668Y7444231D01*
X11794746Y7449565D01*
X11778236Y7455154D01*
X11751058Y7455154D01*
X11734802Y7449565D01*
X11723880Y7444231D01*
X11712958Y7433310D01*
X11707370Y7422387D01*
X11707370Y7400544D01*
X11800080Y7416800D02*
G01*
X11832846Y7449565D01*
G36*
X9169400Y8051800D02*
G01*
X9067800Y8026400D01*
X8864600Y7899400D01*
X9575800Y7899400D01*
X9474200Y7975600D01*
X9321800Y8026400D01*
G37*
D10*
X2717800Y5334000D02*
G01*
X2730500Y5321300D01*
X2730500Y5321300D02*
G01*
X2730500Y5270500D01*
X2717800Y5257800D02*
G01*
X2730500Y5270500D01*
X2641600Y5334000D02*
G01*
X2628900Y5321300D01*
X2628900Y5321300D02*
G01*
X2628900Y5270500D01*
X2641600Y5257800D02*
G01*
X2628900Y5270500D01*
X3359302Y7625206D02*
G01*
X2709290Y7625206D01*
X2709290Y8025206D02*
G01*
X3359302Y8025206D01*
X3359302Y7625206D02*
G01*
X3359302Y7757165D01*
X3359302Y7889234D02*
G01*
X3359302Y8025206D01*
X2709290Y7625206D02*
G01*
X2709290Y7759496D01*
X2709290Y7886903D02*
G01*
X2709290Y8025206D01*
X3359302Y6723506D02*
G01*
X2709290Y6723506D01*
X2709290Y7123506D02*
G01*
X3359302Y7123506D01*
X3359302Y6723506D02*
G01*
X3359302Y6855465D01*
X3359302Y6987534D02*
G01*
X3359302Y7123506D01*
X2709290Y6723506D02*
G01*
X2709290Y6857796D01*
X2709290Y6985203D02*
G01*
X2709290Y7123506D01*
X2711297Y8478393D02*
G01*
X3361309Y8478393D01*
X3361309Y8078393D02*
G01*
X2711297Y8078393D01*
X2711297Y8478393D02*
G01*
X2711297Y8346434D01*
X2711297Y8214365D02*
G01*
X2711297Y8078393D01*
X3361309Y8478393D02*
G01*
X3361309Y8344103D01*
X3361309Y8216696D02*
G01*
X3361309Y8078393D01*
X2711297Y7576693D02*
G01*
X3361309Y7576693D01*
X3361309Y7176693D02*
G01*
X2711297Y7176693D01*
X2711297Y7576693D02*
G01*
X2711297Y7444734D01*
X2711297Y7312665D02*
G01*
X2711297Y7176693D01*
X3361309Y7576693D02*
G01*
X3361309Y7442403D01*
X3361309Y7314996D02*
G01*
X3361309Y7176693D01*
X3182620Y5334000D02*
G01*
X3182620Y5664200D01*
X3182620Y5664200D02*
G01*
X4081779Y5664200D01*
X4081779Y5664200D02*
G01*
X4081779Y5334000D01*
X4081779Y5334000D02*
G01*
X3182620Y5334000D01*
X3182620Y4914900D02*
G01*
X3182620Y5245100D01*
X3182620Y5245100D02*
G01*
X4081779Y5245100D01*
X4081779Y5245100D02*
G01*
X4081779Y4914900D01*
X4081779Y4914900D02*
G01*
X3182620Y4914900D01*
X4611801Y8941790D02*
G01*
X6411798Y8941790D01*
X6411798Y4621784D01*
X4611801Y4621784D01*
X4611801Y8941790D01*
D19*
X3756406Y7930134D02*
G01*
X3756406Y7259065D01*
X4117593Y7259065D02*
G01*
X4117593Y7930134D01*
X3704843Y7259065D02*
G01*
X3704843Y7930134D01*
X4169156Y7930134D02*
G01*
X4169156Y7259065D01*
D20*
X6731000Y9144000D02*
G01*
X6477000Y9144000D01*
X6477000Y9398000D01*
X6731000Y9398000D01*
X6731000Y9207500D01*
D21*
X6731000Y9144000D02*
G01*
X6731000Y9207500D01*
D20*
X9042400Y8343900D02*
G01*
X8788400Y8343900D01*
X8788400Y8597900D01*
X9042400Y8597900D01*
X9042400Y8407400D01*
D21*
X9042400Y8343900D02*
G01*
X9042400Y8407400D01*
D20*
X8737600Y8343900D02*
G01*
X8483600Y8343900D01*
X8483600Y8597900D01*
X8737600Y8597900D01*
X8737600Y8407400D01*
D21*
X8737600Y8343900D02*
G01*
X8737600Y8407400D01*
D20*
X8432800Y8343900D02*
G01*
X8178800Y8343900D01*
X8178800Y8597900D01*
X8432800Y8597900D01*
X8432800Y8407400D01*
D21*
X8432800Y8343900D02*
G01*
X8432800Y8407400D01*
D20*
X8128000Y8343900D02*
G01*
X7874000Y8343900D01*
X7874000Y8597900D01*
X8128000Y8597900D01*
X8128000Y8407400D01*
D21*
X8128000Y8343900D02*
G01*
X8128000Y8407400D01*
D20*
X7823200Y8343900D02*
G01*
X7569200Y8343900D01*
X7569200Y8597900D01*
X7823200Y8597900D01*
X7823200Y8407400D01*
D21*
X7823200Y8343900D02*
G01*
X7823200Y8407400D01*
D20*
X7518400Y8343900D02*
G01*
X7264400Y8343900D01*
X7264400Y8597900D01*
X7518400Y8597900D01*
X7518400Y8407400D01*
D21*
X7518400Y8343900D02*
G01*
X7518400Y8407400D01*
D20*
X7213600Y8343900D02*
G01*
X6959600Y8343900D01*
X6959600Y8597900D01*
X7213600Y8597900D01*
X7213600Y8407400D01*
D21*
X7213600Y8343900D02*
G01*
X7213600Y8407400D01*
D20*
X6908800Y8343900D02*
G01*
X6654800Y8343900D01*
X6654800Y8597900D01*
X6908800Y8597900D01*
X6908800Y8407400D01*
D21*
X6908800Y8343900D02*
G01*
X6908800Y8407400D01*
D20*
X3060700Y6019800D02*
G01*
X2806700Y6019800D01*
X2806700Y6273800D01*
X3060700Y6273800D01*
X3060700Y6083300D01*
D21*
X3060700Y6019800D02*
G01*
X3060700Y6083300D01*
D20*
X3568700Y6019800D02*
G01*
X3314700Y6019800D01*
X3314700Y6273800D01*
X3568700Y6273800D01*
X3568700Y6083300D01*
D21*
X3568700Y6019800D02*
G01*
X3568700Y6083300D01*
D20*
X4076700Y6019800D02*
G01*
X3822700Y6019800D01*
X3822700Y6273800D01*
X4076700Y6273800D01*
X4076700Y6083300D01*
D21*
X4076700Y6019800D02*
G01*
X4076700Y6083300D01*
D20*
X8839200Y9080500D02*
G01*
X8585200Y9080500D01*
X8585200Y9334500D01*
X8839200Y9334500D01*
X8839200Y9144000D01*
D21*
X8839200Y9080500D02*
G01*
X8839200Y9144000D01*
D20*
X3759200Y9093200D02*
G01*
X3505200Y9093200D01*
X3505200Y9347200D01*
X3759200Y9347200D01*
X3759200Y9156700D01*
D21*
X3759200Y9093200D02*
G01*
X3759200Y9156700D01*
D20*
X4089400Y9093200D02*
G01*
X3835400Y9093200D01*
X3835400Y9347200D01*
X4089400Y9347200D01*
X4089400Y9156700D01*
D21*
X4089400Y9093200D02*
G01*
X4089400Y9156700D01*
D20*
X7061200Y9144000D02*
G01*
X6807200Y9144000D01*
X6807200Y9398000D01*
X7061200Y9398000D01*
X7061200Y9207500D01*
D21*
X7061200Y9144000D02*
G01*
X7061200Y9207500D01*
D20*
X6400800Y9144000D02*
G01*
X6146800Y9144000D01*
X6146800Y9398000D01*
X6400800Y9398000D01*
X6400800Y9207500D01*
D21*
X6400800Y9144000D02*
G01*
X6400800Y9207500D01*
D10*
X9220200Y7086600D02*
G01*
X9220200Y7188200D01*
X9144000Y7137400D02*
G01*
X9296400Y7137400D01*
X6946188Y4950409D02*
G01*
X6946188Y7800416D01*
X8446185Y7800416D01*
X8446185Y4950409D01*
X6946188Y4950409D01*
G75*
G01*
X2705100Y5295900D02*
G03*
X2679700Y5321300I-25400J0D01*
G75*
G01*
X2679700Y5270500D02*
G02*
X2654300Y5295900I0J25400D01*
G75*
G01*
X2717800Y5334000D02*
G03*
X2641600Y5334000I-38100J-38099D01*
D19*
G75*
G01*
X3937000Y7026859D02*
G03*
X4169258Y7259117I0J232258D01*
G75*
G01*
X3756355Y7259117D02*
G03*
X3937000Y7078472I180645J0D01*
G75*
G01*
X3937000Y7078472D02*
G03*
X4117645Y7259117I0J180645D01*
G75*
G01*
X3937000Y8110728D02*
G03*
X3756355Y7930083I0J-180645D01*
G75*
G01*
X4117645Y7930083D02*
G03*
X3937000Y8110728I-180645J0D01*
G75*
G01*
X3704742Y7259117D02*
G03*
X3937000Y7026859I232258J0D01*
G75*
G01*
X3937000Y8162341D02*
G03*
X3704742Y7930083I0J-232258D01*
G75*
G01*
X4169258Y7930083D02*
G03*
X3937000Y8162341I-232258J0D01*
D10*
G75*
G01
X4940300Y8699500D02*
G03X4940300Y8699500I-63500J0D01*
G75*
G01
X9720072Y7543800D02*
G03X9720072Y7543800I-499872J0D01*
M02*
