G04 Layer: BottomLayer*
G04 EasyEDA v6.4.25, 2021-11-30T23:27:12--6:00*
G04 4631042daed448b99cc0a23d656375e8,06444aca9169495d970130cf6b44ba93,10*
G04 Gerber Generator version 0.2*
G04 Scale: 100 percent, Rotated: No, Reflected: No *
G04 Dimensions in millimeters *
G04 leading zeros omitted , absolute positions ,4 integer and 5 decimal *
%FSLAX45Y45*%
%MOMM*%

%ADD11C,0.3000*%
%ADD12C,0.6096*%
%ADD13R,1.2116X1.2116*%
%ADD14C,1.5240*%
%ADD15C,1.8796*%
%ADD16C,2.0320*%
%ADD17R,1.5748X1.5748*%
%ADD18C,1.6000*%

%LPD*%
G36*
X2194814Y3925570D02*
G01*
X2190902Y3926332D01*
X2187651Y3928567D01*
X2185416Y3931818D01*
X2184654Y3935729D01*
X2184654Y9565386D01*
X2185416Y9569246D01*
X2187651Y9572548D01*
X2190902Y9574784D01*
X2194814Y9575546D01*
X9781286Y9574276D01*
X9785197Y9573514D01*
X9788448Y9571329D01*
X9790684Y9568027D01*
X9791446Y9564116D01*
X9791446Y3935729D01*
X9790684Y3931818D01*
X9788448Y3928567D01*
X9785197Y3926332D01*
X9781286Y3925570D01*
G37*

%LPC*%
G36*
X8966200Y4117746D02*
G01*
X8985808Y4118711D01*
X9005265Y4121607D01*
X9024315Y4126382D01*
X9042857Y4132986D01*
X9060586Y4141368D01*
X9077452Y4151477D01*
X9093250Y4163212D01*
X9107779Y4176420D01*
X9120987Y4190949D01*
X9132722Y4206748D01*
X9142831Y4223613D01*
X9151213Y4241342D01*
X9157817Y4259884D01*
X9162592Y4278934D01*
X9165488Y4298391D01*
X9166453Y4318000D01*
X9165488Y4337608D01*
X9162592Y4357065D01*
X9157817Y4376115D01*
X9151213Y4394657D01*
X9142831Y4412386D01*
X9132722Y4429252D01*
X9120987Y4445050D01*
X9107779Y4459579D01*
X9093250Y4472787D01*
X9077452Y4484522D01*
X9060586Y4494631D01*
X9042857Y4503013D01*
X9024315Y4509617D01*
X9005265Y4514392D01*
X8985808Y4517288D01*
X8966200Y4518253D01*
X8946591Y4517288D01*
X8927134Y4514392D01*
X8908084Y4509617D01*
X8889542Y4503013D01*
X8871813Y4494631D01*
X8854948Y4484522D01*
X8839149Y4472787D01*
X8824620Y4459579D01*
X8811412Y4445050D01*
X8799677Y4429252D01*
X8789568Y4412386D01*
X8781186Y4394657D01*
X8774582Y4376115D01*
X8769807Y4357065D01*
X8766911Y4337608D01*
X8765946Y4318000D01*
X8766911Y4298391D01*
X8769807Y4278934D01*
X8774582Y4259884D01*
X8781186Y4241342D01*
X8789568Y4223613D01*
X8799677Y4206748D01*
X8811412Y4190949D01*
X8824620Y4176420D01*
X8839149Y4163212D01*
X8854948Y4151477D01*
X8871813Y4141368D01*
X8889542Y4132986D01*
X8908084Y4126382D01*
X8927134Y4121607D01*
X8946591Y4118711D01*
G37*
G36*
X2590800Y4117746D02*
G01*
X2610408Y4118711D01*
X2629865Y4121607D01*
X2648915Y4126382D01*
X2667457Y4132986D01*
X2685186Y4141368D01*
X2702052Y4151477D01*
X2717850Y4163212D01*
X2732379Y4176420D01*
X2745587Y4190949D01*
X2757322Y4206748D01*
X2767431Y4223613D01*
X2775813Y4241342D01*
X2782417Y4259884D01*
X2787192Y4278934D01*
X2790088Y4298391D01*
X2791053Y4318000D01*
X2790088Y4337608D01*
X2787192Y4357065D01*
X2782417Y4376115D01*
X2775813Y4394657D01*
X2767431Y4412386D01*
X2757322Y4429252D01*
X2745587Y4445050D01*
X2732379Y4459579D01*
X2717850Y4472787D01*
X2702052Y4484522D01*
X2685186Y4494631D01*
X2667457Y4503013D01*
X2648915Y4509617D01*
X2629865Y4514392D01*
X2610408Y4517288D01*
X2590800Y4518253D01*
X2571191Y4517288D01*
X2551734Y4514392D01*
X2532684Y4509617D01*
X2514142Y4503013D01*
X2496413Y4494631D01*
X2479548Y4484522D01*
X2463749Y4472787D01*
X2449220Y4459579D01*
X2436012Y4445050D01*
X2424277Y4429252D01*
X2414168Y4412386D01*
X2405786Y4394657D01*
X2399182Y4376115D01*
X2394407Y4357065D01*
X2391511Y4337608D01*
X2390546Y4318000D01*
X2391511Y4298391D01*
X2394407Y4278934D01*
X2399182Y4259884D01*
X2405786Y4241342D01*
X2414168Y4223613D01*
X2424277Y4206748D01*
X2436012Y4190949D01*
X2449220Y4176420D01*
X2463749Y4163212D01*
X2479548Y4151477D01*
X2496413Y4141368D01*
X2514142Y4132986D01*
X2532684Y4126382D01*
X2551734Y4121607D01*
X2571191Y4118711D01*
G37*
G36*
X6210706Y4748022D02*
G01*
X6552793Y4748022D01*
X6563410Y4748885D01*
X6573367Y4751273D01*
X6582816Y4755184D01*
X6591553Y4760518D01*
X6599631Y4767427D01*
X8097672Y6265468D01*
X8104581Y6273546D01*
X8109915Y6282283D01*
X8113826Y6291732D01*
X8116214Y6301689D01*
X8117078Y6312306D01*
X8117078Y7315758D01*
X8117636Y7319162D01*
X8119364Y7322159D01*
X8135670Y7334859D01*
X8146440Y7345629D01*
X8155889Y7357668D01*
X8163763Y7370724D01*
X8169554Y7383576D01*
X8171738Y7386726D01*
X8174990Y7388809D01*
X8178800Y7389571D01*
X8182609Y7388809D01*
X8185861Y7386726D01*
X8188045Y7383576D01*
X8193836Y7370724D01*
X8201710Y7357668D01*
X8211159Y7345629D01*
X8221929Y7334859D01*
X8233968Y7325410D01*
X8247024Y7317536D01*
X8260943Y7311288D01*
X8275523Y7306716D01*
X8290559Y7303973D01*
X8305800Y7303058D01*
X8321040Y7303973D01*
X8336076Y7306716D01*
X8350656Y7311288D01*
X8364575Y7317536D01*
X8377631Y7325410D01*
X8389670Y7334859D01*
X8400440Y7345629D01*
X8404250Y7349744D01*
X8406993Y7351064D01*
X8409990Y7351522D01*
X9049258Y7351522D01*
X9053169Y7350759D01*
X9056420Y7348575D01*
X9088374Y7316622D01*
X9090761Y7312863D01*
X9091320Y7308494D01*
X9089999Y7293660D01*
X9090456Y7278217D01*
X9092742Y7262977D01*
X9096806Y7248093D01*
X9102598Y7233767D01*
X9110065Y7220254D01*
X9119057Y7207707D01*
X9129471Y7196328D01*
X9141155Y7186269D01*
X9153956Y7177633D01*
X9167672Y7170623D01*
X9182150Y7165238D01*
X9197136Y7161580D01*
X9212478Y7159802D01*
X9227921Y7159802D01*
X9243263Y7161580D01*
X9258249Y7165238D01*
X9272727Y7170623D01*
X9286443Y7177633D01*
X9299244Y7186269D01*
X9310928Y7196328D01*
X9321342Y7207707D01*
X9330334Y7220254D01*
X9337802Y7233767D01*
X9343593Y7248093D01*
X9347657Y7262977D01*
X9349943Y7278217D01*
X9350400Y7293660D01*
X9349028Y7309053D01*
X9345828Y7324140D01*
X9340900Y7338771D01*
X9334246Y7352690D01*
X9326016Y7365746D01*
X9316313Y7377734D01*
X9305239Y7388453D01*
X9292945Y7397851D01*
X9279686Y7405674D01*
X9265564Y7411872D01*
X9250781Y7416393D01*
X9235592Y7419136D01*
X9220200Y7420051D01*
X9204807Y7419136D01*
X9189618Y7416393D01*
X9182862Y7414361D01*
X9179255Y7413904D01*
X9175699Y7414818D01*
X9172702Y7416901D01*
X9126931Y7462672D01*
X9118854Y7469581D01*
X9110116Y7474915D01*
X9100667Y7478826D01*
X9090710Y7481214D01*
X9080093Y7482078D01*
X8427110Y7482078D01*
X8423351Y7482789D01*
X8420100Y7484922D01*
X8417763Y7488275D01*
X8409889Y7501331D01*
X8400440Y7513370D01*
X8389670Y7524140D01*
X8377631Y7533589D01*
X8364575Y7541463D01*
X8350656Y7547711D01*
X8336076Y7552283D01*
X8321040Y7555026D01*
X8305800Y7555941D01*
X8290559Y7555026D01*
X8275523Y7552283D01*
X8260943Y7547711D01*
X8247024Y7541463D01*
X8233968Y7533589D01*
X8221929Y7524140D01*
X8211159Y7513370D01*
X8201710Y7501331D01*
X8193836Y7488275D01*
X8188045Y7475423D01*
X8185861Y7472273D01*
X8182609Y7470190D01*
X8178800Y7469428D01*
X8174990Y7470190D01*
X8171738Y7472273D01*
X8169554Y7475423D01*
X8163763Y7488275D01*
X8155889Y7501331D01*
X8146440Y7513370D01*
X8135670Y7524140D01*
X8123631Y7533589D01*
X8110575Y7541463D01*
X8097723Y7547254D01*
X8094573Y7549438D01*
X8092490Y7552690D01*
X8091728Y7556500D01*
X8092490Y7560309D01*
X8094573Y7563561D01*
X8097723Y7565745D01*
X8110575Y7571536D01*
X8123631Y7579410D01*
X8135670Y7588859D01*
X8146440Y7599629D01*
X8155889Y7611668D01*
X8163763Y7624724D01*
X8170011Y7638643D01*
X8174583Y7653223D01*
X8177326Y7668259D01*
X8178241Y7683500D01*
X8177326Y7698740D01*
X8174583Y7713776D01*
X8170011Y7728356D01*
X8163763Y7742275D01*
X8155889Y7755331D01*
X8146440Y7767370D01*
X8135670Y7778140D01*
X8123631Y7787589D01*
X8110575Y7795463D01*
X8096656Y7801711D01*
X8082076Y7806283D01*
X8067040Y7809026D01*
X8051800Y7809941D01*
X8036559Y7809026D01*
X8021523Y7806283D01*
X8017560Y7805013D01*
X8013903Y7804607D01*
X8010347Y7805470D01*
X8007350Y7807553D01*
X7933131Y7881772D01*
X7925053Y7888681D01*
X7920431Y7891525D01*
X7917281Y7894523D01*
X7915706Y7898587D01*
X7915960Y7902956D01*
X7917992Y7906766D01*
X7921498Y7909407D01*
X7925714Y7910322D01*
X8419693Y7910322D01*
X8430310Y7911185D01*
X8440267Y7913573D01*
X8449716Y7917484D01*
X8458454Y7922818D01*
X8466531Y7929727D01*
X8875725Y8338921D01*
X8879027Y8341106D01*
X8882888Y8341868D01*
X8993682Y8341868D01*
X9002877Y8342680D01*
X9011310Y8344966D01*
X9019235Y8348675D01*
X9026448Y8353704D01*
X9032595Y8359851D01*
X9037624Y8367064D01*
X9041333Y8374989D01*
X9043619Y8383422D01*
X9044432Y8392617D01*
X9044432Y8549182D01*
X9043619Y8558377D01*
X9041333Y8566810D01*
X9037624Y8574735D01*
X9032595Y8581948D01*
X9026448Y8588095D01*
X9019235Y8593124D01*
X9011310Y8596833D01*
X9002877Y8599119D01*
X8993682Y8599881D01*
X8837117Y8599881D01*
X8827922Y8599119D01*
X8819489Y8596833D01*
X8811564Y8593124D01*
X8804351Y8588095D01*
X8798204Y8581948D01*
X8793175Y8574735D01*
X8789466Y8566810D01*
X8787180Y8558377D01*
X8786418Y8549182D01*
X8786418Y8438388D01*
X8785606Y8434527D01*
X8783421Y8431225D01*
X8756954Y8404758D01*
X8753652Y8402574D01*
X8749792Y8401761D01*
X8745880Y8402574D01*
X8742578Y8404758D01*
X8740394Y8408060D01*
X8739632Y8411921D01*
X8739632Y8549182D01*
X8738819Y8558377D01*
X8736533Y8566810D01*
X8732824Y8574735D01*
X8727795Y8581948D01*
X8721648Y8588095D01*
X8714435Y8593124D01*
X8706510Y8596833D01*
X8698077Y8599119D01*
X8688882Y8599881D01*
X8532317Y8599881D01*
X8523122Y8599119D01*
X8514689Y8596833D01*
X8506764Y8593124D01*
X8499551Y8588095D01*
X8493404Y8581948D01*
X8488375Y8574735D01*
X8484666Y8566810D01*
X8482380Y8558377D01*
X8481618Y8549182D01*
X8481618Y8438388D01*
X8480806Y8434527D01*
X8478621Y8431225D01*
X8452154Y8404758D01*
X8448852Y8402574D01*
X8444992Y8401761D01*
X8441080Y8402574D01*
X8437778Y8404758D01*
X8435594Y8408060D01*
X8434832Y8411921D01*
X8434832Y8549182D01*
X8434019Y8558377D01*
X8431733Y8566810D01*
X8428024Y8574735D01*
X8422995Y8581948D01*
X8416848Y8588095D01*
X8409635Y8593124D01*
X8401710Y8596833D01*
X8393277Y8599119D01*
X8384082Y8599881D01*
X8227517Y8599881D01*
X8218322Y8599119D01*
X8209889Y8596833D01*
X8201964Y8593124D01*
X8194751Y8588095D01*
X8188604Y8581948D01*
X8183575Y8574735D01*
X8179866Y8566810D01*
X8177580Y8558377D01*
X8176818Y8549182D01*
X8176818Y8438388D01*
X8176006Y8434527D01*
X8173821Y8431225D01*
X8147354Y8404758D01*
X8144052Y8402574D01*
X8140192Y8401761D01*
X8136280Y8402574D01*
X8132978Y8404758D01*
X8130794Y8408060D01*
X8130031Y8411921D01*
X8130031Y8549182D01*
X8129219Y8558377D01*
X8126933Y8566810D01*
X8123224Y8574735D01*
X8118195Y8581948D01*
X8112048Y8588095D01*
X8104835Y8593124D01*
X8096910Y8596833D01*
X8088477Y8599119D01*
X8079282Y8599881D01*
X7922717Y8599881D01*
X7913522Y8599119D01*
X7905089Y8596833D01*
X7897164Y8593124D01*
X7889951Y8588095D01*
X7883804Y8581948D01*
X7878775Y8574735D01*
X7875066Y8566810D01*
X7872780Y8558377D01*
X7872018Y8549182D01*
X7872018Y8438388D01*
X7871206Y8434527D01*
X7869021Y8431225D01*
X7842554Y8404758D01*
X7839252Y8402574D01*
X7835392Y8401761D01*
X7831480Y8402574D01*
X7828178Y8404758D01*
X7825994Y8408060D01*
X7825231Y8411921D01*
X7825231Y8549182D01*
X7824419Y8558377D01*
X7822133Y8566810D01*
X7818424Y8574735D01*
X7813395Y8581948D01*
X7807248Y8588095D01*
X7800035Y8593124D01*
X7792110Y8596833D01*
X7783677Y8599119D01*
X7774482Y8599881D01*
X7617917Y8599881D01*
X7608722Y8599119D01*
X7600289Y8596833D01*
X7592364Y8593124D01*
X7585151Y8588095D01*
X7579004Y8581948D01*
X7573975Y8574735D01*
X7570266Y8566810D01*
X7567980Y8558377D01*
X7567218Y8549182D01*
X7567218Y8392617D01*
X7567980Y8383422D01*
X7570266Y8374989D01*
X7573975Y8367064D01*
X7577734Y8361629D01*
X7579410Y8357616D01*
X7579207Y8353196D01*
X7577175Y8349284D01*
X7573721Y8346643D01*
X7569403Y8345678D01*
X7518196Y8345678D01*
X7513878Y8346643D01*
X7510424Y8349284D01*
X7508392Y8353196D01*
X7508189Y8357616D01*
X7509865Y8361629D01*
X7513624Y8367064D01*
X7517333Y8374989D01*
X7519619Y8383422D01*
X7520431Y8392617D01*
X7520431Y8549182D01*
X7519619Y8558377D01*
X7517333Y8566810D01*
X7513624Y8574735D01*
X7508595Y8581948D01*
X7502448Y8588095D01*
X7495235Y8593124D01*
X7487310Y8596833D01*
X7478877Y8599119D01*
X7469682Y8599881D01*
X7313117Y8599881D01*
X7303922Y8599119D01*
X7295489Y8596833D01*
X7287564Y8593124D01*
X7280351Y8588095D01*
X7274204Y8581948D01*
X7269175Y8574735D01*
X7265466Y8566810D01*
X7263180Y8558377D01*
X7262418Y8549182D01*
X7262418Y8392617D01*
X7263180Y8383422D01*
X7265466Y8374989D01*
X7269175Y8367064D01*
X7272934Y8361629D01*
X7274610Y8357616D01*
X7274407Y8353196D01*
X7272375Y8349284D01*
X7268921Y8346643D01*
X7264603Y8345678D01*
X7239406Y8345678D01*
X7228789Y8344814D01*
X7218832Y8342426D01*
X7210602Y8339023D01*
X7206742Y8338261D01*
X7202830Y8339023D01*
X7199528Y8341258D01*
X7197344Y8344560D01*
X7196581Y8348421D01*
X7197344Y8352332D01*
X7199528Y8355634D01*
X7203795Y8359851D01*
X7208824Y8367064D01*
X7212533Y8374989D01*
X7214819Y8383422D01*
X7215631Y8392617D01*
X7215631Y8549182D01*
X7214819Y8558377D01*
X7212533Y8566810D01*
X7208824Y8574735D01*
X7203795Y8581948D01*
X7197648Y8588095D01*
X7190435Y8593124D01*
X7182510Y8596833D01*
X7174077Y8599119D01*
X7164882Y8599881D01*
X7008317Y8599881D01*
X6999122Y8599119D01*
X6990689Y8596833D01*
X6982764Y8593124D01*
X6975551Y8588095D01*
X6969404Y8581948D01*
X6964375Y8574735D01*
X6960666Y8566810D01*
X6958380Y8558377D01*
X6957618Y8549182D01*
X6957618Y8392617D01*
X6958380Y8383422D01*
X6960666Y8374989D01*
X6964375Y8367064D01*
X6969404Y8359851D01*
X6975551Y8353704D01*
X6982764Y8348675D01*
X6990689Y8344966D01*
X6999122Y8342680D01*
X7008317Y8341868D01*
X7164882Y8341868D01*
X7174077Y8342680D01*
X7182510Y8344966D01*
X7185202Y8346186D01*
X7189216Y8347151D01*
X7193280Y8346440D01*
X7196734Y8344103D01*
X7198969Y8340648D01*
X7199630Y8336534D01*
X7198614Y8332571D01*
X7196074Y8329269D01*
X7192568Y8326272D01*
X6507327Y7641031D01*
X6500418Y7632953D01*
X6495084Y7624216D01*
X6491173Y7614767D01*
X6488785Y7604810D01*
X6487922Y7594193D01*
X6487922Y6838442D01*
X6487160Y6834530D01*
X6484975Y6831279D01*
X6416903Y6763207D01*
X6413550Y6760972D01*
X6409537Y6760260D01*
X6405575Y6761124D01*
X6402273Y6763512D01*
X6400190Y6767017D01*
X6399580Y6771030D01*
X6400241Y6781800D01*
X6399326Y6797040D01*
X6396583Y6812076D01*
X6392011Y6826656D01*
X6385763Y6840575D01*
X6377889Y6853631D01*
X6368440Y6865670D01*
X6357670Y6876440D01*
X6345631Y6885889D01*
X6332575Y6893763D01*
X6319723Y6899554D01*
X6316573Y6901738D01*
X6314490Y6904990D01*
X6313728Y6908800D01*
X6314490Y6912609D01*
X6316573Y6915861D01*
X6319723Y6918045D01*
X6332575Y6923836D01*
X6345631Y6931710D01*
X6357670Y6941159D01*
X6368440Y6951929D01*
X6377889Y6963968D01*
X6385763Y6977024D01*
X6392011Y6990943D01*
X6396583Y7005523D01*
X6399326Y7020559D01*
X6400241Y7035800D01*
X6399326Y7051040D01*
X6396583Y7066076D01*
X6392011Y7080656D01*
X6385763Y7094575D01*
X6377889Y7107631D01*
X6368440Y7119670D01*
X6357670Y7130440D01*
X6345631Y7139889D01*
X6332575Y7147763D01*
X6319723Y7153554D01*
X6316573Y7155738D01*
X6314490Y7158990D01*
X6313728Y7162800D01*
X6314490Y7166609D01*
X6316573Y7169861D01*
X6319723Y7172045D01*
X6332575Y7177836D01*
X6345631Y7185710D01*
X6357670Y7195159D01*
X6368440Y7205929D01*
X6377889Y7217968D01*
X6385763Y7231024D01*
X6392011Y7244943D01*
X6396583Y7259523D01*
X6399326Y7274559D01*
X6400241Y7289800D01*
X6399326Y7305040D01*
X6396583Y7320076D01*
X6392011Y7334656D01*
X6385763Y7348575D01*
X6377889Y7361631D01*
X6368440Y7373670D01*
X6357670Y7384440D01*
X6345631Y7393889D01*
X6332575Y7401763D01*
X6319723Y7407554D01*
X6316573Y7409738D01*
X6314490Y7412990D01*
X6313728Y7416800D01*
X6314490Y7420609D01*
X6316573Y7423861D01*
X6319723Y7426045D01*
X6332575Y7431836D01*
X6345631Y7439710D01*
X6357670Y7449159D01*
X6368440Y7459929D01*
X6377889Y7471968D01*
X6385763Y7485024D01*
X6392011Y7498943D01*
X6396583Y7513523D01*
X6399326Y7528559D01*
X6400241Y7543800D01*
X6399326Y7559040D01*
X6396583Y7574076D01*
X6392011Y7588656D01*
X6385763Y7602575D01*
X6377889Y7615631D01*
X6368440Y7627670D01*
X6357670Y7638440D01*
X6345631Y7647889D01*
X6332575Y7655763D01*
X6319723Y7661554D01*
X6316573Y7663738D01*
X6314490Y7666990D01*
X6313728Y7670800D01*
X6314490Y7674609D01*
X6316573Y7677861D01*
X6319723Y7680045D01*
X6332575Y7685836D01*
X6345631Y7693710D01*
X6357670Y7703159D01*
X6368440Y7713929D01*
X6377889Y7725968D01*
X6385763Y7739024D01*
X6392011Y7752943D01*
X6396583Y7767523D01*
X6399326Y7782559D01*
X6400241Y7797800D01*
X6399326Y7813040D01*
X6396583Y7828076D01*
X6392011Y7842656D01*
X6385763Y7856575D01*
X6377889Y7869631D01*
X6368440Y7881670D01*
X6357670Y7892440D01*
X6345631Y7901889D01*
X6332575Y7909763D01*
X6319723Y7915554D01*
X6316573Y7917738D01*
X6314490Y7920990D01*
X6313728Y7924800D01*
X6314490Y7928609D01*
X6316573Y7931861D01*
X6319723Y7934045D01*
X6332575Y7939836D01*
X6345631Y7947710D01*
X6357670Y7957159D01*
X6368440Y7967929D01*
X6381140Y7984236D01*
X6384137Y7985963D01*
X6387541Y7986522D01*
X6413093Y7986522D01*
X6423710Y7987385D01*
X6433667Y7989773D01*
X6443116Y7993684D01*
X6451854Y7999018D01*
X6459931Y8005927D01*
X6535572Y8081568D01*
X6542481Y8089646D01*
X6547815Y8098383D01*
X6551726Y8107832D01*
X6554114Y8117789D01*
X6554978Y8128406D01*
X6554978Y8566658D01*
X6555740Y8570569D01*
X6557924Y8573820D01*
X6805879Y8821775D01*
X6809130Y8823960D01*
X6813042Y8824722D01*
X8394293Y8824722D01*
X8404910Y8825585D01*
X8414867Y8827973D01*
X8424316Y8831884D01*
X8433054Y8837218D01*
X8441131Y8844127D01*
X8672525Y9075521D01*
X8675827Y9077706D01*
X8679688Y9078468D01*
X8790482Y9078468D01*
X8799677Y9079280D01*
X8808110Y9081566D01*
X8816035Y9085275D01*
X8823248Y9090304D01*
X8829395Y9096451D01*
X8834424Y9103664D01*
X8838133Y9111589D01*
X8840419Y9120022D01*
X8841232Y9129217D01*
X8841232Y9285782D01*
X8840419Y9294977D01*
X8838133Y9303410D01*
X8834424Y9311335D01*
X8829395Y9318548D01*
X8823248Y9324695D01*
X8816035Y9329724D01*
X8808110Y9333433D01*
X8799677Y9335719D01*
X8790482Y9336481D01*
X8633917Y9336481D01*
X8624722Y9335719D01*
X8616289Y9333433D01*
X8608364Y9329724D01*
X8601151Y9324695D01*
X8595004Y9318548D01*
X8589975Y9311335D01*
X8586266Y9303410D01*
X8583980Y9294977D01*
X8583218Y9285782D01*
X8583218Y9174988D01*
X8582406Y9171127D01*
X8580221Y9167825D01*
X8370620Y8958224D01*
X8367369Y8956040D01*
X8363458Y8955278D01*
X6782206Y8955278D01*
X6771589Y8954414D01*
X6761632Y8952026D01*
X6752183Y8948115D01*
X6743446Y8942781D01*
X6735368Y8935872D01*
X6443827Y8644331D01*
X6436918Y8636254D01*
X6431584Y8627516D01*
X6427673Y8618067D01*
X6425285Y8608110D01*
X6424422Y8597493D01*
X6424422Y8159242D01*
X6423660Y8155330D01*
X6421475Y8152079D01*
X6392621Y8123224D01*
X6389065Y8120938D01*
X6384848Y8120278D01*
X6380734Y8121446D01*
X6377432Y8124139D01*
X6368440Y8135670D01*
X6357670Y8146440D01*
X6345631Y8155889D01*
X6332575Y8163763D01*
X6318656Y8170011D01*
X6304076Y8174583D01*
X6289040Y8177326D01*
X6273800Y8178241D01*
X6258560Y8177326D01*
X6243523Y8174583D01*
X6228943Y8170011D01*
X6215024Y8163763D01*
X6201968Y8155889D01*
X6189929Y8146440D01*
X6179159Y8135670D01*
X6169710Y8123631D01*
X6161836Y8110575D01*
X6155588Y8096656D01*
X6151016Y8082076D01*
X6148273Y8067040D01*
X6147358Y8051800D01*
X6148273Y8036559D01*
X6151016Y8021523D01*
X6155588Y8006943D01*
X6161836Y7993024D01*
X6169710Y7979968D01*
X6179159Y7967929D01*
X6189929Y7957159D01*
X6201968Y7947710D01*
X6215024Y7939836D01*
X6227876Y7934045D01*
X6231026Y7931861D01*
X6233109Y7928609D01*
X6233871Y7924800D01*
X6233109Y7920990D01*
X6231026Y7917738D01*
X6227876Y7915554D01*
X6215024Y7909763D01*
X6201968Y7901889D01*
X6189929Y7892440D01*
X6179159Y7881670D01*
X6169710Y7869631D01*
X6161836Y7856575D01*
X6155588Y7842656D01*
X6151016Y7828076D01*
X6148273Y7813040D01*
X6147358Y7797800D01*
X6148273Y7782559D01*
X6151016Y7767523D01*
X6155588Y7752943D01*
X6161836Y7739024D01*
X6169710Y7725968D01*
X6179159Y7713929D01*
X6189929Y7703159D01*
X6201968Y7693710D01*
X6215024Y7685836D01*
X6227876Y7680045D01*
X6231026Y7677861D01*
X6233109Y7674609D01*
X6233871Y7670800D01*
X6233109Y7666990D01*
X6231026Y7663738D01*
X6227876Y7661554D01*
X6215024Y7655763D01*
X6201968Y7647889D01*
X6189929Y7638440D01*
X6179159Y7627670D01*
X6169710Y7615631D01*
X6161836Y7602575D01*
X6155588Y7588656D01*
X6151016Y7574076D01*
X6148273Y7559040D01*
X6147358Y7543800D01*
X6148273Y7528559D01*
X6151016Y7513523D01*
X6155588Y7498943D01*
X6161836Y7485024D01*
X6169710Y7471968D01*
X6179159Y7459929D01*
X6189929Y7449159D01*
X6201968Y7439710D01*
X6215024Y7431836D01*
X6227876Y7426045D01*
X6231026Y7423861D01*
X6233109Y7420609D01*
X6233871Y7416800D01*
X6233109Y7412990D01*
X6231026Y7409738D01*
X6227876Y7407554D01*
X6215024Y7401763D01*
X6201968Y7393889D01*
X6189929Y7384440D01*
X6179159Y7373670D01*
X6169710Y7361631D01*
X6161836Y7348575D01*
X6155588Y7334656D01*
X6151016Y7320076D01*
X6148273Y7305040D01*
X6147358Y7289800D01*
X6148273Y7274559D01*
X6151016Y7259523D01*
X6155588Y7244943D01*
X6161836Y7231024D01*
X6169710Y7217968D01*
X6179159Y7205929D01*
X6189929Y7195159D01*
X6201968Y7185710D01*
X6215024Y7177836D01*
X6227876Y7172045D01*
X6231026Y7169861D01*
X6233109Y7166609D01*
X6233871Y7162800D01*
X6233109Y7158990D01*
X6231026Y7155738D01*
X6227876Y7153554D01*
X6215024Y7147763D01*
X6201968Y7139889D01*
X6189929Y7130440D01*
X6179159Y7119670D01*
X6169710Y7107631D01*
X6161836Y7094575D01*
X6155588Y7080656D01*
X6151016Y7066076D01*
X6148273Y7051040D01*
X6147358Y7035800D01*
X6148273Y7020559D01*
X6151016Y7005523D01*
X6155588Y6990943D01*
X6161836Y6977024D01*
X6169710Y6963968D01*
X6179159Y6951929D01*
X6189929Y6941159D01*
X6201968Y6931710D01*
X6215024Y6923836D01*
X6227876Y6918045D01*
X6231026Y6915861D01*
X6233109Y6912609D01*
X6233871Y6908800D01*
X6233109Y6904990D01*
X6231026Y6901738D01*
X6227876Y6899554D01*
X6215024Y6893763D01*
X6201968Y6885889D01*
X6189929Y6876440D01*
X6179159Y6865670D01*
X6169710Y6853631D01*
X6161836Y6840575D01*
X6155588Y6826656D01*
X6151016Y6812076D01*
X6148273Y6797040D01*
X6147358Y6781800D01*
X6148273Y6766559D01*
X6151016Y6751523D01*
X6155588Y6736943D01*
X6161836Y6723024D01*
X6169710Y6709968D01*
X6179159Y6697929D01*
X6189929Y6687159D01*
X6201968Y6677710D01*
X6215024Y6669836D01*
X6227876Y6664045D01*
X6231026Y6661861D01*
X6233109Y6658609D01*
X6233871Y6654800D01*
X6233109Y6650990D01*
X6231026Y6647738D01*
X6227876Y6645554D01*
X6215024Y6639763D01*
X6201968Y6631889D01*
X6189929Y6622440D01*
X6179159Y6611670D01*
X6169710Y6599631D01*
X6161836Y6586575D01*
X6155588Y6572656D01*
X6151016Y6558076D01*
X6148273Y6543040D01*
X6147358Y6527800D01*
X6148273Y6512559D01*
X6151016Y6497523D01*
X6155588Y6482943D01*
X6161836Y6469024D01*
X6169710Y6455968D01*
X6179159Y6443929D01*
X6189929Y6433159D01*
X6201968Y6423710D01*
X6215024Y6415836D01*
X6227876Y6410045D01*
X6231026Y6407861D01*
X6233109Y6404610D01*
X6233871Y6400800D01*
X6233109Y6396990D01*
X6231026Y6393738D01*
X6227876Y6391554D01*
X6215024Y6385763D01*
X6201968Y6377889D01*
X6189929Y6368440D01*
X6179159Y6357670D01*
X6169710Y6345631D01*
X6161836Y6332575D01*
X6155588Y6318656D01*
X6151016Y6304076D01*
X6148273Y6289040D01*
X6147358Y6273800D01*
X6148273Y6258560D01*
X6151016Y6243523D01*
X6155588Y6228943D01*
X6161836Y6215024D01*
X6169710Y6201968D01*
X6179159Y6189929D01*
X6189929Y6179159D01*
X6201968Y6169710D01*
X6215024Y6161836D01*
X6227876Y6156045D01*
X6231026Y6153861D01*
X6233109Y6150610D01*
X6233871Y6146800D01*
X6233109Y6142990D01*
X6231026Y6139738D01*
X6227876Y6137554D01*
X6215024Y6131763D01*
X6201968Y6123889D01*
X6189929Y6114440D01*
X6179159Y6103670D01*
X6169710Y6091631D01*
X6161836Y6078575D01*
X6155588Y6064656D01*
X6151016Y6050076D01*
X6148273Y6035040D01*
X6147358Y6019800D01*
X6148273Y6004560D01*
X6151016Y5989523D01*
X6155588Y5974943D01*
X6161836Y5961024D01*
X6169710Y5947968D01*
X6179159Y5935929D01*
X6189929Y5925159D01*
X6201968Y5915710D01*
X6215024Y5907836D01*
X6227876Y5902045D01*
X6231026Y5899861D01*
X6233109Y5896610D01*
X6233871Y5892800D01*
X6233109Y5888990D01*
X6231026Y5885738D01*
X6227876Y5883554D01*
X6215024Y5877763D01*
X6201968Y5869889D01*
X6189929Y5860440D01*
X6179159Y5849670D01*
X6169710Y5837631D01*
X6161836Y5824575D01*
X6155588Y5810656D01*
X6151016Y5796076D01*
X6148273Y5781040D01*
X6147358Y5765800D01*
X6148273Y5750560D01*
X6151016Y5735523D01*
X6152743Y5729935D01*
X6153200Y5726176D01*
X6152235Y5722518D01*
X6150000Y5719470D01*
X6146800Y5717489D01*
X6143091Y5716778D01*
X4895342Y5716778D01*
X4891430Y5717540D01*
X4888179Y5719724D01*
X4876292Y5731611D01*
X4874412Y5734253D01*
X4873447Y5737352D01*
X4873498Y5740603D01*
X4875326Y5750560D01*
X4876241Y5765800D01*
X4875326Y5781040D01*
X4872583Y5796076D01*
X4868011Y5810656D01*
X4861763Y5824575D01*
X4853889Y5837631D01*
X4844440Y5849670D01*
X4833670Y5860440D01*
X4821631Y5869889D01*
X4808575Y5877763D01*
X4795723Y5883554D01*
X4792573Y5885738D01*
X4790490Y5888990D01*
X4789728Y5892800D01*
X4790490Y5896610D01*
X4792573Y5899861D01*
X4795723Y5902045D01*
X4808575Y5907836D01*
X4821631Y5915710D01*
X4833670Y5925159D01*
X4844440Y5935929D01*
X4853889Y5947968D01*
X4861763Y5961024D01*
X4868011Y5974943D01*
X4872583Y5989523D01*
X4875326Y6004560D01*
X4876241Y6019800D01*
X4875326Y6035040D01*
X4872583Y6050076D01*
X4868011Y6064656D01*
X4861763Y6078575D01*
X4853889Y6091631D01*
X4844440Y6103670D01*
X4833670Y6114440D01*
X4821631Y6123889D01*
X4808575Y6131763D01*
X4795723Y6137554D01*
X4792573Y6139738D01*
X4790490Y6142990D01*
X4789728Y6146800D01*
X4790490Y6150610D01*
X4792573Y6153861D01*
X4795723Y6156045D01*
X4808575Y6161836D01*
X4821631Y6169710D01*
X4833670Y6179159D01*
X4844440Y6189929D01*
X4853889Y6201968D01*
X4861763Y6215024D01*
X4868011Y6228943D01*
X4872583Y6243523D01*
X4875326Y6258560D01*
X4876241Y6273800D01*
X4875326Y6289040D01*
X4872583Y6304076D01*
X4868011Y6318656D01*
X4861763Y6332575D01*
X4853889Y6345631D01*
X4844440Y6357670D01*
X4833670Y6368440D01*
X4821631Y6377889D01*
X4808575Y6385763D01*
X4795723Y6391554D01*
X4792573Y6393738D01*
X4790490Y6396990D01*
X4789728Y6400800D01*
X4790490Y6404610D01*
X4792573Y6407861D01*
X4795723Y6410045D01*
X4808575Y6415836D01*
X4821631Y6423710D01*
X4833670Y6433159D01*
X4844440Y6443929D01*
X4853889Y6455968D01*
X4861763Y6469024D01*
X4868011Y6482943D01*
X4872583Y6497523D01*
X4875326Y6512559D01*
X4876241Y6527800D01*
X4875326Y6543040D01*
X4872583Y6558076D01*
X4868011Y6572656D01*
X4861763Y6586575D01*
X4853889Y6599631D01*
X4844440Y6611670D01*
X4833670Y6622440D01*
X4821631Y6631889D01*
X4808575Y6639763D01*
X4795723Y6645554D01*
X4792573Y6647738D01*
X4790490Y6650990D01*
X4789728Y6654800D01*
X4790490Y6658609D01*
X4792573Y6661861D01*
X4795723Y6664045D01*
X4808575Y6669836D01*
X4821631Y6677710D01*
X4833670Y6687159D01*
X4844440Y6697929D01*
X4853889Y6709968D01*
X4861763Y6723024D01*
X4868011Y6736943D01*
X4872583Y6751523D01*
X4875326Y6766559D01*
X4876241Y6781800D01*
X4875326Y6797040D01*
X4872583Y6812076D01*
X4868011Y6826656D01*
X4861763Y6840575D01*
X4853889Y6853631D01*
X4844440Y6865670D01*
X4833670Y6876440D01*
X4821631Y6885889D01*
X4808575Y6893763D01*
X4795723Y6899554D01*
X4792573Y6901738D01*
X4790490Y6904990D01*
X4789728Y6908800D01*
X4790490Y6912609D01*
X4792573Y6915861D01*
X4795723Y6918045D01*
X4808575Y6923836D01*
X4821631Y6931710D01*
X4833670Y6941159D01*
X4844440Y6951929D01*
X4853889Y6963968D01*
X4861763Y6977024D01*
X4868011Y6990943D01*
X4872583Y7005523D01*
X4875326Y7020559D01*
X4876241Y7035800D01*
X4875326Y7051040D01*
X4872583Y7066076D01*
X4868011Y7080656D01*
X4861763Y7094575D01*
X4853889Y7107631D01*
X4844440Y7119670D01*
X4833670Y7130440D01*
X4821631Y7139889D01*
X4808575Y7147763D01*
X4795723Y7153554D01*
X4792573Y7155738D01*
X4790490Y7158990D01*
X4789728Y7162800D01*
X4790490Y7166609D01*
X4792573Y7169861D01*
X4795723Y7172045D01*
X4808575Y7177836D01*
X4821631Y7185710D01*
X4833670Y7195159D01*
X4844440Y7205929D01*
X4853889Y7217968D01*
X4861763Y7231024D01*
X4868011Y7244943D01*
X4872583Y7259523D01*
X4875326Y7274559D01*
X4876241Y7289800D01*
X4875326Y7305040D01*
X4872583Y7320076D01*
X4868011Y7334656D01*
X4861763Y7348575D01*
X4853889Y7361631D01*
X4844440Y7373670D01*
X4833670Y7384440D01*
X4821631Y7393889D01*
X4808575Y7401763D01*
X4795723Y7407554D01*
X4792573Y7409738D01*
X4790490Y7412990D01*
X4789728Y7416800D01*
X4790490Y7420609D01*
X4792573Y7423861D01*
X4795723Y7426045D01*
X4808575Y7431836D01*
X4821631Y7439710D01*
X4833670Y7449159D01*
X4844440Y7459929D01*
X4853889Y7471968D01*
X4861763Y7485024D01*
X4868011Y7498943D01*
X4872583Y7513523D01*
X4875326Y7528559D01*
X4876241Y7543800D01*
X4875326Y7559040D01*
X4872583Y7574076D01*
X4868011Y7588656D01*
X4861763Y7602575D01*
X4853889Y7615631D01*
X4844440Y7627670D01*
X4833670Y7638440D01*
X4821631Y7647889D01*
X4808575Y7655763D01*
X4794656Y7662011D01*
X4780076Y7666583D01*
X4765040Y7669326D01*
X4749800Y7670241D01*
X4734560Y7669326D01*
X4719523Y7666583D01*
X4704943Y7662011D01*
X4691024Y7655763D01*
X4677968Y7647889D01*
X4665929Y7638440D01*
X4655159Y7627670D01*
X4645710Y7615631D01*
X4637836Y7602575D01*
X4631588Y7588656D01*
X4627016Y7574076D01*
X4624273Y7559040D01*
X4623358Y7543800D01*
X4624273Y7528559D01*
X4627016Y7513523D01*
X4631588Y7498943D01*
X4637836Y7485024D01*
X4645710Y7471968D01*
X4655159Y7459929D01*
X4665929Y7449159D01*
X4677968Y7439710D01*
X4691024Y7431836D01*
X4703876Y7426045D01*
X4707026Y7423861D01*
X4709109Y7420609D01*
X4709871Y7416800D01*
X4709109Y7412990D01*
X4707026Y7409738D01*
X4703876Y7407554D01*
X4691024Y7401763D01*
X4677968Y7393889D01*
X4665929Y7384440D01*
X4655159Y7373670D01*
X4642459Y7357364D01*
X4639462Y7355636D01*
X4636058Y7355078D01*
X4531106Y7355078D01*
X4527194Y7355840D01*
X4523943Y7358024D01*
X4084370Y7797596D01*
X4082287Y7800644D01*
X4081373Y7804200D01*
X4081830Y7807807D01*
X4084218Y7815376D01*
X4087418Y7831785D01*
X4088790Y7848498D01*
X4088333Y7865211D01*
X4086047Y7881772D01*
X4081932Y7897977D01*
X4076039Y7913674D01*
X4068521Y7928609D01*
X4059377Y7942580D01*
X4048709Y7955534D01*
X4036720Y7967167D01*
X4023512Y7977428D01*
X4009288Y7986217D01*
X3994150Y7993329D01*
X3978300Y7998764D01*
X3961993Y8002422D01*
X3945382Y8004302D01*
X3928618Y8004302D01*
X3912006Y8002422D01*
X3895699Y7998764D01*
X3879850Y7993329D01*
X3864711Y7986217D01*
X3850487Y7977428D01*
X3837279Y7967167D01*
X3825290Y7955534D01*
X3814622Y7942580D01*
X3805478Y7928609D01*
X3797960Y7913674D01*
X3792067Y7897977D01*
X3791610Y7896148D01*
X3789578Y7892186D01*
X3786073Y7889443D01*
X3781755Y7888478D01*
X3398977Y7888478D01*
X3395573Y7889036D01*
X3392576Y7890764D01*
X3379876Y7907070D01*
X3369106Y7917840D01*
X3357067Y7927289D01*
X3344011Y7935163D01*
X3330092Y7941411D01*
X3315512Y7945983D01*
X3300476Y7948726D01*
X3285236Y7949641D01*
X3269996Y7948726D01*
X3254959Y7945983D01*
X3240379Y7941411D01*
X3226460Y7935163D01*
X3213404Y7927289D01*
X3201365Y7917840D01*
X3190595Y7907070D01*
X3181146Y7895031D01*
X3173272Y7881975D01*
X3167024Y7868056D01*
X3162452Y7853476D01*
X3159709Y7838440D01*
X3158794Y7823200D01*
X3159709Y7807959D01*
X3162452Y7792923D01*
X3167024Y7778343D01*
X3173272Y7764424D01*
X3181146Y7751368D01*
X3190595Y7739329D01*
X3201365Y7728559D01*
X3213404Y7719110D01*
X3226460Y7711236D01*
X3240379Y7704988D01*
X3254959Y7700416D01*
X3269996Y7697673D01*
X3285236Y7696758D01*
X3300476Y7697673D01*
X3315512Y7700416D01*
X3330092Y7704988D01*
X3344011Y7711236D01*
X3357067Y7719110D01*
X3369106Y7728559D01*
X3379876Y7739329D01*
X3392576Y7755636D01*
X3395573Y7757363D01*
X3398977Y7757922D01*
X3813657Y7757922D01*
X3817721Y7757058D01*
X3821125Y7754670D01*
X3831132Y7743799D01*
X3843731Y7732826D01*
X3857498Y7723276D01*
X3872179Y7715351D01*
X3887673Y7709052D01*
X3903776Y7704480D01*
X3920286Y7701737D01*
X3937000Y7700822D01*
X3953713Y7701737D01*
X3970223Y7704480D01*
X3982161Y7707884D01*
X3985717Y7708239D01*
X3989171Y7707325D01*
X3992067Y7705293D01*
X4453432Y7243927D01*
X4461510Y7237018D01*
X4470247Y7231684D01*
X4479696Y7227773D01*
X4489653Y7225385D01*
X4500270Y7224522D01*
X4636058Y7224522D01*
X4639462Y7223963D01*
X4642459Y7222236D01*
X4655159Y7205929D01*
X4665929Y7195159D01*
X4677968Y7185710D01*
X4691024Y7177836D01*
X4703876Y7172045D01*
X4707026Y7169861D01*
X4709109Y7166609D01*
X4709871Y7162800D01*
X4709109Y7158990D01*
X4707026Y7155738D01*
X4703876Y7153554D01*
X4691024Y7147763D01*
X4677968Y7139889D01*
X4665929Y7130440D01*
X4655159Y7119670D01*
X4645710Y7107631D01*
X4637836Y7094575D01*
X4631588Y7080656D01*
X4627016Y7066076D01*
X4624273Y7051040D01*
X4623358Y7035800D01*
X4624273Y7020559D01*
X4626102Y7010603D01*
X4626152Y7007352D01*
X4625187Y7004253D01*
X4623308Y7001611D01*
X4221327Y6599631D01*
X4214418Y6591553D01*
X4209084Y6582816D01*
X4205173Y6573367D01*
X4202785Y6563410D01*
X4201922Y6552793D01*
X4201922Y5633618D01*
X4201363Y5630214D01*
X4199636Y5627217D01*
X4197045Y5624931D01*
X4185767Y5618175D01*
X4172762Y5608116D01*
X4160926Y5596636D01*
X4150512Y5583885D01*
X4141622Y5570016D01*
X4134358Y5555234D01*
X4128820Y5539740D01*
X4125061Y5523687D01*
X4123182Y5507329D01*
X4123182Y5490870D01*
X4125061Y5474512D01*
X4128820Y5458460D01*
X4134358Y5442966D01*
X4141622Y5428183D01*
X4150512Y5414314D01*
X4160926Y5401564D01*
X4172762Y5390083D01*
X4185767Y5380024D01*
X4199890Y5371541D01*
X4214876Y5364683D01*
X4230522Y5359603D01*
X4246676Y5356352D01*
X4263085Y5354929D01*
X4279544Y5355386D01*
X4295851Y5357723D01*
X4311751Y5361940D01*
X4327093Y5367883D01*
X4341672Y5375605D01*
X4355287Y5384901D01*
X4367733Y5395671D01*
X4378858Y5407812D01*
X4388510Y5421122D01*
X4396638Y5435447D01*
X4403039Y5450636D01*
X4407662Y5466435D01*
X4410354Y5481929D01*
X4411980Y5485892D01*
X4415078Y5488838D01*
X4419092Y5490260D01*
X4423359Y5489905D01*
X4427067Y5487822D01*
X4429607Y5484368D01*
X4430522Y5480202D01*
X4430522Y5339842D01*
X4429760Y5335930D01*
X4427575Y5332679D01*
X4316120Y5221224D01*
X4313275Y5219192D01*
X4309872Y5218277D01*
X4306366Y5218582D01*
X4295851Y5221376D01*
X4279544Y5223713D01*
X4263085Y5224170D01*
X4246676Y5222748D01*
X4230522Y5219496D01*
X4214876Y5214416D01*
X4199890Y5207558D01*
X4185767Y5199075D01*
X4172762Y5189016D01*
X4160926Y5177536D01*
X4150512Y5164785D01*
X4141622Y5150916D01*
X4134358Y5136134D01*
X4128820Y5120640D01*
X4125061Y5104587D01*
X4123182Y5088229D01*
X4123182Y5071770D01*
X4125061Y5055412D01*
X4128820Y5039360D01*
X4134358Y5023866D01*
X4141622Y5009083D01*
X4150512Y4995214D01*
X4160926Y4982464D01*
X4172762Y4970983D01*
X4185767Y4960924D01*
X4199890Y4952441D01*
X4214876Y4945583D01*
X4230522Y4940503D01*
X4246676Y4937252D01*
X4263085Y4935829D01*
X4279544Y4936286D01*
X4295851Y4938623D01*
X4311751Y4942840D01*
X4327093Y4948783D01*
X4341672Y4956505D01*
X4355287Y4965801D01*
X4367733Y4976571D01*
X4378858Y4988712D01*
X4388510Y5002022D01*
X4396638Y5016347D01*
X4403039Y5031536D01*
X4407662Y5047335D01*
X4410506Y5063540D01*
X4411421Y5080000D01*
X4410506Y5096459D01*
X4407662Y5112664D01*
X4405884Y5118862D01*
X4405477Y5122468D01*
X4406341Y5125974D01*
X4408424Y5128920D01*
X4541672Y5262168D01*
X4548581Y5270246D01*
X4553915Y5278983D01*
X4557826Y5288432D01*
X4560214Y5298389D01*
X4561078Y5309006D01*
X4561078Y6496558D01*
X4561840Y6500469D01*
X4564024Y6503720D01*
X4606696Y6546392D01*
X4610049Y6548628D01*
X4614062Y6549339D01*
X4618024Y6548475D01*
X4621326Y6546088D01*
X4623409Y6542582D01*
X4624019Y6538569D01*
X4623358Y6527800D01*
X4624273Y6512559D01*
X4627016Y6497523D01*
X4631588Y6482943D01*
X4637836Y6469024D01*
X4645710Y6455968D01*
X4655159Y6443929D01*
X4665929Y6433159D01*
X4677968Y6423710D01*
X4691024Y6415836D01*
X4703876Y6410045D01*
X4707026Y6407861D01*
X4709109Y6404610D01*
X4709871Y6400800D01*
X4709109Y6396990D01*
X4707026Y6393738D01*
X4703876Y6391554D01*
X4691024Y6385763D01*
X4677968Y6377889D01*
X4665929Y6368440D01*
X4655159Y6357670D01*
X4645710Y6345631D01*
X4637836Y6332575D01*
X4631588Y6318656D01*
X4627016Y6304076D01*
X4624273Y6289040D01*
X4623358Y6273800D01*
X4624273Y6258560D01*
X4627016Y6243523D01*
X4631588Y6228943D01*
X4637836Y6215024D01*
X4645710Y6201968D01*
X4655159Y6189929D01*
X4665929Y6179159D01*
X4677968Y6169710D01*
X4691024Y6161836D01*
X4703876Y6156045D01*
X4707026Y6153861D01*
X4709109Y6150610D01*
X4709871Y6146800D01*
X4709109Y6142990D01*
X4707026Y6139738D01*
X4703876Y6137554D01*
X4691024Y6131763D01*
X4677968Y6123889D01*
X4665929Y6114440D01*
X4655159Y6103670D01*
X4645710Y6091631D01*
X4637836Y6078575D01*
X4631588Y6064656D01*
X4627016Y6050076D01*
X4624273Y6035040D01*
X4623358Y6019800D01*
X4624273Y6004560D01*
X4627016Y5989523D01*
X4631588Y5974943D01*
X4637836Y5961024D01*
X4645710Y5947968D01*
X4655159Y5935929D01*
X4665929Y5925159D01*
X4677968Y5915710D01*
X4691024Y5907836D01*
X4703876Y5902045D01*
X4707026Y5899861D01*
X4709109Y5896610D01*
X4709871Y5892800D01*
X4709109Y5888990D01*
X4707026Y5885738D01*
X4703876Y5883554D01*
X4691024Y5877763D01*
X4677968Y5869889D01*
X4665929Y5860440D01*
X4655159Y5849670D01*
X4645710Y5837631D01*
X4637836Y5824575D01*
X4631588Y5810656D01*
X4627016Y5796076D01*
X4624273Y5781040D01*
X4623358Y5765800D01*
X4624273Y5750560D01*
X4627016Y5735523D01*
X4631588Y5720943D01*
X4637836Y5707024D01*
X4645710Y5693968D01*
X4655159Y5681929D01*
X4665929Y5671159D01*
X4677968Y5661710D01*
X4691024Y5653836D01*
X4703876Y5648045D01*
X4707026Y5645861D01*
X4709109Y5642610D01*
X4709871Y5638800D01*
X4709109Y5634990D01*
X4707026Y5631738D01*
X4703876Y5629554D01*
X4691024Y5623763D01*
X4677968Y5615889D01*
X4665929Y5606440D01*
X4655159Y5595670D01*
X4645710Y5583631D01*
X4637836Y5570575D01*
X4631588Y5556656D01*
X4627016Y5542076D01*
X4624273Y5527040D01*
X4623358Y5511800D01*
X4624273Y5496560D01*
X4627016Y5481523D01*
X4631588Y5466943D01*
X4637836Y5453024D01*
X4645710Y5439968D01*
X4655159Y5427929D01*
X4665929Y5417159D01*
X4677968Y5407710D01*
X4691024Y5399836D01*
X4703876Y5394045D01*
X4707026Y5391861D01*
X4709109Y5388610D01*
X4709871Y5384800D01*
X4709109Y5380990D01*
X4707026Y5377738D01*
X4703876Y5375554D01*
X4691024Y5369763D01*
X4677968Y5361889D01*
X4665929Y5352440D01*
X4655159Y5341670D01*
X4645710Y5329631D01*
X4637836Y5316575D01*
X4631588Y5302656D01*
X4627016Y5288076D01*
X4624273Y5273040D01*
X4623358Y5257800D01*
X4624273Y5242560D01*
X4627016Y5227523D01*
X4631588Y5212943D01*
X4637836Y5199024D01*
X4645710Y5185968D01*
X4655159Y5173929D01*
X4665929Y5163159D01*
X4677968Y5153710D01*
X4691024Y5145836D01*
X4703876Y5140045D01*
X4707026Y5137861D01*
X4709109Y5134610D01*
X4709871Y5130800D01*
X4709109Y5126990D01*
X4707026Y5123738D01*
X4703876Y5121554D01*
X4691024Y5115763D01*
X4677968Y5107889D01*
X4665929Y5098440D01*
X4655159Y5087670D01*
X4645710Y5075631D01*
X4637836Y5062575D01*
X4631588Y5048656D01*
X4627016Y5034076D01*
X4624273Y5019040D01*
X4623358Y5003800D01*
X4624273Y4988560D01*
X4627016Y4973523D01*
X4631588Y4958943D01*
X4637836Y4945024D01*
X4645710Y4931968D01*
X4655159Y4919929D01*
X4665929Y4909159D01*
X4677968Y4899710D01*
X4691024Y4891836D01*
X4704943Y4885588D01*
X4719523Y4881016D01*
X4734560Y4878273D01*
X4749800Y4877358D01*
X4765040Y4878273D01*
X4780076Y4881016D01*
X4794656Y4885588D01*
X4808575Y4891836D01*
X4821631Y4899710D01*
X4833670Y4909159D01*
X4844440Y4919929D01*
X4853889Y4931968D01*
X4861763Y4945024D01*
X4868011Y4958943D01*
X4872583Y4973523D01*
X4875326Y4988560D01*
X4876241Y5003800D01*
X4875326Y5019040D01*
X4872583Y5034076D01*
X4868011Y5048656D01*
X4861763Y5062575D01*
X4853889Y5075631D01*
X4844440Y5087670D01*
X4833670Y5098440D01*
X4821631Y5107889D01*
X4808575Y5115763D01*
X4795723Y5121554D01*
X4792573Y5123738D01*
X4790490Y5126990D01*
X4789728Y5130800D01*
X4790490Y5134610D01*
X4792573Y5137861D01*
X4795723Y5140045D01*
X4808575Y5145836D01*
X4821631Y5153710D01*
X4833670Y5163159D01*
X4844440Y5173929D01*
X4857140Y5190236D01*
X4860137Y5191963D01*
X4863541Y5192522D01*
X5627725Y5192522D01*
X5631942Y5191607D01*
X5635447Y5188966D01*
X5637479Y5185156D01*
X5637733Y5180838D01*
X5636209Y5176774D01*
X5631891Y5170322D01*
X5626912Y5159654D01*
X5623509Y5148326D01*
X5621782Y5136692D01*
X5621782Y5124907D01*
X5623509Y5113274D01*
X5626912Y5101945D01*
X5631891Y5091277D01*
X5638393Y5081473D01*
X5646267Y5072684D01*
X5655310Y5065166D01*
X5665368Y5059019D01*
X5676239Y5054396D01*
X5687618Y5051399D01*
X5699353Y5050129D01*
X5711139Y5050586D01*
X5722721Y5052720D01*
X5733846Y5056530D01*
X5744362Y5061915D01*
X5746800Y5063642D01*
X5749594Y5065064D01*
X5752693Y5065522D01*
X5861558Y5065522D01*
X5865469Y5064760D01*
X5868720Y5062575D01*
X6163868Y4767427D01*
X6171946Y4760518D01*
X6180683Y4755184D01*
X6190132Y4751273D01*
X6200089Y4748885D01*
G37*
G36*
X2619552Y5312054D02*
G01*
X2739847Y5312054D01*
X2748991Y5312867D01*
X2757474Y5315102D01*
X2765399Y5318810D01*
X2772562Y5323840D01*
X2778760Y5330037D01*
X2783789Y5337200D01*
X2787497Y5345125D01*
X2789732Y5353608D01*
X2790545Y5362752D01*
X2790545Y5483047D01*
X2789732Y5492191D01*
X2787497Y5500674D01*
X2783789Y5508599D01*
X2778760Y5515762D01*
X2772562Y5521960D01*
X2765399Y5526989D01*
X2757474Y5530697D01*
X2748991Y5532932D01*
X2739847Y5533745D01*
X2619552Y5533745D01*
X2610408Y5532932D01*
X2601925Y5530697D01*
X2594000Y5526989D01*
X2586837Y5521960D01*
X2580640Y5515762D01*
X2575610Y5508599D01*
X2571902Y5500674D01*
X2569667Y5492191D01*
X2568854Y5483047D01*
X2568854Y5362752D01*
X2569667Y5353608D01*
X2571902Y5345125D01*
X2575610Y5337200D01*
X2580640Y5330037D01*
X2586837Y5323840D01*
X2594000Y5318810D01*
X2601925Y5315102D01*
X2610408Y5312867D01*
G37*
G36*
X2993085Y5354929D02*
G01*
X3009544Y5355386D01*
X3025851Y5357723D01*
X3041751Y5361940D01*
X3057093Y5367883D01*
X3071672Y5375605D01*
X3085287Y5384901D01*
X3097733Y5395671D01*
X3108858Y5407812D01*
X3118510Y5421122D01*
X3126638Y5435447D01*
X3133039Y5450636D01*
X3137662Y5466435D01*
X3140506Y5482640D01*
X3141421Y5499100D01*
X3140506Y5515559D01*
X3137662Y5531764D01*
X3133039Y5547563D01*
X3126638Y5562752D01*
X3118510Y5577078D01*
X3108858Y5590387D01*
X3097733Y5602528D01*
X3085287Y5613298D01*
X3071672Y5622594D01*
X3057093Y5630316D01*
X3041751Y5636260D01*
X3025851Y5640476D01*
X3009544Y5642813D01*
X2993085Y5643270D01*
X2976676Y5641848D01*
X2960522Y5638596D01*
X2944876Y5633516D01*
X2929890Y5626658D01*
X2915767Y5618175D01*
X2902762Y5608116D01*
X2890926Y5596636D01*
X2880512Y5583885D01*
X2871622Y5570016D01*
X2864358Y5555234D01*
X2858820Y5539740D01*
X2855061Y5523687D01*
X2853182Y5507329D01*
X2853182Y5490870D01*
X2855061Y5474512D01*
X2858820Y5458460D01*
X2864358Y5442966D01*
X2871622Y5428183D01*
X2880512Y5414314D01*
X2890926Y5401564D01*
X2902762Y5390083D01*
X2915767Y5380024D01*
X2929890Y5371541D01*
X2944876Y5364683D01*
X2960522Y5359603D01*
X2976676Y5356352D01*
G37*
G36*
X3363417Y6017768D02*
G01*
X3519982Y6017768D01*
X3529177Y6018580D01*
X3537610Y6020866D01*
X3545535Y6024575D01*
X3552748Y6029604D01*
X3558895Y6035751D01*
X3563924Y6042964D01*
X3567633Y6050889D01*
X3569919Y6059322D01*
X3570681Y6068517D01*
X3570681Y6225082D01*
X3569919Y6234277D01*
X3567633Y6242710D01*
X3563924Y6250635D01*
X3558895Y6257848D01*
X3552748Y6263995D01*
X3545535Y6269024D01*
X3537610Y6272733D01*
X3529177Y6275019D01*
X3519982Y6275781D01*
X3363417Y6275781D01*
X3354222Y6275019D01*
X3345789Y6272733D01*
X3337864Y6269024D01*
X3330651Y6263995D01*
X3324504Y6257848D01*
X3319475Y6250635D01*
X3315766Y6242710D01*
X3313480Y6234277D01*
X3312718Y6225082D01*
X3312718Y6068517D01*
X3313480Y6059322D01*
X3315766Y6050889D01*
X3319475Y6042964D01*
X3324504Y6035751D01*
X3330651Y6029604D01*
X3337864Y6024575D01*
X3345789Y6020866D01*
X3354222Y6018580D01*
G37*
G36*
X2855417Y6017768D02*
G01*
X3011982Y6017768D01*
X3021177Y6018580D01*
X3029610Y6020866D01*
X3037535Y6024575D01*
X3044748Y6029604D01*
X3050895Y6035751D01*
X3055924Y6042964D01*
X3059633Y6050889D01*
X3061919Y6059322D01*
X3062681Y6068517D01*
X3062681Y6225082D01*
X3061919Y6234277D01*
X3059633Y6242710D01*
X3055924Y6250635D01*
X3050895Y6257848D01*
X3044748Y6263995D01*
X3037535Y6269024D01*
X3029610Y6272733D01*
X3021177Y6275019D01*
X3011982Y6275781D01*
X2855417Y6275781D01*
X2846222Y6275019D01*
X2837789Y6272733D01*
X2829864Y6269024D01*
X2822651Y6263995D01*
X2816504Y6257848D01*
X2811475Y6250635D01*
X2807766Y6242710D01*
X2805480Y6234277D01*
X2804718Y6225082D01*
X2804718Y6068517D01*
X2805480Y6059322D01*
X2807766Y6050889D01*
X2811475Y6042964D01*
X2816504Y6035751D01*
X2822651Y6029604D01*
X2829864Y6024575D01*
X2837789Y6020866D01*
X2846222Y6018580D01*
G37*
G36*
X3871417Y6017768D02*
G01*
X4027982Y6017768D01*
X4037177Y6018580D01*
X4045610Y6020866D01*
X4053535Y6024575D01*
X4060748Y6029604D01*
X4066895Y6035751D01*
X4071924Y6042964D01*
X4075633Y6050889D01*
X4077919Y6059322D01*
X4078681Y6068517D01*
X4078681Y6225082D01*
X4077919Y6234277D01*
X4075633Y6242710D01*
X4071924Y6250635D01*
X4066895Y6257848D01*
X4060748Y6263995D01*
X4053535Y6269024D01*
X4045610Y6272733D01*
X4037177Y6275019D01*
X4027982Y6275781D01*
X3871417Y6275781D01*
X3862222Y6275019D01*
X3853789Y6272733D01*
X3845864Y6269024D01*
X3838651Y6263995D01*
X3832504Y6257848D01*
X3827475Y6250635D01*
X3823766Y6242710D01*
X3821480Y6234277D01*
X3820718Y6225082D01*
X3820718Y6068517D01*
X3821480Y6059322D01*
X3823766Y6050889D01*
X3827475Y6042964D01*
X3832504Y6035751D01*
X3838651Y6029604D01*
X3845864Y6024575D01*
X3853789Y6020866D01*
X3862222Y6018580D01*
G37*
G36*
X2785364Y6795058D02*
G01*
X2800604Y6795973D01*
X2815640Y6798716D01*
X2830220Y6803288D01*
X2844139Y6809536D01*
X2857195Y6817410D01*
X2869234Y6826859D01*
X2880004Y6837629D01*
X2889453Y6849668D01*
X2897327Y6862724D01*
X2903575Y6876643D01*
X2908147Y6891223D01*
X2910890Y6906259D01*
X2911805Y6921500D01*
X2910890Y6936740D01*
X2908147Y6951776D01*
X2903575Y6966356D01*
X2897327Y6980275D01*
X2889453Y6993331D01*
X2880004Y7005370D01*
X2869234Y7016140D01*
X2852928Y7028840D01*
X2851200Y7031837D01*
X2850642Y7035241D01*
X2850642Y7264958D01*
X2851200Y7268362D01*
X2852928Y7271359D01*
X2869234Y7284059D01*
X2880004Y7294829D01*
X2889453Y7306868D01*
X2897327Y7319924D01*
X2903575Y7333843D01*
X2908147Y7348423D01*
X2910890Y7363459D01*
X2911805Y7378700D01*
X2910890Y7393940D01*
X2908147Y7408976D01*
X2903575Y7423556D01*
X2897327Y7437475D01*
X2889453Y7450531D01*
X2880004Y7462570D01*
X2869234Y7473340D01*
X2857195Y7482789D01*
X2844139Y7490663D01*
X2830220Y7496911D01*
X2815640Y7501483D01*
X2800604Y7504226D01*
X2785364Y7505141D01*
X2770124Y7504226D01*
X2755087Y7501483D01*
X2740507Y7496911D01*
X2726588Y7490663D01*
X2713532Y7482789D01*
X2701493Y7473340D01*
X2690723Y7462570D01*
X2681274Y7450531D01*
X2673400Y7437475D01*
X2667152Y7423556D01*
X2662580Y7408976D01*
X2659837Y7393940D01*
X2658922Y7378700D01*
X2659837Y7363459D01*
X2662580Y7348423D01*
X2667152Y7333843D01*
X2673400Y7319924D01*
X2681274Y7306868D01*
X2690723Y7294829D01*
X2701493Y7284059D01*
X2717800Y7271359D01*
X2719527Y7268362D01*
X2720086Y7264958D01*
X2720086Y7035241D01*
X2719527Y7031837D01*
X2717800Y7028840D01*
X2701493Y7016140D01*
X2690723Y7005370D01*
X2681274Y6993331D01*
X2673400Y6980275D01*
X2667152Y6966356D01*
X2662580Y6951776D01*
X2659837Y6936740D01*
X2658922Y6921500D01*
X2659837Y6906259D01*
X2662580Y6891223D01*
X2667152Y6876643D01*
X2673400Y6862724D01*
X2681274Y6849668D01*
X2690723Y6837629D01*
X2701493Y6826859D01*
X2713532Y6817410D01*
X2726588Y6809536D01*
X2740507Y6803288D01*
X2755087Y6798716D01*
X2770124Y6795973D01*
G37*
G36*
X3285236Y6795058D02*
G01*
X3300476Y6795973D01*
X3315512Y6798716D01*
X3330092Y6803288D01*
X3344011Y6809536D01*
X3357067Y6817410D01*
X3369106Y6826859D01*
X3379876Y6837629D01*
X3392576Y6853936D01*
X3395573Y6855663D01*
X3398977Y6856222D01*
X3521557Y6856222D01*
X3532174Y6857085D01*
X3542131Y6859473D01*
X3551580Y6863384D01*
X3560318Y6868718D01*
X3568395Y6875627D01*
X3881932Y7189165D01*
X3884828Y7191197D01*
X3888282Y7192111D01*
X3891838Y7191756D01*
X3903776Y7188352D01*
X3920286Y7185609D01*
X3937000Y7184694D01*
X3953713Y7185609D01*
X3970223Y7188352D01*
X3986326Y7192924D01*
X4001820Y7199223D01*
X4016501Y7207148D01*
X4030268Y7216698D01*
X4042867Y7227671D01*
X4054195Y7240016D01*
X4064101Y7253478D01*
X4072483Y7267956D01*
X4079189Y7283297D01*
X4084218Y7299248D01*
X4087418Y7315657D01*
X4088790Y7332370D01*
X4088333Y7349083D01*
X4086047Y7365644D01*
X4081932Y7381849D01*
X4076039Y7397546D01*
X4068521Y7412481D01*
X4059377Y7426452D01*
X4048709Y7439406D01*
X4036720Y7451039D01*
X4023512Y7461300D01*
X4009288Y7470089D01*
X3994150Y7477201D01*
X3978300Y7482636D01*
X3961993Y7486294D01*
X3945382Y7488174D01*
X3928618Y7488174D01*
X3912006Y7486294D01*
X3895699Y7482636D01*
X3879850Y7477201D01*
X3864711Y7470089D01*
X3850487Y7461300D01*
X3837279Y7451039D01*
X3825290Y7439406D01*
X3814622Y7426452D01*
X3805478Y7412481D01*
X3797960Y7397546D01*
X3792067Y7381849D01*
X3787952Y7365644D01*
X3785666Y7349083D01*
X3785209Y7332370D01*
X3786581Y7315657D01*
X3789781Y7299248D01*
X3792169Y7291679D01*
X3792626Y7288072D01*
X3791712Y7284516D01*
X3789629Y7281468D01*
X3497884Y6989724D01*
X3494633Y6987540D01*
X3490722Y6986778D01*
X3398977Y6986778D01*
X3395573Y6987336D01*
X3392576Y6989064D01*
X3379876Y7005370D01*
X3369106Y7016140D01*
X3357067Y7025589D01*
X3344011Y7033463D01*
X3330092Y7039711D01*
X3315512Y7044283D01*
X3300476Y7047026D01*
X3285236Y7047941D01*
X3269996Y7047026D01*
X3254959Y7044283D01*
X3240379Y7039711D01*
X3226460Y7033463D01*
X3213404Y7025589D01*
X3201365Y7016140D01*
X3190595Y7005370D01*
X3181146Y6993331D01*
X3173272Y6980275D01*
X3167024Y6966356D01*
X3162452Y6951776D01*
X3159709Y6936740D01*
X3158794Y6921500D01*
X3159709Y6906259D01*
X3162452Y6891223D01*
X3167024Y6876643D01*
X3173272Y6862724D01*
X3181146Y6849668D01*
X3190595Y6837629D01*
X3201365Y6826859D01*
X3213404Y6817410D01*
X3226460Y6809536D01*
X3240379Y6803288D01*
X3254959Y6798716D01*
X3269996Y6795973D01*
G37*
G36*
X2785364Y7696758D02*
G01*
X2800604Y7697673D01*
X2815640Y7700416D01*
X2830220Y7704988D01*
X2844139Y7711236D01*
X2857195Y7719110D01*
X2869234Y7728559D01*
X2880004Y7739329D01*
X2889453Y7751368D01*
X2897327Y7764424D01*
X2903575Y7778343D01*
X2908147Y7792923D01*
X2910890Y7807959D01*
X2911805Y7823200D01*
X2910890Y7838440D01*
X2908147Y7853476D01*
X2903575Y7868056D01*
X2897327Y7881975D01*
X2889453Y7895031D01*
X2880004Y7907070D01*
X2869234Y7917840D01*
X2852928Y7930540D01*
X2851200Y7933537D01*
X2850642Y7936941D01*
X2850642Y8166658D01*
X2851200Y8170062D01*
X2852928Y8173059D01*
X2869234Y8185759D01*
X2880004Y8196529D01*
X2889453Y8208568D01*
X2897327Y8221624D01*
X2903575Y8235543D01*
X2908147Y8250123D01*
X2910890Y8265159D01*
X2911805Y8280400D01*
X2910890Y8295640D01*
X2908147Y8310676D01*
X2903575Y8325256D01*
X2897327Y8339175D01*
X2889453Y8352231D01*
X2880004Y8364270D01*
X2869234Y8375040D01*
X2857195Y8384489D01*
X2844139Y8392363D01*
X2830220Y8398611D01*
X2815640Y8403183D01*
X2800604Y8405926D01*
X2785364Y8406841D01*
X2770124Y8405926D01*
X2755087Y8403183D01*
X2740507Y8398611D01*
X2726588Y8392363D01*
X2713532Y8384489D01*
X2701493Y8375040D01*
X2690723Y8364270D01*
X2681274Y8352231D01*
X2673400Y8339175D01*
X2667152Y8325256D01*
X2662580Y8310676D01*
X2659837Y8295640D01*
X2658922Y8280400D01*
X2659837Y8265159D01*
X2662580Y8250123D01*
X2667152Y8235543D01*
X2673400Y8221624D01*
X2681274Y8208568D01*
X2690723Y8196529D01*
X2701493Y8185759D01*
X2717800Y8173059D01*
X2719527Y8170062D01*
X2720086Y8166658D01*
X2720086Y7936941D01*
X2719527Y7933537D01*
X2717800Y7930540D01*
X2701493Y7917840D01*
X2690723Y7907070D01*
X2681274Y7895031D01*
X2673400Y7881975D01*
X2667152Y7868056D01*
X2662580Y7853476D01*
X2659837Y7838440D01*
X2658922Y7823200D01*
X2659837Y7807959D01*
X2662580Y7792923D01*
X2667152Y7778343D01*
X2673400Y7764424D01*
X2681274Y7751368D01*
X2690723Y7739329D01*
X2701493Y7728559D01*
X2713532Y7719110D01*
X2726588Y7711236D01*
X2740507Y7704988D01*
X2755087Y7700416D01*
X2770124Y7697673D01*
G37*
G36*
X4749800Y7925358D02*
G01*
X4765040Y7926273D01*
X4780076Y7929016D01*
X4794656Y7933588D01*
X4808575Y7939836D01*
X4821631Y7947710D01*
X4833670Y7957159D01*
X4844440Y7967929D01*
X4853889Y7979968D01*
X4861763Y7993024D01*
X4868011Y8006943D01*
X4872583Y8021523D01*
X4875326Y8036559D01*
X4876241Y8051800D01*
X4875326Y8067040D01*
X4872583Y8082076D01*
X4868011Y8096656D01*
X4861763Y8110575D01*
X4853889Y8123631D01*
X4844440Y8135670D01*
X4833670Y8146440D01*
X4821631Y8155889D01*
X4808575Y8163763D01*
X4795723Y8169554D01*
X4792573Y8171738D01*
X4790490Y8174990D01*
X4789728Y8178800D01*
X4790490Y8182609D01*
X4792573Y8185861D01*
X4795723Y8188045D01*
X4808575Y8193836D01*
X4821631Y8201710D01*
X4833670Y8211159D01*
X4844440Y8221929D01*
X4853889Y8233968D01*
X4861763Y8247024D01*
X4868011Y8260943D01*
X4872583Y8275523D01*
X4875326Y8290559D01*
X4876241Y8305800D01*
X4875326Y8321040D01*
X4872583Y8336076D01*
X4868011Y8350656D01*
X4861763Y8364575D01*
X4853889Y8377631D01*
X4844440Y8389670D01*
X4833670Y8400440D01*
X4821631Y8409889D01*
X4808575Y8417763D01*
X4795723Y8423554D01*
X4792573Y8425738D01*
X4790490Y8428990D01*
X4789728Y8432800D01*
X4790490Y8436610D01*
X4792573Y8439861D01*
X4795723Y8442045D01*
X4808575Y8447836D01*
X4821631Y8455710D01*
X4833670Y8465159D01*
X4844440Y8475929D01*
X4853889Y8487968D01*
X4861763Y8501024D01*
X4868011Y8514943D01*
X4872583Y8529523D01*
X4875326Y8544560D01*
X4876241Y8559800D01*
X4875326Y8575040D01*
X4872583Y8590076D01*
X4868011Y8604656D01*
X4861763Y8618575D01*
X4853889Y8631631D01*
X4844440Y8643670D01*
X4833670Y8654440D01*
X4821631Y8663889D01*
X4808575Y8671763D01*
X4794656Y8678011D01*
X4780076Y8682583D01*
X4765040Y8685326D01*
X4749800Y8686241D01*
X4734560Y8685326D01*
X4719523Y8682583D01*
X4704943Y8678011D01*
X4691024Y8671763D01*
X4677968Y8663889D01*
X4665929Y8654440D01*
X4655159Y8643670D01*
X4645710Y8631631D01*
X4637836Y8618575D01*
X4631588Y8604656D01*
X4627016Y8590076D01*
X4624273Y8575040D01*
X4623358Y8559800D01*
X4624273Y8544560D01*
X4627016Y8529523D01*
X4631588Y8514943D01*
X4637836Y8501024D01*
X4645710Y8487968D01*
X4655159Y8475929D01*
X4665929Y8465159D01*
X4677968Y8455710D01*
X4691024Y8447836D01*
X4703876Y8442045D01*
X4707026Y8439861D01*
X4709109Y8436610D01*
X4709871Y8432800D01*
X4709109Y8428990D01*
X4707026Y8425738D01*
X4703876Y8423554D01*
X4691024Y8417763D01*
X4677968Y8409889D01*
X4665929Y8400440D01*
X4655159Y8389670D01*
X4645710Y8377631D01*
X4637836Y8364575D01*
X4631588Y8350656D01*
X4627016Y8336076D01*
X4624273Y8321040D01*
X4623358Y8305800D01*
X4624273Y8290559D01*
X4627016Y8275523D01*
X4631588Y8260943D01*
X4637836Y8247024D01*
X4645710Y8233968D01*
X4655159Y8221929D01*
X4665929Y8211159D01*
X4677968Y8201710D01*
X4691024Y8193836D01*
X4703876Y8188045D01*
X4707026Y8185861D01*
X4709109Y8182609D01*
X4709871Y8178800D01*
X4709109Y8174990D01*
X4707026Y8171738D01*
X4703876Y8169554D01*
X4691024Y8163763D01*
X4677968Y8155889D01*
X4665929Y8146440D01*
X4655159Y8135670D01*
X4645710Y8123631D01*
X4637836Y8110575D01*
X4631588Y8096656D01*
X4627016Y8082076D01*
X4624273Y8067040D01*
X4623358Y8051800D01*
X4624273Y8036559D01*
X4627016Y8021523D01*
X4631588Y8006943D01*
X4637836Y7993024D01*
X4645710Y7979968D01*
X4655159Y7967929D01*
X4665929Y7957159D01*
X4677968Y7947710D01*
X4691024Y7939836D01*
X4704943Y7933588D01*
X4719523Y7929016D01*
X4734560Y7926273D01*
G37*
G36*
X6703517Y8341868D02*
G01*
X6860082Y8341868D01*
X6869277Y8342680D01*
X6877710Y8344966D01*
X6885635Y8348675D01*
X6892848Y8353704D01*
X6898995Y8359851D01*
X6904024Y8367064D01*
X6907733Y8374989D01*
X6910019Y8383422D01*
X6910831Y8392617D01*
X6910831Y8549182D01*
X6910019Y8558377D01*
X6907733Y8566810D01*
X6904024Y8574735D01*
X6898995Y8581948D01*
X6892848Y8588095D01*
X6885635Y8593124D01*
X6877710Y8596833D01*
X6869277Y8599119D01*
X6860082Y8599881D01*
X6703517Y8599881D01*
X6694322Y8599119D01*
X6685889Y8596833D01*
X6677964Y8593124D01*
X6670751Y8588095D01*
X6664604Y8581948D01*
X6659575Y8574735D01*
X6655866Y8566810D01*
X6653580Y8558377D01*
X6652818Y8549182D01*
X6652818Y8392617D01*
X6653580Y8383422D01*
X6655866Y8374989D01*
X6659575Y8367064D01*
X6664604Y8359851D01*
X6670751Y8353704D01*
X6677964Y8348675D01*
X6685889Y8344966D01*
X6694322Y8342680D01*
G37*
G36*
X6273800Y8433358D02*
G01*
X6289040Y8434273D01*
X6304076Y8437016D01*
X6318656Y8441588D01*
X6332575Y8447836D01*
X6345631Y8455710D01*
X6357670Y8465159D01*
X6368440Y8475929D01*
X6377889Y8487968D01*
X6385763Y8501024D01*
X6392011Y8514943D01*
X6396583Y8529523D01*
X6399326Y8544560D01*
X6400241Y8559800D01*
X6399326Y8575040D01*
X6396583Y8590076D01*
X6392011Y8604656D01*
X6385763Y8618575D01*
X6377889Y8631631D01*
X6368440Y8643670D01*
X6357670Y8654440D01*
X6345631Y8663889D01*
X6332575Y8671763D01*
X6318656Y8678011D01*
X6304076Y8682583D01*
X6289040Y8685326D01*
X6273800Y8686241D01*
X6258560Y8685326D01*
X6243523Y8682583D01*
X6228943Y8678011D01*
X6215024Y8671763D01*
X6201968Y8663889D01*
X6189929Y8654440D01*
X6179159Y8643670D01*
X6169710Y8631631D01*
X6161836Y8618575D01*
X6155588Y8604656D01*
X6151016Y8590076D01*
X6148273Y8575040D01*
X6147358Y8559800D01*
X6148273Y8544560D01*
X6151016Y8529523D01*
X6155588Y8514943D01*
X6161836Y8501024D01*
X6169710Y8487968D01*
X6179159Y8475929D01*
X6189929Y8465159D01*
X6201968Y8455710D01*
X6215024Y8447836D01*
X6228943Y8441588D01*
X6243523Y8437016D01*
X6258560Y8434273D01*
G37*
G36*
X3553917Y9091168D02*
G01*
X3710482Y9091168D01*
X3719677Y9091980D01*
X3728110Y9094266D01*
X3736035Y9097975D01*
X3743248Y9103004D01*
X3749395Y9109151D01*
X3754424Y9116364D01*
X3758133Y9124289D01*
X3760419Y9132722D01*
X3761181Y9141917D01*
X3761181Y9298482D01*
X3760419Y9307677D01*
X3758133Y9316110D01*
X3754424Y9324035D01*
X3749395Y9331248D01*
X3743248Y9337395D01*
X3736035Y9342424D01*
X3728110Y9346133D01*
X3719677Y9348419D01*
X3710482Y9349181D01*
X3553917Y9349181D01*
X3544722Y9348419D01*
X3536289Y9346133D01*
X3528364Y9342424D01*
X3521151Y9337395D01*
X3515004Y9331248D01*
X3509975Y9324035D01*
X3506266Y9316110D01*
X3503980Y9307677D01*
X3503218Y9298482D01*
X3503218Y9141917D01*
X3503980Y9132722D01*
X3506266Y9124289D01*
X3509975Y9116364D01*
X3515004Y9109151D01*
X3521151Y9103004D01*
X3528364Y9097975D01*
X3536289Y9094266D01*
X3544722Y9091980D01*
G37*
G36*
X2590800Y9096146D02*
G01*
X2610408Y9097111D01*
X2629865Y9100007D01*
X2648915Y9104782D01*
X2667457Y9111386D01*
X2685186Y9119768D01*
X2702052Y9129877D01*
X2717850Y9141612D01*
X2732379Y9154820D01*
X2745587Y9169349D01*
X2757322Y9185148D01*
X2767431Y9202013D01*
X2775813Y9219742D01*
X2782417Y9238284D01*
X2787192Y9257334D01*
X2790088Y9276791D01*
X2791053Y9296400D01*
X2790088Y9316008D01*
X2787192Y9335465D01*
X2782417Y9354515D01*
X2775813Y9373057D01*
X2767431Y9390786D01*
X2757322Y9407652D01*
X2745587Y9423450D01*
X2732379Y9437979D01*
X2717850Y9451187D01*
X2702052Y9462922D01*
X2685186Y9473031D01*
X2667457Y9481413D01*
X2648915Y9488017D01*
X2629865Y9492792D01*
X2610408Y9495688D01*
X2590800Y9496653D01*
X2571191Y9495688D01*
X2551734Y9492792D01*
X2532684Y9488017D01*
X2514142Y9481413D01*
X2496413Y9473031D01*
X2479548Y9462922D01*
X2463749Y9451187D01*
X2449220Y9437979D01*
X2436012Y9423450D01*
X2424277Y9407652D01*
X2414168Y9390786D01*
X2405786Y9373057D01*
X2399182Y9354515D01*
X2394407Y9335465D01*
X2391511Y9316008D01*
X2390546Y9296400D01*
X2391511Y9276791D01*
X2394407Y9257334D01*
X2399182Y9238284D01*
X2405786Y9219742D01*
X2414168Y9202013D01*
X2424277Y9185148D01*
X2436012Y9169349D01*
X2449220Y9154820D01*
X2463749Y9141612D01*
X2479548Y9129877D01*
X2496413Y9119768D01*
X2514142Y9111386D01*
X2532684Y9104782D01*
X2551734Y9100007D01*
X2571191Y9097111D01*
G37*
G36*
X9372600Y9096146D02*
G01*
X9392208Y9097111D01*
X9411665Y9100007D01*
X9430715Y9104782D01*
X9449257Y9111386D01*
X9466986Y9119768D01*
X9483852Y9129877D01*
X9499650Y9141612D01*
X9514179Y9154820D01*
X9527387Y9169349D01*
X9539122Y9185148D01*
X9549231Y9202013D01*
X9557613Y9219742D01*
X9564217Y9238284D01*
X9568992Y9257334D01*
X9571888Y9276791D01*
X9572853Y9296400D01*
X9571888Y9316008D01*
X9568992Y9335465D01*
X9564217Y9354515D01*
X9557613Y9373057D01*
X9549231Y9390786D01*
X9539122Y9407652D01*
X9527387Y9423450D01*
X9514179Y9437979D01*
X9499650Y9451187D01*
X9483852Y9462922D01*
X9466986Y9473031D01*
X9449257Y9481413D01*
X9430715Y9488017D01*
X9411665Y9492792D01*
X9392208Y9495688D01*
X9372600Y9496653D01*
X9352991Y9495688D01*
X9333534Y9492792D01*
X9314484Y9488017D01*
X9295942Y9481413D01*
X9278213Y9473031D01*
X9261348Y9462922D01*
X9245549Y9451187D01*
X9231020Y9437979D01*
X9217812Y9423450D01*
X9206077Y9407652D01*
X9195968Y9390786D01*
X9187586Y9373057D01*
X9180982Y9354515D01*
X9176207Y9335465D01*
X9173311Y9316008D01*
X9172346Y9296400D01*
X9173311Y9276791D01*
X9176207Y9257334D01*
X9180982Y9238284D01*
X9187586Y9219742D01*
X9195968Y9202013D01*
X9206077Y9185148D01*
X9217812Y9169349D01*
X9231020Y9154820D01*
X9245549Y9141612D01*
X9261348Y9129877D01*
X9278213Y9119768D01*
X9295942Y9111386D01*
X9314484Y9104782D01*
X9333534Y9100007D01*
X9352991Y9097111D01*
G37*
G36*
X4927600Y9096146D02*
G01*
X4947208Y9097111D01*
X4966665Y9100007D01*
X4985715Y9104782D01*
X5004257Y9111386D01*
X5021986Y9119768D01*
X5038852Y9129877D01*
X5054650Y9141612D01*
X5069179Y9154820D01*
X5082387Y9169349D01*
X5094122Y9185148D01*
X5104231Y9202013D01*
X5112613Y9219742D01*
X5119217Y9238284D01*
X5123992Y9257334D01*
X5126888Y9276791D01*
X5127853Y9296400D01*
X5126888Y9316008D01*
X5123992Y9335465D01*
X5119217Y9354515D01*
X5112613Y9373057D01*
X5104231Y9390786D01*
X5094122Y9407652D01*
X5082387Y9423450D01*
X5069179Y9437979D01*
X5054650Y9451187D01*
X5038852Y9462922D01*
X5021986Y9473031D01*
X5004257Y9481413D01*
X4985715Y9488017D01*
X4966665Y9492792D01*
X4947208Y9495688D01*
X4927600Y9496653D01*
X4907991Y9495688D01*
X4888534Y9492792D01*
X4869484Y9488017D01*
X4850942Y9481413D01*
X4833213Y9473031D01*
X4816348Y9462922D01*
X4800549Y9451187D01*
X4786020Y9437979D01*
X4772812Y9423450D01*
X4761077Y9407652D01*
X4750968Y9390786D01*
X4742586Y9373057D01*
X4735982Y9354515D01*
X4731207Y9335465D01*
X4728311Y9316008D01*
X4727346Y9296400D01*
X4728311Y9276791D01*
X4731207Y9257334D01*
X4735982Y9238284D01*
X4742586Y9219742D01*
X4750968Y9202013D01*
X4761077Y9185148D01*
X4772812Y9169349D01*
X4786020Y9154820D01*
X4800549Y9141612D01*
X4816348Y9129877D01*
X4833213Y9119768D01*
X4850942Y9111386D01*
X4869484Y9104782D01*
X4888534Y9100007D01*
X4907991Y9097111D01*
G37*
G36*
X6525717Y9141968D02*
G01*
X6682282Y9141968D01*
X6691477Y9142780D01*
X6699910Y9145066D01*
X6707835Y9148775D01*
X6715048Y9153804D01*
X6721195Y9159951D01*
X6726224Y9167164D01*
X6729933Y9175089D01*
X6732219Y9183522D01*
X6733031Y9192717D01*
X6733031Y9349282D01*
X6732219Y9358477D01*
X6729933Y9366910D01*
X6726224Y9374835D01*
X6721195Y9382048D01*
X6715048Y9388195D01*
X6707835Y9393224D01*
X6699910Y9396933D01*
X6691477Y9399219D01*
X6682282Y9399981D01*
X6525717Y9399981D01*
X6516522Y9399219D01*
X6508089Y9396933D01*
X6500164Y9393224D01*
X6492951Y9388195D01*
X6486804Y9382048D01*
X6481775Y9374835D01*
X6478066Y9366910D01*
X6475780Y9358477D01*
X6475018Y9349282D01*
X6475018Y9192717D01*
X6475780Y9183522D01*
X6478066Y9175089D01*
X6481775Y9167164D01*
X6486804Y9159951D01*
X6492951Y9153804D01*
X6500164Y9148775D01*
X6508089Y9145066D01*
X6516522Y9142780D01*
G37*
G36*
X6195517Y9141968D02*
G01*
X6352082Y9141968D01*
X6361277Y9142780D01*
X6369710Y9145066D01*
X6377635Y9148775D01*
X6384848Y9153804D01*
X6390995Y9159951D01*
X6396024Y9167164D01*
X6399733Y9175089D01*
X6402019Y9183522D01*
X6402832Y9192717D01*
X6402832Y9349282D01*
X6402019Y9358477D01*
X6399733Y9366910D01*
X6396024Y9374835D01*
X6390995Y9382048D01*
X6384848Y9388195D01*
X6377635Y9393224D01*
X6369710Y9396933D01*
X6361277Y9399219D01*
X6352082Y9399981D01*
X6195517Y9399981D01*
X6186322Y9399219D01*
X6177889Y9396933D01*
X6169964Y9393224D01*
X6162751Y9388195D01*
X6156604Y9382048D01*
X6151575Y9374835D01*
X6147866Y9366910D01*
X6145580Y9358477D01*
X6144818Y9349282D01*
X6144818Y9192717D01*
X6145580Y9183522D01*
X6147866Y9175089D01*
X6151575Y9167164D01*
X6156604Y9159951D01*
X6162751Y9153804D01*
X6169964Y9148775D01*
X6177889Y9145066D01*
X6186322Y9142780D01*
G37*

%LPD*%
D11*
X5702300Y5130800D02*
G01*
X5892800Y5130800D01*
X6210300Y4813300D01*
X6553200Y4813300D01*
X8051800Y6311900D01*
X8051800Y7416800D01*
X9207500Y7289800D02*
G01*
X9080500Y7416800D01*
X8305800Y7416800D01*
X8051800Y7670800D02*
G01*
X7886700Y7835900D01*
X7454900Y7835900D01*
X7035800Y7416800D01*
X7035800Y6248400D01*
X6438900Y5651500D01*
X4864100Y5651500D01*
X4749800Y5765800D01*
X6019800Y5448300D02*
G01*
X5829300Y5257800D01*
X4749800Y5257800D01*
X8712200Y9207500D02*
G01*
X8394700Y8890000D01*
X6781800Y8890000D01*
X6489700Y8597900D01*
X6489700Y8128000D01*
X6413500Y8051800D01*
X6273800Y8051800D01*
X8915400Y8470900D02*
G01*
X8420100Y7975600D01*
X7454900Y7975600D01*
X6921500Y7442200D01*
X6921500Y6413500D01*
X6273800Y5765800D01*
X8610600Y8470900D02*
G01*
X8216900Y8077200D01*
X7378700Y8077200D01*
X6781800Y7480300D01*
X6781800Y6527800D01*
X6273800Y6019800D01*
X8305800Y8470900D02*
G01*
X8013700Y8178800D01*
X7315200Y8178800D01*
X6667500Y7531100D01*
X6667500Y6667500D01*
X6273800Y6273800D01*
X8001000Y8470900D02*
G01*
X7810500Y8280400D01*
X7239000Y8280400D01*
X6553200Y7594600D01*
X6553200Y6807200D01*
X6273800Y6527800D01*
X3937000Y7852663D02*
G01*
X4499863Y7289800D01*
X4749800Y7289800D01*
X4267200Y5080000D02*
G01*
X4495800Y5308600D01*
X4495800Y6527800D01*
X4749800Y6781800D01*
X4267200Y5499100D02*
G01*
X4267200Y6553200D01*
X4749800Y7035800D01*
X2785363Y7823200D02*
G01*
X2785363Y8280400D01*
X2785363Y6921500D02*
G01*
X2785363Y7378700D01*
X3937000Y7336536D02*
G01*
X3521963Y6921500D01*
X3285236Y6921500D01*
X3937000Y7852663D02*
G01*
X3907536Y7823200D01*
X3285236Y7823200D01*
D13*
G01*
X2679700Y5168900D03*
G01*
X2679700Y5422900D03*
D14*
G01*
X3285236Y7823200D03*
G01*
X2785363Y7823200D03*
G01*
X3285236Y6921500D03*
G01*
X2785363Y6921500D03*
G01*
X2785363Y8280400D03*
G01*
X3285236Y8280400D03*
G01*
X2785363Y7378700D03*
G01*
X3285236Y7378700D03*
D15*
G01*
X2997200Y5499100D03*
G01*
X4267200Y5499100D03*
G01*
X2997200Y5080000D03*
G01*
X4267200Y5080000D03*
D14*
G01*
X4749800Y8559800D03*
G01*
X4749800Y8305800D03*
G01*
X4749800Y8051800D03*
G01*
X4749800Y7797800D03*
G01*
X4749800Y7543800D03*
G01*
X4749800Y7289800D03*
G01*
X4749800Y7035800D03*
G01*
X4749800Y6781800D03*
G01*
X4749800Y6527800D03*
G01*
X4749800Y6273800D03*
G01*
X4749800Y6019800D03*
G01*
X4749800Y5765800D03*
G01*
X4749800Y5511800D03*
G01*
X4749800Y5257800D03*
G01*
X4749800Y5003800D03*
G01*
X6273800Y5003800D03*
G01*
X6273800Y5257800D03*
G01*
X6273800Y5511800D03*
G01*
X6273800Y5765800D03*
G01*
X6273800Y6019800D03*
G01*
X6273800Y6273800D03*
G01*
X6273800Y6527800D03*
G01*
X6273800Y6781800D03*
G01*
X6273800Y7035800D03*
G01*
X6273800Y7289800D03*
G01*
X6273800Y7543800D03*
G01*
X6273800Y7797800D03*
G01*
X6273800Y8051800D03*
G01*
X6273800Y8305800D03*
G01*
X6273800Y8559800D03*
D16*
G01*
X3937000Y7852663D03*
G01*
X3937000Y7336536D03*
D17*
G01*
X6604000Y9271000D03*
G01*
X8915400Y8470900D03*
G01*
X8610600Y8470900D03*
G01*
X8305800Y8470900D03*
G01*
X8001000Y8470900D03*
G01*
X7696200Y8470900D03*
G01*
X7391400Y8470900D03*
G01*
X7086600Y8470900D03*
G01*
X6781800Y8470900D03*
G01*
X2933700Y6146800D03*
G01*
X3441700Y6146800D03*
G01*
X3949700Y6146800D03*
G01*
X8712200Y9207500D03*
G01*
X3632200Y9220200D03*
G01*
X3962400Y9220200D03*
G01*
X6934200Y9271000D03*
G01*
X6273800Y9271000D03*
D18*
G01*
X9220200Y7289800D03*
G01*
X9220200Y7797800D03*
D14*
G01*
X7543800Y7429500D03*
G01*
X7797800Y7429500D03*
G01*
X8051800Y7429500D03*
G01*
X8305800Y7429500D03*
G01*
X7543800Y7683500D03*
G01*
X7797800Y7683500D03*
G01*
X8051800Y7683500D03*
G01*
X8305800Y7683500D03*
D12*
G01*
X6019800Y5448300D03*
G01*
X5702300Y5130800D03*
M02*
